<svg xmlns="http://www.w3.org/2000/svg" width="375" height="270" viewBox="0 0 375 270">
  <g id="camera-graphic" transform="translate(-204.777 -302.79)">
    <path id="Path_33559" data-name="Path 33559" d="M594.962,488.973c-20.19-20.056-51.212-22.574-78.935-29-44.268-10.255-85.012-32.986-129.561-41.94-16.214-3.259-33.6-4.537-48.817,1.937-12.1,5.148-21.8,14.806-29.5,25.465-18.856,26.078-27,61.664-14.141,91.162,12.9,29.584,43.087,47.123,71.379,62.655,16.818,9.232,34.474,18.858,52.7,24.857h67.789c39.907-9.529,53.844-44.014,89.421-64.451,7.377-4.238,15.217-7.725,22.111-12.71s12.939-11.81,14.765-20.119c3.5-15.909-8.931-30.531-20.686-41.8" transform="translate(-82.985 -112.561)" fill="#f0eefc"/>
    <path id="Path_33555" data-name="Path 33555" d="M579.338,506.6a18.48,18.48,0,0,0-4.036-7.735c-5.371-6.289-13.038-9.159-20.522-11.958-35.467-13.271-72.79-28.72-94.4-59.647-7.165-10.254-12.784-22.36-23.555-28.791-11.811-7.054-27.337-5.3-39.525,1.091s-21.7,16.763-30.708,27.124-17.956,21.089-29.506,28.557c-14.654,9.476-32.295,12.959-49.4,16.563s-34.721,7.771-48.65,18.271-23.21,29.075-17.6,45.523c5.958,17.46,25.131,25.956,41.308,35,12.147,6.788,23.565,14.9,35.215,22.533h188.8l78.617-61.968C573.21,524.986,581.835,517.317,579.338,506.6Z" transform="translate(0 -20.935)" fill="#d8d2fc"/>
    <path id="Path_33355" data-name="Path 33355" d="M457.26,286.974h8.379l15.194.114c46.115-64.66,76.334-80.591,107.744-98.992-6.858-2.922-15.666-7.305-21-12.588,10.42,1.652,19.609,4.477,30.061,7.554,13.548-16.253,28.895-24.022,13.657-48.077-22.1-34.884-91.762,9.824-111.347,30.513a126.209,126.209,0,0,0,.554,30.855,33.89,33.89,0,0,1-15.322-15.283C468.8,204.158,453.658,242.051,457.26,286.974Zm66.15-69.39a3.874,3.874,0,0,1,4.74-3.3,4.3,4.3,0,0,1,3.394,4.967,3.7,3.7,0,0,1-4.6,3.175A4.19,4.19,0,0,1,523.41,217.584Z" transform="translate(-37.846 284.18)" fill="#b8b8b8"/>
    <path id="Path_33356" data-name="Path 33356" d="M597.18,139.523c-87.825,53.329-94.835,65.177-133.742,142.846" transform="translate(-35.748 289.627)" fill="none" stroke="#fff" stroke-miterlimit="10" stroke-width="0.75"/>
    <path id="Path_33357" data-name="Path 33357" d="M564.26,166.822c-7.011-3.02-12.815-5.648-20.03-8.138,2.258-8.534,3.637-16.955,6.032-25.448" transform="translate(-10.499 287.663)" fill="none" stroke="#fff" stroke-miterlimit="10" stroke-width="0.75"/>
    <path id="Path_33358" data-name="Path 33358" d="M550.351,182.806c-10.654-2.324-21.337-3.972-32.166-5.232a177.141,177.141,0,0,1,3.947-29.1" transform="translate(-18.639 292.423)" fill="none" stroke="#fff" stroke-miterlimit="10" stroke-width="0.75"/>
    <path id="Path_33359" data-name="Path 33359" d="M534.533,193.523c-10.429-.9-21.6-1.543-32.069-1.417a217.4,217.4,0,0,1-.241-30.063" transform="translate(-23.753 296.665)" fill="none" stroke="#fff" stroke-miterlimit="10" stroke-width="0.75"/>
    <path id="Path_33360" data-name="Path 33360" d="M515.063,207.9a87.9,87.9,0,0,0-24.776,2.744c-3.875-9.025-9.946-18.042-12.218-27.6" transform="translate(-31.176 303.228)" fill="none" stroke="#fff" stroke-miterlimit="10" stroke-width="0.75"/>
    <path id="Path_33361" data-name="Path 33361" d="M501.912,219.621c-8.563,1.916-14.745,6.076-21.929,10.889-6.263-8.245-13.079-16.85-18.008-25.954" transform="translate(-36.205 309.951)" fill="none" stroke="#fff" stroke-miterlimit="10" stroke-width="1"/>
    <path id="Path_33362" data-name="Path 33362" d="M531.107,138.487c-1.546,2.276-.9,4.776,1.637,5.774a6.236,6.236,0,0,0,7.16-2.15,3.638,3.638,0,0,0-1.617-5.807A5.993,5.993,0,0,0,531.107,138.487Z" transform="translate(-14.86 288.481)" fill="none" stroke="#fff" stroke-miterlimit="10" stroke-width="0.75"/>
    <path id="Path_33384" data-name="Path 33384" d="M582.022,129.769c-3.229-1.505-4.9-3.451-8.807-3.843-17.935-1.8-35.661,3.953-51.685,12.176" transform="translate(-17.593 285.275)" fill="none" stroke="#fff" stroke-miterlimit="10" stroke-width="1"/>
    <path id="Path_33385" data-name="Path 33385" d="M576.239,142.925a30.992,30.992,0,0,0-4.753-10.291" transform="translate(-1.981 287.475)" fill="none" stroke="#fff" stroke-miterlimit="10" stroke-width="1"/>
    <path id="Path_33386" data-name="Path 33386" d="M557.877,164.682c-4.753-1.247-9.559-2.352-14.39-3.247" transform="translate(-10.731 296.475)" fill="none" stroke="#fff" stroke-miterlimit="10" stroke-width="1"/>
    <path id="Path_33387" data-name="Path 33387" d="M561.036,165.889c-1.457-.441-2.909-.9-4.36-1.353" transform="translate(-6.61 297.444)" fill="none" stroke="#fff" stroke-miterlimit="10" stroke-width="1"/>
    <path id="Path_33388" data-name="Path 33388" d="M484.677,179.643c-3.09-1.9-6.229-3.956-7.887-7.263" transform="translate(-31.575 299.896)" fill="none" stroke="#fff" stroke-miterlimit="10" stroke-width="1"/>
    <path id="Path_33389" data-name="Path 33389" d="M489.318,180.911c-1.528-.617-3.04-1.227-4.531-1.935" transform="translate(-29.076 301.957)" fill="none" stroke="#fff" stroke-miterlimit="10" stroke-width="1"/>
    <path id="Path_33390" data-name="Path 33390" d="M505.965,213.488c-5.591,7.62-9.127,16.476-14.844,24.014" transform="translate(-27.096 312.742)" fill="none" stroke="#fff" stroke-miterlimit="10" stroke-width="1"/>
    <path id="Path_33391" data-name="Path 33391" d="M508.113,207.366c-1.141,1.432-2.348,2.8-3.563,4.17" transform="translate(-22.9 310.829)" fill="none" stroke="#fff" stroke-miterlimit="10" stroke-width="1"/>
    <path id="Path_33454" data-name="Path 33454" d="M283.935,184.8a14.159,14.159,0,0,0,5.875-9.006c1.071-6.039-1.041-10.716.5-12.864C290.312,162.934,276.672,175.267,283.935,184.8Z" transform="translate(-68.531 210.202)" fill="#5b5b5b"/>
    <path id="Path_33455" data-name="Path 33455" d="M292.98,201.663a14.158,14.158,0,0,0,5.875-9c1.071-6.041-1.042-10.718.5-12.865C299.357,179.794,285.717,192.127,292.98,201.663Z" transform="translate(-62.245 221.92)" fill="#5b5b5b"/>
    <path id="Path_33456" data-name="Path 33456" d="M301.354,194.565a14.156,14.156,0,0,0-9.743-4.546c-6.133-.208-10.464,2.544-12.808,1.319C278.8,191.337,292.936,203.1,301.354,194.565Z" transform="translate(-70.618 229.019)" fill="#5b5b5b"/>
    <path id="Path_33457" data-name="Path 33457" d="M301.807,212.651a14.152,14.152,0,0,0,5.875-9c1.071-6.041-1.042-10.716.5-12.865C308.184,190.782,294.544,203.115,301.807,212.651Z" transform="translate(-56.109 229.558)" fill="#5b5b5b"/>
    <path id="Path_33458" data-name="Path 33458" d="M310.181,205.552a14.158,14.158,0,0,0-9.743-4.544c-6.133-.208-10.464,2.543-12.808,1.317C287.63,202.325,301.763,214.088,310.181,205.552Z" transform="translate(-64.483 236.657)" fill="#5b5b5b"/>
    <path id="Path_33459" data-name="Path 33459" d="M310.526,223.575a12.5,12.5,0,0,0,5.189-7.953c.946-5.336-.92-9.465.442-11.362C316.156,204.26,304.11,215.152,310.526,223.575Z" transform="translate(-49.877 238.925)" fill="#5b5b5b"/>
    <path id="Path_33460" data-name="Path 33460" d="M317.921,217.3a12.506,12.506,0,0,0-8.608-4.014c-5.416-.185-9.24,2.246-11.311,1.163C298,214.454,310.487,224.844,317.921,217.3Z" transform="translate(-57.273 245.195)" fill="#5b5b5b"/>
    <path id="Path_33461" data-name="Path 33461" d="M284.456,173.362s-6.565,9.224,9.889,28.328,55.213,60.394,46.9,99.079" transform="translate(-67.588 217.45)" fill="none" stroke="#5b5b5b" stroke-miterlimit="10" stroke-width="0.75"/>
    <path id="Path_33462" data-name="Path 33462" d="M313.271,207.307s-3.671,5.87-3.385,11.845" transform="translate(-49.025 241.043)" fill="none" stroke="#fff" stroke-miterlimit="10" stroke-width="1"/>
    <path id="Path_33463" data-name="Path 33463" d="M314.2,216.513a18.258,18.258,0,0,0-14-1.456" transform="translate(-55.746 245.871)" fill="none" stroke="#fff" stroke-miterlimit="10" stroke-width="1"/>
    <path id="Path_33464" data-name="Path 33464" d="M305.861,203.984s-9.07-2.224-16.137-1.365" transform="translate(-63.027 237.648)" fill="none" stroke="#fff" stroke-miterlimit="10" stroke-width="1"/>
    <path id="Path_33465" data-name="Path 33465" d="M305.061,193.413s-4.033,8.172-3.7,14.042" transform="translate(-54.952 231.386)" fill="none" stroke="#fff" stroke-miterlimit="10" stroke-width="1"/>
    <path id="Path_33466" data-name="Path 33466" d="M296.651,182.025s-4.575,8.109-4.543,15.047" transform="translate(-61.371 223.471)" fill="none" stroke="#fff" stroke-miterlimit="10" stroke-width="1"/>
    <path id="Path_33467" data-name="Path 33467" d="M297.159,193.173s-10.813-2.714-15.8-1.4" transform="translate(-68.844 229.997)" fill="none" stroke="#fff" stroke-miterlimit="10" stroke-width="1"/>
    <path id="Path_33468" data-name="Path 33468" d="M286.859,165.689a70.159,70.159,0,0,0-3.492,15.067" transform="translate(-67.446 212.117)" fill="none" stroke="#fff" stroke-miterlimit="10" stroke-width="1"/>
    <rect id="Rectangle_8612" data-name="Rectangle 8612" width="86.388" height="6.093" rx="3.046" transform="translate(280.21 550.005) rotate(-116.622)" fill="#000e1b"/>
    <rect id="Rectangle_8613" data-name="Rectangle 8613" width="86.388" height="6.093" rx="3.046" transform="translate(280.21 550.005) rotate(-116.622)" fill="#000e1b"/>
    <path id="Path_33612" data-name="Path 33612" d="M312.209,449.45a9.467,9.467,0,0,0-6.838,2.608c-2.266,2.183-3.366,5.438-5.871,7.341-2.822,2.144-6.827,2.116-9.723,4.16a7.985,7.985,0,0,0-1.806,11.288,10.727,10.727,0,0,0,5.394,3.594,31.922,31.922,0,0,0,6.474,1.15c4.632.5,9.368.989,13.908-.057a11.191,11.191,0,0,0,6.127-3.31c1.693-1.988,2.235-4.682,2.718-7.247.5-2.653.986-5.47.012-7.988-.633-1.639-1.849-3.028-2.317-4.721a8,8,0,0,1-.217-1.136,6.572,6.572,0,0,0-7.23-5.791l-.177.023" transform="translate(-33.964 -22.44)" fill="#000e1b"/>
    <path id="Path_33613" data-name="Path 33613" d="M311.684,450.779a7.321,7.321,0,0,0-6.126,3.527,18.955,18.955,0,0,1-5.229,6.33c-2.513,1.849-6.081,1.826-8.659,3.588" transform="translate(-34.215 -22.511)" fill="none" stroke="#082a44" stroke-miterlimit="10" stroke-width="1"/>
    <rect id="Rectangle_8614" data-name="Rectangle 8614" width="43.309" height="10.727" transform="translate(272.243 506.84) rotate(-7.577)" fill="#565557"/>
    <path id="Path_33614" data-name="Path 33614" d="M341.573,487.822a10.179,10.179,0,1,1-5.513-13.3A10.178,10.178,0,0,1,341.573,487.822Z" transform="translate(-35.659 -23.605)" fill="#e5f3ff"/>
    <path id="Path_33615" data-name="Path 33615" d="M341.573,487.822a10.179,10.179,0,1,1-5.513-13.3A10.178,10.178,0,0,1,341.573,487.822Z" transform="translate(-35.659 -23.605)" fill="#464646" stroke="#262626" stroke-miterlimit="10" stroke-width="1"/>
    <path id="Path_33616" data-name="Path 33616" d="M395.513,453.661c-5.171,9.16-22.764,34.406-22.764,34.406l-22.935-9.147-7.541,18.905,29.609,11.8a11.942,11.942,0,0,0,14.679-4.982l23.106-37.817c.7-1.22,1.587-2.014,1.692-5.841" transform="translate(-36.626 -22.648)" fill="#ffac9c" stroke="#262626" stroke-miterlimit="10" stroke-width="1"/>
    <rect id="Rectangle_8615" data-name="Rectangle 8615" width="19.393" height="17.29" transform="translate(305.828 474.725) rotate(-68.255)" fill="#e6aca1"/>
    <path id="Path_33617" data-name="Path 33617" d="M336.267,474.563l27.357,11.163-10.974,24.3-26.315-17.859" transform="translate(-35.867 -23.644)" fill="#464646" stroke="#262626" stroke-miterlimit="10" stroke-width="1"/>
    <path id="Path_33619" data-name="Path 33619" d="M393.416,415.014l-1.549.86c-.823.7-1.03,1.088,1.519,17.653l1.362,10.45a1.047,1.047,0,0,0,.8.884l4.4,1.033,9.309-14.785-2.886-16.548a1.861,1.861,0,0,0-2.156-1.514l-10.4,1.826A1.291,1.291,0,0,0,393.416,415.014Z" transform="translate(-38.962 -20.712)" fill="#ffa400" stroke="#262626" stroke-miterlimit="10" stroke-width="1"/>
    <path id="Path_33621" data-name="Path 33621" d="M392.429,429.67c.955.094,7.925.911,10.682,2.585" transform="translate(-39.015 -21.505)" fill="#ffac9c" stroke="#262626" stroke-linecap="round" stroke-miterlimit="10" stroke-width="1"/>
    <path id="Path_33622" data-name="Path 33622" d="M414.171,432.823c-1.427-5.449-2.63-6.629-1.391-11.867.812-3.437-1.034-5.431-3.445-2.659-3.943,4.533-3.578,11.95-2.711,14.485Z" transform="translate(-39.664 -20.901)" fill="#ffac9c" stroke="#262626" stroke-miterlimit="10" stroke-width="1"/>
    <path id="Path_33623" data-name="Path 33623" d="M399.475,456.511s.47,1.231-1.146-2.208-.028-12-.021-13.582a4.463,4.463,0,0,0-.171-1.845,11.472,11.472,0,0,1-1.367-.506c.485-2.8-1.6-7.549-1.161-8.8.977-2.794,6.872-4.016,6.872-4.016-1.332-1.694-3.752-2.491-6.721-4.607-3.824-2.725.066-4.2,3.782-2.928,11.781,4.027,14.005,13.37,14.66,17.489a57.364,57.364,0,0,1,.141,13.083c-.129,1.241-.534,12.425-.534,12.425" transform="translate(-39.099 -20.929)" fill="#ffac9c" stroke="#262626" stroke-miterlimit="10" stroke-width="1"/>
    <path id="Path_33624" data-name="Path 33624" d="M403.76,426.406c-4.2-1.5-11.984-.2-12.2,2.151-.219,2.4,4.02,2.239,4.02,2.239-1.166.238-3.159.431-3.423,2.648a1.9,1.9,0,0,0,1.762,2.191,3.08,3.08,0,0,0-1.129,2.387c-.022,2.4,3.413.926,5.682,3.2" transform="translate(-38.973 -21.319)" fill="#ffac9c" stroke="#262626" stroke-linecap="round" stroke-miterlimit="10" stroke-width="1"/>
    <path id="Path_33625" data-name="Path 33625" d="M395.784,431.041c1.138.117,5.052-.616,8.437.472" transform="translate(-39.175 -21.564)" fill="#ffac9c" stroke="#262626" stroke-linecap="round" stroke-miterlimit="10" stroke-width="1"/>
    <path id="Path_33626" data-name="Path 33626" d="M394.04,436.1a10.584,10.584,0,0,1,7.307.106" transform="translate(-39.092 -21.783)" fill="#ffac9c" stroke="#262626" stroke-linecap="round" stroke-miterlimit="10" stroke-width="1"/>
    <path id="Path_33627" data-name="Path 33627" d="M349.792,524.738h0a4.611,4.611,0,0,0,3.469-6.727L340.94,494.717l-5.7-10.784-5.344-10.1-10.607,1.411s-1.3,2.242-3.248,2.5-4.541-1.465-4.541-1.465l-11.367,1.512.084,46.847a5.875,5.875,0,0,0,6.649,5.813h0" transform="translate(-34.618 -23.609)" fill="#565557" stroke="#262626" stroke-miterlimit="10" stroke-width="1"/>
    <path id="Path_33629" data-name="Path 33629" d="M311.359,474.351l-3.912-11.39a6.734,6.734,0,0,1,3.9-8.431l5.433-2.147a.529.529,0,0,1,.641.2,34.263,34.263,0,0,1,3.519,8.428c1.645,6.111-1.247,9.474-3.607,10.082l1.709,2.493s-.605,2.905-2.526,3.1S311.359,474.351,311.359,474.351Z" transform="translate(-34.95 -22.585)" fill="#ffac9c" stroke="#262626" stroke-miterlimit="10" stroke-width="1"/>
    <path id="Path_33630" data-name="Path 33630" d="M317.431,471.571c-1.684.473-5.079-.107-5.079-.107s1.815,1.827,5.827,1.667Z" transform="translate(-35.2 -23.496)" fill="#262626"/>
    <path id="Path_33632" data-name="Path 33632" d="M355.07,517.085l-26.87,20.41-4.665,9.8s5.642,12.2,15.906,17.555c13.16,6.864,47.392-20.26,70.536-37.137,0,0-1.991-4.347-7.931-15.516-5.335-10.032-8.245-16.126-8.245-16.126Z" transform="translate(-35.733 -24.667)" fill="#ddd" stroke="#262626" stroke-miterlimit="10" stroke-width="1"/>
    <ellipse id="Ellipse_3744" data-name="Ellipse 3744" cx="3.76" cy="18.22" rx="3.76" ry="18.22" transform="matrix(0.89, -0.456, 0.456, 0.89, 354.608, 472.641)" fill="#262626"/>
    <path id="Path_33633" data-name="Path 33633" d="M397.17,495.568a1.2,1.2,0,0,0-.536.822l1.469-.8A1.159,1.159,0,0,0,397.17,495.568Z" transform="translate(-39.215 -24.64)" fill="#262626"/>
    <path id="Path_33634" data-name="Path 33634" d="M414.4,488.3l-16.3,6.89-1.468.8c-.63,2.426,1.553,9.418,5.488,17.11a56.1,56.1,0,0,0,8.316,11.97l7.088-4.658,67.52,59.272,20.74-23.469-74.95-65.289A15.705,15.705,0,0,0,414.4,488.3Z" transform="translate(-39.21 -24.239)" fill="#e8968b" stroke="#262626" stroke-miterlimit="10" stroke-width="1"/>
    <path id="Rectangle_8616" data-name="Rectangle 8616" d="M19.416,0h7.4a0,0,0,0,1,0,0V51.424a0,0,0,0,1,0,0H0a0,0,0,0,1,0,0V19.416A19.416,19.416,0,0,1,19.416,0Z" transform="translate(477.402 515.379) rotate(40.649)" fill="#111010" stroke="#262626" stroke-miterlimit="10" stroke-width="1"/>
    <rect id="Rectangle_8617" data-name="Rectangle 8617" width="4.028" height="51.424" transform="translate(494.691 530.224) rotate(40.649)"/>
    <circle id="Ellipse_3745" data-name="Ellipse 3745" cx="1.141" cy="1.141" r="1.141" transform="translate(472.799 527.197)" fill="#fff"/>
    <circle id="Ellipse_3746" data-name="Ellipse 3746" cx="1.141" cy="1.141" r="1.141" transform="translate(469.224 529.348)" fill="#fff"/>
    <circle id="Ellipse_3747" data-name="Ellipse 3747" cx="1.141" cy="1.141" r="1.141" transform="translate(477.137 526.254)" fill="#fff"/>
    <circle id="Ellipse_3748" data-name="Ellipse 3748" cx="1.141" cy="1.141" r="1.141" transform="translate(481.609 526.124)" fill="#fff"/>
    <path id="Path_33635" data-name="Path 33635" d="M318.455,539.407h0l-9.386,3.678s3.758,17.609,11.958,25.779c10.514,10.476,51.278-5.2,78.4-14.409,0,0-.6-4.743-2.943-17.176-2.1-11.166-3.059-17.851-3.059-17.851S339.58,531.773,318.455,539.407Z" transform="translate(-35.044 -25.781)" fill="#fff" stroke="#262626" stroke-miterlimit="10" stroke-width="1"/>
    <ellipse id="Ellipse_3749" data-name="Ellipse 3749" cx="3.76" cy="18.22" rx="3.76" ry="18.22" transform="translate(354.71 493.802) rotate(-9.746)" fill="#262626"/>
    <path id="Path_33636" data-name="Path 33636" d="M398.356,518.748a1.206,1.206,0,0,0-.757.625l1.64-.323A1.163,1.163,0,0,0,398.356,518.748Z" transform="translate(-39.261 -25.748)" fill="#262626"/>
    <path id="Path_33637" data-name="Path 33637" d="M408.742,515.618l-11.192,3.561c-1.324,2.128-1.327,9.453.136,17.969a56.072,56.072,0,0,0,4.368,13.906l17.405-3.036,85.564,35.192,11.913-28.965L422.37,516.13A20.128,20.128,0,0,0,408.742,515.618Z" transform="translate(-39.212 -25.554)" fill="#ffac9c" stroke="#262626" stroke-miterlimit="10" stroke-width="1"/>
    <path id="Rectangle_8618" data-name="Rectangle 8618" d="M19.416,0h7.4a0,0,0,0,1,0,0V51.424a0,0,0,0,1,0,0H0a0,0,0,0,1,0,0V19.416A19.416,19.416,0,0,1,19.416,0Z" transform="translate(482.526 509.463) rotate(21.541)" fill="#1c191a" stroke="#262626" stroke-miterlimit="10" stroke-width="1"/>
    <rect id="Rectangle_8619" data-name="Rectangle 8619" width="4.028" height="51.424" transform="translate(503.723 517.831) rotate(21.541)" fill="#210101"/>
    <circle id="Ellipse_3750" data-name="Ellipse 3750" cx="1.141" cy="1.141" r="1.141" transform="translate(482.356 521.7)" fill="#fff"/>
    <circle id="Ellipse_3751" data-name="Ellipse 3751" cx="1.141" cy="1.141" r="1.141" transform="translate(479.683 524.902)" fill="#fff"/>
    <circle id="Ellipse_3752" data-name="Ellipse 3752" cx="1.141" cy="1.141" r="1.141" transform="translate(486.147 519.389)" fill="#fff"/>
    <circle id="Ellipse_3753" data-name="Ellipse 3753" cx="1.141" cy="1.141" r="1.141" transform="translate(490.33 517.802)" fill="#fff"/>
    <rect id="Rectangle_8620" data-name="Rectangle 8620" width="154.413" height="6.093" rx="3.046" transform="translate(278.81 543.49)" fill="#000e1b"/>
    <rect id="Rectangle_8621" data-name="Rectangle 8621" width="30.273" height="6.093" rx="3.046" transform="matrix(-0.369, 0.929, -0.929, -0.369, 285.504, 544.653)" fill="#000e1b"/>
    <rect id="Rectangle_8622" data-name="Rectangle 8622" width="28.436" height="6.093" rx="3.046" transform="matrix(0.369, 0.929, -0.929, 0.369, 414.3, 544.112)" fill="#000e1b"/>
    <path id="Path_33638" data-name="Path 33638" d="M364.1,563.282c1.469-.865,2.646-.7,5.439-.493s5.344-3.76,2.176-3.647-8.993-1.433-11.572-2.153c-1.933-.389-5.131-.645-7.23-1.02a13.331,13.331,0,0,1-1.418-.5c-2.773-1.211-5.071-2.827-8.075-2.2a9.28,9.28,0,0,0-3.307,16.787l-.007.008a125.4,125.4,0,0,0,12.357,10.434c6.528,4.575,14.285,6.08,15.414,3.311.47-1.153-3.4-2.415-5.712-3.387-1.585-.665-2.237-1.735-2.071-1.866,0,0,12.076,4.761,13.275,2.089.716-1.6-.283-1.862-3.579-2.881a24.112,24.112,0,0,1-6.6-3.359c-.081-.168,8.331,4.028,12.231,3.217,2.343-.487,1.888-2.51-1.545-3.889s-8.9-4.193-8.9-4.193c2.748,1.815,12.048,4.927,12.881,2.8,1.156-2.964-4.449-3.4-8.326-5.306a62.873,62.873,0,0,1-8.75-5.71" transform="translate(-36.328 -27.386)" fill="#ffac9c" stroke="#262626" stroke-linecap="round" stroke-miterlimit="10" stroke-width="1"/>
    <path id="Path_33639" data-name="Path 33639" d="M349.093,553.38l-39.217-20.095.581-21.615-20.343-.686-.891,26.7a12.229,12.229,0,0,0,6.63,11.283l42.889,19.9" transform="translate(-34.098 -25.378)" fill="#ffac9c" stroke="#262626" stroke-miterlimit="10" stroke-width="1"/>
    <rect id="Rectangle_8623" data-name="Rectangle 8623" width="19.406" height="9.231" transform="translate(256.488 485.623) rotate(1.931)" fill="#e6aca1"/>
    <path id="Path_33640" data-name="Path 33640" d="M300.8,498.245a10.179,10.179,0,1,1,10.529-9.815A10.178,10.178,0,0,1,300.8,498.245Z" transform="translate(-34.182 -23.803)" fill="#565557" stroke="#262626" stroke-miterlimit="10" stroke-width="1"/>
    <path id="Path_33641" data-name="Path 33641" d="M310.97,488.8l-1.037,29.523-26.456-1.775,7.53-30.9" transform="translate(-33.825 -24.172)" fill="#565557" stroke="#262626" stroke-miterlimit="10" stroke-width="1"/>
  </g>
</svg>
