<svg xmlns="http://www.w3.org/2000/svg" xmlns:xlink="http://www.w3.org/1999/xlink" width="375" height="416" viewBox="0 0 375 416">
  <defs>
    <clipPath id="clip-path">
      <rect id="Rectangle_8672" data-name="Rectangle 8672" width="366.268" height="410" transform="translate(0)" fill="#fff" stroke="#707070" stroke-width="1"/>
    </clipPath>
  </defs>
  <g id="congrats-graphic" transform="translate(0.366 -118)">
    <path id="Path_34406" data-name="Path 34406" d="M483.526,2834.415a129.242,129.242,0,0,0,15.7-8.306,170.229,170.229,0,0,0,71.6-85.756c12.537-33.486,14.113-69.921,15.552-105.647,2.058-51.1,4.079-102.751-5.65-152.962-3.241-16.724-8.333-34.153-20.9-45.66-18.763-17.184-49.271-15.476-71.207-2.583s-37.1,34.533-50.828,55.957c-30.42,47.488-58.1,98.28-101.138,134.73-21.725,18.4-47.815,33.754-60.521,59.23-12.425,24.911-9.179,55.653,3.61,80.38s35.6,42.063,57.1,59.76a107.022,107.022,0,0,0,15.712,10.891Z" transform="translate(-268.684 -2305.51)" fill="#ece9fc"/>
    <path id="Path_34407" data-name="Path 34407" d="M594.73,2882.886c25.355-10.3,51.247-26.372,69.276-46.835,26.143-29.672,39.705-71.829,29.6-110.092-8.291-31.393-31.314-57.29-58.283-75.3-49.26-32.9-113.517-41.85-170.1-24.424S360.7,2686.91,336.761,2741.159c-9.6,21.754-15.532,45.487-14.266,69.238s16.7,55.574,33.517,72.357Z" transform="translate(-322.325 -2349.328)" fill="#d8d2fc"/>
    <path id="Path_33475" data-name="Path 33475" d="M599.43,2590.021a13.311,13.311,0,0,0,2.01-9.908c-1.159-5.651-4.628-9-4.024-11.417C597.416,2568.7,589.774,2584.206,599.43,2590.021Z" transform="translate(-423.906 -2245.445)" fill="#5b5b5b"/>
    <path id="Path_33476" data-name="Path 33476" d="M608.878,2637.761a13.313,13.313,0,0,0-7.648-6.612c-5.493-1.761-10.116-.384-11.922-2.093C589.308,2629.056,599.075,2643.323,608.878,2637.761Z" transform="translate(-428.471 -2275.643)" fill="#5b5b5b"/>
    <path id="Path_33477" data-name="Path 33477" d="M563.668,2629.444a13.311,13.311,0,0,0,8.208-5.9c2.989-4.933,2.723-9.75,4.806-11.11C576.682,2612.432,560.536,2618.616,563.668,2629.444Z" transform="translate(-383.261 -2267.326)" fill="#5b5b5b"/>
    <path id="Path_33478" data-name="Path 33478" d="M593.1,2674.065a13.311,13.311,0,0,0-7.648-6.612c-5.493-1.761-10.116-.383-11.922-2.093C573.53,2665.36,583.3,2679.626,593.1,2674.065Z" transform="translate(-404.809 -2293.806)" fill="#5b5b5b"/>
    <path id="Path_33479" data-name="Path 33479" d="M547.889,2665.749a13.314,13.314,0,0,0,8.208-5.9c2.99-4.934,2.724-9.75,4.807-11.11C560.9,2648.737,544.758,2654.922,547.889,2665.749Z" transform="translate(-359.598 -2285.49)" fill="#5b5b5b"/>
    <path id="Path_33480" data-name="Path 33480" d="M573.768,2713.3a11.657,11.657,0,0,0-7-5.417c-4.888-1.279-8.865.147-10.526-1.262C556.239,2706.625,565.46,2718.635,573.768,2713.3Z" transform="translate(-376.836 -2314.451)" fill="#5b5b5b"/>
    <path id="Path_33481" data-name="Path 33481" d="M535.584,2704.475a11.659,11.659,0,0,0,6.9-5.553c2.379-4.457,1.917-8.656,3.673-9.944C546.153,2688.978,532.329,2695.156,535.584,2704.475Z" transform="translate(-338.652 -2305.622)" fill="#5b5b5b"/>
    <path id="Path_33482" data-name="Path 33482" d="M600.1,2588.33s-.408,6.186,1.03,10.21" transform="translate(-426.095 -2255.268)" fill="none" stroke="#fff" stroke-miterlimit="10" stroke-width="1"/>
    <path id="Path_33483" data-name="Path 33483" d="M579.091,2618.837s-5.822,11.005-9.979,11.712" transform="translate(-388.592 -2270.53)" fill="none" stroke="#fff" stroke-miterlimit="10" stroke-width="1"/>
    <path id="Path_33484" data-name="Path 33484" d="M594.337,2634.21s7.184,5.657,12.743,4.932" transform="translate(-429.186 -2278.221)" fill="none" stroke="#fff" stroke-miterlimit="10" stroke-width="1"/>
    <path id="Path_33485" data-name="Path 33485" d="M564.057,2655.413s-4.956,11.456-10.172,11.895" transform="translate(-365.948 -2288.829)" fill="none" stroke="#fff" stroke-miterlimit="10" stroke-width="1"/>
    <path id="Path_33486" data-name="Path 33486" d="M578.216,2670.516s6.282,5.545,12.442,5.013" transform="translate(-404.708 -2296.385)" fill="none" stroke="#fff" stroke-miterlimit="10" stroke-width="1"/>
    <path id="Path_33487" data-name="Path 33487" d="M548.658,2697.4s-2.952,9.3-7.21,9.576" transform="translate(-344.334 -2309.837)" fill="none" stroke="#fff" stroke-miterlimit="10" stroke-width="1"/>
    <path id="Path_33488" data-name="Path 33488" d="M558.892,2711.077s6.778,4.151,11.679,3.506" transform="translate(-374.965 -2316.678)" fill="none" stroke="#fff" stroke-miterlimit="10" stroke-width="1"/>
    <path id="Path_33489" data-name="Path 33489" d="M448.81,2604.815s18.46,83.481,76.134,112.015" transform="translate(-274.329 -2263.515)" fill="none" stroke="#5b5b5b" stroke-miterlimit="10" stroke-width="2"/>
    <path id="Path_33475-2" data-name="Path 33475" d="M4.884,21.325a13.311,13.311,0,0,0,2.01-9.908C5.735,5.766,2.266,2.412,2.87,0,2.87,0-4.772,15.51,4.884,21.325Z" transform="matrix(0.848, -0.53, 0.53, 0.848, 135.021, 374.405)" fill="#5b5b5b"/>
    <path id="Path_33476-2" data-name="Path 33476" d="M19.57,8.7a13.313,13.313,0,0,0-7.648-6.612C6.43.332,1.806,1.709,0,0,0,0,9.767,14.266,19.57,8.7Z" transform="matrix(0.848, -0.53, 0.53, 0.848, 142.691, 405.18)" fill="#5b5b5b"/>
    <path id="Path_33477-2" data-name="Path 33477" d="M.4,17.011a13.311,13.311,0,0,0,8.208-5.9C11.6,6.177,11.334,1.359,13.417,0,13.417,0-2.729,6.185.4,17.011Z" transform="matrix(0.848, -0.53, 0.53, 0.848, 154.544, 387.978)" fill="#5b5b5b"/>
    <path id="Path_33478-2" data-name="Path 33478" d="M19.57,8.705a13.312,13.312,0,0,0-7.648-6.612C6.43.332,1.806,1.71,0,0,0,0,9.767,14.266,19.57,8.705Z" transform="matrix(0.848, -0.53, 0.53, 0.848, 158.991, 416.386)" fill="#5b5b5b"/>
    <path id="Path_33479-2" data-name="Path 33479" d="M.4,17.012a13.312,13.312,0,0,0,8.208-5.9C11.6,6.176,11.335,1.36,13.417,0,13.417,0-2.729,6.185.4,17.012Z" transform="matrix(0.848, -0.53, 0.53, 0.848, 170.844, 399.185)" fill="#5b5b5b"/>
    <path id="Path_33480-2" data-name="Path 33480" d="M17.529,6.679a11.657,11.657,0,0,0-7-5.417C5.638-.017,1.661,1.409,0,0,0,0,9.221,12.01,17.529,6.679Z" transform="matrix(0.848, -0.53, 0.53, 0.848, 178.977, 428.213)" fill="#5b5b5b"/>
    <path id="Path_33481-2" data-name="Path 33481" d="M.5,15.5a11.659,11.659,0,0,0,6.9-5.552C9.771,5.488,9.309,1.288,11.065,0,11.065,0-2.759,6.178.5,15.5Z" transform="matrix(0.848, -0.53, 0.53, 0.848, 188.748, 411.708)" fill="#5b5b5b"/>
    <path id="Path_33482-2" data-name="Path 33482" d="M.053,0s-.408,6.186,1.03,10.21" transform="matrix(0.848, -0.53, 0.53, 0.848, 143.032, 380.97)" fill="none" stroke="#fff" stroke-miterlimit="10" stroke-width="1"/>
    <path id="Path_33483-2" data-name="Path 33483" d="M9.979,0S4.158,11,0,11.712" transform="matrix(0.848, -0.53, 0.53, 0.848, 156.677, 390.419)" fill="none" stroke="#fff" stroke-miterlimit="10" stroke-width="1"/>
    <path id="Path_33484-2" data-name="Path 33484" d="M0,0S7.184,5.657,12.743,4.932" transform="matrix(0.848, -0.53, 0.53, 0.848, 147.714, 405.078)" fill="none" stroke="#fff" stroke-miterlimit="10" stroke-width="1"/>
    <path id="Path_33485-2" data-name="Path 33485" d="M10.172,0S5.216,11.456,0,11.895" transform="matrix(0.848, -0.53, 0.53, 0.848, 172.652, 401.989)" fill="none" stroke="#fff" stroke-miterlimit="10" stroke-width="1"/>
    <path id="Path_33486-2" data-name="Path 33486" d="M0,0S6.282,5.545,12.442,5.013" transform="matrix(0.848, -0.53, 0.53, 0.848, 164.416, 416.035)" fill="none" stroke="#fff" stroke-miterlimit="10" stroke-width="1"/>
    <path id="Path_33487-2" data-name="Path 33487" d="M7.21,0S4.258,9.3,0,9.576" transform="matrix(0.848, -0.53, 0.53, 0.848, 191.554, 414.92)" fill="none" stroke="#fff" stroke-miterlimit="10" stroke-width="1"/>
    <path id="Path_33488-2" data-name="Path 33488" d="M0,0S6.778,4.151,11.68,3.507" transform="matrix(0.848, -0.53, 0.53, 0.848, 183.991, 427.702)" fill="none" stroke="#fff" stroke-miterlimit="10" stroke-width="1"/>
    <path id="Path_33489-2" data-name="Path 33489" d="M0,0S18.46,83.481,76.134,112.015" transform="matrix(0.848, -0.53, 0.53, 0.848, 147.843, 387.677)" fill="none" stroke="#5b5b5b" stroke-miterlimit="10" stroke-width="2"/>
    <path id="Path_33475-3" data-name="Path 33475" d="M3.716,0A10.129,10.129,0,0,1,5.246,7.539c-.882,4.3-3.522,6.851-3.062,8.687C2.184,16.226-3.631,4.425,3.716,0Z" transform="matrix(-1, -0.017, 0.017, -1, 165.146, 244.938)" fill="#5b5b5b"/>
    <path id="Path_33476-3" data-name="Path 33476" d="M14.891.979A10.13,10.13,0,0,1,9.072,6.01C4.892,7.35,1.374,6.3,0,7.6,0,7.6,7.432-3.253,14.891.979Z" transform="matrix(-1, -0.017, 0.017, -1, 172.354, 259.394)" fill="#5b5b5b"/>
    <path id="Path_33477-3" data-name="Path 33477" d="M.307,0A10.13,10.13,0,0,1,6.552,4.491c2.274,3.754,2.072,7.419,3.657,8.453C10.209,12.945-2.076,8.238.307,0Z" transform="matrix(-1, -0.017, 0.017, -1, 157.789, 258.16)" fill="#5b5b5b"/>
    <path id="Path_33478-3" data-name="Path 33478" d="M14.891.979A10.129,10.129,0,0,1,9.072,6.01C4.892,7.35,1.374,6.3,0,7.6,0,7.6,7.432-3.253,14.891.979Z" transform="matrix(-1, -0.017, 0.017, -1, 166.115, 273.09)" fill="#5b5b5b"/>
    <path id="Path_33479-3" data-name="Path 33479" d="M.307,0A10.13,10.13,0,0,1,6.552,4.491c2.275,3.754,2.073,7.419,3.657,8.454C10.209,12.945-2.076,8.239.307,0Z" transform="matrix(-1, -0.017, 0.017, -1, 151.549, 271.857)" fill="#5b5b5b"/>
    <path id="Path_33480-3" data-name="Path 33480" d="M13.338,1.038A8.869,8.869,0,0,1,8.009,5.16C4.29,6.133,1.263,5.048,0,6.12,0,6.12,7.016-3.018,13.338,1.038Z" transform="matrix(-1, -0.017, 0.017, -1, 157.74, 287.154)" fill="#5b5b5b"/>
    <path id="Path_33481-3" data-name="Path 33481" d="M.378,0A8.871,8.871,0,0,1,5.625,4.225c1.81,3.391,1.459,6.587,2.795,7.567C8.42,11.792-2.1,7.091.378,0Z" transform="matrix(-1, -0.017, 0.017, -1, 144.8, 285.89)" fill="#5b5b5b"/>
    <path id="Path_33482-3" data-name="Path 33482" d="M.041,7.769S-.27,3.062.824,0" transform="matrix(-1, -0.017, 0.017, -1, 162.641, 243.903)" fill="none" stroke="#fff" stroke-miterlimit="10" stroke-width="1"/>
    <path id="Path_33483-3" data-name="Path 33483" d="M7.593,8.912S3.164.538,0,0" transform="matrix(-1, -0.017, 0.017, -1, 157.425, 256.556)" fill="none" stroke="#fff" stroke-miterlimit="10" stroke-width="1"/>
    <path id="Path_33484-3" data-name="Path 33484" d="M0,3.8S5.467-.5,9.7.049" transform="matrix(-1, -0.017, 0.017, -1, 169.104, 257.495)" fill="none" stroke="#fff" stroke-miterlimit="10" stroke-width="1"/>
    <path id="Path_33485-3" data-name="Path 33485" d="M7.74,9.051S3.969.334,0,0" transform="matrix(-1, -0.017, 0.017, -1, 151.537, 270.502)" fill="none" stroke="#fff" stroke-miterlimit="10" stroke-width="1"/>
    <path id="Path_33486-3" data-name="Path 33486" d="M0,3.842S4.78-.378,9.467.027" transform="matrix(-1, -0.017, 0.017, -1, 162.504, 271.227)" fill="none" stroke="#fff" stroke-miterlimit="10" stroke-width="1"/>
    <path id="Path_33487-3" data-name="Path 33487" d="M5.486,7.286S3.24.211,0,0" transform="matrix(-1, -0.017, 0.017, -1, 144.307, 284.58)" fill="none" stroke="#fff" stroke-miterlimit="10" stroke-width="1"/>
    <path id="Path_33488-3" data-name="Path 33488" d="M0,2.72S5.157-.439,8.887.052" transform="matrix(-1, -0.017, 0.017, -1, 154.329, 285.386)" fill="none" stroke="#fff" stroke-miterlimit="10" stroke-width="1"/>
    <path id="Path_33489-3" data-name="Path 33489" d="M0,85.233S14.047,21.711,57.931,0" transform="matrix(-1, -0.017, 0.017, -1, 160.78, 327.615)" fill="none" stroke="#5b5b5b" stroke-miterlimit="10" stroke-width="2"/>
    <path id="Path_33475-4" data-name="Path 33475" d="M5.123,0A13.962,13.962,0,0,1,7.231,10.392C6.015,16.319,2.376,19.837,3.01,22.367,3.01,22.367-5,6.1,5.123,0Z" transform="matrix(-0.875, -0.485, 0.485, -0.875, 225.631, 269)" fill="#5b5b5b"/>
    <path id="Path_33476-4" data-name="Path 33476" d="M20.527,1.35a13.963,13.963,0,0,1-8.022,6.935C6.744,10.132,1.894,8.688,0,10.48,0,10.48,10.244-4.484,20.527,1.35Z" transform="matrix(-0.875, -0.485, 0.485, -0.875, 225.05, 291.259)" fill="#5b5b5b"/>
    <path id="Path_33477-4" data-name="Path 33477" d="M.423,0A13.963,13.963,0,0,1,9.032,6.191c3.135,5.174,2.856,10.227,5.041,11.653C14.073,17.843-2.862,11.356.423,0Z" transform="matrix(-0.875, -0.485, 0.485, -0.875, 208.121, 280.332)" fill="#5b5b5b"/>
    <path id="Path_33478-4" data-name="Path 33478" d="M20.527,1.35a13.962,13.962,0,0,1-8.022,6.935C6.744,10.131,1.894,8.687,0,10.48,0,10.48,10.244-4.484,20.527,1.35Z" transform="matrix(-0.875, -0.485, 0.485, -0.875, 208.592, 303.892)" fill="#5b5b5b"/>
    <path id="Path_33479-4" data-name="Path 33479" d="M.423,0A13.963,13.963,0,0,1,9.032,6.191c3.136,5.175,2.857,10.227,5.042,11.653C14.073,17.844-2.862,11.357.423,0Z" transform="matrix(-0.875, -0.485, 0.485, -0.875, 191.663, 292.965)" fill="#5b5b5b"/>
    <path id="Path_33480-4" data-name="Path 33480" d="M18.386,1.431A12.226,12.226,0,0,1,11.04,7.113C5.914,8.454,1.742,6.959,0,8.436,0,8.436,9.672-4.161,18.386,1.431Z" transform="matrix(-0.875, -0.485, 0.485, -0.875, 189.298, 315.589)" fill="#5b5b5b"/>
    <path id="Path_33481-4" data-name="Path 33481" d="M.521,0A12.229,12.229,0,0,1,7.754,5.824c2.5,4.674,2.01,9.08,3.853,10.43C11.606,16.254-2.894,9.774.521,0Z" transform="matrix(-0.875, -0.485, 0.485, -0.875, 174.367, 305.676)" fill="#5b5b5b"/>
    <path id="Path_33482-4" data-name="Path 33482" d="M.056,10.709S-.372,4.221,1.136,0" transform="matrix(-0.875, -0.485, 0.485, -0.875, 223.252, 266.119)" fill="none" stroke="#fff" stroke-miterlimit="10" stroke-width="1"/>
    <path id="Path_33483-4" data-name="Path 33483" d="M10.467,12.284S4.361.741,0,0" transform="matrix(-0.875, -0.485, 0.485, -0.875, 208.715, 278.144)" fill="none" stroke="#fff" stroke-miterlimit="10" stroke-width="1"/>
    <path id="Path_33484-4" data-name="Path 33484" d="M0,5.24S7.535-.693,13.366.067" transform="matrix(-0.875, -0.485, 0.485, -0.875, 222.322, 286.845)" fill="none" stroke="#fff" stroke-miterlimit="10" stroke-width="1"/>
    <path id="Path_33485-4" data-name="Path 33485" d="M10.669,12.476S5.471.46,0,0" transform="matrix(-0.875, -0.485, 0.485, -0.875, 192.524, 291.308)" fill="none" stroke="#fff" stroke-miterlimit="10" stroke-width="1"/>
    <path id="Path_33486-4" data-name="Path 33486" d="M0,5.3S6.589-.521,13.05.038" transform="matrix(-0.875, -0.485, 0.485, -0.875, 205.404, 299.287)" fill="none" stroke="#fff" stroke-miterlimit="10" stroke-width="1"/>
    <path id="Path_33487-4" data-name="Path 33487" d="M7.562,10.044S4.466.291,0,0" transform="matrix(-0.875, -0.485, 0.485, -0.875, 174.615, 303.763)" fill="none" stroke="#fff" stroke-miterlimit="10" stroke-width="1"/>
    <path id="Path_33488-4" data-name="Path 33488" d="M0,3.749S7.109-.6,12.25.071" transform="matrix(-0.875, -0.485, 0.485, -0.875, 186.29, 311.23)" fill="none" stroke="#fff" stroke-miterlimit="10" stroke-width="1"/>
    <path id="Path_33489-4" data-name="Path 33489" d="M0,117.49S19.363,29.928,79.855,0" transform="matrix(-0.875, -0.485, 0.485, -0.875, 166.814, 366.801)" fill="none" stroke="#5b5b5b" stroke-miterlimit="10" stroke-width="2"/>
    <g id="Mask_Group_217" data-name="Mask Group 217" transform="translate(4 124)" clip-path="url(#clip-path)">
      <path id="Path_34343" data-name="Path 34343" d="M1009.38,4718.208a39.3,39.3,0,0,1-2.141-6.373c-.957-4.121-.133-9.569-3.22-9.123-2.221.321-1.312,9.891-.188,12.915,0,0-1.472-5.843-2.029-9.425s-2.387-4.465-3.372-2.337c-1.638,3.542.5,12.5.359,12.386a23.609,23.609,0,0,1-1.743-7.045c-.242-3.372-.274-4.385-1.956-4.054-2.818.551-.952,13.133-.952,13.133-.161.128-1.038-.731-1.321-2.391-.413-2.427-.761-6.4-1.967-6.2-2.893.465-3.178,8.2-.257,15.446a122.8,122.8,0,0,0,7.223,14.109l.008,0a9.1,9.1,0,0,0,16.764.565c1.261-2.729.734-4.724.562-7.831v-.252c-.113-2.494,1.085-5.62,1.209-7.925-.063-3.136-.114-10.192.941-13.75s-4.194-1.828-4.772,1.4-.931,4.444-2.15,6.024C1010.29,4717.585,1009.38,4718.208,1009.38,4718.208Z" transform="translate(-786.525 -4690.977)" fill="#ffac9c" stroke="#262626" stroke-miterlimit="10" stroke-width="1"/>
      <path id="Path_34344" data-name="Path 34344" d="M1082.463,4689.12a11.283,11.283,0,0,1,8.153,3.107c2.7,2.6,4.013,6.481,7,8.749,3.365,2.555,8.14,2.522,11.593,4.958a9.512,9.512,0,0,1,2.153,13.453,12.79,12.79,0,0,1-6.432,4.284,38.116,38.116,0,0,1-7.719,1.369c-5.524.593-11.171,1.179-16.584-.067a13.342,13.342,0,0,1-7.305-3.946c-2.019-2.369-2.665-5.579-3.241-8.638-.595-3.161-1.175-6.519-.014-9.519.755-1.952,2.2-3.608,2.762-5.626a9.663,9.663,0,0,0,.259-1.354,7.834,7.834,0,0,1,8.618-6.9l.212.026" transform="translate(-799.351 -4688.79)" fill="#000e1b"/>
      <path id="Path_34345" data-name="Path 34345" d="M1080.135,4819.631s15.332,16.371,9.7,52.6c-2.4,15.427-19.3,63.075-23.694,94.4l-41.306-5.789,18.877-134.574Z" transform="translate(-792.283 -4709.568)" fill="#333" stroke="#262626" stroke-miterlimit="10" stroke-width="1"/>
      <path id="Path_34408" data-name="Path 34408" d="M20.872.025A20.849,20.849,0,1,1,.025,20.87,20.861,20.861,0,0,1,20.872.025Z" transform="translate(223.907 250.543) rotate(-37.932)" fill="#333"/>
      <path id="Path_34346" data-name="Path 34346" d="M1025.547,5141s-5.383,11.936-6.544,14.311-24.056,7.3-24.056,12.539h34.272l13.351-8.128,4.28,8.287h4.109s-2.032-20.2-4.346-30.211Z" transform="translate(-787.542 -4760.145)" fill="#000e1b"/>
      <path id="Path_34347" data-name="Path 34347" d="M1135.218,5141s-5.383,11.936-6.544,14.311-24.056,7.3-24.056,12.539h34.272l13.351-8.128,4.28,8.287h4.109s-2.032-20.2-4.346-30.211Z" transform="translate(-804.937 -4760.145)" fill="#000e1b"/>
      <path id="Path_34348" data-name="Path 34348" d="M1065.034,4991.74l-6.1,135.707-42.217-1.9,6.654-135.682Z" transform="translate(-790.994 -4736.628)" fill="#333"/>
      <path id="Path_34412" data-name="Path 34412" d="M20.846.011A20.838,20.838,0,1,1,.011,20.838,20.867,20.867,0,0,1,20.846.011Z" transform="matrix(0.977, -0.212, 0.212, 0.977, 228.399, 238.229)" fill="#333"/>
      <path id="Path_34349" data-name="Path 34349" d="M1108.766,4827.526s12.595,13.889,16.057,29.113,1.546,65.941,7.24,97.058l-41.029,7.5-24.464-133.672Z" transform="translate(-798.902 -4710.822)" fill="#4b4b4b" stroke="#262626" stroke-miterlimit="10" stroke-width="1"/>
      <path id="Path_34409" data-name="Path 34409" d="M20.859.015A20.854,20.854,0,1,1,.015,20.866,20.857,20.857,0,0,1,20.859.015Z" transform="matrix(0.301, -0.954, 0.954, 0.301, 286.472, 260.25)" fill="#4b4b4b"/>
      <path id="Path_34350" data-name="Path 34350" d="M1136.676,4977.547l24.455,133.625-41.57,7.6-23.915-133.726Z" transform="translate(-803.514 -4734.671)" fill="#4b4b4b"/>
      <path id="Path_34410" data-name="Path 34410" d="M20.859.015A20.854,20.854,0,1,1,.015,20.866,20.857,20.857,0,0,1,20.859.015Z" transform="matrix(0.301, -0.954, 0.954, 0.301, 286.472, 260.25)" fill="#4b4b4b"/>
      <path id="Path_34351" data-name="Path 34351" d="M1057.859,4750.181a13.733,13.733,0,1,0-5.048-15.951A13.745,13.745,0,0,0,1057.859,4750.181Z" transform="translate(-796.588 -4694.554)" fill="#ffac9c"/>
      <path id="Path_34352" data-name="Path 34352" d="M1023.883,4815.607a13.733,13.733,0,1,0-5.05-15.95A13.745,13.745,0,0,0,1023.883,4815.607Z" transform="translate(-791.199 -4704.955)" fill="#e5f3ff"/>
      <path id="Path_34411" data-name="Path 34411" d="M.022.051,62.03.062l0,27.465L.027,27.516Z" transform="matrix(-0.461, 0.887, -0.887, -0.461, 281.377, 50.698)" fill="#e5f3ff"/>
      <path id="Path_34353" data-name="Path 34353" d="M1023.883,4815.607a13.733,13.733,0,1,0-5.05-15.95A13.745,13.745,0,0,0,1023.883,4815.607Z" transform="translate(-791.199 -4704.955)" fill="#e4e4e4"/>
      <path id="Path_34354" data-name="Path 34354" d="M1066.955,4726.738a13.737,13.737,0,0,0-18.518,5.856l-28.587,55.024,24.376,12.653,28.588-55.024A13.726,13.726,0,0,0,1066.955,4726.738Z" transform="translate(-791.492 -4694.554)" fill="#e4e4e4" stroke="#262626" stroke-miterlimit="10" stroke-width="1"/>
      <path id="Path_34355" data-name="Path 34355" d="M1041.029,4790.5l-22.882-56.1-21.081,8.223,19.581,58.661a11.938,11.938,0,0,0,15.663,7.339l1.119-.437A13.505,13.505,0,0,0,1041.029,4790.5Z" transform="translate(-787.878 -4696.017)" fill="#e4e4e4" stroke="#262626" stroke-miterlimit="10" stroke-width="1"/>
      <path id="Path_34356" data-name="Path 34356" d="M1063.656,4725.194h40.512l8.224,62.644a7.925,7.925,0,0,1-7.86,8.955H1046.1a6.22,6.22,0,0,1-5.836-8.376Z" transform="translate(-794.667 -4694.555)" fill="#eceeef" stroke="#262626" stroke-miterlimit="10" stroke-width="1"/>
      <rect id="Rectangle_8671" data-name="Rectangle 8671" width="58.435" height="14.467" transform="translate(251.429 102.238)" fill="#eceeef" stroke="#262626" stroke-miterlimit="10" stroke-width="1"/>
      <path id="Path_34359" data-name="Path 34359" d="M1173.869,4802.41a13.739,13.739,0,1,0-19.426-.522A13.732,13.732,0,0,0,1173.869,4802.41Z" transform="translate(-812.198 -4703.079)" fill="#fff"/>
      <path id="Path_34360" data-name="Path 34360" d="M1077.73,4811.076c-1.483-.076-3.041.064-4.219-.841a4.93,4.93,0,0,1-1.893-3.862,2.938,2.938,0,0,1-2.977-4.289,3.312,3.312,0,0,1-2.986-4.7,3.112,3.112,0,0,1-2.148-2.047,3.6,3.6,0,0,1,.609-2.906,2.348,2.348,0,0,1,2.061-1.134,32.2,32.2,0,0,0,9.3-.533s-9.318-10.166-8.037-13.738,3.81,2.167,7.446,4.529a89.9,89.9,0,0,0,12.925,5.667c7.7,2.093,17.449,6.561,12.813,14.045s-16,9.294-19.508,9.521C1080.022,4810.859,1078.52,4811.116,1077.73,4811.076Z" transform="translate(-798.397 -4702.633)" fill="#ffac9c"/>
      <path id="Path_34361" data-name="Path 34361" d="M1077.6,4810.254c-1.256-.055-2.717.094-3.785-.7a4.232,4.232,0,0,1-1.629-3.31.7.7,0,0,0-.7-.7,2.282,2.282,0,0,1-2.374-3.24.708.708,0,0,0-.6-1.049,2.672,2.672,0,0,1-2.314-3.816.7.7,0,0,0-.487-.857,2.292,2.292,0,0,1-1.554-3.084,2.341,2.341,0,0,1,1.371-1.565,6.186,6.186,0,0,1,1.978.028,37.238,37.238,0,0,0,8.03-.655.7.7,0,0,0,.307-1.167,44.153,44.153,0,0,1-7.049-9.61,7.086,7.086,0,0,1-.9-2.718c-.025-.519.137-1.581.8-1.231,1.132.6,2.009,2,2.866,2.924a14.385,14.385,0,0,0,4.016,3.135,69.688,69.688,0,0,0,12.587,5.307,31.468,31.468,0,0,1,9.1,3.927c2.2,1.494,4.273,3.792,3.607,6.649-.717,3.079-3.485,5.559-6.061,7.166a29.284,29.284,0,0,1-9.193,3.569,33.337,33.337,0,0,1-3.576.606,33.907,33.907,0,0,1-4.441.383.7.7,0,0,0,0,1.394,33.82,33.82,0,0,0,4.441-.382c1.15-.128,2.3-.312,3.428-.545a32.234,32.234,0,0,0,8.913-3.162c2.955-1.614,5.841-3.986,7.279-7.1a6.881,6.881,0,0,0-1.554-8.038c-2.393-2.42-5.727-3.854-8.89-4.959-2.037-.713-4.107-1.274-6.124-2.05q-3.594-1.386-7.057-3.081a27.7,27.7,0,0,1-3.108-1.621,12.8,12.8,0,0,1-2.153-1.934,23.137,23.137,0,0,0-3.162-3.243,1.7,1.7,0,0,0-2.548.3,3.661,3.661,0,0,0-.413,3.01c.673,2.841,2.685,5.447,4.422,7.722,1.2,1.57,2.451,3.108,3.785,4.567l.307-1.166a38.727,38.727,0,0,1-5.583.631c-.957.025-1.914,0-2.87-.072a3.692,3.692,0,0,0-2.267.375,4.309,4.309,0,0,0-1.833,4.041,3.792,3.792,0,0,0,2.727,2.991l-.486-.857a4.058,4.058,0,0,0,3.658,5.582l-.6-1.049a3.681,3.681,0,0,0,3.579,5.338l-.7-.7a5.692,5.692,0,0,0,2,4.271c1.377,1.137,3.127,1.055,4.813,1.127C1078.5,4811.686,1078.5,4810.292,1077.6,4810.254Z" transform="translate(-798.269 -4702.508)" fill="#262626"/>
      <path id="Path_34362" data-name="Path 34362" d="M1169.391,4782.987a13.668,13.668,0,0,0-3.733-8.467h0l-.017-.019-.008-.009-15.836-16.7-25.008-25.883-2.285-2.353a13.548,13.548,0,0,0-12.515-4.017,13.686,13.686,0,0,0-7.186,4.183,14.008,14.008,0,0,0,.5,18.969l23.659,24.956-31.365,3.816-.149,23.531,61.215-3.322A13.737,13.737,0,0,0,1169.391,4782.987Z" transform="translate(-803.466 -4694.607)" fill="#eceeef" stroke="#262626" stroke-miterlimit="10" stroke-width="1"/>
      <path id="Path_34363" data-name="Path 34363" d="M1065.334,4810.084a3.11,3.11,0,0,1-2.148-2.049,3.593,3.593,0,0,1,.609-2.9,2.311,2.311,0,0,1,1.344-1.023,2.018,2.018,0,0,0-1.919-.863,3.411,3.411,0,0,0-1.855,1.2l2.908,12.041a20.564,20.564,0,0,0,1.3-3.209c-.008-.011-.019-.02-.025-.03A3.373,3.373,0,0,1,1065.334,4810.084Z" transform="translate(-798.076 -4706.966)" fill="none"/>
      <path id="Path_34364" data-name="Path 34364" d="M1079.15,4694.937l6.563,1.634a7.791,7.791,0,0,1,5.761,9.077l-1.916,9.651-5.76,4.958-2.427-3.774c-2.8-.336-6.633-3.752-5.679-11.016a39.667,39.667,0,0,1,2.752-10.2A.612.612,0,0,1,1079.15,4694.937Z" transform="translate(-800.325 -4689.741)" fill="#ffac9c"/>
      <path id="Path_34365" data-name="Path 34365" d="M1082.312,4720.4c2.005.287,5.6-.862,5.6-.862s-1.8,2.371-6.432,2.8Z" transform="translate(-801.266 -4693.655)" fill="#000e1b"/>
      <path id="Path_34366" data-name="Path 34366" d="M1082.087,4720.334l2.427,3.536,5.76-4.719,1.43,5.23-5.26,4.052-2.137-3.6-2.958,3.013-1.295-3.465Z" transform="translate(-801.04 -4693.594)" fill="#4b4b4b"/>
      <path id="Path_34367" data-name="Path 34367" d="M1092.968,4709.146a2.089,2.089,0,1,0,2.088-2.087A2.088,2.088,0,0,0,1092.968,4709.146Z" transform="translate(-803.088 -4691.671)" fill="#ffac9c"/>
      <path id="Path_34368" data-name="Path 34368" d="M947.882,4721.109a12.044,12.044,0,0,0-2.517,2.383l-.964.819-36.511,35.927-53.284-3.719-1.829,26.185,58.163,4.06a13.036,13.036,0,0,0,12.732-5.494l29.8-38.389a5.151,5.151,0,0,0,1.661-.729S954.054,4715.647,947.882,4721.109Z" transform="translate(-764.994 -4693.787)" fill="#ffac9c" stroke="#262626" stroke-miterlimit="10" stroke-width="1"/>
      <path id="Path_34369" data-name="Path 34369" d="M971.134,4739.772c.408-.13,9.661-2.6,12.736-4.256,2.294-1.237,8.8-4.973,7.694-7.634-.756-1.815-4.842-.068-7.76,1.1-1.536.617-4,.8-4.369-.221-.642-1.776,3.375-3.3,6.274-4.044,5.609-1.432,14.033-2.37,14.434-6.321.151-1.495-2.031-1.8-4.633-1.647,3.672-.808,7.244-2.02,7.478-3.671.137-.946-.395-1.536-1.332-1.886a2.231,2.231,0,0,0,1.485-2c-.02-1.5-1.5-2.285-3.459-2.66a1.232,1.232,0,0,0,.238-1.1c-.778-3.919-15.334-3.075-18.67-1.058a84.476,84.476,0,0,0-17.622,14.941c-.233.186-2.2,2.314-2.2,2.314" transform="translate(-782.226 -4690.976)" fill="#ffac9c" stroke="#262626" stroke-miterlimit="10" stroke-width="1"/>
      <path id="Path_34370" data-name="Path 34370" d="M982.444,4722.967a18.207,18.207,0,0,1,7.323-3.173c3.113-.55,6.3-.258,9.439-.5" transform="translate(-785.56 -4693.616)" fill="none" stroke="#262626" stroke-linecap="round" stroke-miterlimit="10" stroke-width="1"/>
      <path id="Path_34371" data-name="Path 34371" d="M980.262,4717.009a45.1,45.1,0,0,1,8.285-3.931c3.191-1.005,6.591-.873,9.9-.781q2.978.083,5.951.3" transform="translate(-785.213 -4692.495)" fill="none" stroke="#262626" stroke-linecap="round" stroke-miterlimit="10" stroke-width="1"/>
      <path id="Path_34372" data-name="Path 34372" d="M986.024,4715.1" transform="translate(-786.127 -4692.95)" fill="none" stroke="#1a2e35" stroke-miterlimit="10" stroke-width="1"/>
      <path id="Path_34373" data-name="Path 34373" d="M979.469,4710.961c2.545-1.6,4.57-2.965,7.441-3.645a40.835,40.835,0,0,1,10.147-.662c1.828.076,3.65.212,5.472.377" transform="translate(-785.088 -4691.598)" fill="none" stroke="#262626" stroke-linecap="round" stroke-miterlimit="10" stroke-width="1"/>
      <path id="Path_34374" data-name="Path 34374" d="M885.613,4786.571l24.148-24.628-20.694-24.293-.012,0c-.146-.251-.285-.506-.449-.75a13.129,13.129,0,0,0-23.518,10.956l-.006,0,.023.067c.013.044.029.087.044.132Z" transform="translate(-766.865 -4695.492)" fill="#4a4a4a" stroke="#262626" stroke-miterlimit="10" stroke-width="1"/>
      <path id="Path_34375" data-name="Path 34375" d="M889.063,5149.1c5.894-.569,10.6-6.309,10.6-6.309l5.56.16c-1.633-9.66-1.207-12.616-1.207-12.616l-24.609,7.246.17,5.113h0a4.4,4.4,0,0,1,4.275,2.958A4.621,4.621,0,0,0,889.063,5149.1Z" transform="translate(-769.218 -4758.959)" fill="#fff" stroke="#262626" stroke-miterlimit="10" stroke-width="1"/>
      <path id="Path_34376" data-name="Path 34376" d="M925.837,5159.536c-6.657-3.919-18.532-2.582-20.393-13.142-.068-.386-.126-.741-.188-1.107l-5.56-.16s-4.707,5.74-10.6,6.309a4.621,4.621,0,0,1-5.21-3.448,4.4,4.4,0,0,0-4.275-2.958h0l.676,20.365,52.885,1.518S932.5,5163.456,925.837,5159.536Z" transform="translate(-769.25 -4761.295)" fill="#000e1b" stroke="#262626" stroke-miterlimit="10" stroke-width="1"/>
      <path id="Path_34377" data-name="Path 34377" d="M893.686,5167.724l-.108-.361a15.782,15.782,0,0,0-4.763-7.432,14.889,14.889,0,0,0-8.123-3.515l-.456-.048-.072-2.386.589.054a17.191,17.191,0,0,1,9.565,4.07,18.4,18.4,0,0,1,5.614,9.007l.186.681Z" transform="translate(-769.337 -4762.718)" fill="#fff"/>
      <path id="Path_34378" data-name="Path 34378" d="M880.6,5154.447a16.568,16.568,0,0,1,9.271,3.946,17.754,17.754,0,0,1,5.451,8.748l-1.347-.04a16.385,16.385,0,0,0-4.922-7.676,15.3,15.3,0,0,0-8.411-3.64l-.041-1.339m-1.082-1.151.036,1.182.041,1.34.028.914.91.095a14.35,14.35,0,0,1,7.835,3.39,15.246,15.246,0,0,1,4.6,7.187l.217.724.755.021,1.348.039,1.412.04-.373-1.361a18.924,18.924,0,0,0-5.776-9.264,17.718,17.718,0,0,0-9.859-4.2l-1.179-.109Z" transform="translate(-769.235 -4762.609)" fill="#262626"/>
      <path id="Path_34379" data-name="Path 34379" d="M917.211,5161.456a11.251,11.251,0,0,1-4-.857c-5.807-2.418-9.185-6.905-10.324-13.718l-.044-.261.186-.191c.175-.179.31-.324.4-.422v-.34l1.644.048.066.431c.936,6.167,3.877,10.2,8.991,12.329a8.783,8.783,0,0,0,3.4.679,9.044,9.044,0,0,0,5.661-1.991l.208-.167.257.069c.495.134.981.273,1.464.416l.871.259-.661.623a11.32,11.32,0,0,1-7.8,3.1Z" transform="translate(-772.934 -4761.396)" fill="#fff"/>
      <path id="Path_34380" data-name="Path 34380" d="M903.846,5146.108l.668.02c.965,6.359,4.008,10.529,9.308,12.733a9.337,9.337,0,0,0,3.605.72,9.573,9.573,0,0,0,5.99-2.108q.735.2,1.451.413a10.873,10.873,0,0,1-7.44,2.953c-.1,0-.205,0-.307,0a10.7,10.7,0,0,1-3.816-.816c-5.639-2.347-8.905-6.718-10.009-13.32.35-.359.549-.589.549-.59h0m.015-1.044h-.669l-.225.458c-.083.093-.226.249-.421.447l-.369.379.087.522c1.171,7.005,4.651,11.622,10.639,14.114a11.719,11.719,0,0,0,4.188.9c.112,0,.225,0,.337,0a11.84,11.84,0,0,0,8.157-3.239l1.323-1.247-1.743-.517q-.728-.216-1.474-.42l-.516-.139-.416.336a8.519,8.519,0,0,1-5.333,1.875,8.251,8.251,0,0,1-3.2-.639c-4.932-2.053-7.77-5.953-8.676-11.924l-.131-.864-.873-.025-.668-.019Z" transform="translate(-772.829 -4761.301)" fill="#262626"/>
      <path id="Path_34381" data-name="Path 34381" d="M880.414,5169.245l.222,4.079,52.888,1.519-.225-4.081Z" transform="translate(-769.377 -4765.146)" fill="#fff" stroke="#262626" stroke-miterlimit="10" stroke-width="1"/>
      <path id="Path_34382" data-name="Path 34382" d="M784.674,5149.1c6.005-.569,11.837-6.309,11.837-6.309l5.528.16c.259-9.66,1.265-12.616,1.265-12.616l-26.029,7.246-.831,5.113h0a3.463,3.463,0,0,1,3.7,2.958C780.4,5147.484,781.424,5149.409,784.674,5149.1Z" transform="translate(-752.887 -4758.959)" fill="#fff" stroke="#262626" stroke-miterlimit="10" stroke-width="1"/>
      <path id="Path_34383" data-name="Path 34383" d="M819.206,5159.536c-5.89-3.919-18.027-2.582-17.819-13.142.007-.386.018-.741.028-1.107l-5.528-.16s-5.832,5.74-11.837,6.309c-3.25.309-4.277-1.616-4.535-3.448a3.464,3.464,0,0,0-3.7-2.958h0l-3.312,20.365,52.587,1.518S825.1,5163.456,819.206,5159.536Z" transform="translate(-752.264 -4761.295)" fill="#000e1b" stroke="#262626" stroke-miterlimit="10" stroke-width="1"/>
      <path id="Path_34384" data-name="Path 34384" d="M786.048,5167.845l-.054-.447a11.567,11.567,0,0,0-3.3-6.97,12,12,0,0,0-7.332-3.312l-.552-.056.372-2.3.486.044a14.288,14.288,0,0,1,8.761,3.9,13.823,13.823,0,0,1,3.93,8.622l.053.587Z" transform="translate(-752.629 -4762.843)" fill="#fff"/>
      <path id="Path_34385" data-name="Path 34385" d="M775.506,5155.22a13.679,13.679,0,0,1,8.441,3.751,13.229,13.229,0,0,1,3.778,8.3l-1.326-.038a12.158,12.158,0,0,0-3.451-7.281,12.6,12.6,0,0,0-7.647-3.458l.206-1.269m-.876-1.131-.156.963-.206,1.27-.178,1.095,1.1.113a11.488,11.488,0,0,1,7.018,3.162,11.059,11.059,0,0,1,3.148,6.661l.107.9.9.025,1.325.038,1.179.034-.107-1.174a14.342,14.342,0,0,0-4.084-8.946,14.8,14.8,0,0,0-9.08-4.048l-.972-.089Z" transform="translate(-752.514 -4762.735)" fill="#262626"/>
      <path id="Path_34386" data-name="Path 34386" d="M810.85,5161.427a9.97,9.97,0,0,1-3.877-.871c-5.4-2.464-7.91-7.029-7.66-13.955l.008-.231.176-.15c.353-.3.581-.51.641-.566l.15-.138.222-.015,1.219.035-.028.533c-.318,6.192,1.8,10.236,6.463,12.365a7.785,7.785,0,0,0,3.266.68,10.988,10.988,0,0,0,6.168-2.036l.2-.142.239.069c.471.134.933.274,1.39.419l.938.3-.77.612a13.705,13.705,0,0,1-8.424,3.1Z" transform="translate(-756.512 -4761.37)" fill="#fff"/>
      <path id="Path_34387" data-name="Path 34387" d="M800.412,5145.923l.669.02c-.331,6.426,1.881,10.639,6.767,12.867a8.334,8.334,0,0,0,3.483.727,11.5,11.5,0,0,0,6.466-2.131q.7.2,1.377.417a13.269,13.269,0,0,1-8.1,2.987q-.154,0-.308,0a9.464,9.464,0,0,1-3.676-.825c-5.2-2.371-7.594-6.788-7.354-13.46.427-.363.673-.6.673-.6h0m-.1-1.049-.13.029h0l-.278.063-.209.2c-.011.011-.242.228-.634.561l-.35.3-.017.461c-.254,7.062,2.426,11.922,7.966,14.448a10.5,10.5,0,0,0,4.08.919c.113,0,.226,0,.338,0a14.23,14.23,0,0,0,8.75-3.213l1.54-1.223-1.875-.593q-.692-.22-1.4-.425l-.479-.138-.409.284a10.444,10.444,0,0,1-5.869,1.944,7.259,7.259,0,0,1-3.047-.633c-4.512-2.056-6.469-5.826-6.158-11.861l.055-1.068-1.069-.032-.669-.019-.133,0Z" transform="translate(-756.414 -4761.271)" fill="#262626"/>
      <path id="Path_34388" data-name="Path 34388" d="M772.4,5169.245l-.577,4.079,52.591,1.519.574-4.081Z" transform="translate(-752.154 -4765.146)" fill="#fff" stroke="#262626" stroke-miterlimit="10" stroke-width="1"/>
      <path id="Path_34389" data-name="Path 34389" d="M841.756,4849.071s-5.117,9.826,2.56,44.032c3.268,14.565,17.333,61.214,23.516,90.821l34.528-4.27-25.436-126.561Z" transform="translate(-762.981 -4714.248)" fill="#000e1b" stroke="#262626" stroke-miterlimit="10" stroke-width="1"/>
      <path id="Path_34390" data-name="Path 34390" d="M872.61,5005.531l4.213,113.229,30.088.864.607-115.288Z" transform="translate(-768.14 -4738.929)" fill="#000e1b" stroke="#262626" stroke-miterlimit="10" stroke-width="1"/>
      <path id="Path_34391" data-name="Path 34391" d="M906.932,5001.563c.331,9.636-6.581,17.3-16.221,17.63s-17.45-7.811-17.78-17.446,6.945-17.117,16.584-17.446S906.6,4991.929,906.932,5001.563Z" transform="translate(-768.188 -4735.744)" fill="#000e1b"/>
      <path id="Path_34392" data-name="Path 34392" d="M786.235,5005l-11.322,112.741,29.687,4.97,16.378-114.121Z" transform="translate(-752.645 -4739.034)" fill="#000e1b" stroke="#262626" stroke-miterlimit="10" stroke-width="1"/>
      <path id="Path_34393" data-name="Path 34393" d="M805.961,4852.532s-6.576,8.222-10.134,40.73c-1.625,14.838-4.162,56.8-7.457,86.867l34.743,3.589,19.449-135.141Z" transform="translate(-754.779 -4714.168)" fill="#000e1b" stroke="#262626" stroke-miterlimit="10" stroke-width="1"/>
      <path id="Path_34394" data-name="Path 34394" d="M822.621,5005.752c-.992,9.589-8.995,16.434-18.588,15.442a16.455,16.455,0,0,1-15.016-18.524c.992-9.59,9.012-17.2,18.606-16.2S823.612,4996.162,822.621,5005.752Z" transform="translate(-754.865 -4736.075)" fill="#000e1b"/>
      <path id="Path_34395" data-name="Path 34395" d="M804.229,4795.231a.884.884,0,0,0-.067.081l.114.223Z" transform="translate(-757.284 -4705.688)" fill="none"/>
      <path id="Path_34396" data-name="Path 34396" d="M808.491,4833.856,804.32,4778.6l2.066-47.505h61.736s15.324,30.119,3.382,68.562l-.252,34.686Z" transform="translate(-757.309 -4695.492)" fill="#606060" stroke="#262626" stroke-miterlimit="10" stroke-width="1"/>
      <path id="Path_34397" data-name="Path 34397" d="M836.524,4711.342l.623,16.141h13.476l-1.007-6.423Z" transform="translate(-762.416 -4692.353)" fill="#ffac9c"/>
      <path id="Path_34398" data-name="Path 34398" d="M839.846,4711.45a20.491,20.491,0,0,0,1.856,4.474c.974,1.458,6.977,6.322,10.225,4.19,2.488-1.634,2.981-5.789,3.106-8.671a55.371,55.371,0,0,0-.278-10.186l-11.215-2.222-4.136,9.146Z" transform="translate(-762.873 -4690.396)" fill="#ffac9c"/>
      <path id="Path_34399" data-name="Path 34399" d="M835.877,4697.776s-7.472-2.272-.493,10.215l.728,6.012,2.469-3.442,1.7-3.114,1.1,2.856h.633l-.173-6.812a3.892,3.892,0,0,0,2.331-4.082s11.026,3.193,12.714-.665l-1.96-2.763-1.341.722a7.652,7.652,0,0,0,1.96-4.639l-2.578,2.269a4.5,4.5,0,0,0,.817-2.876,2.732,2.732,0,0,0-2.617-2.519h0a2.827,2.827,0,0,0-2.2.93,8.624,8.624,0,0,1-2.807,1.939C842.869,4693.286,834.159,4691.995,835.877,4697.776Z" transform="translate(-761.763 -4688.79)" fill="#000e1b"/>
      <path id="Path_34400" data-name="Path 34400" d="M840.968,4711.606a2.693,2.693,0,1,1-2.693-2.692A2.692,2.692,0,0,1,840.968,4711.606Z" transform="translate(-762.267 -4691.966)" fill="#ffac9c"/>
      <path id="Path_34401" data-name="Path 34401" d="M844.912,4735.476l2.905-5.395,3.5,5.1a38.2,38.2,0,0,0,1.122-5.137l-2.485-4.266-2.215,3.08-10.9-4.923-.9,6.107Z" transform="translate(-762.324 -4694.354)" fill="#fff"/>
      <path id="Path_34402" data-name="Path 34402" d="M794.3,4851.4a9.569,9.569,0,1,1-2.99,13.2A9.575,9.575,0,0,1,794.3,4851.4Z" transform="translate(-755.011 -4714.383)" fill="#ffac9c"/>
      <path id="Path_34403" data-name="Path 34403" d="M812.926,4861.754c1.817-.156,2.878.542,5.478,2.033s6.894-1.164,3.783-2.515-8.02-5.53-10.178-7.414c-1.687-1.268-4.656-2.989-6.509-4.318a14.328,14.328,0,0,1-1.138-1.141c-2.119-2.447-3.592-5.065-6.779-5.849a9.927,9.927,0,0,0-10.938,14.676l-.009,0A133.862,133.862,0,0,0,793.752,4873c4.192,7.426,10.986,12.455,13.353,10.3.986-.9-2.163-3.9-3.952-5.9-1.223-1.373-1.359-2.706-1.14-2.756,0,0,9.463,10.163,11.854,8.138,1.428-1.209.586-1.927-2.126-4.43a25.772,25.772,0,0,1-4.824-6.287c0-.2,6.185,7.728,10.324,8.745,2.486.61,2.98-1.552.3-4.465s-6.658-8.152-6.658-8.152c1.815,3.018,9.359,10.312,11.146,8.636,2.483-2.326-2.726-5.336-5.59-8.959a67.224,67.224,0,0,1-5.813-9.546" transform="translate(-754.287 -4713.166)" fill="#ffac9c" stroke="#262626" stroke-linecap="round" stroke-miterlimit="10" stroke-width="1"/>
      <path id="Path_34404" data-name="Path 34404" d="M798.592,4835.684l-21.016-37.973,7.659-10.2-13.877-25.242L751.509,4788.7l.008.006a13.038,13.038,0,0,0,.265,16.1l29.083,39.716" transform="translate(-748.516 -4700.448)" fill="#ffac9c" stroke="#262626" stroke-miterlimit="10" stroke-width="1"/>
      <path id="Path_34405" data-name="Path 34405" d="M807.323,4733.722a13.129,13.129,0,0,0-16.171.332l-.012-.011-.241.214c-.1.083-.194.166-.289.254l-30.235,26.659,26.682,21.389,22.882-30.46A13.122,13.122,0,0,0,807.323,4733.722Z" transform="translate(-750.339 -4695.493)" fill="#606060" stroke="#262626" stroke-miterlimit="10" stroke-width="1"/>
    </g>
  </g>
</svg>
