<svg xmlns="http://www.w3.org/2000/svg" xmlns:xlink="http://www.w3.org/1999/xlink" width="375" height="270" viewBox="0 0 375 270">
  <defs>
    <clipPath id="clip-path">
      <rect id="Rectangle_8645" data-name="Rectangle 8645" width="375" height="180.76" fill="none"/>
    </clipPath>
  </defs>
  <g id="email-graphic" transform="translate(-201.304 -2042.656)">
    <path id="Path_34040" data-name="Path 34040" d="M307.083,2338.526c-32.546-39.3-59.177-84.183-54.631-130.511,1.294-13.191,5.349-26.624,15.5-37.363,21.233-22.464,64.6-27.228,98.87-17.971s61.243,29.452,85.8,49.855,48.59,42.039,80.2,55.717c20.483,8.863,43.578,14.1,63.018,24.231,9.527,4.964,18.143,11.71,23.913,19.344,5.588,7.394,8.487,16.159,6.631,24.569-1.566,7.1-6.409,13.6-12.564,19.071-14.87,13.206-36.106,22.852-55.814,31.271q-11.391,4.865-23.249,9.063-6.083,2.153-12.272,4.124c-3.146,1-8.421,3.567-11.815,3.567H368.79C343.538,2379.148,324.04,2359.005,307.083,2338.526Z" transform="translate(-50.641 -105.565)" fill="#d8d2fc"/>
    <path id="Path_34023" data-name="Path 34023" d="M593.847,2251.312a19.156,19.156,0,0,0-4.2-8.031c-5.595-6.532-13.581-9.511-21.377-12.418-36.945-13.781-75.823-29.825-98.334-61.94-7.463-10.648-13.317-23.22-24.536-29.9-12.3-7.323-28.477-5.5-41.173,1.133s-22.605,17.408-31.988,28.168-18.7,21.9-30.735,29.655c-15.264,9.84-33.639,13.457-51.457,17.2s-36.166,8.071-50.676,18.974-24.177,30.192-18.331,47.273c6.207,18.131,26.178,26.955,43.028,36.342,12.654,7.049,24.547,15.469,36.683,23.4H497.418l81.893-64.351C587.462,2270.41,596.447,2262.446,593.847,2251.312Z" transform="translate(-18 -28.509)" fill="#ece9fc"/>
    <path id="Path_34024" data-name="Path 34024" d="M562.782,2402.783s20.983-63.9,56.452-104.972c35.483-41.085,52.814-50.919,52.823-35.845,0,7.086-15.984,9.212-38.554,27.553-29.617,24.067-65.565,110.482-65.105,116.6S559.631,2410.113,562.782,2402.783Z" transform="translate(-96.115 -103.885)" fill="#aaa"/>
    <path id="Path_34025" data-name="Path 34025" d="M597.307,2299.53s1.136-19.418,1-27.779c-.137-8.17,8.753-29.369,15.468-16.538,3.969,7.585-13.29,29.7-9.711,36.514s35.71-14.751,41.9-1.01S602.018,2293.216,597.307,2299.53Z" transform="translate(-70.187 -106.912)" fill="#aaa"/>
    <path id="Path_34026" data-name="Path 34026" d="M592.321,2316.791s-7.65-26.525-10.391-34.426c-2.677-7.719-.293-28.1,10.085-18,6.137,5.97-1.235,37.551,4.289,42.912s38.434-11.733,43.291,2.5C644.461,2324.038,594.83,2309.324,592.321,2316.791Z" transform="translate(-82.266 -99.228)" fill="#aaa"/>
    <path id="Path_34027" data-name="Path 34027" d="M586.2,2333.323s-10.3-19.761-14.033-27.244c-3.646-7.312-9.953-31.782,2.58-24.522,8.909,5.163,6.885,40.833,13.052,45.439s46.674-19.417,46.989-2.6C635.065,2339.464,587.728,2325.6,586.2,2333.323Z" transform="translate(-92.293 -85.508)" fill="#aaa"/>
    <path id="Path_34028" data-name="Path 34028" d="M576.348,2357.476s-5.883-14-19.044-35.723c-4.235-6.988-7.143-26.079,4.448-17.4,6.851,5.133,11.155,38.563,17.323,43.169s40.645-25.4,47.984-7.462C632.766,2354.012,577.876,2349.747,576.348,2357.476Z" transform="translate(-102.413 -69.363)" fill="#aaa"/>
    <g id="Group_26577" data-name="Group 26577" transform="translate(201.304 2131.712)" clip-path="url(#clip-path)">
      <g id="Group_26576" data-name="Group 26576" transform="translate(15.679 27.105)">
        <g id="Group_26535" data-name="Group 26535" transform="translate(165.668 79.487)">
          <g id="Group_26529" data-name="Group 26529" transform="translate(58.021 0.329)">
            <path id="Path_34044" data-name="Path 34044" d="M500.049,2284.91h68.908l-35.476,117.53H465.705Z" transform="translate(-465.705 -2284.91)" fill="#000e1b" stroke="#262626" stroke-miterlimit="10" stroke-width="1"/>
          </g>
          <g id="Group_26530" data-name="Group 26530" transform="translate(122.064 133.843)">
            <path id="Path_34045" data-name="Path 34045" d="M542.158,2420.806l15.036,124.987h-4.765l-21.538-124.009Z" transform="translate(-530.891 -2420.806)" fill="#000e1b"/>
          </g>
          <g id="Group_26531" data-name="Group 26531" transform="translate(53.099 133.843)">
            <path id="Path_34046" data-name="Path 34046" d="M475.732,2420.806,460.7,2545.794h4.765L487,2421.785Z" transform="translate(-460.696 -2420.806)" fill="#000e1b"/>
          </g>
          <g id="Group_26532" data-name="Group 26532" transform="translate(0 133.843)">
            <path id="Path_34047" data-name="Path 34047" d="M421.685,2420.806l-15.036,124.987h4.765l21.538-124.009Z" transform="translate(-406.649 -2420.806)" fill="#000e1b"/>
          </g>
          <g id="Group_26533" data-name="Group 26533" transform="translate(6.447 117.858)">
            <path id="Path_34048" data-name="Path 34048" d="M419.546,2404.537h66.273l-4.244,17.889a4.563,4.563,0,0,1-2.278,2.962H413.211Z" transform="translate(-413.211 -2404.537)" fill="#000e1b"/>
          </g>
          <g id="Group_26534" data-name="Group 26534" transform="translate(60.818)">
            <path id="Path_34049" data-name="Path 34049" d="M473.4,2402.434h60.133L569.008,2284.9l5.627-.328L550.32,2420.323a3.852,3.852,0,0,1-3.747,2.962H468.552Z" transform="translate(-468.552 -2284.576)" fill="#888" stroke="#262626" stroke-miterlimit="10" stroke-width="1"/>
          </g>
        </g>
        <g id="Group_26571" data-name="Group 26571" transform="translate(54.344)">
          <g id="Group_26542" data-name="Group 26542" transform="translate(35.535 37.947)">
            <g id="Group_26541" data-name="Group 26541" transform="translate(0 6.864)">
              <g id="Group_26540" data-name="Group 26540">
                <path id="Path_34050" data-name="Path 34050" d="M453.292,2249.281l-31.76,48.348-56.621-6.571,2.974,21.768,58.477,15.783q.609.176,1.219.3l.282.07,0-.014c6.6,1.2,9.27.35,13.128-5.523l37.739-57.45Z" transform="translate(-330.128 -2249.281)" fill="#ffac9c" stroke="#262626" stroke-miterlimit="10" stroke-width="1"/>
                <g id="Group_26539" data-name="Group 26539" transform="translate(0 40.077)">
                  <g id="Group_26538" data-name="Group 26538">
                    <g id="Group_26537" data-name="Group 26537">
                      <path id="Path_34051" data-name="Path 34051" d="M367.98,2313.328a71.024,71.024,0,0,1-9.051,2.144c-2.429.3-9.443,1-10.043-1.645-.413-1.8,3.664-2.692,6.533-3.387,1.511-.365,3.494-1.573,3.22-2.55-.478-1.708-4.381-.687-7,.327-5.069,1.959-12.02,5.833-14.482,3.03-.928-1.06.572-2.483,2.645-3.783-3.248,1.383-6.64,2.4-7.718,1.267a1.579,1.579,0,0,1-.01-2.168,2.094,2.094,0,0,1-2.223-.717c-.8-1.157-.1-2.566,1.194-3.92a1.157,1.157,0,0,1-.781-.711c-1.542-3.422,10.045-10.709,13.7-10.984a79.269,79.269,0,0,1,21.616,1.825c.279.014,2.547.162,2.547.162" transform="translate(-329.508 -2290.073)" fill="#ffac9c" stroke="#262626" stroke-miterlimit="10" stroke-width="1"/>
                      <g id="Group_26536" data-name="Group 26536" transform="translate(1.476 2.186)">
                        <path id="Path_34052" data-name="Path 34052" d="M354.463,2301.461a17.1,17.1,0,0,0-7.327,1.563c-2.68,1.277-4.96,3.24-7.488,4.761" transform="translate(-331.161 -2292.459)" fill="none" stroke="#262626" stroke-linecap="round" stroke-miterlimit="10" stroke-width="1"/>
                        <path id="Path_34053" data-name="Path 34053" d="M353.1,2296.678a42.434,42.434,0,0,0-8.476,1.509c-2.988.97-5.515,2.924-7.992,4.8q-2.231,1.688-4.386,3.472" transform="translate(-331.032 -2292.375)" fill="none" stroke="#262626" stroke-linecap="round" stroke-miterlimit="10" stroke-width="1"/>
                        <path id="Path_34054" data-name="Path 34054" d="M348.388,2297.527" transform="translate(-331.315 -2292.39)" fill="none" stroke="#1a2e35" stroke-miterlimit="10" stroke-width="1"/>
                        <path id="Path_34055" data-name="Path 34055" d="M350.781,2292.3c-2.817.167-5.111.222-7.676,1.268a38.259,38.259,0,0,0-8.118,5.023c-1.356,1.054-2.674,2.151-3.977,3.271" transform="translate(-331.01 -2292.298)" fill="none" stroke="#262626" stroke-linecap="round" stroke-miterlimit="10" stroke-width="1"/>
                      </g>
                    </g>
                  </g>
                </g>
              </g>
            </g>
            <path id="Path_34056" data-name="Path 34056" d="M475.511,2244.8a15.217,15.217,0,0,0-21.075,4.363l-24.251,36.917,31.03,19,19.747-41.155-.015-.008A15.208,15.208,0,0,0,475.511,2244.8Z" transform="translate(-331.273 -2242.294)" fill="#4a4a4a" stroke="#262626" stroke-miterlimit="10" stroke-width="1"/>
          </g>
          <g id="Group_26549" data-name="Group 26549" transform="translate(0 297.213)">
            <g id="Group_26543" data-name="Group 26543" transform="translate(31.694)">
              <path id="Path_34057" data-name="Path 34057" d="M343.041,2527.252c-6.421-.837-11.358-7.285-11.358-7.285l-6.083-.027c2.137-10.5,1.778-13.754,1.778-13.754l26.637,8.82-.372,5.585h0a4.807,4.807,0,0,0-4.781,3.08A5.057,5.057,0,0,1,343.041,2527.252Z" transform="translate(-325.599 -2506.186)" fill="#fff"/>
            </g>
            <g id="Group_26544" data-name="Group 26544" transform="translate(0.395 13.754)">
              <path id="Path_34058" data-name="Path 34058" d="M302.025,2535.018c7.421-4.045,20.351-2.149,22.77-13.63.088-.419.165-.805.246-1.2l6.083.027s4.937,6.448,11.358,7.285a5.056,5.056,0,0,0,5.82-3.581,4.807,4.807,0,0,1,4.781-3.08h0l-1.481,22.245-57.862-.262S294.606,2539.063,302.025,2535.018Z" transform="translate(-293.741 -2520.185)" fill="#70d4ff"/>
            </g>
            <g id="Group_26547" data-name="Group 26547" transform="translate(13.712 13.778)">
              <g id="Group_26545" data-name="Group 26545" transform="translate(28.077 9.386)">
                <path id="Path_34059" data-name="Path 34059" d="M342.457,2533.761a19.485,19.485,0,0,1,10.783-4l-.1,1.47a17.831,17.831,0,0,0-15.721,11.947l-1.546-.006A19.494,19.494,0,0,1,342.457,2533.761Z" transform="translate(-335.874 -2529.764)" fill="#bcebff"/>
              </g>
              <g id="Group_26546" data-name="Group 26546">
                <path id="Path_34060" data-name="Path 34060" d="M331.362,2520.213s.215.276.594.71c-1.488,7.659-5.323,12.634-11.747,15.155a11.665,11.665,0,0,1-4.318.806,12,12,0,0,1-8.595-3.741q.813-.222,1.646-.425a10.4,10.4,0,0,0,10.731,1.99c6.038-2.369,9.613-7.116,10.938-14.5l.751,0Z" transform="translate(-307.296 -2520.21)" fill="#bcebff"/>
              </g>
            </g>
            <g id="Group_26548" data-name="Group 26548" transform="translate(0 36.387)">
              <path id="Path_34061" data-name="Path 34061" d="M351.6,2543.485l-.391,4.454-57.866-.263.395-4.454Z" transform="translate(-293.339 -2543.222)" fill="#fff"/>
            </g>
          </g>
          <g id="Group_26552" data-name="Group 26552" transform="translate(42.735 149.098)">
            <g id="Group_26551" data-name="Group 26551" transform="translate(17.332)">
              <g id="Group_26550" data-name="Group 26550">
                <path id="Path_34062" data-name="Path 34062" d="M507.325,2390.8s-8.577,8.564-46.8,11.787c-16.275,1.373-69.581,2.016-102.511,5.286l-3.54-38.036,109.8-12.587,27.309-1.819Z" transform="translate(-354.477 -2355.429)" fill="#000e1b"/>
              </g>
            </g>
            <path id="Path_34063" data-name="Path 34063" d="M354.168,2370.09a19.1,19.1,0,1,0,20.788,17.248A19.1,19.1,0,0,0,354.168,2370.09Z" transform="translate(-336.836 -2355.684)" fill="#000e1b"/>
          </g>
          <g id="Group_26553" data-name="Group 26553" transform="translate(29.626 155.833)">
            <path id="Path_34064" data-name="Path 34064" d="M374.6,2392.163l-18.3,122.618-32.809-2.706,13.311-125.44Z" transform="translate(-323.493 -2362.711)" fill="#000e1b"/>
            <circle id="Ellipse_3771" data-name="Ellipse 3771" cx="19.1" cy="19.1" r="19.1" transform="matrix(0.808, -0.59, 0.59, 0.808, 5.522, 22.521)" fill="#000e1b"/>
          </g>
          <g id="Group_26560" data-name="Group 26560" transform="translate(44.452 297.213)">
            <g id="Group_26554" data-name="Group 26554" transform="translate(31.694)">
              <path id="Path_34065" data-name="Path 34065" d="M388.286,2527.252c-6.422-.837-11.358-7.285-11.358-7.285l-6.083-.027c2.137-10.5,1.778-13.754,1.778-13.754l26.636,8.82-.371,5.585h0a4.808,4.808,0,0,0-4.781,3.08A5.057,5.057,0,0,1,388.286,2527.252Z" transform="translate(-370.844 -2506.186)" fill="#fff"/>
            </g>
            <g id="Group_26555" data-name="Group 26555" transform="translate(0.395 13.754)">
              <path id="Path_34066" data-name="Path 34066" d="M347.27,2535.018c7.42-4.045,20.351-2.149,22.77-13.63.088-.419.165-.805.246-1.2l6.083.027s4.936,6.448,11.358,7.285a5.056,5.056,0,0,0,5.82-3.581,4.808,4.808,0,0,1,4.781-3.08h0l-1.481,22.245-57.862-.262S339.851,2539.063,347.27,2535.018Z" transform="translate(-338.986 -2520.185)" fill="#70d4ff"/>
            </g>
            <g id="Group_26558" data-name="Group 26558" transform="translate(13.712 13.778)">
              <g id="Group_26556" data-name="Group 26556" transform="translate(28.076 9.386)">
                <path id="Path_34067" data-name="Path 34067" d="M387.7,2533.761a19.483,19.483,0,0,1,10.783-4l-.1,1.47a17.831,17.831,0,0,0-15.721,11.947l-1.547-.006A19.5,19.5,0,0,1,387.7,2533.761Z" transform="translate(-381.118 -2529.764)" fill="#bcebff"/>
              </g>
              <g id="Group_26557" data-name="Group 26557">
                <path id="Path_34068" data-name="Path 34068" d="M376.607,2520.213s.215.276.594.71c-1.488,7.659-5.323,12.634-11.747,15.155a11.665,11.665,0,0,1-4.318.806,12,12,0,0,1-8.595-3.741q.813-.222,1.646-.425a10.4,10.4,0,0,0,10.731,1.99c6.038-2.369,9.614-7.116,10.937-14.5l.752,0Z" transform="translate(-352.541 -2520.21)" fill="#bcebff"/>
              </g>
            </g>
            <g id="Group_26559" data-name="Group 26559" transform="translate(0 36.387)">
              <path id="Path_34069" data-name="Path 34069" d="M396.841,2543.485l-.391,4.454-57.866-.263.395-4.454Z" transform="translate(-338.584 -2543.222)" fill="#fff"/>
            </g>
          </g>
          <g id="Group_26563" data-name="Group 26563" transform="translate(81.872 149.098)">
            <g id="Group_26562" data-name="Group 26562" transform="translate(22.646)">
              <g id="Group_26561" data-name="Group 26561">
                <path id="Path_34070" data-name="Path 34070" d="M533.709,2356.719a30.735,30.735,0,0,1-23.774,45.484q-2.02.2-4.162.382c-16.275,1.373-69.581,2.016-102.511,5.286l-3.54-38.036,92.655-14.406,41.332,1.29Z" transform="translate(-399.722 -2355.429)" fill="#000e1b"/>
              </g>
            </g>
            <circle id="Ellipse_3772" data-name="Ellipse 3772" cx="19.1" cy="19.1" r="19.1" transform="translate(0 44.978) rotate(-70.326)" fill="#000e1b"/>
          </g>
          <g id="Group_26564" data-name="Group 26564" transform="translate(74.078 163.418)">
            <path id="Path_34071" data-name="Path 34071" d="M419.848,2392.163l-18.3,122.618-32.809-2.706,13.311-125.44Z" transform="translate(-368.738 -2370.296)" fill="#000e1b"/>
            <path id="Path_34072" data-name="Path 34072" d="M382.283,2386.344a19.1,19.1,0,1,0,21.664-16.135A19.1,19.1,0,0,0,382.283,2386.344Z" transform="translate(-368.972 -2370.005)" fill="#000e1b"/>
          </g>
          <g id="Group_26565" data-name="Group 26565" transform="translate(243.087 96.969)">
            <path id="Path_34073" data-name="Path 34073" d="M540.814,2302.37a.879.879,0,0,1,.074.088l-.125.245Z" transform="translate(-540.763 -2302.37)" fill="none"/>
          </g>
          <path id="Path_34074" data-name="Path 34074" d="M534.78,2354.736l7.615-75.747-5.312-36.694H469.564s-16.76,32.955-3.7,75.019l.275,37.951Z" transform="translate(-296.276 -2204.347)" fill="#606060" stroke="#262626" stroke-miterlimit="10" stroke-width="1"/>
          <g id="Group_26566" data-name="Group 26566" transform="translate(194.774 20.204)">
            <path id="Path_34075" data-name="Path 34075" d="M506.7,2224.235l-.668,17.3H491.588l1.079-6.886Z" transform="translate(-491.588 -2224.235)" fill="#ffac9c"/>
          </g>
          <path id="Path_34076" data-name="Path 34076" d="M493.5,2236.232a5.317,5.317,0,0,1-1.054,0l-.434,2.77c7.03-.453,9.275-7.64,9.275-7.64h0C499.729,2233.1,495.351,2236.058,493.5,2236.232Z" transform="translate(-296.822 -2204.156)" fill="#000e1b"/>
          <g id="Group_26567" data-name="Group 26567" transform="translate(190.43 9.108)">
            <path id="Path_34077" data-name="Path 34077" d="M503.55,2226.251a21.942,21.942,0,0,1-1.99,4.8c-1.043,1.562-7.476,6.779-10.956,4.491-2.665-1.752-3.194-6.206-3.329-9.3a59.374,59.374,0,0,1,.3-10.92l12.018-2.382,4.433,9.8Z" transform="translate(-487.167 -2212.941)" fill="#ffac9c"/>
          </g>
          <g id="Group_26568" data-name="Group 26568" transform="translate(187.369)">
            <path id="Path_34078" data-name="Path 34078" d="M506.558,2213.151s8.008-2.436.529,10.951l-.779,6.445-2.646-3.692-1.821-3.338-1.175,3.063h-.678l.185-7.3a4.171,4.171,0,0,1-2.5-4.375s-11.814,3.424-13.623-.714l2.1-2.96,1.437.773a8.207,8.207,0,0,1-2.1-4.973l2.763,2.432a4.817,4.817,0,0,1-.871-3.132,2.913,2.913,0,0,1,2.8-2.652h0a2.985,2.985,0,0,1,2.333.972,9.2,9.2,0,0,0,3.03,2.1C499.066,2208.337,508.4,2206.952,506.558,2213.151Z" transform="translate(-484.051 -2203.671)" fill="#000e1b"/>
          </g>
          <g id="Group_26569" data-name="Group 26569" transform="translate(204.96 18.015)">
            <path id="Path_34079" data-name="Path 34079" d="M501.956,2224.893a2.886,2.886,0,1,0,2.887-2.886A2.886,2.886,0,0,0,501.956,2224.893Z" transform="translate(-501.956 -2222.007)" fill="#ffac9c"/>
          </g>
          <g id="Group_26570" data-name="Group 26570" transform="translate(192.734 31.558)">
            <path id="Path_34080" data-name="Path 34080" d="M497.574,2248.164l-3.113-5.783-3.746,5.468a40.915,40.915,0,0,1-1.2-5.507l2.662-4.574,2.373,3.3,11.677-5.279.959,6.548Z" transform="translate(-489.512 -2235.792)" fill="#fff"/>
          </g>
        </g>
        <g id="Group_26572" data-name="Group 26572" transform="translate(13.964 38.395)">
          <path id="Path_34081" data-name="Path 34081" d="M281.024,2317.756h64.06l2.19-3.286H277.738A3.287,3.287,0,0,0,281.024,2317.756Z" transform="translate(-252.685 -2244.008)" fill="#f1ece8" stroke="#262626" stroke-miterlimit="10" stroke-width="1"/>
          <path id="Path_34082" data-name="Path 34082" d="M340.434,2317.756H407.78l2.19-3.286H340.434Z" transform="translate(-253.784 -2244.008)" fill="#fff" stroke="#262626" stroke-miterlimit="10" stroke-width="1"/>
          <path id="Path_34083" data-name="Path 34083" d="M254.508,2245.106l24.945,68.106h61.6l-24.755-67.588a4.379,4.379,0,0,0-4.113-2.874H256.154A1.752,1.752,0,0,0,254.508,2245.106Z" transform="translate(-252.276 -2242.751)" fill="#fff" stroke="#262626" stroke-miterlimit="10" stroke-width="1"/>
          <path id="Path_34084" data-name="Path 34084" d="M252.346,2245.106l24.945,68.106h61.6l-24.754-67.588a4.381,4.381,0,0,0-4.114-2.874H253.992A1.752,1.752,0,0,0,252.346,2245.106Z" transform="translate(-252.238 -2242.751)" fill="#f1ece8" stroke="#262626" stroke-miterlimit="10" stroke-width="1"/>
          <path id="Path_34085" data-name="Path 34085" d="M287.575,2281.919a8.954,8.954,0,0,0,7.907,5.993c3.31,0,5.136-2.683,4.079-5.993a8.954,8.954,0,0,0-7.907-5.993C288.344,2275.926,286.518,2278.609,287.575,2281.919Z" transform="translate(-252.852 -2243.333)" fill="#fff" stroke="#262626" stroke-miterlimit="10" stroke-width="1"/>
        </g>
        <g id="Group_26573" data-name="Group 26573" transform="translate(0 116.687)">
          <path id="Path_34086" data-name="Path 34086" d="M259.195,2322.44,238.025,2544.1h5.342l26.949-219.774Z" transform="translate(-238.025 -2322.44)" fill="#000e1b" stroke="#262626" stroke-miterlimit="10" stroke-width="1"/>
          <path id="Path_34087" data-name="Path 34087" d="M471.994,2322.44l21.17,221.656h-5.342l-26.949-219.774Z" transform="translate(-241.931 -2322.44)" fill="#000e1b" stroke="#262626" stroke-miterlimit="10" stroke-width="1"/>
        </g>
        <g id="Group_26575" data-name="Group 26575" transform="translate(112.572 90.64)">
          <rect id="Rectangle_8644" data-name="Rectangle 8644" width="21.126" height="1.45" transform="translate(7.988 20.054)" fill="#000e1b"/>
          <g id="Group_26574" data-name="Group 26574">
            <path id="Path_34088" data-name="Path 34088" d="M352.707,2305.994a5.035,5.035,0,0,0,7.667,3.21,7.385,7.385,0,0,0,7.357,6.778h6.852a7.389,7.389,0,0,0,7.388-7.388v-10.942a1.723,1.723,0,0,0-1.723-1.723H362.066a1.723,1.723,0,0,0-1.723,1.723v3.062a5.034,5.034,0,0,0-7.636,5.28Zm2.45-1.027a2.494,2.494,0,1,1,2.493,2.494A2.494,2.494,0,0,1,355.157,2304.967Z" transform="translate(-352.606 -2295.928)" fill="#ffa400"/>
          </g>
        </g>
      </g>
    </g>
    <path id="Path_34091" data-name="Path 34091" d="M513.323,2320.728a15.219,15.219,0,1,0-19.2,9.725A15.22,15.22,0,0,0,513.323,2320.728Z" transform="translate(-25.348 -46.555)" fill="#ffac9c"/>
    <path id="Path_34092" data-name="Path 34092" d="M439.608,2298.582a11.288,11.288,0,1,1-5.343-15.044A11.288,11.288,0,0,1,439.608,2298.582Z" transform="translate(-24.2 -46.235)" fill="#ffac9c"/>
    <path id="Path_34093" data-name="Path 34093" d="M522.951,2248.867l-31.76,48.348-53.621-13.991-3.175-.915-3.731,22,61.092,24.253c.387.173.777.328,1.173.466l.266.106,0-.013a15.211,15.211,0,0,0,17.453-6.094l37.74-57.45Z" transform="translate(-24.419 -45.646)" fill="#ffac9c" stroke="#262626" stroke-miterlimit="10" stroke-width="1"/>
    <path id="Path_34094" data-name="Path 34094" d="M411.033,2274.32c-7.572-1.055-9.677-.163-15.595-4.447-3.884-2.811-7.345-1.537-5.129,2.929,3.623,7.3,13.106,10.716,16.735,10.953Z" transform="translate(-23.7 -45.988)" fill="#ffac9c" stroke="#262626" stroke-miterlimit="10" stroke-width="1"/>
    <path id="Path_34095" data-name="Path 34095" d="M433.183,2304.467s1.787.052-3.365.284-15.458-5.786-17.44-6.621-5.3,2.135-5.3,2.135a15.749,15.749,0,0,1-1.347,1.448,73.836,73.836,0,0,1-8.317-6.454c-2.992-2.682-1.448-10.706-1.448-10.706-2.817.786-5.078,3.4-9.277,6.018-5.409,3.371-5.226-2.271-1.7-6.265,11.19-12.66,24.058-10.573,29.561-9.244,7.958,1.921,16.465,6.646,16.465,6.646a34.834,34.834,0,0,0,5.181,1.806" transform="translate(-23.575 -46.087)" fill="#ffac9c" stroke="#262626" stroke-miterlimit="10" stroke-width="1"/>
    <path id="Path_34096" data-name="Path 34096" d="M397.389,2283.193c-4.073,4.473-10.716,14.189-7.382,17.163,2.444,2.18,5.306-1.307,5.306-1.307s-1.9,4.594.74,6.08c2.405,1.355,4.457-1.475,4.457-1.475s-.673,2.985,1.894,3.844c3.089,1.032,6.306-7.665,10.338-9.322" transform="translate(-23.691 -46.247)" fill="#ffac9c" stroke="#262626" stroke-miterlimit="10" stroke-width="1"/>
    <path id="Path_34097" data-name="Path 34097" d="M395.424,2299.117c.617-1.147,5.276-9.454,8.812-12.036" transform="translate(-23.802 -46.316)" fill="#ffac9c" stroke="#262626" stroke-linecap="round" stroke-miterlimit="10" stroke-width="1"/>
    <path id="Path_34098" data-name="Path 34098" d="M400.843,2303.741c.617-1.148,5.275-9.455,8.811-12.037" transform="translate(-23.896 -46.397)" fill="#ffac9c" stroke="#262626" stroke-linecap="round" stroke-miterlimit="10" stroke-width="1"/>
    <path id="Path_34099" data-name="Path 34099" d="M545.24,2244.8a15.218,15.218,0,0,0-21.075,4.364l-24.251,36.917,31.03,19,19.747-41.155-.015-.008A15.208,15.208,0,0,0,545.24,2244.8Z" transform="translate(-25.633 -45.531)" fill="#606060" stroke="#262626" stroke-miterlimit="10" stroke-width="1"/>
    <path id="Path_34100" data-name="Path 34100" d="M0,0H240.264V7.78H0Z" transform="translate(222.466 2270.96)" fill="#888" stroke="#262626" stroke-width="1"/>
  </g>
</svg>
