<svg xmlns="http://www.w3.org/2000/svg" xmlns:xlink="http://www.w3.org/1999/xlink" width="375" height="270" viewBox="0 0 375 270">
  <defs>
    <clipPath id="clip-path">
      <rect id="Rectangle_8669" data-name="Rectangle 8669" width="318" height="221" fill="#fff" stroke="#707070" stroke-width="1"/>
    </clipPath>
  </defs>
  <g id="invite-graphic" transform="translate(-223.06 -1431.21)">
    <path id="Path_33973" data-name="Path 33973" d="M534.327,1628.718c-21.47-18.633-52.479-27.715-83.1-32.505s-62.041-5.94-92.356-11.925c-14.808-2.924-30.421-6.986-44.876-3.04-15.177,4.143-25.059,16.124-31.9,28.037-16.621,28.956-21.911,62.246-14.9,93.755,4.131,18.567,12.828,36.994,28.883,50.456a85.988,85.988,0,0,0,11.675,8.19H525.138a100.8,100.8,0,0,0,13.677-10.577c7.912-7.3,15.222-23.794,18.687-45.265C561.935,1678.383,557.472,1648.8,534.327,1628.718Z" transform="translate(-41.113 -148.401)" fill="#ece9fc"/>
    <path id="Path_33974" data-name="Path 33974" d="M566.355,1551.1c-29.268-23.79-73.086-27.874-106.247-9.9-24.392,13.218-41.817,36.206-63.817,53.109-25.449,19.552-56.437,30.531-83.182,48.268-19.1,12.667-37.21,31.6-37,54.513.169,18.425,12.522,35.714,28.934,44.089,2.3,1.176,10.942,4.482,22.214,7.4H473.4a231.474,231.474,0,0,0,32.294-9.832c20.24-7.855,39.729-18.167,56.149-32.37s29.689-32.49,35.916-53.288C608.573,1616.953,595.623,1574.892,566.355,1551.1Z" transform="translate(-3.481 -47.365)" fill="#d8d2fc"/>
    <path id="Union_1" data-name="Union 1" d="M155.654,89.255H40.94a6.791,6.791,0,0,1-6.794-6.792V75.117H0L34.146,60.611V6.792A6.8,6.8,0,0,1,40.943,0H155.658a6.793,6.793,0,0,1,6.792,6.794V82.468a6.79,6.79,0,0,1-6.791,6.788Z" transform="translate(426.343 1502.034)" fill="#fff" stroke="#000" stroke-width="1"/>
    <rect id="Rectangle_8519" data-name="Rectangle 8519" width="49.766" height="3.754" transform="translate(471.161 1561.874)" fill="#4e4c4e" opacity="0.4" style="isolation: isolate"/>
    <rect id="Rectangle_8520" data-name="Rectangle 8520" width="96.803" height="3.754" transform="translate(471.161 1553.156)" fill="#4e4c4e" opacity="0.4" style="isolation: isolate"/>
    <rect id="Rectangle_8521" data-name="Rectangle 8521" width="107.402" height="3.754" transform="translate(471.161 1544.438)" fill="#4e4c4e" opacity="0.4" style="isolation: isolate"/>
    <rect id="Rectangle_8522" data-name="Rectangle 8522" width="83.024" height="3.754" transform="translate(471.161 1535.721)" fill="#4e4c4e" opacity="0.4" style="isolation: isolate"/>
    <rect id="Rectangle_8523" data-name="Rectangle 8523" width="107.402" height="3.754" transform="translate(471.161 1527.004)" fill="#4e4c4e" opacity="0.4" style="isolation: isolate"/>
    <path id="Path_34013" data-name="Path 34013" d="M324.64,1754.1c-6.806-11.164-26.629-41.642-50.917-60.6-30.18-23.552-43.518-27.978-41.456-17.55.968,4.9,12.319,4.18,30.449,13.772,19.283,10.2,47.064,48.173,57.172,64.477Z" transform="translate(-9 -141.564)" fill="#aaa"/>
    <path id="Path_34014" data-name="Path 34014" d="M269.928,1695.274s-3.448-13.276-4.5-19.08c-1.027-5.67-10.084-19.114-12.968-9.318-1.706,5.792,13.267,18.722,11.726,23.927s-26.726-5.306-29.125,5.048S265.8,1691.554,269.928,1695.274Z" transform="translate(-8.153 -143.693)" fill="#aaa"/>
    <path id="Path_34015" data-name="Path 34015" d="M281.4,1708.409s1.654-19.4,2.466-25.239c.792-5.707-3.652-19.48-9.446-11.072-3.425,4.972,6.005,25.806,2.919,30.272s-28.2-2.844-29.6,7.668C246.327,1720.574,278.64,1703.587,281.4,1708.409Z" transform="translate(-4.398 -141.913)" fill="#aaa"/>
    <path id="Path_34016" data-name="Path 34016" d="M293.516,1722.845s4.415-15.081,5.97-20.77c1.52-5.558,2.526-23.349-5.147-16.609-5.456,4.792.837,29.191-2.8,33.223s-34.949-7.03-32.861,4.645C260.554,1733.8,291.4,1717.711,293.516,1722.845Z" transform="translate(-1.191 -137.638)" fill="#aaa"/>
    <path id="Path_34017" data-name="Path 34017" d="M309.053,1742.746a215.578,215.578,0,0,1,8.273-27.323c1.97-5.415,1.363-19.021-5.464-11.424-4.035,4.489-2.427,28.2-6.061,32.237s-31.6-11.993-34.217,1.421C269.549,1748.09,306.936,1737.61,309.053,1742.746Z" transform="translate(2.614 -132.402)" fill="#aaa"/>
    <g id="Mask_Group_216" data-name="Mask Group 216" transform="translate(261.061 1479.305)" clip-path="url(#clip-path)">
      <g id="man" transform="translate(32.849 41.407)">
        <path id="Path_33520" data-name="Path 33520" d="M502.138,2548.2a14.451,14.451,0,0,0-3.345.094l.01-.075-61.546-11.756-32.746-56.65-27.853,16.1L412.4,2557.75a15.969,15.969,0,0,0,14.308,9.16l59.42,3.927a6.317,6.317,0,0,0,1.877,1.188S511.443,2548.946,502.138,2548.2Z" transform="translate(-255.257 -2428.319)" fill="#ffac9c" stroke="#262626" stroke-miterlimit="10" stroke-width="1"/>
        <g id="Group_26253" data-name="Group 26253" transform="translate(230.017 119.252)">
          <g id="Group_26252" data-name="Group 26252">
            <g id="Group_26251" data-name="Group 26251">
              <path id="Path_33521" data-name="Path 33521" d="M461.382,2555.743c.433.3,9.811,7.344,13.735,9.055,2.928,1.278,11.453,4.724,13.178,1.639,1.179-2.1-3.6-4.718-6.931-6.645-1.756-1.013-3.793-3.254-3.092-4.377,1.228-1.964,5.738.752,8.646,2.987,5.622,4.321,12.9,11.729,17.011,9.128,1.554-.986.2-3.32-1.917-5.71,3.556,2.927,7.425,5.453,9.194,4.427a2.058,2.058,0,0,0,.811-2.709,2.735,2.735,0,0,0,3.047-.078c1.429-1.153,1.068-3.176-.05-5.347a1.514,1.514,0,0,0,1.24-.6c3.19-3.716-8.63-17.1-13.1-18.8-13.148-4.983-27.732-5.678-27.732-5.678-.355-.084-3.9-.372-3.9-.372" transform="translate(-461.382 -2532.666)" fill="#ffac9c" stroke="#262626" stroke-miterlimit="10" stroke-width="1"/>
              <g id="Group_26250" data-name="Group 26250" transform="translate(24.781 6.086)">
                <path id="Path_33522" data-name="Path 33522" d="M480.712,2545.188a22.345,22.345,0,0,1,8.6,4.655c2.884,2.585,5.015,5.882,7.62,8.721" transform="translate(-480.712 -2535.221)" fill="none" stroke="#262626" stroke-linecap="round" stroke-miterlimit="10" stroke-width="1"/>
                <path id="Path_33523" data-name="Path 33523" d="M483.266,2540.955a55.207,55.207,0,0,1,10.056,5.011c3.382,2.314,5.825,5.691,8.237,8.948q2.171,2.935,4.213,5.96" transform="translate(-479.992 -2536.416)" fill="none" stroke="#262626" stroke-linecap="round" stroke-miterlimit="10" stroke-width="1"/>
                <path id="Path_33524" data-name="Path 33524" d="M487.9,2543.2" transform="translate(-478.684 -2535.781)" fill="none" stroke="#1a2e35" stroke-miterlimit="10" stroke-width="1"/>
                <path id="Path_33525" data-name="Path 33525" d="M486.747,2537.414c3.463,1.246,6.315,2.16,9.141,4.414a49.946,49.946,0,0,1,8.311,9.278c1.309,1.819,2.556,3.68,3.776,5.559" transform="translate(-479.01 -2537.414)" fill="none" stroke="#262626" stroke-linecap="round" stroke-miterlimit="10" stroke-width="1"/>
              </g>
            </g>
          </g>
        </g>
        <path id="Path_33526" data-name="Path 33526" d="M391.422,2541.8l36.927-19.8-23.363-40.418-.014.007c-.178-.309-.35-.62-.551-.919a16.084,16.084,0,0,0-28.81,13.426l-.006,0,.027.084c.015.054.037.106.054.161Z" transform="translate(-255.73 -2430.087)" fill="#4a4a4a" stroke="#262626" stroke-miterlimit="10" stroke-width="1"/>
        <g id="Group_26260" data-name="Group 26260" transform="translate(134.539 454.975)">
          <g id="Group_26254" data-name="Group 26254">
            <path id="Path_33527" data-name="Path 33527" d="M398.735,2817.541c7.22-.7,12.987-7.732,12.987-7.732l6.811.2c-2-11.838-1.479-15.462-1.479-15.462l-30.147,8.881.209,6.264h0a5.389,5.389,0,0,1,5.237,3.628C393.108,2815.559,394.827,2817.918,398.735,2817.541Z" transform="translate(-386.906 -2794.542)" fill="#fff" stroke="#262626" stroke-miterlimit="10" stroke-width="1"/>
          </g>
          <g id="Group_26255" data-name="Group 26255" transform="translate(0.209 15.145)">
            <path id="Path_33528" data-name="Path 33528" d="M443.7,2824.135c-8.156-4.8-22.7-3.163-24.982-16.106-.083-.472-.155-.909-.231-1.358l-6.811-.194s-5.766,7.034-12.987,7.732c-3.907.376-5.627-1.982-6.383-4.226a5.387,5.387,0,0,0-5.237-3.627h0l.828,24.96,64.787,1.86S451.856,2828.939,443.7,2824.135Z" transform="translate(-387.069 -2806.355)" fill="#000e1b" stroke="#262626" stroke-miterlimit="10" stroke-width="1"/>
          </g>
          <g id="Group_26258" data-name="Group 26258" transform="translate(1.441 16.463)">
            <g id="Group_26256" data-name="Group 26256" transform="translate(0 8.614)">
              <g id="Path_33529" data-name="Path 33529" transform="translate(-388.03 -2814.103)" fill="#fff" stroke-miterlimit="10">
                <path d="M 406.7255249023438 2830.1806640625 L 406.0503845214844 2830.160888671875 L 404.399169921875 2830.1123046875 L 404.0388793945312 2830.101806640625 L 403.93505859375 2829.756591796875 C 402.8443908691406 2826.130126953125 400.8122253417969 2822.95849609375 398.0582275390625 2820.584228515625 C 395.2142333984375 2818.126708984375 391.7462463378906 2816.62548828125 388.0286865234375 2816.242431640625 L 387.5934753417969 2816.19775390625 L 387.5801696777344 2815.76025390625 L 387.5301208496094 2814.11767578125 L 387.5129089355469 2813.55224609375 L 388.0762023925781 2813.604736328125 C 390.1976318359375 2813.802001953125 392.2741088867188 2814.326171875 394.2479553222656 2815.162841796875 C 396.2431335449219 2816.008544921875 398.0821838378906 2817.152099609375 399.7139892578125 2818.561767578125 C 401.344482421875 2819.96923828125 402.7630920410156 2821.63623046875 403.9302673339844 2823.516845703125 C 405.0844421386719 2825.37646484375 405.9649963378906 2827.399169921875 406.5473937988281 2829.529296875 L 406.7255249023438 2830.1806640625 Z" stroke="none"/>
                <path d="M 388.0299072265625 2814.1025390625 L 388.0799255371094 2815.7451171875 C 391.8401794433594 2816.132568359375 395.4579162597656 2817.676513671875 398.3847045898438 2820.20556640625 C 401.2294921875 2822.657958984375 403.3165283203125 2825.9638671875 404.4138793945312 2829.612548828125 L 406.0650939941406 2829.6611328125 C 404.9266357421875 2825.49755859375 402.6037902832031 2821.716552734375 399.3871154785156 2818.940185546875 C 396.1694641113281 2816.160400390625 392.1657104492188 2814.487060546875 388.0299072265625 2814.1025390625 M 386.9959411621094 2813.002197265625 L 388.1224670410156 2813.10693359375 C 390.2952270507812 2813.308837890625 392.4217834472656 2813.845703125 394.4430847167969 2814.702392578125 C 396.4862670898438 2815.568359375 398.36962890625 2816.73974609375 400.0408630371094 2818.183349609375 C 401.7095642089844 2819.623779296875 403.1611938476562 2821.32958984375 404.3550720214844 2823.253173828125 C 405.5346984863281 2825.153564453125 406.4345703125 2827.220947265625 407.0296936035156 2829.3974609375 L 407.385986328125 2830.700439453125 L 403.6638793945312 2830.5908203125 L 403.4562377929688 2829.900634765625 C 402.3930358886719 2826.365478515625 400.4135437011719 2823.27490234375 397.7317504882812 2820.962890625 C 394.9652404785156 2818.572509765625 391.5925598144531 2817.1123046875 387.9774169921875 2816.73974609375 L 387.1070251464844 2816.650146484375 L 386.9959411621094 2813.002197265625 Z" stroke="none" fill="#262626"/>
              </g>
            </g>
            <g id="Group_26257" data-name="Group 26257" transform="translate(23.402)">
              <g id="Path_33530" data-name="Path 33530" transform="translate(-406.284 -2807.383)" fill="#fff" stroke-miterlimit="10">
                <path d="M 423.5967407226562 2825.937255859375 C 423.4666442871094 2825.937255859375 423.3347778320312 2825.935302734375 423.2047729492188 2825.931640625 C 421.5258483886719 2825.884033203125 419.8932189941406 2825.534423828125 418.3524780273438 2824.892333984375 C 414.835693359375 2823.4287109375 412.0021667480469 2821.286376953125 409.9308471679688 2818.524658203125 C 407.8702697753906 2815.777587890625 406.477294921875 2812.300048828125 405.7907104492188 2808.189208984375 L 405.7490844726562 2807.940185546875 L 405.9249267578125 2807.7587890625 C 406.1650390625 2807.51123046875 406.3467102050781 2807.314453125 406.4557495117188 2807.19384765625 L 406.4557495117188 2806.883056640625 L 406.9557495117188 2806.883056640625 L 406.9636535644531 2806.883056640625 L 406.9728698730469 2806.88330078125 L 407.7908020019531 2806.9091796875 L 408.2069091796875 2806.92236328125 L 408.2693481445312 2807.333984375 C 409.4237976074219 2814.944580078125 413.0545654296875 2819.921875 419.3691101074219 2822.55029296875 C 420.7095947265625 2823.110595703125 422.1305847167969 2823.39453125 423.5932922363281 2823.39453125 C 426.1460266113281 2823.39453125 428.6407775878906 2822.516845703125 430.6179504394531 2820.923095703125 L 430.8167724609375 2820.762939453125 L 431.0631103515625 2820.830078125 C 431.7221069335938 2821.009521484375 432.3074340820312 2821.17578125 432.8525085449219 2821.338134765625 L 433.68359375 2821.5859375 L 433.0528259277344 2822.18115234375 C 431.7811279296875 2823.380859375 430.3075256347656 2824.317626953125 428.6729431152344 2824.96533203125 C 427.0452880859375 2825.6103515625 425.33740234375 2825.937255859375 423.5967407226562 2825.937255859375 Z" stroke="none"/>
                <path d="M 406.9557495117188 2807.383056640625 C 406.9557495117188 2807.384765625 406.7121276855469 2807.665283203125 406.2838745117188 2808.10693359375 C 407.6351318359375 2816.197265625 411.6375122070312 2821.55615234375 418.5447998046875 2824.430908203125 C 420.0576171875 2825.061279296875 421.6423034667969 2825.38720703125 423.2191772460938 2825.431884765625 C 423.344970703125 2825.435546875 423.4711303710938 2825.437255859375 423.5967712402344 2825.437255859375 C 426.9594116210938 2825.437255859375 430.2418212890625 2824.14599609375 432.7096862792969 2821.8173828125 C 432.1239624023438 2821.642822265625 431.5314331054688 2821.475830078125 430.9317321777344 2821.3125 C 427.6933898925781 2823.9228515625 423.1537475585938 2824.673828125 419.1769409179688 2823.011962890625 C 412.6849670410156 2820.3095703125 408.9569702148438 2815.200927734375 407.7749938964844 2807.408935546875 L 406.9557495117188 2807.383056640625 M 405.9557495117188 2806.383056640625 L 406.9887084960938 2806.383544921875 L 408.6388244628906 2806.435791015625 L 408.763671875 2807.259033203125 C 409.8897094726562 2814.68212890625 413.421630859375 2819.532958984375 419.5612487792969 2822.0888671875 C 420.8409729003906 2822.62353515625 422.1971130371094 2822.89453125 423.5932922363281 2822.89453125 C 426.0322875976562 2822.89453125 428.4155883789062 2822.05615234375 430.30419921875 2820.533935546875 L 430.7017822265625 2820.21337890625 L 431.1945190429688 2820.34765625 C 431.8573608398438 2820.528076171875 432.4464111328125 2820.695556640625 432.9953002929688 2820.859130859375 L 434.6575012207031 2821.3544921875 L 433.3959655761719 2822.544677734375 C 432.0779724121094 2823.788330078125 430.5509033203125 2824.759033203125 428.8571166992188 2825.43017578125 C 427.1705627441406 2826.098388671875 425.4007263183594 2826.437255859375 423.5967407226562 2826.437255859375 C 423.4618835449219 2826.437255859375 423.3251647949219 2826.435302734375 423.1904296875 2826.431396484375 C 421.4502258300781 2826.382080078125 419.7576599121094 2826.01953125 418.16015625 2825.35400390625 C 414.5599670410156 2823.855712890625 411.6565246582031 2821.658935546875 409.5308532714844 2818.82470703125 C 407.4217529296875 2816.012939453125 405.9974670410156 2812.462158203125 405.2975463867188 2808.271728515625 L 405.2143249511719 2807.7734375 L 405.5659790039062 2807.410888671875 C 405.7261352539062 2807.24560546875 405.8565063476562 2807.10693359375 405.9557495117188 2806.999755859375 L 405.9557495117188 2806.383056640625 Z" stroke="none" fill="#262626"/>
              </g>
            </g>
          </g>
          <g id="Group_26259" data-name="Group 26259" transform="translate(1.038 40.106)">
            <path id="Path_33531" data-name="Path 33531" d="M387.715,2825.826l.272,5,64.79,1.86-.276-5Z" transform="translate(-387.715 -2825.826)" fill="#fff" stroke="#262626" stroke-miterlimit="10" stroke-width="1"/>
          </g>
        </g>
        <g id="Group_26267" data-name="Group 26267" transform="translate(23.644 454.975)">
          <g id="Group_26261" data-name="Group 26261" transform="translate(4.765)">
            <path id="Path_33532" data-name="Path 33532" d="M314.2,2817.541c7.356-.7,14.5-7.732,14.5-7.732l6.773.2c.318-11.838,1.548-15.462,1.548-15.462l-31.886,8.881-1.018,6.264h0a4.246,4.246,0,0,1,4.527,3.628C308.964,2815.559,310.223,2817.918,314.2,2817.541Z" transform="translate(-304.121 -2794.542)" fill="#fff" stroke="#262626" stroke-miterlimit="10" stroke-width="1"/>
          </g>
          <g id="Group_26262" data-name="Group 26262" transform="translate(0.707 15.145)">
            <path id="Path_33533" data-name="Path 33533" d="M358.164,2824.135c-7.215-4.8-22.084-3.163-21.83-16.106.009-.472.023-.909.035-1.358l-6.773-.194s-7.143,7.034-14.5,7.732c-3.98.376-5.239-1.982-5.556-4.226a4.245,4.245,0,0,0-4.527-3.627h0l-4.058,24.96,64.422,1.86S365.379,2828.939,358.164,2824.135Z" transform="translate(-300.956 -2806.355)" fill="#000e1b" stroke="#262626" stroke-miterlimit="10" stroke-width="1"/>
          </g>
          <g id="Group_26265" data-name="Group 26265" transform="translate(3.821 16.273)">
            <g id="Group_26263" data-name="Group 26263" transform="translate(0 9.598)">
              <g id="Path_33534" data-name="Path 33534" transform="translate(-303.385 -2814.722)" fill="#fff" stroke-miterlimit="10">
                <path d="M 319.1550903320312 2830.00244140625 L 318.5918579101562 2829.986328125 L 316.967529296875 2829.93994140625 L 316.5364379882812 2829.927734375 L 316.4853210449219 2829.49951171875 C 316.0787048339844 2826.090576171875 314.6669006347656 2823.107421875 312.402587890625 2820.87255859375 C 310.0593566894531 2818.55712890625 306.9236755371094 2817.140380859375 303.3343200683594 2816.775146484375 L 302.806396484375 2816.721435546875 L 302.8914184570312 2816.19775390625 L 303.1439514160156 2814.6416015625 L 303.2186584472656 2814.181396484375 L 303.6830139160156 2814.223876953125 C 305.7488403320312 2814.41259765625 307.71142578125 2814.913330078125 309.5162353515625 2815.711669921875 C 311.3447875976562 2816.5205078125 312.9641723632812 2817.614501953125 314.3294677734375 2818.963134765625 C 315.6943664550781 2820.310546875 316.7994079589844 2821.905517578125 317.6138305664062 2823.7041015625 C 318.4179382324219 2825.479736328125 318.9193115234375 2827.409912109375 319.1040649414062 2829.44140625 L 319.1550903320312 2830.00244140625 Z" stroke="none"/>
                <path d="M 303.6374816894531 2814.7216796875 L 303.3849487304688 2816.27783203125 C 307.0321655273438 2816.64892578125 310.32568359375 2818.117431640625 312.7538452148438 2820.5166015625 C 315.1138916015625 2822.84619140625 316.5690002441406 2825.979736328125 316.9818115234375 2829.440185546875 L 318.6061096191406 2829.486572265625 C 318.2470703125 2825.53857421875 316.6471557617188 2821.95361328125 313.9780883789062 2819.31884765625 C 311.3076477050781 2816.680908203125 307.6577453613281 2815.08935546875 303.6374816894531 2814.7216796875 M 302.7998046875 2813.640869140625 L 303.7285461425781 2813.725830078125 C 305.8486022949219 2813.919677734375 307.8638916015625 2814.43408203125 309.718505859375 2815.25439453125 C 311.6026916503906 2816.087890625 313.2722778320312 2817.216064453125 314.6808471679688 2818.607421875 C 316.0893859863281 2819.997802734375 317.2295227050781 2821.643310546875 318.0693054199219 2823.497802734375 C 318.8965148925781 2825.324462890625 319.4122009277344 2827.308837890625 319.6019897460938 2829.39599609375 L 319.7040405273438 2830.518310546875 L 316.0910339355469 2830.4150390625 L 315.9888610839844 2829.55859375 C 315.5957641601562 2826.263671875 314.2341918945312 2823.383056640625 312.0513305664062 2821.228271484375 C 309.7899780273438 2818.993896484375 306.75830078125 2817.626220703125 303.2837219238281 2817.272705078125 L 302.2278442382812 2817.165283203125 L 302.7998046875 2813.640869140625 Z" stroke="none" fill="#262626"/>
              </g>
            </g>
            <g id="Group_26264" data-name="Group 26264" transform="translate(25.14)">
              <g id="Path_33535" data-name="Path 33535" transform="translate(-322.995 -2807.235)" fill="#fff" stroke-miterlimit="10">
                <path d="M 336.8964538574219 2825.978515625 C 336.7684936523438 2825.978515625 336.6391296386719 2825.976806640625 336.5120239257812 2825.97314453125 C 334.8276672363281 2825.923828125 333.2480773925781 2825.568603515625 331.8167114257812 2824.9169921875 C 328.5496215820312 2823.42578125 326.1155700683594 2821.242919921875 324.5816650390625 2818.4287109375 C 323.0606079101562 2815.63818359375 322.3655090332031 2812.111572265625 322.5156860351562 2807.946533203125 L 322.5235900878906 2807.726806640625 L 322.6909484863281 2807.584228515625 C 322.9850769042969 2807.333251953125 323.2052001953125 2807.13720703125 323.3397521972656 2807.015380859375 L 323.3397521972656 2806.73486328125 L 323.8397521972656 2806.73486328125 L 323.8467407226562 2806.73486328125 L 323.8548889160156 2806.735107421875 L 324.6741333007812 2806.758056640625 L 325.1856994628906 2806.772216796875 L 325.1594848632812 2807.283447265625 C 324.7671508789062 2814.937255859375 327.3836364746094 2819.9384765625 333.1584167480469 2822.5732421875 C 334.3841247558594 2823.134521484375 335.7491760253906 2823.4189453125 337.2162475585938 2823.4189453125 C 339.8022766113281 2823.4189453125 342.5145568847656 2822.523193359375 344.8534240722656 2820.89697265625 L 345.048828125 2820.760986328125 L 345.2774963378906 2820.826904296875 C 345.8455200195312 2820.990966796875 346.4174499511719 2821.1640625 346.9773864746094 2821.342041015625 L 347.8719177246094 2821.626220703125 L 347.1369323730469 2822.210205078125 C 345.6236267089844 2823.412109375 343.9604797363281 2824.35107421875 342.1936950683594 2825.000732421875 C 340.4289855957031 2825.649658203125 338.646728515625 2825.978515625 336.8964538574219 2825.978515625 Z" stroke="none"/>
                <path d="M 323.8397521972656 2807.23486328125 C 323.8397521972656 2807.2353515625 323.5370483398438 2807.519775390625 323.0153503417969 2807.964599609375 C 322.7204895019531 2816.1416015625 325.6549377441406 2821.554931640625 332.0238647460938 2824.4619140625 C 333.4187927246094 2825.096923828125 334.9482727050781 2825.42724609375 336.5261840820312 2825.473388671875 C 336.6492004394531 2825.476806640625 336.7729187011719 2825.478515625 336.8964538574219 2825.478515625 C 340.2867431640625 2825.478515625 343.8621520996094 2824.1728515625 346.8259582519531 2821.818603515625 C 346.2720031738281 2821.642578125 345.7092590332031 2821.471923828125 345.1388854980469 2821.307373046875 C 341.3427734375 2823.947021484375 336.6160888671875 2824.70654296875 332.9508666992188 2823.028076171875 C 326.9640197753906 2820.296630859375 324.2564086914062 2815.134033203125 324.66015625 2807.2578125 L 323.8397521972656 2807.23486328125 M 322.8397521972656 2806.23486328125 L 323.868896484375 2806.2353515625 L 325.7112426757812 2806.286865234375 L 325.6588439941406 2807.30908203125 C 325.2781982421875 2814.734375 327.7992248535156 2819.57861328125 333.3659362792969 2822.118408203125 C 334.5264892578125 2822.649658203125 335.8215026855469 2822.9189453125 337.2162475585938 2822.9189453125 C 339.7012023925781 2822.9189453125 342.3121032714844 2822.054931640625 344.5679931640625 2820.486328125 L 344.9587707519531 2820.214599609375 L 345.4161071777344 2820.3466796875 C 345.9884033203125 2820.51171875 346.5646667480469 2820.686279296875 347.1287841796875 2820.865478515625 L 348.9178771972656 2821.43408203125 L 347.4479370117188 2822.6015625 C 345.892822265625 2823.8369140625 344.18310546875 2824.802001953125 342.3662414550781 2825.469970703125 C 340.5461120605469 2826.13916015625 338.7057800292969 2826.478515625 336.8964538574219 2826.478515625 C 336.7640380859375 2826.478515625 336.6299438476562 2826.476806640625 336.4978942871094 2826.472900390625 C 334.7461853027344 2826.421875 333.1018371582031 2826.05126953125 331.6095581054688 2825.3720703125 C 328.2413940429688 2823.834716796875 325.7294921875 2821.579345703125 324.1426391601562 2818.668212890625 C 323.3519897460938 2817.217529296875 322.7729187011719 2815.5712890625 322.4215087890625 2813.775146484375 C 322.076171875 2812.01025390625 321.9397583007812 2810.04296875 322.0159912109375 2807.928466796875 L 322.0318603515625 2807.489013671875 L 322.3665466308594 2807.20361328125 C 322.5570678710938 2807.041259765625 322.7160034179688 2806.902099609375 322.8397521972656 2806.792236328125 L 322.8397521972656 2806.23486328125 Z" stroke="none" fill="#262626"/>
              </g>
            </g>
          </g>
          <g id="Group_26266" data-name="Group 26266" transform="translate(0 40.106)">
            <path id="Path_33536" data-name="Path 33536" d="M301.111,2825.826l-.707,5,64.426,1.86.7-5Z" transform="translate(-300.404 -2825.826)" fill="#fff" stroke="#262626" stroke-miterlimit="10" stroke-width="1"/>
          </g>
        </g>
        <g id="Group_26269" data-name="Group 26269" transform="translate(94.007 165.063)">
          <g id="Group_26268" data-name="Group 26268">
            <path id="Path_33537" data-name="Path 33537" d="M357.337,2568.4s-6.269,12.043,3.134,53.965c4,17.85,21.234,75.023,28.809,111.307l42.3-5.232L400.42,2573.331Z" transform="translate(-355.29 -2568.4)" fill="#000e1b" stroke="#262626" stroke-miterlimit="10" stroke-width="1"/>
          </g>
        </g>
        <g id="Group_26270" data-name="Group 26270" transform="translate(127.532 304.441)">
          <path id="Path_33538" data-name="Path 33538" d="M381.441,2694.7l5.161,138.771,36.859,1.058.743-141.293Z" transform="translate(-381.441 -2672.575)" fill="#000e1b" stroke="#262626" stroke-miterlimit="10" stroke-width="1"/>
          <path id="Path_33539" data-name="Path 33539" d="M423.356,2698.288c.405,11.809-8.063,21.2-19.872,21.608s-21.376-9.573-21.781-21.384,8.509-20.977,20.317-21.381S422.952,2686.48,423.356,2698.288Z" transform="translate(-381.37 -2677.119)" fill="#000e1b"/>
        </g>
        <g id="Group_26271" data-name="Group 26271" transform="translate(26.832 325.781)">
          <path id="Path_33540" data-name="Path 33540" d="M316.761,2693.766l-13.87,138.172,36.368,6.09,20.064-139.864Z" transform="translate(-302.891 -2693.766)" fill="#000e1b" stroke="#262626" stroke-miterlimit="10" stroke-width="1"/>
        </g>
        <g id="Group_26274" data-name="Group 26274" transform="translate(40.702 164.554)">
          <g id="Group_26273" data-name="Group 26273">
            <g id="Group_26272" data-name="Group 26272">
              <path id="Path_33541" data-name="Path 33541" d="M335.26,2572.851s-8.056,10.077-12.415,49.918c-1.99,18.185-5.1,69.615-9.136,106.461l42.562,4.4L380.1,2568Z" transform="translate(-313.71 -2568.004)" fill="#000e1b" stroke="#262626" stroke-miterlimit="10" stroke-width="1"/>
            </g>
          </g>
          <path id="Path_33542" data-name="Path 33542" d="M355.438,2702.541c-1.214,11.754-11.017,20.143-22.771,18.927s-19.608-10.952-18.394-22.7,11.039-21.073,22.793-19.858S356.653,2690.788,355.438,2702.541Z" transform="translate(-313.586 -2536.76)" fill="#000e1b"/>
        </g>
        <g id="Group_26275" data-name="Group 26275" transform="translate(56.981 109.567)">
          <path id="Path_33543" data-name="Path 33543" d="M326.49,2525.111a.767.767,0,0,0-.082.1l.138.273C326.513,2525.261,326.49,2525.111,326.49,2525.111Z" transform="translate(-326.408 -2525.111)" fill="none"/>
        </g>
        <path id="Path_33544" data-name="Path 33544" d="M331.644,2599.49l-5.11-67.724,2.531-58.223h75.629s18.774,36.913,4.143,84.029l-.308,42.51Z" transform="translate(-269.392 -2430.088)" fill="#606060" stroke="#262626" stroke-miterlimit="10" stroke-width="1"/>
        <g id="Group_26276" data-name="Group 26276" transform="translate(90.337 23.098)">
          <path id="Path_33545" data-name="Path 33545" d="M352.427,2457.662l.764,19.783H369.7l-1.234-7.873Z" transform="translate(-352.427 -2457.662)" fill="#ffac9c"/>
        </g>
        <path id="Path_33546" data-name="Path 33546" d="M366.158,2469.475a5.97,5.97,0,0,0,1.206-.005l.5,3.167c-8.037-.517-10.6-8.734-10.6-8.734h0C359.039,2465.895,364.045,2469.277,366.158,2469.475Z" transform="translate(-260.728 -2432.805)" fill="#000e1b"/>
        <g id="Group_26277" data-name="Group 26277" transform="translate(93.305 10.412)">
          <path id="Path_33547" data-name="Path 33547" d="M355.284,2462.985a25.137,25.137,0,0,0,2.273,5.482c1.194,1.788,8.547,7.751,12.526,5.136,3.047-2,3.651-7.1,3.8-10.628a67.907,67.907,0,0,0-.34-12.483l-13.739-2.723-5.068,11.208Z" transform="translate(-354.742 -2447.768)" fill="#ffac9c"/>
        </g>
        <g id="Group_26278" data-name="Group 26278" transform="translate(86.09)">
          <path id="Path_33548" data-name="Path 33548" d="M353.367,2450.484s-9.153-2.784-.6,12.521l.892,7.367,3.024-4.219,2.082-3.817,1.344,3.5h.774l-.21-8.351s3.023-1.011,2.855-5c0,0,13.507,3.915,15.575-.816l-2.4-3.385-1.642.884a9.381,9.381,0,0,0,2.4-5.686l-3.159,2.78a5.5,5.5,0,0,0,1-3.526,3.347,3.347,0,0,0-3.206-3.087h0a3.463,3.463,0,0,0-2.69,1.141,10.542,10.542,0,0,1-3.438,2.376C361.935,2444.98,351.265,2443.4,353.367,2450.484Z" transform="translate(-349.114 -2439.646)" fill="#000e1b"/>
        </g>
        <g id="Group_26279" data-name="Group 26279" transform="translate(89.366 20.595)">
          <path id="Path_33549" data-name="Path 33549" d="M358.268,2459.009a3.3,3.3,0,1,1-3.3-3.3A3.3,3.3,0,0,1,358.268,2459.009Z" transform="translate(-351.67 -2455.71)" fill="#ffac9c"/>
        </g>
        <g id="Group_26280" data-name="Group 26280" transform="translate(89.74 36.079)">
          <path id="Path_33550" data-name="Path 33550" d="M362.946,2481.932l3.559-6.611,4.283,6.25a46.628,46.628,0,0,0,1.374-6.3l-3.044-5.229-2.713,3.775-13.348-6.034-1.1,7.486Z" transform="translate(-351.961 -2467.789)" fill="#fff"/>
        </g>
        <path id="Path_33551" data-name="Path 33551" d="M320.361,2570.9a11.725,11.725,0,1,1-3.664,16.174A11.726,11.726,0,0,1,320.361,2570.9Z" transform="translate(-272.676 -2403.143)" fill="#ffac9c"/>
        <path id="Path_33552" data-name="Path 33552" d="M345.1,2586.818c2.226-.194,3.527.664,6.711,2.49s8.444-1.427,4.634-3.083-9.825-6.778-12.469-9.086c-2.068-1.554-5.7-3.665-7.975-5.293a17.357,17.357,0,0,1-1.393-1.4c-2.595-3-4.4-6.209-8.3-7.169a12.163,12.163,0,0,0-13.4,17.985l-.013.005a164.193,164.193,0,0,0,8.718,19.324c5.136,9.1,13.458,15.265,16.358,12.629,1.208-1.1-2.65-4.775-4.841-7.233-1.5-1.683-1.665-3.318-1.4-3.376,0,0,11.593,12.454,14.521,9.972,1.749-1.483.718-2.361-2.6-5.431a31.559,31.559,0,0,1-5.909-7.7c0-.244,7.577,9.472,12.647,10.718,3.046.75,3.651-1.9.372-5.473s-8.157-9.991-8.157-9.991c2.223,3.7,11.465,12.638,13.655,10.585,3.042-2.851-3.338-6.541-6.847-10.98a82.286,82.286,0,0,1-7.121-11.7" transform="translate(-273.712 -2404.882)" fill="#ffac9c" stroke="#262626" stroke-linecap="round" stroke-miterlimit="10" stroke-width="1"/>
        <path id="Path_33553" data-name="Path 33553" d="M342.857,2588.584l-25.745-46.539,9.383-12.5-17-30.937L285.179,2531l.01.007a16.08,16.08,0,0,0-.753,18.231,16.338,16.338,0,0,0,1.077,1.5l35.628,48.674" transform="translate(-281.961 -2423.018)" fill="#ffac9c" stroke="#262626" stroke-miterlimit="10" stroke-width="1"/>
        <path id="Path_33554" data-name="Path 33554" d="M348.715,2476.764a16.076,16.076,0,0,0-19.809.4l-.014-.012-.3.261c-.119.1-.237.205-.354.312L291.2,2510.4l32.687,26.215,28.031-37.332A16.084,16.084,0,0,0,348.715,2476.764Z" transform="translate(-279.355 -2430.086)" fill="#606060" stroke="#262626" stroke-miterlimit="10" stroke-width="1"/>
      </g>
    </g>
  </g>
</svg>
