<svg xmlns="http://www.w3.org/2000/svg" xmlns:xlink="http://www.w3.org/1999/xlink" width="375" height="270" viewBox="0 0 375 270">
  <defs>
    <clipPath id="clip-path">
      <rect id="Rectangle_8640" data-name="Rectangle 8640" width="195.58" height="174.927" fill="none"/>
    </clipPath>
    <clipPath id="clip-path-2">
      <path id="Path_33880" data-name="Path 33880" d="M415.281,1271.493c-56.878,10.846-31.081-90.241-30.946-126.7.134-36.075,59.437,14.078,71.413,28.926a64.954,64.954,0,0,1,14.437,40.975C470.157,1250.881,450.632,1264.752,415.281,1271.493Z" transform="translate(-378.383 -1131.996)" fill="none"/>
    </clipPath>
  </defs>
  <g id="location-graphic" transform="translate(-220.115 -1062.911)">
    <path id="Path_33777" data-name="Path 33777" d="M512.474,1429.128a32.641,32.641,0,0,1-.845,9.329h.588c15.781-53.406,6.631-113.779-24.677-159.892-18.146-26.727-45.717-49.7-77.959-51.709-22.719-1.417-45.38,8-62.351,23.171s-28.562,35.7-35.567,57.363c-7.7,23.816-10.106,49.605-4.831,74.076,4.648,21.563,15.5,42,31.594,56.991H510.983Z" transform="translate(-83.893 -105.547)" fill="#f0eefc"/>
    <path id="Path_33778" data-name="Path 33778" d="M476.827,1307.356c21.381-33.932,38.875-72.675,35.889-112.669-.85-11.388-3.514-22.985-10.182-32.256-13.948-19.392-42.441-23.505-64.952-15.514s-40.233,25.426-56.368,43.04-31.921,36.292-52.686,48.1c-13.456,7.651-28.628,12.174-41.4,20.919a52.528,52.528,0,0,0-15.709,16.7c-3.671,6.383-5.576,13.95-4.357,21.212,1.029,6.13,4.21,11.743,8.254,16.464,9.768,11.4,23.72,19.728,36.665,27q7.484,4.2,15.273,7.824,4,1.859,8.062,3.56c2.066.865,5.533,3.081,7.762,3.081h93.208C452.877,1342.424,465.687,1325.034,476.827,1307.356Z" transform="translate(82.066 -21.898)" fill="#d8d2fc"/>
    <path id="Path_33817" data-name="Path 33817" d="M479.135,1151.318c-20.581-28.336-50.509-41.546-81.734-41.545,0,0-77.769,0-99.68,70.273-7.447,23.884-5.98,49.608,3.14,72.9a143.527,143.527,0,0,0,15.338,29.21c13.727,19.847,47.612,63.572,66.993,88.384a17.266,17.266,0,0,0,27.664-.6c21.376-29.939,61.841-87.489,73.176-109.748C500.274,1228.306,502.771,1183.859,479.135,1151.318ZM396.8,1278.074a65.384,65.384,0,1,1,65.321-65.384A64.869,64.869,0,0,1,396.8,1278.074Z" transform="translate(-7.708 -44.875)" fill="#ffa400"/>
    <path id="Path_33820" data-name="Path 33820" d="M340.778,1253.844c-.256-.163-.5-.346-.746-.526C340.276,1253.5,340.52,1253.68,340.778,1253.844Z" transform="translate(-12.153 -58.429)" fill="none"/>
    <path id="Path_33821" data-name="Path 33821" d="M337.489,1250.942q-.425-.5-.806-1.041C336.934,1250.26,337.2,1250.608,337.489,1250.942Z" transform="translate(-11.837 -58.106)" fill="none"/>
    <path id="Path_33822" data-name="Path 33822" d="M350.074,1178.584a65.509,65.509,0,0,0-10.011,17.735l3.352,5.568Z" transform="translate(-12.156 -51.373)" fill="none"/>
    <path id="Path_33823" data-name="Path 33823" d="M339.605,1253c-.211-.166-.409-.35-.611-.529C339.195,1252.654,339.392,1252.836,339.605,1253Z" transform="translate(-12.055 -58.349)" fill="none"/>
    <path id="Path_33824" data-name="Path 33824" d="M377.246,1178.042,366.9,1215.574l-5.752,20.875h0a13.486,13.486,0,0,1-.934,2.428l0,0c-.17.342-.359.668-.554.99-.034.055-.062.113-.1.169-.178.281-.372.549-.57.815-.067.092-.127.186-.2.276-.18.231-.375.447-.57.665-.1.115-.2.234-.3.347-.192.2-.4.385-.6.573-.122.113-.236.233-.363.342q-.5.429-1.039.808c-.071.049-.148.091-.219.138-.3.2-.607.4-.923.577-.017.009-.032.021-.049.03-.124.07-.253.121-.379.187-.251.13-.5.26-.761.374-.184.081-.37.145-.554.216-.224.087-.445.176-.672.25-.2.067-.411.12-.618.176s-.43.121-.648.169-.418.079-.627.114-.446.079-.672.106c-.2.024-.4.035-.608.05-.235.017-.468.036-.7.041-.2,0-.4,0-.6-.01-.237-.006-.474-.009-.713-.027-.21-.017-.418-.048-.628-.074-.225-.028-.447-.052-.672-.092-.243-.043-.481-.1-.721-.16-.168-.039-.337-.065-.505-.111-.023-.007-.044-.016-.067-.023-.252-.071-.5-.161-.746-.246-.174-.06-.353-.111-.523-.178-.067-.025-.13-.059-.2-.086-.208-.085-.41-.18-.611-.274a65.506,65.506,0,1,0,24.132-83.738c.411.073.821.162,1.232.275A13.414,13.414,0,0,1,377.246,1178.042Z" transform="translate(-12.387 -48.785)" fill="none"/>
    <path id="Path_33825" data-name="Path 33825" d="M338.509,1252.04c-.207-.2-.4-.412-.592-.623C338.111,1251.628,338.3,1251.841,338.509,1252.04Z" transform="translate(-11.953 -58.25)" fill="none"/>
    <path id="Path_33826" data-name="Path 33826" d="M342.528,1252.405c.066.027.129.06.2.087.171.068.35.117.523.177.247.085.492.175.746.246.188.053.381.09.572.134.24.057.48.118.721.16.222.04.447.063.672.092.209.026.419.057.628.074.237.018.474.021.713.027.2,0,.4.015.6.01.235,0,.469-.023.7-.041.2-.015.407-.026.608-.05.225-.026.448-.068.672-.106s.419-.068.627-.114.433-.11.648-.169.414-.11.618-.176c.225-.073.448-.163.672-.25.185-.071.372-.136.554-.216.256-.113.509-.244.761-.374.142-.074.288-.139.427-.217.32-.179.624-.375.923-.577.072-.048.148-.089.219-.138.362-.254.708-.524,1.039-.808.126-.108.241-.229.363-.342.2-.188.41-.374.6-.573.105-.112.2-.233.3-.347.195-.218.391-.436.57-.665.069-.089.13-.186.2-.276.2-.267.393-.536.57-.816.034-.054.063-.113.1-.168.2-.324.386-.652.554-.99l0,0a13.549,13.549,0,0,0,.929-2.429h0A13.409,13.409,0,0,0,336.194,1233a64.767,64.767,0,0,0,5.722,19.13C342.119,1252.226,342.322,1252.32,342.528,1252.405Z" transform="translate(-11.791 -55.906)" fill="none"/>
    <path id="Path_33827" data-name="Path 33827" d="M341.029,1254a13.456,13.456,0,0,0,1.345.722h0A13.513,13.513,0,0,1,341.029,1254Z" transform="translate(-12.247 -58.493)" fill="none"/>
    <path id="Path_33828" data-name="Path 33828" d="M336.467,1249.558c-.2-.3-.391-.6-.568-.91C336.074,1248.96,336.268,1249.261,336.467,1249.558Z" transform="translate(-11.763 -57.988)" fill="none"/>
    <path id="Path_33829" data-name="Path 33829" d="M360.44,1250.51c-.178.229-.375.446-.57.665C360.065,1250.957,360.259,1250.741,360.44,1250.51Z" transform="translate(-14.026 -58.164)" fill="#344fa5"/>
    <path id="Path_33830" data-name="Path 33830" d="M361.286,1249.3c-.177.28-.372.549-.57.816C360.913,1249.853,361.107,1249.585,361.286,1249.3Z" transform="translate(-14.106 -58.05)" fill="#344fa5"/>
    <path id="Path_33831" data-name="Path 33831" d="M359.839,1251.244c-.1.114-.2.235-.3.347C359.643,1251.478,359.737,1251.359,359.839,1251.244Z" transform="translate(-13.995 -58.233)" fill="#344fa5"/>
    <path id="Path_33832" data-name="Path 33832" d="M360.7,1250.2c-.067.09-.128.187-.2.276C360.569,1250.391,360.628,1250.3,360.7,1250.2Z" transform="translate(-14.085 -58.135)" fill="#344fa5"/>
    <path id="Path_33833" data-name="Path 33833" d="M359.474,1251.627c-.19.2-.4.385-.6.574C359.077,1252.011,359.282,1251.827,359.474,1251.627Z" transform="translate(-13.932 -58.269)" fill="#344fa5"/>
    <path id="Path_33834" data-name="Path 33834" d="M356.988,1253.681c-.3.2-.6.4-.923.577C356.381,1254.081,356.686,1253.884,356.988,1253.681Z" transform="translate(-13.667 -58.463)" fill="#344fa5"/>
    <path id="Path_33835" data-name="Path 33835" d="M355.971,1254.349c.017-.009.032-.021.049-.03-.139.078-.285.143-.427.216C355.719,1254.47,355.847,1254.418,355.971,1254.349Z" transform="translate(-13.622 -58.523)" fill="#344fa5"/>
    <path id="Path_33836" data-name="Path 33836" d="M357.3,1253.529c-.071.05-.147.09-.219.139C357.156,1253.619,357.232,1253.578,357.3,1253.529Z" transform="translate(-13.763 -58.449)" fill="#344fa5"/>
    <path id="Path_33837" data-name="Path 33837" d="M358.365,1252.637c-.331.283-.676.554-1.039.808Q357.864,1253.067,358.365,1252.637Z" transform="translate(-13.786 -58.365)" fill="#344fa5"/>
    <path id="Path_33838" data-name="Path 33838" d="M358.836,1252.26c-.122.112-.237.233-.363.341C358.6,1252.492,358.714,1252.372,358.836,1252.26Z" transform="translate(-13.894 -58.329)" fill="#344fa5"/>
    <path id="Path_33839" data-name="Path 33839" d="M341.013,1253.988c-.051-.031-.106-.057-.157-.09C340.907,1253.932,340.961,1253.957,341.013,1253.988Z" transform="translate(-12.231 -58.484)" fill="#344fa5"/>
    <path id="Path_33840" data-name="Path 33840" d="M340,1253.293c-.108-.08-.223-.152-.329-.234C339.776,1253.142,339.889,1253.213,340,1253.293Z" transform="translate(-12.119 -58.404)" fill="#344fa5"/>
    <path id="Path_33841" data-name="Path 33841" d="M337.884,1251.382c-.1-.112-.214-.217-.311-.331C337.673,1251.167,337.782,1251.27,337.884,1251.382Z" transform="translate(-11.921 -58.215)" fill="#344fa5"/>
    <path id="Path_33842" data-name="Path 33842" d="M336.668,1249.877c-.051-.072-.093-.151-.142-.224C336.575,1249.726,336.617,1249.806,336.668,1249.877Z" transform="translate(-11.822 -58.083)" fill="#344fa5"/>
    <path id="Path_33843" data-name="Path 33843" d="M362.005,1248.025c-.168.338-.358.666-.554.99C361.647,1248.693,361.835,1248.366,362.005,1248.025Z" transform="translate(-14.176 -57.93)" fill="#344fa5"/>
    <path id="Path_33844" data-name="Path 33844" d="M361.441,1249.118c-.034.055-.063.114-.1.168C361.379,1249.231,361.407,1249.173,361.441,1249.118Z" transform="translate(-14.166 -58.033)" fill="#344fa5"/>
    <path id="Path_33845" data-name="Path 33845" d="M338.954,1252.44c-.127-.112-.262-.217-.383-.335C338.694,1252.223,338.827,1252.327,338.954,1252.44Z" transform="translate(-12.015 -58.315)" fill="#344fa5"/>
    <path id="Path_33846" data-name="Path 33846" d="M362.065,1248.021l0,0Z" transform="translate(-14.233 -57.929)" fill="#344fa5"/>
    <path id="Path_33847" data-name="Path 33847" d="M362.065,1247.767a13.5,13.5,0,0,0,.934-2.428h0A13.551,13.551,0,0,1,362.065,1247.767Z" transform="translate(-14.233 -57.675)" fill="#344fa5"/>
    <path id="Path_33848" data-name="Path 33848" d="M342.513,1254.794h0c.2.094.4.188.611.274C342.919,1254.983,342.716,1254.889,342.513,1254.794Z" transform="translate(-12.387 -58.568)" fill="#344fa5"/>
    <path id="Path_33849" data-name="Path 33849" d="M343.385,1255.184c-.067-.026-.129-.06-.2-.087C343.255,1255.124,343.318,1255.158,343.385,1255.184Z" transform="translate(-12.451 -58.597)" fill="#344fa5"/>
    <path id="Path_33850" data-name="Path 33850" d="M343.928,1255.37c-.174-.061-.352-.11-.523-.178C343.575,1255.26,343.754,1255.311,343.928,1255.37Z" transform="translate(-12.471 -58.606)" fill="#344fa5"/>
    <path id="Path_33851" data-name="Path 33851" d="M344.729,1255.635c-.255-.072-.5-.161-.746-.246C344.231,1255.474,344.477,1255.564,344.729,1255.635Z" transform="translate(-12.526 -58.625)" fill="#344fa5"/>
    <path id="Path_33852" data-name="Path 33852" d="M346.907,1256.077c-.224-.028-.45-.052-.672-.091C346.46,1256.025,346.682,1256.049,346.907,1256.077Z" transform="translate(-12.739 -58.681)" fill="#344fa5"/>
    <path id="Path_33853" data-name="Path 33853" d="M352.649,1255.68c-.216.059-.431.121-.648.169C352.219,1255.8,352.434,1255.739,352.649,1255.68Z" transform="translate(-13.283 -58.652)" fill="#344fa5"/>
    <path id="Path_33854" data-name="Path 33854" d="M351.936,1255.867c-.207.046-.417.078-.627.114C351.518,1255.946,351.727,1255.913,351.936,1255.867Z" transform="translate(-13.218 -58.67)" fill="#344fa5"/>
    <path id="Path_33855" data-name="Path 33855" d="M351.239,1255.993c-.224.038-.447.08-.672.106C350.793,1256.071,351.015,1256.031,351.239,1255.993Z" transform="translate(-13.148 -58.682)" fill="#344fa5"/>
    <path id="Path_33856" data-name="Path 33856" d="M344.874,1255.683c.168.046.337.072.505.111-.191-.045-.384-.081-.572-.134C344.83,1255.667,344.851,1255.677,344.874,1255.683Z" transform="translate(-12.604 -58.65)" fill="#344fa5"/>
    <path id="Path_33857" data-name="Path 33857" d="M354.071,1255.21c-.224.087-.446.176-.672.25C353.626,1255.386,353.847,1255.3,354.071,1255.21Z" transform="translate(-13.415 -58.608)" fill="#344fa5"/>
    <path id="Path_33858" data-name="Path 33858" d="M350.5,1256.109c-.2.024-.4.035-.608.05C350.1,1256.145,350.3,1256.133,350.5,1256.109Z" transform="translate(-13.084 -58.692)" fill="#344fa5"/>
    <path id="Path_33859" data-name="Path 33859" d="M353.334,1255.486c-.2.066-.411.119-.618.176C352.923,1255.605,353.13,1255.553,353.334,1255.486Z" transform="translate(-13.351 -58.634)" fill="#344fa5"/>
    <path id="Path_33860" data-name="Path 33860" d="M347.6,1256.161c-.208-.017-.418-.048-.628-.074C347.186,1256.113,347.394,1256.144,347.6,1256.161Z" transform="translate(-12.809 -58.69)" fill="#344fa5"/>
    <path id="Path_33861" data-name="Path 33861" d="M354.7,1254.971c-.182.08-.369.145-.554.216C354.326,1255.116,354.511,1255.051,354.7,1254.971Z" transform="translate(-13.485 -58.585)" fill="#344fa5"/>
    <path id="Path_33862" data-name="Path 33862" d="M346.16,1255.969c-.241-.043-.481-.1-.721-.16C345.679,1255.866,345.917,1255.925,346.16,1255.969Z" transform="translate(-12.664 -58.664)" fill="#344fa5"/>
    <path id="Path_33863" data-name="Path 33863" d="M348.383,1256.2c-.238-.006-.475-.009-.713-.027C347.909,1256.186,348.145,1256.191,348.383,1256.2Z" transform="translate(-12.874 -58.698)" fill="#344fa5"/>
    <path id="Path_33864" data-name="Path 33864" d="M349.055,1256.208c-.2.005-.4-.005-.6-.009C348.656,1256.2,348.855,1256.214,349.055,1256.208Z" transform="translate(-12.948 -58.702)" fill="#344fa5"/>
    <path id="Path_33865" data-name="Path 33865" d="M349.823,1256.165c-.236.017-.47.036-.7.041C349.354,1256.2,349.588,1256.182,349.823,1256.165Z" transform="translate(-13.011 -58.698)" fill="#344fa5"/>
    <g id="Group_26449" data-name="Group 26449" transform="translate(272.196 1062.911)" clip-path="url(#clip-path)">
      <path id="Path_33866" data-name="Path 33866" d="M332.852,1225.577a66.648,66.648,0,0,1-.636-9.379,65.69,65.69,0,0,1,4.139-22.769l-12-19.935-1.7,1.068c-.288-1.034-.678-2.1-1.06-3.382l-.061-.254c-.706-2.464-.255-5.87-.681-8.2-.81-3.116-2.542-10.152-2.338-13.958a3.01,3.01,0,0,0-.057-.792c-1.471,1.633-2.909,3.334-4.3,5.125a9.518,9.518,0,0,1-.787,4.732c-.06.133-.82.971-.82.971-.383-.51-.814-1.116-1.259-1.78a95.009,95.009,0,0,0-10.486,19.871c2.8,3.213,5.211,5.679,5.211,5.679l.008-.006a9.529,9.529,0,0,0,1.356,1.565l-2.9,1.818,28.082,53.154c.008.014.019.028.027.043.177.315.37.615.568.91.049.073.092.152.142.224q.38.545.806,1.042c.1.115.209.219.311.331.195.211.386.426.592.623.121.118.256.223.383.335.2.179.4.363.611.529.106.082.221.155.329.234.245.18.49.363.746.526.051.033.106.059.157.09a13.4,13.4,0,0,0,1.344.721A64.77,64.77,0,0,1,332.852,1225.577Z" transform="translate(-280.644 -1111.392)" opacity="0.51"/>
      <path id="Path_33867" data-name="Path 33867" d="M316.2,1149.518a40.407,40.407,0,0,1-3.657-5.854c-1.937-3.889-2.413-9.527-5.388-8.345-2.142.849,1.047,10.19,2.889,12.943,0,0-2.862-5.485-4.273-8.931s-3.447-3.891-3.923-1.531c-.792,3.929,3.48,12.368,3.311,12.287a24.233,24.233,0,0,1-3.419-6.623c-1.046-3.31-1.319-4.314-2.92-3.584-2.681,1.223,2.181,13.346,2.181,13.346-.13.167-1.211-.484-1.889-2.074-.991-2.325-2.285-6.208-3.442-5.727-2.778,1.153-1.219,8.948,3.425,15.489a125.911,125.911,0,0,0,10.573,12.371l.008-.006a9.338,9.338,0,0,0,16.872-3.428c.609-3.026-.393-4.893-1.3-7.955l-.06-.253c-.706-2.463-.255-5.871-.682-8.2-.81-3.117-2.542-10.153-2.337-13.959s-4.622-.826-4.431,2.537.13,4.659-.711,6.528C316.957,1148.681,316.2,1149.518,316.2,1149.518Z" transform="translate(-280.029 -1110.183)" fill="#ffac9c" stroke="#262626" stroke-miterlimit="10" stroke-width="1"/>
      <path id="Path_33868" data-name="Path 33868" d="M348.561,1244.026a13.414,13.414,0,1,1,16.5-9.368A13.413,13.413,0,0,1,348.561,1244.026Z" transform="translate(-284.223 -1117.975)" fill="#fff"/>
      <path id="Path_33869" data-name="Path 33869" d="M369.031,1153.666a13.407,13.407,0,0,0-15.247,6.368l-.015-.007-.018.064a13.075,13.075,0,0,0-1.675,5.863l-7.276,25.464-15.355-25.5-19.877,12.452,28.082,53.153a13.408,13.408,0,0,0,24.652-2.953l0,0,5.752-20.875,10.342-37.531A13.413,13.413,0,0,0,369.031,1153.666Z" transform="translate(-281.472 -1111.885)" fill="#fff" stroke="#262626" stroke-miterlimit="10" stroke-width="1"/>
      <path id="Path_33870" data-name="Path 33870" d="M379.647,1117.206a11.316,11.316,0,0,1,8.54,1.914c3.056,2.2,4.916,5.86,8.208,7.683,3.707,2.054,8.444,1.335,12.221,3.257a9.55,9.55,0,0,1,4.072,13.052,12.833,12.833,0,0,1-5.769,5.18,38.212,38.212,0,0,1-7.466,2.469c-5.4,1.383-10.919,2.776-16.473,2.317a13.387,13.387,0,0,1-7.819-2.868c-2.345-2.063-3.448-5.159-4.46-8.114-1.045-3.054-2.1-6.306-1.383-9.453.469-2.047,1.669-3.9,1.933-5.984a9.751,9.751,0,0,0,.063-1.382,7.858,7.858,0,0,1,7.564-8.093l.214,0" transform="translate(-287.091 -1108.471)" fill="#000e1b"/>
      <path id="Path_33871" data-name="Path 33871" d="M399.7,1236.822s17.574,14.056,17.193,50.851c-.163,15.667-10.091,65.418-9.95,97.165l-41.839.187-.608-136.37Z" transform="translate(-286.658 -1119.782)" fill="#2c2c2c" stroke="#262626" stroke-miterlimit="10" stroke-width="1"/>
      <circle id="Ellipse_3764" data-name="Ellipse 3764" cx="20.92" cy="20.92" r="20.92" transform="translate(69.778 265.148) rotate(-45)" fill="#823c26"/>
      <path id="Path_33872" data-name="Path 33872" d="M388.947,1541.069s-3.628,12.627-4.438,15.153-22.831,10.711-22.079,15.913l34.023-4.927,12.086-9.992,5.441,7.615,4.079-.591s-4.921-19.77-8.657-29.38Z" transform="translate(-286.461 -1147.924)" fill="#000e1b"/>
      <path id="Path_33873" data-name="Path 33873" d="M490.106,1526.424s-3.628,12.629-4.438,15.154-22.831,10.711-22.078,15.912l34.022-4.925,12.086-9.992,5.441,7.615,4.08-.591s-4.922-19.77-8.658-29.38Z" transform="translate(-296.014 -1146.541)" fill="#000e1b"/>
      <path id="Path_33874" data-name="Path 33874" d="M406.912,1398.094l13.451,135.658-42.183,4.182-12.9-135.713Z" transform="translate(-286.732 -1135.01)" fill="#823c26"/>
      <ellipse id="Ellipse_3765" data-name="Ellipse 3765" cx="20.92" cy="20.92" rx="20.92" ry="20.92" transform="matrix(0.937, -0.35, 0.35, 0.937, 72.443, 252.876)" fill="#823c26"/>
      <path id="Path_33875" data-name="Path 33875" d="M424.184,1240.612s14.5,11.984,20.126,26.607,11.015,65.269,21.143,95.357L425.8,1375.923l-43.506-129.245Z" transform="translate(-288.339 -1120.14)" fill="#4b4b4b" stroke="#262626" stroke-miterlimit="10" stroke-width="1"/>
      <ellipse id="Ellipse_3766" data-name="Ellipse 3766" cx="20.92" cy="20.92" rx="20.92" ry="20.92" transform="translate(133.275 266.391) rotate(-80.741)" fill="#4b4b4b"/>
      <path id="Path_33876" data-name="Path 33876" d="M469.99,1375.293l43.491,129.2-40.175,13.524-42.969-129.376Z" transform="translate(-292.875 -1132.857)" fill="#b46226"/>
      <ellipse id="Ellipse_3767" data-name="Ellipse 3767" cx="20.92" cy="20.92" rx="20.92" ry="20.92" transform="translate(133.275 266.391) rotate(-80.741)" fill="#b46226"/>
      <path id="Path_33877" data-name="Path 33877" d="M368.588,1152.1l40.218-5.822,17.171,61.035a7.951,7.951,0,0,1-6.515,10.023h0l-58.012,8.4h0a6.241,6.241,0,0,1-7-7.481Z" transform="translate(-285.697 -1111.232)" fill="#eceeef" stroke="#262626" stroke-miterlimit="10" stroke-width="1"/>
      <rect id="Rectangle_8639" data-name="Rectangle 8639" width="58.616" height="14.518" transform="matrix(0.99, -0.143, 0.143, 0.99, 75.754, 114.503)" fill="#eceeef" stroke="#262626" stroke-miterlimit="10" stroke-width="1"/>
      <g id="Group_26440" data-name="Group 26440" transform="translate(90.413 22.112)" clip-path="url(#clip-path-2)">
        <path id="Path_33878" data-name="Path 33878" d="M479.962,1211.024a13.776,13.776,0,1,0-19.349,2.272A13.776,13.776,0,0,0,479.962,1211.024Z" transform="translate(-385.652 -1137.351)" fill="#fff"/>
        <path id="Path_33879" data-name="Path 33879" d="M508.252,1243.28l-32.577-52.115a13.718,13.718,0,0,0-3.16-3.406l.083-.1-18.141-14.329-28.532-22.1a13.4,13.4,0,0,0-4.95-3.834l-.053-.042-.008.014a13.768,13.768,0,0,0-14.22,23.346l31.376,24.783,15.795,12.475,33.654,46.589Z" transform="translate(-380.561 -1133.331)" fill="#fff" stroke="#262626" stroke-miterlimit="10" stroke-width="1"/>
      </g>
      <g id="Group_26443" data-name="Group 26443" transform="translate(87.078 14.182)">
        <path id="Path_33881" data-name="Path 33881" d="M376.62,1123.242l6.75.679a7.818,7.818,0,0,1,7.024,8.186l-.514,9.861-5.005,5.752-2.951-3.4c-2.83.067-7.125-2.775-7.221-10.124a39.787,39.787,0,0,1,1.264-10.531A.612.612,0,0,1,376.62,1123.242Z" transform="translate(-374.7 -1123.239)" fill="#ffac9c"/>
      </g>
      <path id="Path_33882" data-name="Path 33882" d="M390.887,1134.706a2.1,2.1,0,1,0,1.773-2.374A2.095,2.095,0,0,0,390.887,1134.706Z" transform="translate(-289.148 -1109.914)" fill="#ffac9c"/>
      <g id="Group_26444" data-name="Group 26444" transform="translate(93.75 33.603)">
        <path id="Path_33883" data-name="Path 33883" d="M382.619,1146.346c2.031,0,5.432-1.661,5.432-1.661s-1.451,2.615-5.983,3.705Z" transform="translate(-382.068 -1144.685)" fill="#000e1b"/>
      </g>
      <g id="Group_26445" data-name="Group 26445" transform="translate(92.866 32.912)">
        <path id="Path_33884" data-name="Path 33884" d="M382.527,1146.274l2.917,3.162,5.04-5.514,2.172,4.989-4.639,4.78-2.639-3.269-2.5,3.417-1.784-3.255Z" transform="translate(-381.091 -1143.922)" fill="#4b4b4b"/>
      </g>
    </g>
    <path id="Path_33885" data-name="Path 33885" d="M400.163,1292.016a65.164,65.164,0,0,1-40.253-13.634c-15.335-11.891-31.3-30.873-31.3-9.707,0,49.882,42.31,55.415,78.386,55.415s61.5-29.955,61.5-47.806c0-16.231-8.925-18.562-18.678-7.172A65.392,65.392,0,0,1,400.163,1292.016Z" transform="translate(-11.075 -58.807)" fill="#ffa400"/>
  </g>
</svg>
