<svg xmlns="http://www.w3.org/2000/svg" width="375" height="270.896" viewBox="0 0 375 270.896">
  <g id="mic-graphic" transform="translate(-278.456 -787.051)">
    <path id="Path_33891" data-name="Path 33891" d="M649.656,1026.379c3.836-15.535-1.268-32.141-9.84-45.654-18.332-28.894-50.561-45.578-82.09-58.856s-64.795-25.046-89.919-48.273c-15.265-14.109-27.094-32.113-44.5-43.481-20.883-13.641-48.659-15.819-71.6-6.037S311.2,855.171,305.5,879.463c-4.477,19.086-1.976,39.055-3.476,58.6-1.8,23.441-9.356,46.971-4.8,70.035,4.016,20.333,17.27,37.692,34.051,50.16h295.2C637.58,1050.11,646.4,1039.563,649.656,1026.379Z" transform="translate(-17.328 -0.719)" fill="#d8d2fc"/>
    <path id="Path_33892" data-name="Path 33892" d="M594.858,1047.327c28.994-18.973,47.931-52.477,49.233-87.1s-15.063-69.458-42.549-90.556-65.365-27.9-98.478-17.7c-37.924,11.693-66.256,42.7-99.989,63.6-17.145,10.623-35.836,18.705-52.338,30.3s-31.151,27.709-35.043,47.5,7.974,38.926,25.473,48.955a143.642,143.642,0,0,0,25.335,10.344c1.39.4,2.77.768,4.148,1.121H583.536A112.4,112.4,0,0,0,594.858,1047.327Z" transform="translate(9.293 3.747)" fill="#f0eefc"/>
    <path id="Path_33945" data-name="Path 33945" d="M448.438,958.3c.6.691,1.393,1.308,1.974,1.993a18.912,18.912,0,0,1,1.543,2.063,13.287,13.287,0,0,1,1.415,2.322c.3.808.72,1.3,1.017,2.1s.608,1.741.927,2.554c.129.331.3.752.378,1.041s.228.221.322.338-.169.276-.293.1-.26-.06-.364.076c-.326-.926-.848-1.856-1.108-2.784a2.986,2.986,0,0,0-.3-.795c-.548-.908-.958-1.829-1.57-2.656-.879-1.19-1.489-2.491-2.37-3.668-.56-.748-1.083-1.529-1.667-2.258C448.207,958.555,448.274,958.422,448.438,958.3Z" transform="translate(115.814 -79.492)" fill="#8a8a8a" fill-rule="evenodd"/>
    <path id="Path_33946" data-name="Path 33946" d="M494.67,961.263a27.1,27.1,0,0,0-6.352-1.388,2.183,2.183,0,0,0-1.307.29c-4.885,2.724-9.069,6.321-13.48,9.751a2.026,2.026,0,0,0-.236.276c.764-.022,1.579-.009,2.336,0s1.472.183,2.213.166a14.128,14.128,0,0,1,4.089.681,23.262,23.262,0,0,1,5.156,1.885,2.444,2.444,0,0,1,.238.147c.133.091.5.309.317.55s-.419.083-.631,0a40.332,40.332,0,0,0-6.138-1.736,18.543,18.543,0,0,1-3.173-.667,34.409,34.409,0,0,0-4.9-.053,3.221,3.221,0,0,0-1.819.724,93.049,93.049,0,0,0-10.582,9.779.461.461,0,0,0-.177.412,40.021,40.021,0,0,1,5.616.4,10.291,10.291,0,0,1,1.9.14,33.193,33.193,0,0,1,7.583,2.815c.338.186.848.371.777.764-.057.329-.469.1-.708.01a51.1,51.1,0,0,0-9.129-2.663c-.315-.059-.547-.29-.85-.338a26.71,26.71,0,0,0-5.056-.421,2.13,2.13,0,0,0-1.695.812c-3.263,3.778-5.763,8.272-8.483,12.487a.846.846,0,0,0-.176.465c.662-.143,1.351-.226,2.02-.329s1.372.031,2.024-.124a8.375,8.375,0,0,1,2.918,0,30.1,30.1,0,0,1,7.328,1.591c.25.09.543.086.672.405s-.271.365-.526.338c-.672-.076-1.274-.278-1.9-.388a52.547,52.547,0,0,0-7.105-.765c-.407-.018-.738-.162-1.141-.2a15.73,15.73,0,0,0-4.371.252,1.283,1.283,0,0,0-.922.695q-1.086,1.947-2.153,3.926l-.979-.2c.736-1.429,1.479-2.851,2.241-4.263a1.666,1.666,0,0,0,.262-1.126c-.083-.36.09-.388.281-.317s.234.181.347-.021c1.082-1.955,2.284-3.825,3.48-5.731a55.777,55.777,0,0,1,5.44-7.721,1.314,1.314,0,0,0,.343-1.284,23.243,23.243,0,0,0-1.231-4.106c-.283-.643-.712-1.186-.958-1.844a51.4,51.4,0,0,0-2.693-5.928c-.171-.321-.552-.8-.119-1.012s.679.288.877.636l2.256,3.957a11.457,11.457,0,0,1,1.188,3.255c.365,1.653,1.014,3.3,1.317,4.977.253.041.35-.176.477-.316a101.926,101.926,0,0,1,11.311-10.391,2.521,2.521,0,0,0,.752-1.3c.105-.276.319-.317.569-.086s.514-.095.712-.247c1.479-1.124,2.892-2.292,4.342-3.437a62.027,62.027,0,0,1,9.765-6.6,1.876,1.876,0,0,0,.712-.567c.143-.229.264.041.377-.016a55.427,55.427,0,0,1,6.955-2.949,6.93,6.93,0,0,0,1.041-.433,12.568,12.568,0,0,1,3.692-1.367c2.641-.477,5.22-1.132,7.845-1.681a5.977,5.977,0,0,1,1.238-.188,14.842,14.842,0,0,0,2.737-.414,7.293,7.293,0,0,1,1.6-.159c.172.007.391-.017.417.194s.01.257-.233.445a3.117,3.117,0,0,1-1.1.426c-4.02.9-8.074,1.924-12.028,3.1-1.772.524-3.515.758-5.252,1.391a59.971,59.971,0,0,0-6.216,2.741,32.176,32.176,0,0,1,6.352,1.238,3.5,3.5,0,0,1,1.467.365,23.99,23.99,0,0,1,4.918,2.293,9.846,9.846,0,0,1,1.12.812c.286.248.548.4.372.695s-.469.024-.684-.1a42.065,42.065,0,0,0-5.713-2.591A4.8,4.8,0,0,1,494.67,961.263Z" transform="translate(114.074 -84.726)" fill="#8a8a8a" fill-rule="evenodd"/>
    <path id="Path_33947" data-name="Path 33947" d="M463.591,967.523c-.133.016-.177-.3-.369-.422a12.353,12.353,0,0,1-4.235-4.37,21.5,21.5,0,0,1-2.958-10.542,31.283,31.283,0,0,1,.438-4.287c.079-.669.529-.8,1.117-.545a2.969,2.969,0,0,1,.841.581,8.515,8.515,0,0,1,1.7,2.758,46.837,46.837,0,0,1,3.384,11.151c.06.359.164.865-.181.993-.314.115-.524-.386-.634-.665-.407-1.048-.943-2.11-1.286-3.193a62.239,62.239,0,0,1,2.3,7.891C463.751,967.1,463.829,967.5,463.591,967.523Z" transform="translate(121.427 -87.504)" fill="#8a8a8a" fill-rule="evenodd"/>
    <path id="Path_33948" data-name="Path 33948" d="M455.468,970.453c-.9-1.515-1.712-3.111-2.72-4.559-.043-.062-.178-.172-.219-.052s.124.335.212.5a55.921,55.921,0,0,1,2.655,5.7,11.759,11.759,0,0,0,.831,1.925.554.554,0,0,1,.093.488,9.118,9.118,0,0,1-5.109-3.677A20.292,20.292,0,0,1,447.144,962a15.046,15.046,0,0,1,.458-7.15c.546-.138.8.262,1.053.624a14.691,14.691,0,0,1,1.291,2.236c1.406,2.963,2.96,5.8,4.187,8.848a21.176,21.176,0,0,0,1.334,3.065C455.616,969.868,455.77,970.2,455.468,970.453Z" transform="translate(114.822 -82.015)" fill="#8a8a8a" fill-rule="evenodd"/>
    <path id="Path_33949" data-name="Path 33949" d="M457.209,969.7a44.123,44.123,0,0,1,7.062,1.776c1.2.432,2.443.783,3.613,1.3a32.859,32.859,0,0,1,5.683,3.12,10.359,10.359,0,0,1,1.972,1.755c.312.374.26.666-.283.741a14.648,14.648,0,0,1-5.914-.324,33.858,33.858,0,0,1-8.8-3.889,10.5,10.5,0,0,1-1.9-1.575,4.38,4.38,0,0,1-1.241-2.253C457.356,970.141,457.274,969.915,457.209,969.7Z" transform="translate(122.282 -71.244)" fill="#8a8a8a" fill-rule="evenodd"/>
    <path id="Path_33950" data-name="Path 33950" d="M464.335,962.761a41.443,41.443,0,0,1,9.932,2.417c-.007-.245-.689-.4-.6-.591.15-.314.605-.121.9,0,3.1,1.224,6.106,2.579,9.081,4.1.222.114.507.319.443.515-.045.141-.009.029-.01.031a1.438,1.438,0,0,1-.794.452,14.373,14.373,0,0,1-6.021.46,24.26,24.26,0,0,1-8.364-2.8,11.563,11.563,0,0,1-3.379-3.011A12.376,12.376,0,0,1,464.335,962.761Z" transform="translate(127.44 -76.267)" fill="#8a8a8a" fill-rule="evenodd"/>
    <path id="Path_33951" data-name="Path 33951" d="M450.759,977.749c.593.005,1.15-.052,1.748.008,2.12.209,4.227.369,6.34.748.714.129,1.4.3,2.162.443.147.026.264.131.419-.13s.574-.1.857-.022c2.2.626,4.485,1.25,6.64,1.967a1.7,1.7,0,0,1,1.115,1.065c.143.472-.25.586-.581.7a14.75,14.75,0,0,1-3.8.81,23.718,23.718,0,0,1-9.594-1.222,9.927,9.927,0,0,1-4.808-3.382A2.625,2.625,0,0,1,450.759,977.749Z" transform="translate(117.615 -65.434)" fill="#8a8a8a" fill-rule="evenodd"/>
    <path id="Path_33952" data-name="Path 33952" d="M452.915,982.454c-.164-.184-.2-.234-.384-.467a.7.7,0,0,0-.743-.347,1.828,1.828,0,0,1-1.148-.272c-.49-.238-1.246-.429-1.872-.66a15.216,15.216,0,0,1-5.444-3.227,19.881,19.881,0,0,1-5.457-9.089c-.15-.507-.531-1.074-.307-1.527.162-.328.564-.007.8.155a39.837,39.837,0,0,1,6.374,5.482,6.482,6.482,0,0,1,1.214,1.391,11.4,11.4,0,0,0,2.089,2.25,66.209,66.209,0,0,1,4.649,5.349C452.894,981.763,453.158,982.075,452.915,982.454Z" transform="translate(108.012 -73.4)" fill="#8a8a8a" fill-rule="evenodd"/>
    <path id="Path_33953" data-name="Path 33953" d="M455.172,970.757c.088-.345-.141-.6-.3-.857a24.546,24.546,0,0,1-1.57-3.692c-.248-.6-.495-1.246-.789-1.8-.748-1.4-1.415-2.951-2.143-4.29s-1.222-2.551-1.975-3.829a2.874,2.874,0,0,0-1.088-1.15c.207-.626.355-.895,1.052-.657a6.2,6.2,0,0,1,1.974,1.017,17.283,17.283,0,0,1,6.805,11.7,20.715,20.715,0,0,1,.081,4.482,4.565,4.565,0,0,1-.712,2.153C456.058,972.815,455.622,971.788,455.172,970.757Z" transform="translate(115.118 -82.317)" fill="#8a8a8a" fill-rule="evenodd"/>
    <path id="Path_33954" data-name="Path 33954" d="M445.778,974.211c-.695-.774-1.463-1.548-2.212-2.3s-1.517-1.5-2.337-2.2a23.231,23.231,0,0,0-3.728-2.668c.16-.422.3-.474.8-.559a4.69,4.69,0,0,1,1.707.045,19.431,19.431,0,0,1,9.131,4.763,8.91,8.91,0,0,1,1.974,2.75,19.636,19.636,0,0,1,1.9,6,2.34,2.34,0,0,1-.085,1.269c-.586-.171-.846-.679-1.155-1.138a19.309,19.309,0,0,0-4.842-4.911A7.093,7.093,0,0,1,445.778,974.211Z" transform="translate(108.019 -73.615)" fill="#8a8a8a" fill-rule="evenodd"/>
    <path id="Path_33955" data-name="Path 33955" d="M474.177,956.987a44.689,44.689,0,0,1,8.107,3.482,8.82,8.82,0,0,0-1.491-1.355c.245-.25.521-.1.765.026a66.412,66.412,0,0,1,7.064,4.028c.777.514,1.507,1.01,2.3,1.539a1.682,1.682,0,0,1,.941,1.271,2.137,2.137,0,0,1-1.469.467,11.547,11.547,0,0,1-4.063-.465,41.79,41.79,0,0,1-4.185-1.451,15.82,15.82,0,0,1-4.7-3.042A18.6,18.6,0,0,1,474.177,956.987Z" transform="translate(134.563 -80.446)" fill="#8a8a8a" fill-rule="evenodd"/>
    <path id="Path_33956" data-name="Path 33956" d="M475.1,978.981c.215-.207.46-.239.159-.576a12.1,12.1,0,0,0-1.837-1.639,24.616,24.616,0,0,0-4.849-2.737c-.348-.152-.771-.233-.848-.7a10.7,10.7,0,0,0-2.748-1.563,31.137,31.137,0,0,0-7.517-2.151,4.356,4.356,0,0,1,2.481-.712,20.6,20.6,0,0,1,14.033,4.971,13.307,13.307,0,0,1,2.861,3.937c.3.544.1.771-.391.917A4.786,4.786,0,0,1,475.1,978.981Z" transform="translate(122.461 -71.823)" fill="#8a8a8a" fill-rule="evenodd"/>
    <path id="Path_33957" data-name="Path 33957" d="M484.022,969.967c-.195-.321-.565-.353-.862-.517-2.21-1.222-4.452-2.167-6.766-3.185a21.867,21.867,0,0,0-2.83-1.008c-1.255-.362-2.439-1.036-3.718-1.374-1.8-.474-3.592-.932-5.426-1.237,5.226-1.71,9.5-.859,14.286,1.66a16.616,16.616,0,0,1,5.289,4.706C484.246,969.326,484.341,969.653,484.022,969.967Z" transform="translate(127.501 -76.998)" fill="#8a8a8a" fill-rule="evenodd"/>
    <path id="Path_33958" data-name="Path 33958" d="M470.177,983.069a2.5,2.5,0,0,0-1.372-.934c-2.332-.76-4.7-1.374-7.054-2.094-.079-.024-.176.026-.257,0a38.61,38.61,0,0,0-10.879-1.99,8.527,8.527,0,0,1,4.633-1.956,17.255,17.255,0,0,1,11.285,3.178,15.052,15.052,0,0,1,3.287,3.058A1.013,1.013,0,0,1,470.177,983.069Z" transform="translate(117.511 -66.658)" fill="#8a8a8a" fill-rule="evenodd"/>
    <path id="Path_33959" data-name="Path 33959" d="M462.284,962.563a1.662,1.662,0,0,0,0-.81,49.345,49.345,0,0,0-1.832-7.424c-.291-.855-.693-1.689-1.024-2.525-.569-1.443-1.339-2.77-2.008-4.161a17.2,17.2,0,0,1,3.475,3.054,15.067,15.067,0,0,1,1.958,2.508,14.722,14.722,0,0,1,1.862,8.233,14.437,14.437,0,0,1-.734,3.887,1.415,1.415,0,0,1-.722,1c-.126.05-.262-.107-.3-.243a21.191,21.191,0,0,1-.771-3.189C462.167,962.785,462.2,962.749,462.284,962.563Z" transform="translate(122.434 -87.209)" fill="#8a8a8a" fill-rule="evenodd"/>
    <path id="Path_33960" data-name="Path 33960" d="M491.736,966.433a1.864,1.864,0,0,0-.872-.983c-.429-.272-.864-.6-1.3-.9-1.8-1.24-3.653-2.325-5.568-3.413-.951-.541-2-1.041-3-1.544-.095-.047-.235.019-.333-.036a45.378,45.378,0,0,0-6.314-2.777,5.815,5.815,0,0,1,2.427-.426,14.578,14.578,0,0,1,6.961,1.72,19.217,19.217,0,0,1,7.188,6.393c.307.448.5.931.771,1.41A.526.526,0,0,1,491.736,966.433Z" transform="translate(134.69 -80.903)" fill="#8a8a8a" fill-rule="evenodd"/>
    <path id="Path_33961" data-name="Path 33961" d="M471.863,960.982a50.1,50.1,0,0,0,.352-8.833,8.224,8.224,0,0,1,.536,1.879c.324-.126.321-.431.321-.71a54.458,54.458,0,0,0-.579-8.248c-.138-.941-.279-1.852-.429-2.806a1.71,1.71,0,0,0-.753-1.408,2.359,2.359,0,0,0-1.031,1.21,12.708,12.708,0,0,0-1.322,4.046,45.167,45.167,0,0,0-.464,4.573,16.019,16.019,0,0,0,.679,5.6A15.321,15.321,0,0,0,471.863,960.982Z" transform="translate(130.434 -92.121)" fill="#8a8a8a" fill-rule="evenodd"/>
    <path id="Path_33962" data-name="Path 33962" d="M470.119,940.855a1.927,1.927,0,0,1,.526,1.226c.071.514.172,1.062.26,1.6.365,2.213.578,4.449.741,6.691.083,1.114.033,2.227.04,3.351,0,.107-.122.2-.117.317a52.285,52.285,0,0,1-.157,6.893,6.555,6.555,0,0,0,1.45-2.091,15.567,15.567,0,0,0,1.417-7.069,18.609,18.609,0,0,0-2.732-9.353c-.279-.472-.629-.852-.948-1.3A.5.5,0,0,0,470.119,940.855Z" transform="translate(131.626 -92.124)" fill="#8a8a8a" fill-rule="evenodd"/>
    <path id="Path_33963" data-name="Path 33963" d="M477.316,955.419c3.849-1.208,7.445-2.615,11.489-2.982a5.836,5.836,0,0,0-1.586-.453c.112-.5.579-.534.984-.584a78,78,0,0,1,12.094-.526c1.389.041,2.737.052,4.149.058a2.384,2.384,0,0,1,2.172.769,3.565,3.565,0,0,1-1.5,1.81,15.852,15.852,0,0,1-5.521,2.625,60.809,60.809,0,0,1-6.488,1.422,28.932,28.932,0,0,1-8.3-.05A22.952,22.952,0,0,1,477.316,955.419Z" transform="translate(136.835 -84.899)" fill="#8a8a8a" fill-rule="evenodd"/>
    <path id="Path_33964" data-name="Path 33964" d="M506.742,953.068a2.673,2.673,0,0,0-1.862-.476c-.753.017-1.567.007-2.358-.023-3.275-.126-6.537-.09-9.825.041-1.636.065-3.279.319-4.92.507-.157.017-.279.21-.448.222a64.143,64.143,0,0,0-10.179,1.731,7.95,7.95,0,0,1,2.682-2.494,22.712,22.712,0,0,1,10.155-3.5,28.358,28.358,0,0,1,14.2,2.236c.741.309,1.358.743,2.079,1.108A.727.727,0,0,1,506.742,953.068Z" transform="translate(136.715 -86.272)" fill="#8a8a8a" fill-rule="evenodd"/>
    <path id="Path_33965" data-name="Path 33965" d="M442.382,970.928c.7.562,1.577,1.024,2.255,1.577a17.453,17.453,0,0,1,1.825,1.7,11.437,11.437,0,0,1,1.734,1.982c.4.736.886,1.167,1.274,1.9s.808,1.61,1.234,2.356c.172.3.4.7.517.97s.253.184.362.283-.122.3-.272.143-.262-.017-.341.131c-.447-.857-1.089-1.693-1.465-2.561a2.9,2.9,0,0,0-.385-.724,24.006,24.006,0,0,0-1.9-2.349c-1.041-.995-1.832-2.113-2.879-3.089-.664-.621-1.307-1.286-1.991-1.891C442.192,971.212,442.237,971.064,442.382,970.928Z" transform="translate(111.457 -70.356)" fill="#8a8a8a" fill-rule="evenodd"/>
    <path id="Path_33966" data-name="Path 33966" d="M461.258,958.431c.328,1.269.729,2.454.974,3.775a31.3,31.3,0,0,1,.412,4.161,4.459,4.459,0,0,1-.021,1.093.565.565,0,0,0-.576.079,10.168,10.168,0,0,1-.154-1.811c-.09-.764-.181-1.746-.333-2.619a40.149,40.149,0,0,0-.948-4.058c-.4-1.422-1-3.129-1.434-4.587-.1-.326-.46-.719-.353-.991.081-.207.288.06.355.2a39.812,39.812,0,0,1,1.644,3.832A10.063,10.063,0,0,1,461.258,958.431Z" transform="translate(123.439 -83.043)" fill="#8a8a8a" fill-rule="evenodd"/>
    <path id="Path_33967" data-name="Path 33967" d="M471.626,948.951a35.91,35.91,0,0,1-.05,5.936c-.019.178.1.288.078.491s-.2.51-.229.795a14.95,14.95,0,0,1-1.013,4.256c-.045.107.012.248-.01.31s-.286-.033-.352,0c.209-1.384.51-2.728.626-4.123.021-.25.009-.5.034-.75.25-2.424.324-4.818.433-7.269a1.524,1.524,0,0,1,.234-.95C471.378,948.093,471.6,948.519,471.626,948.951Z" transform="translate(131.575 -87.204)" fill="#8a8a8a" fill-rule="evenodd"/>
    <path id="Path_33968" data-name="Path 33968" d="M475.331,966.957c.264-.145.527-.291.793-.436A.82.82,0,0,1,475.331,966.957Z" transform="translate(135.398 -73.546)" fill="#8a8a8a" fill-rule="evenodd"/>
    <path id="Path_33886" data-name="Path 33886" d="M447.292,1454.021c-6.778-11.115-26.512-41.459-50.693-60.328-30.047-23.45-43.327-27.856-41.273-17.472.964,4.879,12.266,4.161,30.314,13.711,19.2,10.157,46.857,47.961,56.921,64.192Z" transform="translate(-30.873 -396.693)" fill="#8a8a8a"/>
    <path id="Path_33887" data-name="Path 33887" d="M392.055,1397.379s-3.433-13.218-4.478-19c-1.022-5.644-10.039-19.03-12.911-9.276-1.7,5.765,13.207,18.639,11.674,23.82s-26.607-5.282-29,5.028S387.949,1393.677,392.055,1397.379Z" transform="translate(-29.265 -400.735)" fill="#8a8a8a"/>
    <path id="Path_33888" data-name="Path 33888" d="M400.087,1408.849s1.646-19.311,2.454-25.127c.788-5.681-3.636-19.394-9.405-11.021-3.41,4.948,5.979,25.693,2.907,30.139s-28.071-2.833-29.472,7.632C365.167,1420.962,397.339,1404.049,400.087,1408.849Z" transform="translate(-22.136 -397.356)" fill="#8a8a8a"/>
    <path id="Path_33889" data-name="Path 33889" d="M409.254,1419.365s4.4-15.016,5.944-20.679c1.513-5.535,2.515-23.247-5.125-16.536-5.432,4.772.834,29.062-2.785,33.076s-34.8-7-32.716,4.625C376.438,1430.269,407.146,1414.253,409.254,1419.365Z" transform="translate(-16.049 -389.242)" fill="#8a8a8a"/>
    <path id="Path_33890" data-name="Path 33890" d="M421.288,1434.45a214.8,214.8,0,0,1,8.236-27.2c1.962-5.391,1.358-18.937-5.439-11.375-4.018,4.471-2.416,28.082-6.034,32.1s-31.462-11.94-34.067,1.415C381.959,1439.771,419.18,1429.338,421.288,1434.45Z" transform="translate(-8.825 -379.302)" fill="#8a8a8a"/>
    <circle id="Ellipse_3768" data-name="Ellipse 3768" cx="19.679" cy="19.679" r="19.679" transform="translate(527.902 1013.601) rotate(-77.661)" fill="#ffae9d"/>
    <path id="Path_33901" data-name="Path 33901" d="M479.328,973.234l-48.223-74.661,32.258-20.648,48.566,74.29Z" transform="translate(55.473 36.024)" fill="#ffae9d"/>
    <path id="Path_33902" data-name="Path 33902" d="M467.969,883.537a19.335,19.335,0,0,0-1.557-2.927,19.869,19.869,0,0,0-27.208-5.762,19.192,19.192,0,0,0-7.213,24.291l-7.4,3.578,54.391,72.023,35.546-21.109Z" transform="translate(52.884 33.568)" fill="#e4e4e4" stroke="#262626" stroke-miterlimit="10" stroke-width="1"/>
    <path id="Path_33903" data-name="Path 33903" d="M374.26,929.12a1.17,1.17,0,0,0-.1.121l.171.334Z" transform="translate(32.832 56.354)" fill="none"/>
    <path id="Path_33904" data-name="Path 33904" d="M311.807,891.39a19.679,19.679,0,1,0-4.843-27.405A19.677,19.677,0,0,0,311.807,891.39Z" transform="translate(4.703 27.09)" fill="#ffac9c"/>
    <path id="Path_33905" data-name="Path 33905" d="M394.742,821.317c3.084.732,4.345,1.389,9.286-.268s12.155,5.1,6.393,6.344-17.368,6.481-21.689,8.96c-3.308,1.588-5.642,2.481-8.353,5.951l-.725,1.213-42,70.322L305.4,891.276l53.758-66.546,3.283-5.016,0,0s1.361-10.972,13.826-18.082a69.313,69.313,0,0,1,7.821-3.308,24.249,24.249,0,0,1,4.355,3.8c1.7,2.025,1.638,1.669,1.638,1.669s13.076-18.9,17.179-15.928c4.838,3.505-12.571,21.432-12.571,21.432s13.86-15.668,17.8-11.751c4.222,4.2-17.431,22.842-17.431,22.842C394.619,820.648,393.784,821.089,394.742,821.317Z" transform="translate(5.496)" fill="#ffac9c" stroke="#262626" stroke-miterlimit="10" stroke-width="1"/>
    <path id="Path_33906" data-name="Path 33906" d="M359.189,792.932l-2.862,5.407a1.934,1.934,0,0,0,.233,2.379h0a2.044,2.044,0,0,0,2.727-.313l4.01-3.789c1.392-1.416,1.564-3.507.375-4.566h0C362.486,791,360.438,791.4,359.189,792.932Z" transform="translate(25.625 1.558)" fill="#ffac9c" stroke="#262626" stroke-miterlimit="10" stroke-width="1"/>
    <path id="Path_33907" data-name="Path 33907" d="M363.386,794.818l-4.977,8.851a2.6,2.6,0,0,0,.537,3.217h0a2.6,2.6,0,0,0,3.507-.041l7.031-6.564a4.1,4.1,0,0,0-.161-5.972h0A4.1,4.1,0,0,0,363.386,794.818Z" transform="translate(26.437 2.277)" fill="#ffac9c" stroke="#262626" stroke-miterlimit="10" stroke-width="1"/>
    <rect id="Rectangle_8641" data-name="Rectangle 8641" width="88.88" height="39.358" transform="translate(408.003 943.302) rotate(-165.582)" fill="#ffac9c"/>
    <path id="Path_33909" data-name="Path 33909" d="M500.392,879.079h-32.38s-5.283,6.091-10.395,6.091-10.053-6.091-10.053-6.091H412.993l-52.924-13.607-4.2-1.824,2.194-3.585-38.23-8.513-17.215,21.091a21.908,21.908,0,0,0,13.06,35.408l84.346,15.308,11,108.391,94.063.159.377-50.97C523.36,923.824,500.392,879.079,500.392,879.079Z" transform="translate(2.418 25.539)" fill="#eceeef" stroke="#262626" stroke-miterlimit="10" stroke-width="1"/>
    <path id="Path_33910" data-name="Path 33910" d="M384.809,1009.973c-11.606,0-25.753-6.156-30.54-17.25-2.045-4.738-1.606-10.668,1.168-15.865,11.026-20.644,41.086-22.874,57.105-20.937,17,2.053,33.11,8.589,48.69,14.912l2.193.889c17.407,7.049,33.188,12.968,50.056,14,18.923,1.148,36.238-5.041,46.348-16.575,10.576-12.069,13.893-31.054,8.45-48.366-6-19.078-20.3-32.631-31.24-40.64l2.476-3.382c11.445,8.379,26.42,22.6,32.762,42.765,5.874,18.677,2.225,39.241-9.3,52.386-10.958,12.505-29.563,19.231-49.758,18-17.5-1.066-33.619-7.107-51.374-14.294l-2.194-.89c-15.326-6.219-31.173-12.65-47.616-14.635-14.971-1.81-42.952.108-52.905,18.75-2.179,4.082-2.56,8.654-1.018,12.229,4.3,9.973,18.559,15.6,29.161,14.608l.393,4.173C386.739,1009.928,385.782,1009.973,384.809,1009.973Z" transform="translate(24.418 35.559)" fill="#3f434c" stroke="#262626" stroke-miterlimit="10" stroke-width="1"/>
    <path id="Path_33911" data-name="Path 33911" d="M454.5,957.678l-2.193-.889c-15.58-6.321-31.692-12.859-48.69-14.912a85.655,85.655,0,0,0-28.177,1.454l.432,4.15a81.512,81.512,0,0,1,27.243-1.44c16.443,1.986,32.29,8.415,47.616,14.636l2.194.889c7.111,2.879,13.958,5.567,20.736,7.831l.029-4.416C467.425,962.839,461.087,960.344,454.5,957.678Z" transform="translate(33.342 61.23)"/>
    <path id="Path_33912" data-name="Path 33912" d="M364.93,886.024a19.679,19.679,0,1,0,23.959-14.159A19.679,19.679,0,0,0,364.93,886.024Z" transform="translate(28.914 33.367)" fill="#eceeef"/>
    <path id="Path_33914" data-name="Path 33914" d="M481.827,963.721a19.679,19.679,0,1,1,20.851-18.433A19.678,19.678,0,0,1,481.827,963.721Z" transform="translate(68.296 54.502)" fill="#ffae9d"/>
    <path id="Path_33915" data-name="Path 33915" d="M498.317,893.328c1.331-9.42-1.437-25.911-1.437-25.911-4.321-1.56-17.461-6.752-22.036-7.192-9.982-1.42-6.2,19.98-4.3,27.794a12.066,12.066,0,0,0,1.262,3.083,14.29,14.29,0,0,0-1.505,5.571l-6.919,71.739,39.283,2.418-3.729-72.395A14.282,14.282,0,0,0,498.317,893.328Z" transform="translate(68.306 28.961)" fill="#ffae9d" stroke="#262626" stroke-miterlimit="10" stroke-width="1"/>
    <path id="Path_32025" data-name="Path 32025" d="M454.406,857.533l1.676-2.268a8.667,8.667,0,0,1,12.083-1.827h0a8.666,8.666,0,0,1,1.827,12.083l-1.676,2.268a8.666,8.666,0,0,1-12.084,1.827h0A8.666,8.666,0,0,1,454.406,857.533Z" transform="translate(64.07 25.623)" fill="#ffa400" stroke="#262626" stroke-miterlimit="10" stroke-width="1"/>
    <path id="Path_32026" data-name="Path 32026" d="M462.423,861.5a4.862,4.862,0,0,1,6.858-.984l25.526,19.407c.46.356.64.889.408,1.2h0a.8.8,0,0,0,.173.976l3,3.565a1.945,1.945,0,0,1,.412,2.341h0a1.943,1.943,0,0,1-2.358.3L492.15,886.5a.812.812,0,0,0-.984.125h0c-.232.314-.8.3-1.27-.036l-26.323-18.19a4.864,4.864,0,0,1-1.149-6.89Z" transform="translate(67.546 28.71)" fill="#3f434c" stroke="#262626" stroke-miterlimit="10" stroke-width="1"/>
    <path id="Path_32029" data-name="Path 32029" d="M487.747,892.477c1.266-2.084.635-4.218-.952-6.221-4.2-5.3-15.1-9.675-15.1-9.675s-1.685-10.457-4.288-13.249-4.762-2.539-4.584,1.2-.723,9.378-1.235,18.026c-.166,2.788,5.2,8,10.145,9.913.147.057-.291.967-.291.967" transform="translate(67.593 29.476)" fill="#ffae9d" stroke="#262626" stroke-miterlimit="10" stroke-width="1"/>
    <path id="Path_33916" data-name="Path 33916" d="M489.364,869.061l-3.79,4.665a1.908,1.908,0,0,1-2.243.7h0a2.012,2.012,0,0,1-.763-2.587l1.887-5.082c.746-1.8,2.572-2.76,3.987-2.091h0C489.85,865.335,490.272,867.342,489.364,869.061Z" transform="translate(75.866 30.67)" fill="#ffac9c" stroke="#262626" stroke-miterlimit="10" stroke-width="1"/>
    <path id="Path_33917" data-name="Path 33917" d="M487.357,866.918l-6.094,7.9a2.554,2.554,0,0,1-3.117.749h0a2.555,2.555,0,0,1-1.31-3.187l3.237-8.879a4.03,4.03,0,0,1,5.463-2.148h0A4.029,4.029,0,0,1,487.357,866.918Z" transform="translate(73.593 29.282)" fill="#ffac9c" stroke="#262626" stroke-miterlimit="10" stroke-width="1"/>
    <path id="Path_33918" data-name="Path 33918" d="M482.252,864.9l-8.292,8.84a2.354,2.354,0,0,1-3.062.32h0a2.352,2.352,0,0,1-.711-3.073l5.8-10.43a3.821,3.821,0,0,1,5.446-1.147h0A3.821,3.821,0,0,1,482.252,864.9Z" transform="translate(70.893 28.391)" fill="#ffac9c" stroke="#262626" stroke-miterlimit="10" stroke-width="1"/>
    <path id="Path_33919" data-name="Path 33919" d="M475.688,862.647l-6.6,7.07a2.249,2.249,0,0,1-2.936.307h0a2.248,2.248,0,0,1-.714-2.859l4.37-8.613a3.585,3.585,0,0,1,5.117-1.062h0A3.587,3.587,0,0,1,475.688,862.647Z" transform="translate(69.028 27.642)" fill="#ffac9c" stroke="#262626" stroke-miterlimit="10" stroke-width="1"/>
    <path id="Path_33920" data-name="Path 33920" d="M404.171,853.468l.943,24.421s5.167,6.091,10.262,6.091,10.118-6.091,10.118-6.091l-1.523-9.719Z" transform="translate(44.764 26.238)" fill="#ffae9d"/>
    <path id="Path_33921" data-name="Path 33921" d="M420.933,865.548c.573.053,1.087,1.195,1.184,1.859l.612,3.909c-9.92-.637-13.088-10.781-13.088-10.781h0C411.841,862.993,418.324,865.3,420.933,865.548Z" transform="translate(46.939 29.047)" fill="#000615"/>
    <path id="Path_33922" data-name="Path 33922" d="M407.461,861.047a30.977,30.977,0,0,0,2.808,6.768c1.473,2.205,14.183,8.651,17.06,6.741,2.468-1.638,2.91-9.161,3.1-13.52a83.75,83.75,0,0,0-.419-15.411l-16.96-3.361L406.793,856.1Z" transform="translate(45.807 21.784)" fill="#ffae9d"/>
    <path id="Path_33923" data-name="Path 33923" d="M405.671,846.446s-11.3-3.438-.745,15.456l1.1,9.094,3.733-5.209,2.57-4.711,1.659,4.321h.956l-.26-10.309s3.732-1.248,3.526-6.173c0,0,16.673,4.832,19.225-1.008l-2.963-4.179-2.028,1.092a11.584,11.584,0,0,0,2.964-7.019l-3.9,3.431a6.8,6.8,0,0,0,1.219-4.562,4.093,4.093,0,0,0-3.938-3.6h0a4.287,4.287,0,0,0-3.328,1.41,13.009,13.009,0,0,1-4.242,2.931C416.246,839.652,403.074,837.7,405.671,846.446Z" transform="translate(43.273 18.126)" fill="#000615"/>
    <path id="Path_33924" data-name="Path 33924" d="M411.46,855.33a4.073,4.073,0,1,1-4.073-4.073A4.073,4.073,0,0,1,411.46,855.33Z" transform="translate(44.423 25.359)" fill="#ffae9d"/>
    <path id="Path_33926" data-name="Path 33926" d="M464.658,952.444h0c4.767,5.178,11.158,9.217,17.7,9.333,5.841.1,11.821-3.187,16.6-7.26h0a11.792,11.792,0,0,0,4.11-8.154l.974-14.047-40.675-1.561-.045,18.964A5.331,5.331,0,0,0,464.658,952.444Z" transform="translate(68.283 57.029)" fill="#eceeef" stroke="#262626" stroke-miterlimit="10" stroke-width="1"/>
    <path id="Path_33944" data-name="Path 33944" d="M478.288,987.56a15.188,15.188,0,0,0-1.263-4.7c-3.268-6.229-9.81-11.2-17.948-13.632a51.166,51.166,0,0,0-12.928-1.98l.154-4.19a55.3,55.3,0,0,1,13.976,2.154c9.213,2.756,16.67,8.481,20.458,15.7a19.979,19.979,0,0,1,1.772,6.647Z" transform="translate(61.454 69.871)" fill="#3f434c" stroke="#262626" stroke-miterlimit="10" stroke-width="1"/>
    <path id="Path_33969" data-name="Path 33969" d="M384.809,1009.973c-11.606,0-25.753-6.156-30.54-17.25-2.045-4.738-1.606-10.668,1.168-15.865,11.026-20.644,41.086-22.874,57.105-20.937,17,2.053,33.11,8.589,48.69,14.912l2.193.889c17.407,7.049,33.188,12.968,50.056,14,18.923,1.148,36.238-5.041,46.348-16.575,10.576-12.069,13.893-31.054,8.45-48.366-6-19.078-20.3-32.631-31.24-40.64l2.476-3.382c11.445,8.379,26.42,22.6,32.762,42.765,5.874,18.677,2.225,39.241-9.3,52.386-10.958,12.505-29.563,19.231-49.758,18-17.5-1.066-33.619-7.107-51.374-14.294l-2.194-.89c-15.326-6.219-31.173-12.65-47.616-14.635-14.971-1.81-42.952.108-52.905,18.75-2.179,4.082-2.56,8.654-1.018,12.229,4.3,9.973,18.559,15.6,29.161,14.608l.393,4.173C386.739,1009.928,385.782,1009.973,384.809,1009.973Z" transform="translate(24.418 35.56)" fill="#3f434c" stroke="#262626" stroke-miterlimit="10" stroke-width="1"/>
  </g>
</svg>
