<svg xmlns="http://www.w3.org/2000/svg" width="375" height="270" viewBox="0 0 375 270">
  <g id="mobile-graphic" transform="translate(-204.777 -1808.443)">
    <path id="Path_34225" data-name="Path 34225" d="M557.455,1963.789a17.356,17.356,0,0,0-3.791-7.264c-5.044-5.906-12.244-8.6-19.273-11.23-33.309-12.463-68.36-26.972-88.656-56.016-6.729-9.63-12.006-21-22.121-27.04-11.093-6.623-25.674-4.978-37.119,1.025s-20.381,15.743-28.839,25.474-16.863,19.806-27.71,26.819c-13.762,8.9-30.329,12.17-46.392,15.554s-32.608,7.3-45.689,17.159-21.8,27.305-16.527,42.753c5.6,16.4,23.6,24.376,38.794,32.866,11.408,6.376,22.13,13.99,33.072,21.161H470.518l73.833-58.2C551.7,1981.061,559.8,1973.858,557.455,1963.789Z" transform="translate(-15 -49.522)" fill="#ece9fc"/>
    <path id="Path_34229" data-name="Path 34229" d="M572.787,1947.711c-18.733-18.608-47.515-20.945-73.237-26.9-41.072-9.516-78.875-30.606-120.209-38.914-15.044-3.024-31.173-4.21-45.293,1.8-11.231,4.778-20.222,13.738-27.375,23.628-17.495,24.194-25.055,57.212-13.12,84.58,11.97,27.448,39.977,43.723,66.226,58.133,15.6,8.565,31.985,17.5,48.892,23.061h62.9c37.027-8.84,49.957-40.835,82.966-59.8,6.845-3.932,14.118-7.168,20.515-11.792s12-10.958,13.7-18.668c3.244-14.759-8.286-28.326-19.193-38.785" transform="translate(-9.526 5.35)" fill="#d8d2fc"/>
    <path id="Path_33454" data-name="Path 33454" d="M284.184,187.355a15.811,15.811,0,0,0,6.561-10.057c1.2-6.744-1.162-11.966.56-14.365C291.3,162.934,276.073,176.706,284.184,187.355Z" transform="translate(-66.346 1677.193)" fill="#5b5b5b"/>
    <path id="Path_33455" data-name="Path 33455" d="M293.229,204.215a15.81,15.81,0,0,0,6.56-10.055c1.2-6.746-1.164-11.968.56-14.367C300.35,179.794,285.118,193.566,293.229,204.215Z" transform="translate(-58.27 1692.246)" fill="#5b5b5b"/>
    <path id="Path_33456" data-name="Path 33456" d="M303.985,195.1a15.808,15.808,0,0,0-10.88-5.077c-6.848-.233-11.684,2.841-14.3,1.473C278.8,191.493,294.585,204.629,303.985,195.1Z" transform="translate(-69.026 1701.365)" fill="#5b5b5b"/>
    <path id="Path_33457" data-name="Path 33457" d="M302.056,215.2a15.8,15.8,0,0,0,6.561-10.055c1.2-6.746-1.164-11.966.56-14.367C309.177,190.782,293.945,204.554,302.056,215.2Z" transform="translate(-50.389 1702.057)" fill="#5b5b5b"/>
    <path id="Path_33458" data-name="Path 33458" d="M312.812,206.084a15.81,15.81,0,0,0-10.88-5.075c-6.848-.233-11.684,2.839-14.3,1.471C287.63,202.48,303.412,215.616,312.812,206.084Z" transform="translate(-61.145 1711.176)" fill="#5b5b5b"/>
    <path id="Path_33459" data-name="Path 33459" d="M310.745,225.829a13.958,13.958,0,0,0,5.794-8.881c1.056-5.959-1.028-10.57.494-12.688C317.033,204.26,303.581,216.423,310.745,225.829Z" transform="translate(-42.383 1714.09)" fill="#5b5b5b"/>
    <path id="Path_33460" data-name="Path 33460" d="M320.246,217.774a13.966,13.966,0,0,0-9.612-4.482c-6.048-.206-10.318,2.508-12.631,1.3C298,214.591,311.944,226.194,320.246,217.774Z" transform="translate(-51.884 1722.145)" fill="#5b5b5b"/>
    <path id="Path_33461" data-name="Path 33461" d="M284.607,173.362s-7.331,10.3,11.043,31.633,61.655,67.442,52.377,110.64" transform="translate(-65.133 1686.503)" fill="none" stroke="#7a49cf" stroke-miterlimit="10" stroke-width="0.75"/>
    <path id="Path_33462" data-name="Path 33462" d="M313.668,207.307s-4.1,6.555-3.78,13.227" transform="translate(-41.288 1716.811)" fill="none" stroke="#fff" stroke-miterlimit="10" stroke-width="1"/>
    <path id="Path_33463" data-name="Path 33463" d="M315.833,216.776A20.388,20.388,0,0,0,300.2,215.15" transform="translate(-49.922 1723.012)" fill="none" stroke="#fff" stroke-miterlimit="10" stroke-width="1"/>
    <path id="Path_33464" data-name="Path 33464" d="M307.744,204.167s-10.129-2.483-18.02-1.524" transform="translate(-59.275 1712.45)" fill="none" stroke="#fff" stroke-miterlimit="10" stroke-width="1"/>
    <path id="Path_33465" data-name="Path 33465" d="M305.494,193.413s-4.5,9.125-4.13,15.68" transform="translate(-48.902 1704.406)" fill="none" stroke="#fff" stroke-miterlimit="10" stroke-width="1"/>
    <path id="Path_33466" data-name="Path 33466" d="M297.181,182.025s-5.109,9.055-5.073,16.8" transform="translate(-57.147 1694.238)" fill="none" stroke="#fff" stroke-miterlimit="10" stroke-width="1"/>
    <path id="Path_33467" data-name="Path 33467" d="M299,193.379s-12.074-3.03-17.647-1.563" transform="translate(-66.747 1702.621)" fill="none" stroke="#fff" stroke-miterlimit="10" stroke-width="1"/>
    <path id="Path_33468" data-name="Path 33468" d="M287.266,165.689a78.347,78.347,0,0,0-3.9,16.825" transform="translate(-64.951 1679.653)" fill="none" stroke="#fff" stroke-miterlimit="10" stroke-width="1"/>
    <path id="Path_33355" data-name="Path 33355" d="M457.162,257.109h6.861l12.442.094c37.762-52.948,62.508-65.994,88.229-81.062-5.616-2.392-12.829-5.982-17.2-10.308,8.533,1.353,16.057,3.666,24.616,6.185,11.094-13.309,23.661-19.671,11.183-39.369-18.1-28.565-75.141,8.045-91.179,24.986a103.344,103.344,0,0,0,.454,25.266,27.75,27.75,0,0,1-12.547-12.515C466.612,189.294,454.213,220.323,457.162,257.109Zm54.169-56.821a3.172,3.172,0,0,1,3.881-2.7,3.525,3.525,0,0,1,2.779,4.067,3.029,3.029,0,0,1-3.764,2.6A3.431,3.431,0,0,1,511.331,200.288Z" transform="translate(-8.702 1773.455)" fill="#b8b8b8"/>
    <path id="Path_33356" data-name="Path 33356" d="M572.956,139.523C501.038,183.192,495.3,192.894,463.438,256.5" transform="translate(-8.2 1774.758)" fill="none" stroke="#fff" stroke-miterlimit="10" stroke-width="0.75"/>
    <path id="Path_33357" data-name="Path 33357" d="M560.632,160.738c-5.742-2.473-10.494-4.625-16.4-6.664,1.849-6.988,2.978-13.884,4.94-20.839" transform="translate(-2.159 1774.288)" fill="none" stroke="#fff" stroke-miterlimit="10" stroke-width="0.75"/>
    <path id="Path_33358" data-name="Path 33358" d="M544.525,176.586c-8.724-1.9-17.473-3.252-26.34-4.284a145.061,145.061,0,0,1,3.232-23.833" transform="translate(-4.106 1775.427)" fill="none" stroke="#fff" stroke-miterlimit="10" stroke-width="0.75"/>
    <path id="Path_33359" data-name="Path 33359" d="M528.608,187.821c-8.54-.733-17.686-1.264-26.26-1.161a178.01,178.01,0,0,1-.2-24.618" transform="translate(-5.33 1776.442)" fill="none" stroke="#fff" stroke-miterlimit="10" stroke-width="0.75"/>
    <path id="Path_33360" data-name="Path 33360" d="M508.362,203.4a71.98,71.98,0,0,0-20.289,2.247c-3.173-7.39-8.145-14.774-10.005-22.6" transform="translate(-7.106 1778.012)" fill="none" stroke="#fff" stroke-miterlimit="10" stroke-width="0.75"/>
    <path id="Path_33361" data-name="Path 33361" d="M494.678,216.892c-7.012,1.569-12.074,4.975-17.957,8.916-5.129-6.752-10.71-13.8-14.746-21.253" transform="translate(-8.31 1779.621)" fill="none" stroke="#fff" stroke-miterlimit="10" stroke-width="1"/>
    <path id="Path_33362" data-name="Path 33362" d="M530.956,138.011c-1.266,1.864-.733,3.911,1.34,4.728a5.107,5.107,0,0,0,5.863-1.76,2.979,2.979,0,0,0-1.324-4.755A4.908,4.908,0,0,0,530.956,138.011Z" transform="translate(-3.202 1774.484)" fill="none" stroke="#fff" stroke-miterlimit="10" stroke-width="0.75"/>
    <path id="Path_33384" data-name="Path 33384" d="M571.065,129.013c-2.644-1.233-4.013-2.826-7.212-3.147-14.687-1.472-29.2,3.237-42.324,9.971" transform="translate(-3.856 1773.717)" fill="none" stroke="#fff" stroke-miterlimit="10" stroke-width="1"/>
    <path id="Path_33385" data-name="Path 33385" d="M575.378,141.061a25.38,25.38,0,0,0-3.892-8.427" transform="translate(-0.121 1774.243)" fill="none" stroke="#fff" stroke-miterlimit="10" stroke-width="1"/>
    <path id="Path_33386" data-name="Path 33386" d="M555.271,164.094c-3.892-1.021-7.828-1.926-11.784-2.659" transform="translate(-2.214 1776.396)" fill="none" stroke="#fff" stroke-miterlimit="10" stroke-width="1"/>
    <path id="Path_33387" data-name="Path 33387" d="M560.246,165.644c-1.193-.361-2.382-.735-3.57-1.108" transform="translate(-1.228 1776.628)" fill="none" stroke="#fff" stroke-miterlimit="10" stroke-width="1"/>
    <path id="Path_33388" data-name="Path 33388" d="M483.248,178.328c-2.53-1.556-5.1-3.239-6.458-5.948" transform="translate(-7.202 1777.215)" fill="none" stroke="#fff" stroke-miterlimit="10" stroke-width="1"/>
    <path id="Path_33389" data-name="Path 33389" d="M488.5,180.56c-1.251-.505-2.489-1-3.71-1.584" transform="translate(-6.604 1777.708)" fill="none" stroke="#fff" stroke-miterlimit="10" stroke-width="1"/>
    <path id="Path_33390" data-name="Path 33390" d="M503.277,213.488c-4.579,6.24-7.474,13.492-12.156,19.664" transform="translate(-6.13 1780.289)" fill="none" stroke="#fff" stroke-miterlimit="10" stroke-width="1"/>
    <path id="Path_33391" data-name="Path 33391" d="M507.468,207.366c-.934,1.173-1.923,2.295-2.918,3.415" transform="translate(-5.125 1779.832)" fill="none" stroke="#fff" stroke-miterlimit="10" stroke-width="1"/>
    <rect id="Rectangle_8658" data-name="Rectangle 8658" width="100.784" height="7.108" rx="3.163" transform="translate(277.216 2050.35) rotate(-116.622)" fill="#000e1b"/>
    <rect id="Rectangle_8659" data-name="Rectangle 8659" width="100.784" height="7.108" rx="3.163" transform="translate(277.216 2050.35) rotate(-116.622)" fill="#000e1b"/>
    <rect id="Rectangle_8660" data-name="Rectangle 8660" width="50.526" height="12.514" transform="translate(267.922 1999.993) rotate(-7.577)" fill="#eaba24"/>
    <path id="Path_34282" data-name="Path 34282" d="M358.068,1997.273h0a5.381,5.381,0,0,0,4.046-7.849l-14.374-27.176-6.655-12.581-6.234-11.787-34.723,4.62.1,54.652a6.853,6.853,0,0,0,7.757,6.782h0" transform="translate(-40.061 -3.943)" fill="#eaba24" stroke="#262626" stroke-miterlimit="10" stroke-width="1"/>
    <rect id="Rectangle_8661" data-name="Rectangle 8661" width="180.144" height="7.108" rx="3.163" transform="translate(275.583 2042.75)" fill="#000e1b"/>
    <rect id="Rectangle_8662" data-name="Rectangle 8662" width="35.318" height="7.108" rx="3.163" transform="matrix(-0.369, 0.929, -0.929, -0.369, 283.393, 2044.106)" fill="#000e1b"/>
    <rect id="Rectangle_8663" data-name="Rectangle 8663" width="33.175" height="7.108" rx="3.163" transform="matrix(0.369, 0.929, -0.929, 0.369, 433.651, 2043.475)" fill="#000e1b"/>
    <circle id="Ellipse_3792" data-name="Ellipse 3792" cx="14.528" cy="14.528" r="14.528" transform="translate(347.194 1955.813) rotate(-11.067)" fill="#ffae9d"/>
    <rect id="Rectangle_8664" data-name="Rectangle 8664" width="65.616" height="29.056" transform="matrix(0.832, 0.555, -0.555, 0.832, 317.743, 1918.759)" fill="#ffae9d"/>
    <path id="Path_34283" data-name="Path 34283" d="M358.268,1944.7a14.528,14.528,0,1,1-4.013-20.15A14.529,14.529,0,0,1,358.268,1944.7Z" transform="translate(-36.559 -5.694)" fill="#5d5d5d" stroke="#262626" stroke-miterlimit="10" stroke-width="1"/>
    <path id="Path_34284" data-name="Path 34284" d="M406.96,1865.771l-2.142.676c-1.2.661-1.553,1.089-2.587,22.3l-.958,13.319a1.327,1.327,0,0,0,.767,1.3l5.2,2.4,15.3-15.993.611-21.273a2.359,2.359,0,0,0-2.293-2.427l-13.367-.367A1.613,1.613,0,0,0,406.96,1865.771Z" transform="translate(-28.828 -11.959)" fill="#ffa400" stroke="#262626" stroke-miterlimit="10" stroke-width="1"/>
    <path id="Path_34286" data-name="Path 34286" d="M402.067,1881.014c1.162.359,9.606,3.139,12.605,5.915" transform="translate(-28.739 -10.258)" fill="#ffac9c" stroke="#262626" stroke-linecap="round" stroke-miterlimit="10" stroke-width="1"/>
    <path id="Path_34287" data-name="Path 34287" d="M425.72,1892.058c-.391-7.125-1.586-8.9,1.279-15.084,1.879-4.061.092-7-3.6-4.173-6.043,4.629-7.47,13.927-7.036,17.294Z" transform="translate(-27.16 -11.294)" fill="#ffac9c" stroke="#262626" stroke-miterlimit="10" stroke-width="1"/>
    <path id="Path_34288" data-name="Path 34288" d="M403.7,1918.149s.272,1.646-.862-3.032,3.005-14.9,3.415-16.864a5.677,5.677,0,0,0,.254-2.333,14.424,14.424,0,0,1-1.569-.974c1.311-3.352-.071-9.775.788-11.215,1.921-3.221,9.548-3.244,9.548-3.244-1.226-2.44-4.026-4.043-7.175-7.421-4.058-4.351,1.144-5.194,5.435-2.676,13.6,7.983,14,20.145,13.766,25.423a72.689,72.689,0,0,1-3.139,16.275c-.474,1.509-3.682,15.436-3.682,15.436" transform="translate(-28.675 -11.594)" fill="#ffac9c" stroke="#262626" stroke-miterlimit="10" stroke-width="1"/>
    <path id="Path_34289" data-name="Path 34289" d="M417.137,1880.407c-4.829-2.93-14.826-3.279-15.686-.419-.882,2.927,4.422,3.8,4.422,3.8-1.508,0-4.031-.265-4.92,2.419a2.411,2.411,0,0,0,1.632,3.167,3.9,3.9,0,0,0-2.005,2.677c-.635,2.972,4,2.013,6.242,5.41" transform="translate(-28.911 -10.59)" fill="#ffac9c" stroke="#262626" stroke-linecap="round" stroke-miterlimit="10" stroke-width="1"/>
    <path id="Path_34290" data-name="Path 34290" d="M405.338,1883.209c1.382.433,6.427.515,10.354,2.724" transform="translate(-28.376 -10.014)" fill="#ffac9c" stroke="#262626" stroke-linecap="round" stroke-miterlimit="10" stroke-width="1"/>
    <path id="Path_34291" data-name="Path 34291" d="M402.379,1888.248a13.4,13.4,0,0,1,9.044,1.982" transform="translate(-28.705 -9.467)" fill="#ffac9c" stroke="#262626" stroke-linecap="round" stroke-miterlimit="10" stroke-width="1"/>
    <path id="Path_34292" data-name="Path 34292" d="M404.117,1908.836l-14.912,44.442,4.337,24.789a13.931,13.931,0,0,0,15.506-9.306l13.485-47.792" transform="translate(-30.167 -7.168)" fill="#ffac9c" stroke="#262626" stroke-miterlimit="10" stroke-width="1"/>
    <path id="Path_34293" data-name="Path 34293" d="M334.986,1950.03l34.641,23.061s11.176,8.275,16.447,11.573,10.626,6.94,18.184,4.908,10.856-7.947,12.432-15.608,14.651-50.618,14.651-50.618c-5.272-5.593-22.521-12.779-22.521-12.779l-15,41.53-7.472-4.713-32.418-21.649" transform="translate(-36.189 -6.975)" fill="#5d5d5d" stroke="#262626" stroke-miterlimit="10" stroke-width="1"/>
    <path id="Path_34294" data-name="Path 34294" d="M397.26,1959.633a1.4,1.4,0,0,0-.625.959l1.713-.93A1.357,1.357,0,0,0,397.26,1959.633Z" transform="translate(-29.343 -1.537)" fill="#262626"/>
    <path id="Path_34295" data-name="Path 34295" d="M416.411,1995.453l8.27-5.433,78.771,69.149,24.2-27.38-87.44-76.168a18.323,18.323,0,0,0-19.167-3.062l-19.021,8.039-1.713.93-36.732,19,7.9,17.339Z" transform="translate(-33.015 -2.473)" fill="#151516" stroke="#262626" stroke-miterlimit="10" stroke-width="1"/>
    <path id="Rectangle_8665" data-name="Rectangle 8665" d="M19.416,0H31.285a0,0,0,0,1,0,0V59.993a0,0,0,0,1,0,0H0a0,0,0,0,1,0,0V19.416A19.416,19.416,0,0,1,19.416,0Z" transform="translate(507.789 2009.956) rotate(40.649)" fill="#111010" stroke="#262626" stroke-miterlimit="10" stroke-width="1"/>
    <rect id="Rectangle_8666" data-name="Rectangle 8666" width="4.699" height="59.993" transform="translate(527.438 2027.274) rotate(40.649)" fill="#f7f7f7"/>
    <circle id="Ellipse_3793" data-name="Ellipse 3793" cx="1.332" cy="1.332" r="1.332" transform="translate(501.897 2023.743)" fill="#fff"/>
    <circle id="Ellipse_3794" data-name="Ellipse 3794" cx="1.332" cy="1.332" r="1.332" transform="translate(497.728 2026.252)" fill="#fff"/>
    <circle id="Ellipse_3795" data-name="Ellipse 3795" cx="1.332" cy="1.332" r="1.332" transform="translate(506.958 2022.642)" fill="#fff"/>
    <circle id="Ellipse_3796" data-name="Ellipse 3796" cx="1.332" cy="1.332" r="1.332" transform="translate(512.176 2022.491)" fill="#fff"/>
    <path id="Path_34296" data-name="Path 34296" d="M436.387,1980.425a23.486,23.486,0,0,0-15.9-.6l-10.387,3.521-2.617.659s-62.821,14.4-87.466,23.308l-10.95,4.292s4.384,20.542,13.951,30.075c11.191,11.148,51.749-3.1,82.8-13.835v-.018l13.637-4.932,13.529-5.272,99.823,41.056,13.9-33.793Z" transform="translate(-39.068 0.594)" fill="#1d1d1d" stroke="#262626" stroke-miterlimit="10" stroke-width="1"/>
    <path id="Rectangle_8667" data-name="Rectangle 8667" d="M19.416,0H31.285a0,0,0,0,1,0,0V59.993a0,0,0,0,1,0,0H0a0,0,0,0,1,0,0V19.416A19.416,19.416,0,0,1,19.416,0Z" transform="translate(513.768 2003.053) rotate(21.541)" fill="#1c191a" stroke="#262626" stroke-miterlimit="10" stroke-width="1"/>
    <rect id="Rectangle_8668" data-name="Rectangle 8668" width="4.699" height="59.993" transform="translate(537.976 2012.814) rotate(21.541)" fill="#f7f7f7"/>
    <circle id="Ellipse_3797" data-name="Ellipse 3797" cx="1.332" cy="1.332" r="1.332" transform="translate(513.048 2017.329)" fill="#fff"/>
    <circle id="Ellipse_3798" data-name="Ellipse 3798" cx="1.332" cy="1.332" r="1.332" transform="translate(509.93 2021.064)" fill="#fff"/>
    <circle id="Ellipse_3799" data-name="Ellipse 3799" cx="1.332" cy="1.332" r="1.332" transform="translate(517.471 2014.632)" fill="#fff"/>
    <circle id="Ellipse_3800" data-name="Ellipse 3800" cx="1.332" cy="1.332" r="1.332" transform="translate(522.351 2012.781)" fill="#fff"/>
    <path id="Path_34297" data-name="Path 34297" d="M301.386,1995.881a.9.9,0,0,0-.037.11l.208.182Z" transform="translate(-39.925 2.499)" fill="none"/>
    <path id="Path_34298" data-name="Path 34298" d="M327.018,2051.4l-38.769-74.643-3.029-29.55,61.473-24.527s27.867,24.373,31.134,68.309l2.344,5.552Z" transform="translate(-41.717 -5.631)" fill="#3d3d3d" stroke="#262626" stroke-miterlimit="10" stroke-width="1"/>
    <path id="Path_34299" data-name="Path 34299" d="M322.415,2041.922s3.363,4.11,15.594,3.374,16.369,6.438,21.336,3.862-15.137-46.562-15.137-46.562" transform="translate(-37.585 3.245)" fill="#3d3d3d" stroke="#262626" stroke-miterlimit="10" stroke-width="1"/>
    <path id="Path_34301" data-name="Path 34301" d="M304.335,1922.279l4.746,14.833a6.542,6.542,0,0,0,8.3,3.228l1.153-.458a6.539,6.539,0,0,0,3.2-9.432l-3.232-5.413Z" transform="translate(-39.594 -5.676)" fill="#ffae9d"/>
    <path id="Path_34302" data-name="Path 34302" d="M317.508,1925.123c.408-.119,1.069.523,1.315.951l1.481,2.508c-6.961,2.258-11.883-3.821-11.883-3.821h0C310.594,1925.846,315.657,1925.664,317.508,1925.123Z" transform="translate(-39.14 -5.4)" fill="#000615"/>
    <path id="Path_34303" data-name="Path 34303" d="M304.912,1923.081a22.832,22.832,0,0,0,3.759,3.868c1.607,1.109,12.053,2.067,13.5-.022,1.243-1.792-.5-7.058-1.552-10.092a61.652,61.652,0,0,0-4.473-10.429l-12.516,2.307-.521,11.164Z" transform="translate(-39.729 -7.439)" fill="#ffae9d"/>
    <path id="Path_34304" data-name="Path 34304" d="M307.561,1919.941a3,3,0,1,1-3.892-1.681A3,3,0,0,1,307.561,1919.941Z" transform="translate(-39.878 -6.146)" fill="#ffae9d"/>
    <path id="Path_34305" data-name="Path 34305" d="M318.751,1899.481c-1-1.381-2.782-1.843-4.356-2.07a10.115,10.115,0,0,0-8.816,3.064c-1.614,1.735-2.613,4.013-3.859,6.075s-2.892,4.019-5.168,4.6l2.615.971a15.873,15.873,0,0,1-1.933,3.636l1.893.03a20.5,20.5,0,0,0,2.893,4.2c.209.234.7,1.413.984,1.5a3.539,3.539,0,0,1,.894-.784c1.493-.82,3.394.043,4.55,1.518q-.983-2.141-2.141-4.2a3.251,3.251,0,0,0,.986-2.639,3.818,3.818,0,0,0-1.4-2.632c.877-.458,1.2-1.569,1.563-2.541s1.03-1.122,2.037-1.129a8.628,8.628,0,0,0,2.538-.343,8.726,8.726,0,0,0,1.594-.781,6.432,6.432,0,0,1,2.835-.319,3.677,3.677,0,0,0,2.613-1.5C319.42,1905.547,321.553,1903.354,318.751,1899.481Z" transform="translate(-40.458 -8.449)" fill="#3f3333"/>
    <path id="Path_34306" data-name="Path 34306" d="M322.178,1922.5c-.339-1.75-1.061-3.96-1.646-4.245a7.3,7.3,0,0,0-3.229-.35c-.12.314-.764.471-.917.445-2.344,1.832-3.471,3.177-3.272,3.808a33.17,33.17,0,0,0,2.185,5.219c.546.625,3.88.273,5.658-.672S322.516,1924.25,322.178,1922.5Zm-1.519,1.282a11.256,11.256,0,0,1-1.413-1.935,2.95,2.95,0,0,1-1.171.51s1.026,2.3-.89,2.958-2.667-1.329-2.8-1.808.733-1.892,1.379-2.244,1.73-.919,1.891-1.308c.686.06,2.264-.341,2.583-.244s.864,2.419.9,3.123S320.878,1923.792,320.659,1923.782Z" transform="translate(-38.621 -6.167)" fill="#3f3333"/>
    <path id="Path_34300" data-name="Path 34300" d="M325.652,1929.518c3.805,1.76,13.082,5.859,23.078,25.371s14.481,41.9,20.041,54.635l-16.385,14.134s-6.311-12.945-12.882-30.078c-6.5-16.944-26.192-35.51-30.711-44.732s-2.92-11.545-2.92-11.545l3.046-1.2s7.588,4.129,10.916,2.819,2.394-8.058,2.394-8.058Z" transform="translate(-39.453 -4.872)" fill="#fff" stroke="#262626" stroke-width="1"/>
    <path id="Path_34307" data-name="Path 34307" d="M413.829,1971.846c7.069-.984,9.034-.152,14.558-4.15,3.624-2.624,6.855-1.436,4.788,2.733-3.383,6.819-12.235,10-15.622,10.225Z" transform="translate(-27.433 -0.786)" fill="#ffac9c" stroke="#262626" stroke-miterlimit="10" stroke-width="1"/>
    <path id="Path_34308" data-name="Path 34308" d="M395.4,1999.376s-1.669.048,3.14.264,14.43-5.4,16.28-6.18,4.948,1.992,4.948,1.992a14.452,14.452,0,0,0,1.257,1.351,69.083,69.083,0,0,0,7.764-6.023c2.792-2.5,1.351-9.994,1.351-9.994,2.63.733,4.741,3.175,8.661,5.617,5.049,3.146,4.878-2.12,1.582-5.849-10.445-11.818-22.457-9.871-27.593-8.63a72.666,72.666,0,0,0-15.369,6.2,32.422,32.422,0,0,1-4.836,1.686" transform="translate(-29.792 -0.267)" fill="#ffac9c" stroke="#262626" stroke-miterlimit="10" stroke-width="1"/>
    <path id="Path_34309" data-name="Path 34309" d="M426.717,1978.529c3.8,4.176,10,13.245,6.891,16.021-2.281,2.035-4.953-1.219-4.953-1.219s1.773,4.289-.69,5.676c-2.244,1.264-4.161-1.377-4.161-1.377s.628,2.786-1.769,3.588c-2.882.964-5.885-7.155-9.65-8.7" transform="translate(-27.593 0.572)" fill="#ffac9c" stroke="#262626" stroke-miterlimit="10" stroke-width="1"/>
    <path id="Path_34310" data-name="Path 34310" d="M427.85,1992.974c-.576-1.072-4.924-8.826-8.225-11.236" transform="translate(-26.789 0.928)" fill="#ffac9c" stroke="#262626" stroke-linecap="round" stroke-miterlimit="10" stroke-width="1"/>
    <path id="Path_34311" data-name="Path 34311" d="M423.378,1996.789c-.577-1.071-4.924-8.825-8.225-11.235" transform="translate(-27.285 1.352)" fill="#ffac9c" stroke="#262626" stroke-linecap="round" stroke-miterlimit="10" stroke-width="1"/>
    <path id="Path_34312" data-name="Path 34312" d="M304.526,1966.281a14.571,14.571,0,1,1-3.562-20.3A14.572,14.572,0,0,1,304.526,1966.281Z" transform="translate(-42.516 -3.336)" fill="#5d5d5d" stroke="#262626" stroke-miterlimit="10" stroke-width="1"/>
    <path id="Path_34313" data-name="Path 34313" d="M282.119,1968.224,317.2,1994.03s27.09,15.277,31.486,14.884,59.774-6.684,59.774-6.684l2.443-6.006c2.072-6.247-.994-14.454-.994-14.454l-.334-1-64.358-2.6L335.129,1970l-34.62-24.282" transform="translate(-42.061 -3.072)" fill="#5d5d5d" stroke="#262626" stroke-miterlimit="10" stroke-width="1"/>
  </g>
</svg>
