<svg xmlns="http://www.w3.org/2000/svg" width="375" height="270" viewBox="0 0 375 270">
  <g id="name-graphic" transform="translate(-223.06 -1434.324)">
    <path id="Path_33973" data-name="Path 33973" d="M293.847,1638.667c25.788-22.409,63.034-33.329,99.82-39.091s74.519-7.143,110.932-14.341c17.786-3.516,36.54-8.4,53.9-3.656,18.23,4.983,30.1,19.391,38.313,33.718,19.964,34.823,26.318,74.857,17.9,112.75-4.962,22.329-15.408,44.489-34.692,60.678a103.264,103.264,0,0,1-14.024,9.85H304.885a121.091,121.091,0,0,1-16.428-12.72c-9.5-8.783-18.283-28.615-22.446-54.436C260.687,1698.394,266.048,1662.821,293.847,1638.667Z" transform="translate(-21.465 -95.705)" fill="#ece9fc"/>
    <path id="Path_33974" data-name="Path 33974" d="M316.543,1554.144c33.635-27.228,83.993-31.9,122.1-11.334,28.032,15.128,48.058,41.439,73.34,60.785,29.247,22.378,64.859,34.944,95.6,55.244,21.95,14.5,42.763,36.161,42.523,62.392-.194,21.088-14.391,40.876-33.252,50.461-2.648,1.346-12.575,25.023-25.529,28.36H423.373c-12.576-2.859-24.971-26.452-37.113-31.146-23.26-8.99-45.658-20.793-64.528-37.049s-34.12-37.186-41.276-60.99C268.025,1629.513,282.908,1581.373,316.543,1554.144Z" transform="translate(-52.046 -95.728)" fill="#d8d2fc"/>
    <path id="Path_34013" data-name="Path 34013" d="M324.64,1754.1c-6.806-11.164-26.629-41.642-50.917-60.6-30.18-23.552-43.518-27.978-41.456-17.55.968,4.9,12.319,4.18,30.449,13.772,19.283,10.2,47.064,48.173,57.172,64.477Z" transform="translate(-9 -140.914)" fill="#aaa"/>
    <path id="Path_34014" data-name="Path 34014" d="M269.928,1695.274s-3.448-13.276-4.5-19.08c-1.027-5.67-10.084-19.114-12.968-9.318-1.706,5.792,13.267,18.722,11.726,23.927s-26.726-5.306-29.125,5.048S265.8,1691.554,269.928,1695.274Z" transform="translate(-8.153 -143.042)" fill="#aaa"/>
    <path id="Path_34015" data-name="Path 34015" d="M281.4,1708.409s1.654-19.4,2.466-25.239c.792-5.707-3.652-19.48-9.446-11.072-3.425,4.972,6.005,25.806,2.919,30.272s-28.2-2.844-29.6,7.668C246.327,1720.574,278.64,1703.587,281.4,1708.409Z" transform="translate(-4.398 -141.262)" fill="#aaa"/>
    <path id="Path_34016" data-name="Path 34016" d="M293.516,1722.845s4.415-15.081,5.97-20.77c1.52-5.558,2.526-23.349-5.147-16.609-5.456,4.792.837,29.191-2.8,33.223s-34.949-7.03-32.861,4.645C260.554,1733.8,291.4,1717.711,293.516,1722.845Z" transform="translate(-1.191 -136.988)" fill="#aaa"/>
    <path id="Path_34017" data-name="Path 34017" d="M309.053,1742.746a215.578,215.578,0,0,1,8.273-27.323c1.97-5.415,1.363-19.021-5.464-11.424-4.035,4.489-2.427,28.2-6.061,32.237s-31.6-11.993-34.217,1.421C269.549,1748.09,306.936,1737.61,309.053,1742.746Z" transform="translate(2.614 -131.752)" fill="#aaa"/>
    <path id="Path_33982" data-name="Path 33982" d="M522.665,1724.424c-14.769-10.79-25.136-32.379-7.386-46.609,12.771-10.239,8.885-12.052,16.453-27.592s12.987-5.462,21-13.618,5.374-17.282,18.494-19.938,12.055,2.239,26.581-3.239c10.643-4.014,13.086,17.173,3.561,23.065s-5.835,4.987-8.275,15.846-16.007,13.192-20.642,21.837,4.493,22.232-5.635,27.787-10.531,9.8-17.415,15.886S531.025,1728.894,522.665,1724.424Z" transform="translate(-10.442 -90.271)" fill="#949494"/>
    <path id="Path_33983" data-name="Path 33983" d="M553.726,1649.188c.447.592-3.627,15.737-1.177,18.385s-2.656,8.6-3.5,5.813S550.261,1644.6,553.726,1649.188Z" transform="translate(-12.67 -92.125)" fill="#fff"/>
    <path id="Path_33984" data-name="Path 33984" d="M548.1,1703.209c-1.034-.923-11.556,11.752-17.378,6.863-2.626-2.205-3.226,4.4-2.143,4.677C533.752,1716.071,553.461,1707.99,548.1,1703.209Z" transform="translate(-11.591 -94.955)" fill="#ea5c2a"/>
    <path id="Path_33985" data-name="Path 33985" d="M564.364,1657.3c6.5-.66,12.3-2.241,18.75-3.789s-13.708,6.594-18.6,6.626Q564.481,1658.754,564.364,1657.3Z" transform="translate(-13.475 -92.368)" fill="#fff"/>
    <path id="Path_33986" data-name="Path 33986" d="M541.407,1687.458c6.744-2.078,9.12-3.692,16.535-6.708s-12.8,9.248-19.275,10.659A38.633,38.633,0,0,0,541.407,1687.458Z" transform="translate(-12.142 -93.767)" fill="#fff"/>
    <path id="Path_33988" data-name="Path 33988" d="M537.723,1686.076c-4.937,8.574-13.778,27.05-16.577,44.041H529.2c1.424-13.143,2.968-31.325,11.1-42.561,11.087-15.312,36.263-41.015,37.417-44.873C580.778,1632.46,544.066,1675.062,537.723,1686.076Z" transform="translate(-11.232 -91.735)" fill="#fff"/>
    <ellipse id="Ellipse_3769" data-name="Ellipse 3769" cx="15.339" cy="15.339" rx="15.339" ry="15.339" transform="matrix(0.598, -0.802, 0.802, 0.598, 393.556, 1610.758)" fill="#ffae9d"/>
    <path id="Path_33978" data-name="Path 33978" d="M418.652,1672.809l60.663-8.086L475,1634.35l-60.663,8.085Z" transform="translate(-1.473 -49.988)" fill="#ffae9d"/>
    <path id="Path_33979" data-name="Path 33979" d="M454.966,1651.814A15.339,15.339,0,1,0,468,1634.471,15.337,15.337,0,0,0,454.966,1651.814Z" transform="translate(5.533 -49.994)" fill="#21aa79"/>
    <path id="Path_33980" data-name="Path 33980" d="M437.7,1604.6l-4.053,67.689-30.454-3.708,11.84-66.684a4.1,4.1,0,0,0-.009-.575,142.135,142.135,0,0,1-1.15-19.367c.31-9.978,4.618-18.882,8.241-17.938,1.509.395-.124,5.216-.888,8.267-.523,2.087.061,3.544.316,3.477,0,0,4.285-15.678,7.864-14.876,2.136.479,1.653,1.68.2,5.748a30.178,30.178,0,0,0-1.584,9.138c.108.208,2.211-11.373,5.948-14.675,2.245-1.984,3.932-.01,2.742,4.466s-2.473,12.069-2.473,12.069c.242-4.115,4.1-15.776,6.859-15.009,3.839,1.064.076,7.014-.924,12.327a50.265,50.265,0,0,0-.772,8.553s1.384-.26,1.544-.347c2.237-1.222,3.273-2.461,5.61-5.94s9.363-2.808,6.3.813-6.63,11.9-8.168,15.6a52.323,52.323,0,0,1-5.488,8.649C438.8,1602.78,437.749,1603.87,437.7,1604.6Z" transform="translate(-3.402 -62.801)" fill="#ffae9d" stroke="#262626" stroke-miterlimit="10" stroke-width="1"/>
    <path id="Path_33981" data-name="Path 33981" d="M477.1,1640.526l-32.817,4.131h0l-9.269,1.07,2.946-47.03s-17.336-.438-24.911,2.476c0,0-7.793,46.9-9.8,54.913s-1.565,15.148,4.7,20.538,13.027,4.37,19.55,3.641,20.943-3.5,20.943-3.5l35.582-4.46Z" transform="translate(-3.575 -56.164)" fill="#5d5d5d" stroke="#262626" stroke-miterlimit="10" stroke-width="1"/>
    <ellipse id="Ellipse_3770" data-name="Ellipse 3770" cx="15.294" cy="15.294" rx="15.294" ry="15.294" transform="translate(336.152 1671.223) rotate(-58.498)" fill="#ffae9d"/>
    <path id="Path_33989" data-name="Path 33989" d="M356.1,1718.961l-16.353-67.112,28.949-6.928,16.7,66.927Z" transform="translate(-13.771 -49.166)" fill="#ffae9d"/>
    <path id="Path_33990" data-name="Path 33990" d="M370.742,1648.534a15.278,15.278,0,1,0-30.455,2.458l-6.358.781,21.264,67.585,31.566-6.672Z" transform="translate(-14.778 -51.008)" fill="#e4e4e4" stroke="#262626" stroke-miterlimit="10" stroke-width="1"/>
    <path id="Path_33991" data-name="Path 33991" d="M363.22,1743.1H389l-5.146-36.916a15.286,15.286,0,1,0-30.154,4.423h0l0,.012a15.229,15.229,0,0,0,.489,1.67Z" transform="translate(-11.423 -41.032)" fill="#ffae9d" stroke="#262626" stroke-miterlimit="10" stroke-width="1"/>
    <path id="Path_33992" data-name="Path 33992" d="M288.943,1687.814a.94.94,0,0,0-.079.094l.133.259Z" transform="translate(-22.579 -41.742)" fill="none"/>
    <path id="Path_33993" data-name="Path 33993" d="M294.46,1752.88l-8.964-88.353,8.54-30.179,28.389-.048s4.66,5.26,8.7,5.253,7.47-5.281,7.47-5.281l25.318-.043s17.85,34.775,3.939,79.162l-.293,40.047Z" transform="translate(-23.162 -51.017)" fill="#eceeef" stroke="#262626" stroke-miterlimit="10" stroke-width="1"/>
    <path id="Path_33994" data-name="Path 33994" d="M316.653,1617.768l.733,18.979s3.89,5.046,7.85,5.046,7.989-5.046,7.989-5.046l-1.184-7.553Z" transform="translate(-17.769 -53.867)" fill="#ffae9d"/>
    <path id="Path_33995" data-name="Path 33995" d="M330.493,1628.207c.446.042.846.929.921,1.445l.476,3.038c-7.711-.5-10.172-8.379-10.172-8.379h0C323.427,1626.222,328.466,1628.017,330.493,1628.207Z" transform="translate(-16.892 -52.733)" fill="#000615"/>
    <path id="Path_33996" data-name="Path 33996" d="M319.6,1621.992a24.075,24.075,0,0,0,2.182,5.26c1.145,1.714,11.022,6.724,13.259,5.239,1.918-1.274,2.261-7.119,2.408-10.507a65.129,65.129,0,0,0-.327-11.978l-13.18-2.612-4.862,10.753Z" transform="translate(-17.348 -55.662)" fill="#ffae9d"/>
    <path id="Path_33997" data-name="Path 33997" d="M317.261,1609.276s-8.783-2.671-.579,12.011l.855,7.069,2.9-4.049,2-3.66,1.289,3.358h.743l-.2-8.012s2.9-.97,2.739-4.8c0,0,12.959,3.755,14.943-.782l-2.3-3.249-1.576.849a9,9,0,0,0,2.3-5.456l-3.03,2.667a5.286,5.286,0,0,0,.948-3.545,3.181,3.181,0,0,0-3.062-2.8h0a3.327,3.327,0,0,0-2.586,1.1,10.123,10.123,0,0,1-3.3,2.277C325.479,1604,315.243,1602.477,317.261,1609.276Z" transform="translate(-18.37 -57.136)" fill="#000615"/>
    <path id="Path_33998" data-name="Path 33998" d="M322.189,1618.886a3.165,3.165,0,1,1-3.165-3.165A3.166,3.166,0,0,1,322.189,1618.886Z" transform="translate(-17.906 -54.22)" fill="#ffae9d"/>
    <path id="Path_34000" data-name="Path 34000" d="M318.52,1710.656a15.384,15.384,0,1,1,21.719-1.261A15.383,15.383,0,0,1,318.52,1710.656Z" transform="translate(-18.337 -42.439)" fill="#ffac9c"/>
    <path id="Path_34001" data-name="Path 34001" d="M359.151,1663.708a11.214,11.214,0,1,1,15.832-.921A11.215,11.215,0,0,1,359.151,1663.708Z" transform="translate(-11.063 -49.305)" fill="#ffac9c"/>
    <rect id="Rectangle_8642" data-name="Rectangle 8642" width="69.48" height="30.767" transform="matrix(0.549, 0.836, -0.836, 0.549, 285.121, 1590.209)" fill="#ffac9c"/>
    <path id="Path_34002" data-name="Path 34002" d="M373.157,1636.29c-.631-2-.11-3.37.916-6.664s-3.029-7.456-3.773-3.624-4.214,10.395-5.794,13.291c-1,2.213-2.2,5.979-3.231,8.393a16.254,16.254,0,0,1-1,1.563c-2.222,2.991-4.8,5.3-4.884,9.08a11.431,11.431,0,0,0,19.228,8.627l.008.009a154.3,154.3,0,0,0,15.951-11.935c7.3-6.566,11.259-15.457,8.25-17.58-1.253-.884-3.841,3.4-5.648,5.916-1.238,1.718-2.7,2.2-2.813,1.97,0,0,9.063-13.173,6.188-15.353-1.715-1.3-2.312-.177-4.449,3.5a29.7,29.7,0,0,1-5.863,6.991c-.224.051,7.144-8.88,7.254-13.785.066-2.947-2.488-2.962-5.1.774s-7.5,9.518-7.5,9.518c2.94-2.793,9.257-13.093,6.927-14.682-3.235-2.21-5.319,4.4-8.677,8.519a77.423,77.423,0,0,1-9.282,8.918" transform="translate(-11.063 -53.159)" fill="#ffac9c" stroke="#262626" stroke-linecap="round" stroke-miterlimit="10" stroke-width="1"/>
    <path id="Path_34003" data-name="Path 34003" d="M365.505,1647.32l-47.141,46.83c-.318.29-.619.589-.907.9a1.884,1.884,0,0,0-.19.208,15.376,15.376,0,0,0,19.926,23.077,16.005,16.005,0,0,0,3.044-2.629l.124-.158q.491-.565.918-1.168l40.976-52.148" transform="translate(-18.337 -48.75)" fill="#ffac9c" stroke="#262626" stroke-miterlimit="10" stroke-width="1"/>
    <path id="Path_34004" data-name="Path 34004" d="M336.745,1683.323l-3.245-4.94-24.414-37.165a15.374,15.374,0,0,0-26.8,14.909l-.015.008.1.184a15.387,15.387,0,0,0,.995,1.79l.016.022,21.31,38.193s3.606,6.041,9.273,14.978c8.7,13.717,14.894,10.785,14.894,10.785C317.651,1715.041,336.745,1683.323,336.745,1683.323Z" transform="translate(-23.965 -51.008)" fill="#e4e4e4" stroke="#262626" stroke-miterlimit="10" stroke-width="1"/>
    <path id="Path_34005" data-name="Path 34005" d="M530.589,1687.814a1.1,1.1,0,0,1,.077.094l-.133.259Z" transform="translate(18.254 -41.668)" fill="none"/>
    <path id="Path_34006" data-name="Path 34006" d="M537.987,1752.88l8.964-88.353-8.54-30.179-69.88-.118s-17.85,34.775-3.939,79.162l.292,40.047Z" transform="translate(5.922 -50.943)" fill="#3d3d3d" stroke="#262626" stroke-miterlimit="10" stroke-width="1"/>
    <path id="Path_34008" data-name="Path 34008" d="M505.3,1617.768l-1.439,19.606a6.9,6.9,0,0,1-6.886,6.4h-1.309a6.906,6.906,0,0,1-6.817-8.009l1.064-6.57Z" transform="translate(11.023 -53.793)" fill="#ffae9d"/>
    <path id="Path_34009" data-name="Path 34009" d="M490.519,1628.207c-.446.042-.845.929-.92,1.445l-.476,3.038c7.711-.5,10.172-8.379,10.172-8.379h0C497.586,1626.222,492.547,1628.017,490.519,1628.207Z" transform="translate(11.086 -52.66)" fill="#000615"/>
    <path id="Path_34010" data-name="Path 34010" d="M502.64,1621.992a24.144,24.144,0,0,1-2.182,5.26c-1.145,1.714-11.022,6.724-13.26,5.239-1.918-1.274-2.261-7.119-2.408-10.507a65.231,65.231,0,0,1,.326-11.978l13.181-2.612,4.863,10.753Z" transform="translate(10.316 -55.588)" fill="#ffae9d"/>
    <path id="Path_34011" data-name="Path 34011" d="M480.731,1605.3c.312-1.773,1.79-3.033,3.181-3.976a10.682,10.682,0,0,1,9.787-1.157c2.334.9,4.333,2.605,6.467,3.988s4.6,2.482,7.032,1.989l-2.036,2.129a16.723,16.723,0,0,0,3.515,2.562l-1.784.9a21.62,21.62,0,0,1-.811,5.321c-.09.319,0,1.567-.231,1.779-.261.239-.868-.217-1.225-.236-1.8-.089-3.2,1.608-3.62,3.541q-.054-2.488.1-4.973a3.435,3.435,0,0,1-2.153-2.051,4.029,4.029,0,0,1,.115-3.146c-1.044-.031-1.868-.935-2.657-1.692s-1.5-.591-2.455-.133a9.078,9.078,0,0,1-2.569.845,9.17,9.17,0,0,1-1.873-.007,6.8,6.8,0,0,0-2.841,1.005,3.879,3.879,0,0,1-3.174-.222C482.893,1611.374,479.855,1610.275,480.731,1605.3Z" transform="translate(9.606 -56.959)" fill="#3f3333"/>
    <path id="Path_34012" data-name="Path 34012" d="M498.257,1618.886a3.165,3.165,0,1,0,3.165-3.165A3.166,3.166,0,0,0,498.257,1618.886Z" transform="translate(12.667 -54.147)" fill="#ffae9d"/>
    <path id="Path_34007" data-name="Path 34007" d="M487.333,1634.367c-3.049,3.21-10.554,10.846-12.762,33.889s6.874,69.5,6.38,84.172H498.7s1.018-30.664,0-49.8,11.868-45.051,12.709-55.862-1.633-12.468-1.633-12.468a16.61,16.61,0,0,0-2.978.066c-1.493,2.637-4.607,6.825-8.521,6.825s-6.157-2.8-7.136-6.825C489.041,1634.336,487.333,1634.367,487.333,1634.367Z" transform="translate(8.507 -50.94)" fill="#e5f3ff" stroke="#262626" stroke-miterlimit="10" stroke-width="1"/>
    <path id="Path_34018" data-name="Path 34018" d="M461.863,1728.849a11.2,11.2,0,0,0-17.415-5.08l0,0h0c-7.247,2.275-22.439,11.368-22.054,13.267.189.924,3.682.15,7.217-.886-.641.613-1.275,1.228-1.9,1.84h33.436A11.173,11.173,0,0,0,461.863,1728.849Z" transform="translate(-0.466 -35.925)" fill="#ffac9c" stroke="#262626" stroke-linecap="round" stroke-miterlimit="10" stroke-width="1"/>
    <path id="Path_34019" data-name="Path 34019" d="M507.244,1688.432a15.383,15.383,0,1,0-2.754,21.58A15.384,15.384,0,0,0,507.244,1688.432Z" transform="translate(9.454 -42.668)" fill="#ffac9c"/>
    <path id="Path_34020" data-name="Path 34020" d="M486.858,1712.024a15.384,15.384,0,1,0-4.412-21.3A15.383,15.383,0,0,0,486.858,1712.024Z" transform="translate(9.493 -42.44)" fill="#ffac9c"/>
    <rect id="Rectangle_8643" data-name="Rectangle 8643" width="69.481" height="30.767" transform="matrix(-0.549, 0.836, -0.836, -0.549, 555.802, 1607.102)" fill="#ffac9c"/>
    <path id="Path_34021" data-name="Path 34021" d="M554.1,1656.119a15.371,15.371,0,0,0-6.457-19.9,15.667,15.667,0,0,0-20.578,5.355l-24.277,36.956-10.455,15.484-51.138,44.832s3.314,9.817,9.16,13.573l10.536.107,46.028-29.812a53.285,53.285,0,0,0,16.852-17.524l5.977-10.068,22.338-35.742a15.578,15.578,0,0,0,.933-1.274,15.378,15.378,0,0,0,1.029-1.864l.069-.11Z" transform="translate(2.79 -51)" fill="#5d5d5d" stroke="#262626" stroke-miterlimit="10" stroke-width="1"/>
    <path id="Path_34022" data-name="Path 34022" d="M493.616,1622.781c-.1-.692-1.793-1.449-4.865-2.107-.133.094-.816.244-1.075,0a7.72,7.72,0,0,0-2.906,1.822c-.422.541-.09,2.973.4,4.791s.973,3.354,3.1,3.43,5.452-1.127,5.682-1.971A34.936,34.936,0,0,0,493.616,1622.781Zm-2.525,4.931c-2.123.259-2.21-2.4-2.21-2.4a3.118,3.118,0,0,1-1.347.056,11.931,11.931,0,0,1-.449,2.489c-.2.111-.591,0-.887-.682s-.849-3.138-.59-3.379,1.943-.588,2.566-.96a6.065,6.065,0,0,0,2.4.369c.775.037,2.252.978,2.345,1.495S493.213,1627.453,491.091,1627.711Z" transform="translate(10.555 -52.476)" fill="#3f3333"/>
  </g>
</svg>
