<svg xmlns="http://www.w3.org/2000/svg" width="375" height="273.091" viewBox="0 0 375 273.091">
  <g id="network-error" transform="translate(-19 -135.908)">
    <path id="Path_33647" data-name="Path 33647" d="M260.633,3316.357c-25.38-9.287-51.3-23.785-69.344-42.242-26.169-26.762-39.745-64.785-29.629-99.3,8.3-28.315,31.345-51.673,58.34-67.917,49.307-29.67,113.628-37.746,170.268-22.029s104.626,54.727,128.587,103.654c9.608,19.621,15.547,41.026,14.279,62.449s-16.711,50.124-33.549,65.261Z" transform="translate(-139.304 -2907.442)" fill="#f0eefc"/>
    <path id="Path_33643" data-name="Path 33643" d="M310.866,3203.654a79.12,79.12,0,0,1-9.589-5.057,103.727,103.727,0,0,1-43.741-52.206c-7.658-20.386-8.621-42.567-9.5-64.317-1.257-31.111-2.491-62.553,3.452-93.121,1.979-10.182,5.089-20.793,12.764-27.8,11.462-10.462,30.1-9.421,43.5-1.572s22.665,21.023,31.049,34.065c18.583,28.91,35.493,59.831,61.782,82.022,13.27,11.2,29.208,20.548,36.969,36.058,7.59,15.166,5.608,33.881-2.205,48.934s-21.749,25.608-34.878,36.381a65.348,65.348,0,0,1-9.6,6.632Z" transform="translate(-142.484 -2795.244)" fill="#d8d2fc"/>
    <rect id="Rectangle_8661" data-name="Rectangle 8661" width="277.883" height="7.535" rx="3.163" transform="translate(58.675 286.004)" fill="#000e1b"/>
    <g id="Group_26747" data-name="Group 26747" transform="translate(116.493 163.656)">
      <path id="Path_34195" data-name="Path 34195" d="M380.616,3533.271a9.426,9.426,0,0,0-7.134,1.5c-2.569,1.794-4.159,4.825-6.92,6.308-3.11,1.67-7.048,1.02-10.214,2.579a7.955,7.955,0,0,0-3.535,10.826,10.691,10.691,0,0,0,4.748,4.377,31.845,31.845,0,0,0,6.192,2.138c4.481,1.21,9.064,2.431,13.694,2.109a11.146,11.146,0,0,0,6.544-2.3c1.975-1.692,2.928-4.258,3.8-6.708.9-2.533,1.821-5.229,1.256-7.857-.368-1.71-1.348-3.267-1.545-5.006a8.1,8.1,0,0,1-.037-1.152,6.546,6.546,0,0,0-6.21-6.823l-.177-.005" transform="translate(-337.39 -3533.1)" fill="#000e1b"/>
      <path id="Path_34196" data-name="Path 34196" d="M380.04,3534.465a7.294,7.294,0,0,0-6.577,2.514,18.862,18.862,0,0,1-6.131,5.416c-2.76,1.427-6.267.848-9.078,2.181" transform="translate(-337.774 -3533.178)" fill="none" stroke="#082a44" stroke-miterlimit="10" stroke-width="0.5"/>
      <path id="Path_34197" data-name="Path 34197" d="M396.013,3579.869a10.435,10.435,0,1,1,4.452-14.069A10.435,10.435,0,0,1,396.013,3579.869Z" transform="translate(-339.135 -3534.737)" fill="#e5f3ff"/>
      <path id="Path_34198" data-name="Path 34198" d="M419.131,3624.383a10.434,10.434,0,1,1,4.451-14.069A10.434,10.434,0,0,1,419.131,3624.383Z" transform="translate(-340.532 -3537.623)" fill="#ffac9c"/>
      <rect id="Rectangle_8651" data-name="Rectangle 8651" width="47.128" height="20.869" transform="translate(61.33 31.063) rotate(62.556)" fill="#e5f3ff"/>
      <path id="Path_34199" data-name="Path 34199" d="M419.131,3624.383a10.434,10.434,0,1,1,4.451-14.069A10.434,10.434,0,0,1,419.131,3624.383Z" transform="translate(-340.532 -3537.623)" fill="#ffac9c"/>
      <rect id="Rectangle_8652" data-name="Rectangle 8652" width="47.128" height="20.869" transform="translate(61.33 31.063) rotate(62.556)" fill="#e5f3ff"/>
      <path id="Path_34200" data-name="Path 34200" d="M389.912,3604.428l24.51-11.752L400.465,3565.8a10.429,10.429,0,0,0-19.4,7.246l-.011,0,.069.246c.026.1.055.2.085.3Z" transform="translate(-339.135 -3534.737)" fill="#464646" stroke="#262626" stroke-miterlimit="10" stroke-width="1"/>
      <path id="Path_34201" data-name="Path 34201" d="M436.484,3573.82c1.528-3.913-1.115-17.151-5.029-18.679s-5.728,10.732-7.256,14.646l-19.1,37.454a10.432,10.432,0,1,0,18.937,8.674h0l0,0a10.587,10.587,0,0,0,.364-1.134Z" transform="translate(-340.532 -3534.425)" fill="#ffac9c" stroke="#262626" stroke-miterlimit="10" stroke-width="1"/>
      <path id="Path_34202" data-name="Path 34202" d="M389.606,3560.174h-30.78l-6.248,47.616a6.022,6.022,0,0,0,5.972,6.806h44.4a4.728,4.728,0,0,0,4.434-6.368Z" transform="translate(-337.427 -3534.736)" fill="#565557" stroke="#262626" stroke-miterlimit="10" stroke-width="1"/>
      <rect id="Rectangle_8653" data-name="Rectangle 8653" width="44.397" height="10.996" transform="translate(21.123 79.414)" fill="#565557" stroke="#262626" stroke-miterlimit="10" stroke-width="1"/>
      <path id="Path_34204" data-name="Path 34204" d="M19.079,7.879c.267-1.437,1.034-2.109,2.743-3.8S22.4-1.5,20.684.615,14.693,5.635,12.774,6.9c-1.341,1.034-3.308,2.961-4.733,4.11a11.4,11.4,0,0,1-1.125.636C3.938,13.06.966,13.612.151,17.917A8.065,8.065,0,0,0,2.712,25.6a7.959,7.959,0,0,0,7.245,1.632l0,.008a107.489,107.489,0,0,0,13.716-2.129c6.641-1.653,11.983-5.83,10.825-8.12-.482-.954-3.477.839-5.411,1.793-1.323.653-2.384.473-2.375.292,0,0,9.884-5.144,8.828-7.425-.63-1.363-1.365-.865-3.881.7a20.7,20.7,0,0,1-5.894,2.385c-.154-.041,7.3-3.129,8.972-6.112,1-1.792-.563-2.635-3.39-1.189s-7.728,3.405-7.728,3.405c2.722-.758,9.976-5.03,9.063-6.771-1.268-2.417-4.71.966-8.125,2.406a53.9,53.9,0,0,1-8.627,2.452" transform="matrix(0.105, 0.995, -0.995, 0.105, 31.202, 98.588)" fill="#ffac9c" stroke="#262626" stroke-linecap="round" stroke-miterlimit="10" stroke-width="1"/>
      <path id="Path_34205" data-name="Path 34205" d="M361.265,3636.145c-5.96,3.49,2-31.25,2-31.25l.092-.545-20.467-4.131-2.5,14.817-.416,2.853c-.677,4.635-1.43,12.3-.984,17.427.179,1.886.081.87.364,2.949s1.816,8,2.176,7.833h5.492l12.7-1.888" transform="translate(-336.715 -3537.085)" fill="#ffac9c" stroke="#262626" stroke-miterlimit="10" stroke-width="1"/>
      <path id="Path_34203" data-name="Path 34203" d="M389.529,3607.342a7.566,7.566,0,0,1,5.041-9.576,7.869,7.869,0,0,1,9.847,4.9,7.565,7.565,0,0,1-5.041,9.575A7.87,7.87,0,0,1,389.529,3607.342Z" transform="translate(-384.077 -3496.968)" fill="#ffac9c"/>
      <path id="Path_34206" data-name="Path 34206" d="M359.593,3560.321a10.428,10.428,0,0,0-11.3,6.13l-.012,0-.092.238c-.039.095-.076.191-.112.288l-11.624,29.855,26.644,5.38,5.044-29.861A10.433,10.433,0,0,0,359.593,3560.321Z" transform="translate(-336.456 -3534.737)" fill="#565557" stroke="#262626" stroke-miterlimit="10" stroke-width="1"/>
      <path id="Path_34208" data-name="Path 34208" d="M380.467,3562.368a3.352,3.352,0,0,1-3.283-2.675l-2.884-13.987a6.708,6.708,0,0,1,5.149-7.689l5.68-1.267a.524.524,0,0,1,.6.292,34.157,34.157,0,0,1,2.153,8.844c.666,6.269-2.7,9.128-5.12,9.359l.893,2.727a3.353,3.353,0,0,1-3.186,4.4Z" transform="translate(-338.738 -3533.319)" fill="#ffac9c"/>
      <path id="Path_34209" data-name="Path 34209" d="M387.423,3546.627c.552,5.2-2.24,7.566-4.243,7.757" transform="translate(-339.28 -3533.917)" fill="none" stroke="#f9eae8" stroke-linecap="round" stroke-miterlimit="10" stroke-width="0.25"/>
      <path id="Path_34210" data-name="Path 34210" d="M383.1,3556.365c-1.731.2-4.981-.9-4.981-.9s1.5,2.08,5.474,2.547Z" transform="translate(-338.974 -3534.453)" fill="#262626"/>
      <path id="Path_34211" data-name="Path 34211" d="M403.439,3629.825l-32.63,6.59-8.349,6.7s-1.044,8.206,6.645,16.651c8.83,9.7,36.714,10.224,64.435,7.085a32.216,32.216,0,0,0,7.2-21.048c-.43-11.2-.4-17.863-.4-17.863Z" transform="translate(-338.025 -3539.777)" fill="#ddd" stroke="#262626" stroke-miterlimit="10" stroke-width="1"/>
      <path id="Path_34212" data-name="Path 34212" d="M449.1,3645.327c.225,9.924-8.834,21.868-10.882,21.914s1.073-11.382.848-21.306,3.872-18.448,5.919-18.495S448.874,3635.4,449.1,3645.327Z" transform="translate(-342.565 -3539.744)" fill="#262626"/>
      <path id="Path_34213" data-name="Path 34213" d="M445.411,3627.44a1.185,1.185,0,0,0-.829.5l1.647-.077A1.15,1.15,0,0,0,445.411,3627.44Z" transform="translate(-342.992 -3539.7)" fill="#262626"/>
      <path id="Path_34214" data-name="Path 34214" d="M445.159,3627.829l-1.647.077c-1.6,1.884-2.666,9.032-2.473,17.554.133,5.855-2.921,18.961-2.921,18.961L444,3662.43l-17.117,64.583,27.6,13.886,24.519-96.021a14.443,14.443,0,0,0-14.708-18Z" transform="translate(-341.922 -3539.865)" fill="#e8968b" stroke="#262626" stroke-miterlimit="10" stroke-width="1"/>
      <path id="Rectangle_8654" data-name="Rectangle 8654" d="M19.416,0h7.039a0,0,0,0,1,0,0V50.732a0,0,0,0,1,0,0H0a0,0,0,0,1,0,0V19.416A19.416,19.416,0,0,1,19.416,0Z" transform="matrix(-0.437, 0.9, -0.9, -0.437, 131.118, 206.977)" fill="#111010" stroke="#262626" stroke-miterlimit="10" stroke-width="1"/>
      <rect id="Rectangle_8655" data-name="Rectangle 8655" width="3.974" height="50.732" transform="matrix(-0.437, 0.9, -0.9, -0.437, 121.302, 227.203)"/>
      <circle id="Ellipse_3783" data-name="Ellipse 3783" cx="1.126" cy="1.126" r="1.126" transform="translate(116.759 205.806)" fill="#fff"/>
      <circle id="Ellipse_3784" data-name="Ellipse 3784" cx="1.126" cy="1.126" r="1.126" transform="translate(113.809 202.937)" fill="#fff"/>
      <circle id="Ellipse_3785" data-name="Ellipse 3785" cx="1.126" cy="1.126" r="1.126" transform="translate(118.75 209.708)" fill="#fff"/>
      <circle id="Ellipse_3786" data-name="Ellipse 3786" cx="1.126" cy="1.126" r="1.126" transform="translate(119.998 213.941)" fill="#fff"/>
      <path id="Path_34215" data-name="Path 34215" d="M368.59,3629.234h0l-9.943.2s-2.531,17.583,2.271,27.943c6.158,13.285,49.241,12.683,77.49,13.418,0,0,1.059-4.6,3.137-16.9,1.867-11.053,3.26-17.569,3.26-17.569S390.75,3629.377,368.59,3629.234Z" transform="translate(-337.757 -3539.861)" fill="#fff" stroke="#262626" stroke-miterlimit="10" stroke-width="1"/>
      <ellipse id="Ellipse_3787" data-name="Ellipse 3787" cx="17.975" cy="3.709" rx="17.975" ry="3.709" transform="matrix(0.182, -0.983, 0.983, 0.182, 97.049, 130.691)" fill="#262626"/>
      <path id="Path_34216" data-name="Path 34216" d="M451.27,3636.4a1.181,1.181,0,0,0-.914.32l1.628.261A1.149,1.149,0,0,0,451.27,3636.4Z" transform="translate(-343.341 -3540.264)" fill="#262626"/>
      <path id="Path_34217" data-name="Path 34217" d="M449.913,3636.744c-1.951,1.517-4.454,8.3-6.007,16.679a55.333,55.333,0,0,0-.7,14.362l17.147,3.131,12.52,90.41,30.607-4.238-14.913-102.344a18.42,18.42,0,0,0-16.313-15.665Z" transform="translate(-342.898 -3540.678)" fill="#ffac9c" stroke="#262626" stroke-miterlimit="10" stroke-width="1"/>
      <path id="Rectangle_8656" data-name="Rectangle 8656" d="M19.416,0h7.039a0,0,0,0,1,0,0V50.732a0,0,0,0,1,0,0H0a0,0,0,0,1,0,0V19.416A19.416,19.416,0,0,1,19.416,0Z" transform="matrix(0.151, 0.988, -0.988, 0.151, 179.35, 210.949)" fill="#1c191a" stroke="#262626" stroke-miterlimit="10" stroke-width="1"/>
      <rect id="Rectangle_8657" data-name="Rectangle 8657" width="3.974" height="50.732" transform="matrix(0.151, 0.988, -0.988, 0.151, 182.751, 233.173)" fill="#210101"/>
      <circle id="Ellipse_3788" data-name="Ellipse 3788" cx="1.126" cy="1.126" r="1.126" transform="translate(167.305 217.298)" fill="#fff"/>
      <circle id="Ellipse_3789" data-name="Ellipse 3789" cx="1.126" cy="1.126" r="1.126" transform="translate(163.247 216.611)" fill="#fff"/>
      <circle id="Ellipse_3790" data-name="Ellipse 3790" cx="1.126" cy="1.126" r="1.126" transform="translate(171.158 219.38)" fill="#fff"/>
      <circle id="Ellipse_3791" data-name="Ellipse 3791" cx="1.126" cy="1.126" r="1.126" transform="translate(174.589 222.157)" fill="#fff"/>
      <path id="Path_34218" data-name="Path 34218" d="M437.336,3573.672s-.478.956,1.1-1.7,1.323-9.788,1.443-11.07,2.624-2.191,2.624-2.191a9.213,9.213,0,0,0,1.145-.3,44.292,44.292,0,0,0-1.05-6.212c-.569-2.335-5.236-3.792-5.236-3.792,1.211-1.262,3.23-1.715,5.8-3.189,3.308-1.9.281-3.4-2.824-2.668a16.975,16.975,0,0,0-13.237,12.973,46.572,46.572,0,0,0-1.154,10.563,20.807,20.807,0,0,1-.513,3.244" transform="translate(-341.835 -3533.661)" fill="#ffac9c" stroke="#262626" stroke-miterlimit="10" stroke-width="1"/>
      <path id="Path_34219" data-name="Path 34219" d="M438.17,3548.86c-.251.037,9.216-1.435,9.93,1.142.523,1.889-2.19,2.428-2.19,2.428s2.96.3,3,2.111c.034,1.651-2.039,1.932-2.039,1.932s1.764.49,1.49,2.087c-.329,1.92-5.825,1.157-7.84,2.813" transform="translate(-342.604 -3534.029)" fill="#ffac9c" stroke="#262626" stroke-miterlimit="10" stroke-width="1"/>
      <path id="Path_34220" data-name="Path 34220" d="M445.871,3552.685c-.779,0-5.985.2-8.347,1.333" transform="translate(-342.566 -3534.284)" fill="#ffac9c" stroke="#262626" stroke-linecap="round" stroke-miterlimit="10" stroke-width="1"/>
      <path id="Path_34221" data-name="Path 34221" d="M446.906,3557.04a39.922,39.922,0,0,0-6.971.651" transform="translate(-342.711 -3534.547)" fill="#ffac9c" stroke="#262626" stroke-linecap="round" stroke-miterlimit="10" stroke-width="1"/>
      <path id="Path_34222" data-name="Path 34222" d="M440.224,3547.268a17.3,17.3,0,0,0-4.348,3.4" transform="translate(-342.466 -3533.956)" fill="#ffac9c" stroke="#262626" stroke-linecap="round" stroke-miterlimit="10" stroke-width="1"/>
      <path id="Path_34223" data-name="Path 34223" d="M427.944,3553.325c1.586-4.291,2.651-5.15,2.067-9.481-.384-2.843,1.266-4.308,3-1.876,2.827,3.978,1.944,9.944,1.042,11.924,0,0,3.251,3.122,2.794,6.71" transform="translate(-341.986 -3533.562)" fill="#ffac9c" stroke="#262626" stroke-linecap="round" stroke-miterlimit="10" stroke-width="1"/>
    </g>
    <path id="Path_34414" data-name="Path 34414" d="M-663.025,9802.744s14.889-.34,20.642,14.55" transform="translate(896.353 -9640.073)" fill="none" stroke="#ffa400" stroke-linecap="round" stroke-width="6"/>
    <path id="Path_34415" data-name="Path 34415" d="M-663.025,9802.746s24.576-.561,34.071,24.016" transform="translate(896.353 -9651.444)" fill="none" stroke="#ffa400" stroke-linecap="round" stroke-width="6"/>
    <path id="Path_34416" data-name="Path 34416" d="M-663.025,9802.746s33.495-.723,46.435,31.03" transform="translate(896.353 -9663.83)" fill="none" stroke="#ffa400" stroke-linecap="round" stroke-width="6"/>
  </g>
</svg>
