<svg xmlns="http://www.w3.org/2000/svg" width="375" height="270.802" viewBox="0 0 375 270.802">
  <g id="permissions-graphic" transform="translate(-181.439 -2469.837)" opacity="0.2">
    <path id="Path_33470" data-name="Path 33470" d="M409.7,2693.489a84.892,84.892,0,0,0,10.312-5.458,111.841,111.841,0,0,0,47.04-56.344c8.236-22,9.271-45.94,10.217-69.414,1.352-33.576,2.679-67.511-3.711-100.5-2.129-10.988-5.474-22.44-13.727-30-12.326-11.291-32.368-10.168-46.779-1.7s-24.375,22.69-33.391,36.766c-19.984,31.2-38.17,64.573-66.442,88.522-14.272,12.09-31.411,22.177-39.759,38.916-8.163,16.367-6.03,36.566,2.371,52.812s23.389,27.637,37.508,39.264a70.307,70.307,0,0,0,10.322,7.156Z" transform="translate(-6.677 46.326)" fill="#ece9fc"/>
    <path id="Path_33474" data-name="Path 33474" d="M485.035,2775.713c15.145-6.139,30.61-15.721,41.379-27.92,15.615-17.689,23.716-42.821,17.68-65.631-4.952-18.715-18.7-34.153-34.813-44.889-29.423-19.611-67.8-24.949-101.6-14.56s-62.433,36.171-76.73,68.511c-5.734,12.969-9.278,27.117-8.521,41.276s9.972,33.13,20.02,43.135Z" transform="translate(-20.5 -35.668)" fill="#d8d2fc"/>
    <path id="Path_33355" data-name="Path 33355" d="M637.786,308.256h-9.461l-17.155.129c-52.067-73.005-86.187-90.993-121.651-111.77,7.743-3.3,17.688-8.248,23.714-14.213-11.765,1.866-22.14,5.055-33.941,8.528-15.3-18.351-32.625-27.122-15.419-54.283C488.824,97.261,567.479,147.74,589.592,171.1a142.5,142.5,0,0,1-.625,34.837,38.263,38.263,0,0,0,17.3-17.256C624.757,214.751,641.852,257.534,637.786,308.256ZM563.1,229.91a4.374,4.374,0,0,0-5.351-3.723,4.86,4.86,0,0,0-3.832,5.608,4.176,4.176,0,0,0,5.19,3.585A4.731,4.731,0,0,0,563.1,229.91Z" transform="translate(-275.284 2430.837)" fill="#b8b8b8"/>
    <path id="Path_33356" data-name="Path 33356" d="M463.438,139.523c99.161,60.212,107.076,73.589,151.005,161.284" transform="translate(-261.286 2439.238)" fill="none" stroke="#fff" stroke-miterlimit="10" stroke-width="0.75"/>
    <path id="Path_33357" data-name="Path 33357" d="M544.23,171.157c7.917-3.41,14.47-6.377,22.616-9.188-2.549-9.635-4.106-19.143-6.811-28.733" transform="translate(-333.417 2436.208)" fill="none" stroke="#fff" stroke-miterlimit="10" stroke-width="0.75"/>
    <path id="Path_33358" data-name="Path 33358" d="M518.185,187.238c12.029-2.625,24.092-4.484,36.318-5.907a200.016,200.016,0,0,0-4.456-32.862" transform="translate(-282.477 2443.55)" fill="none" stroke="#fff" stroke-miterlimit="10" stroke-width="0.75"/>
    <path id="Path_33359" data-name="Path 33359" d="M501.819,197.586c11.776-1.011,24.386-1.743,36.208-1.6a245.45,245.45,0,0,0,.273-33.943" transform="translate(-242.477 2450.091)" fill="none" stroke="#fff" stroke-miterlimit="10" stroke-width="0.75"/>
    <path id="Path_33360" data-name="Path 33360" d="M478.068,211.105a99.248,99.248,0,0,1,27.974,3.1c4.375-10.19,11.23-20.371,13.8-31.162" transform="translate(-188.362 2460.211)" fill="none" stroke="#fff" stroke-miterlimit="10" stroke-width="0.75"/>
    <path id="Path_33361" data-name="Path 33361" d="M461.975,221.565c9.668,2.164,16.648,6.86,24.76,12.294,7.072-9.309,14.767-19.025,20.332-29.3" transform="translate(-151.742 2470.579)" fill="none" stroke="#fff" stroke-miterlimit="10" stroke-width="1"/>
    <path id="Path_33362" data-name="Path 33362" d="M541.175,138.827c1.746,2.57,1.011,5.393-1.848,6.519a7.041,7.041,0,0,1-8.084-2.427,4.108,4.108,0,0,1,1.826-6.556A6.767,6.767,0,0,1,541.175,138.827Z" transform="translate(-288.005 2437.472)" fill="none" stroke="#fff" stroke-miterlimit="10" stroke-width="0.75"/>
    <path id="Path_33363" data-name="Path 33363" d="M511.463,192.287c2.613-.228,4.895,1.024,5.333,3.792a4.7,4.7,0,0,1-4,5.482A4.282,4.282,0,0,1,507.562,198a5.22,5.22,0,0,1,.047-1.925" transform="translate(-228.987 2464.653)" fill="none" stroke="#722030" stroke-miterlimit="10" stroke-width="0.75"/>
    <path id="Path_33384" data-name="Path 33384" d="M521.53,130.307c3.645-1.7,5.534-3.9,9.944-4.339,20.25-2.03,40.264,4.464,58.357,13.748" transform="translate(-322.762 2432.526)" fill="none" stroke="#fff" stroke-miterlimit="10" stroke-width="1"/>
    <path id="Path_33385" data-name="Path 33385" d="M571.486,144.254a34.992,34.992,0,0,1,5.366-11.62" transform="translate(-383.814 2435.918)" fill="none" stroke="#fff" stroke-miterlimit="10" stroke-width="1"/>
    <path id="Path_33386" data-name="Path 33386" d="M543.487,165.1c5.366-1.408,10.793-2.656,16.248-3.666" transform="translate(-325.205 2449.797)" fill="none" stroke="#fff" stroke-miterlimit="10" stroke-width="1"/>
    <path id="Path_33387" data-name="Path 33387" d="M556.676,166.064c1.645-.5,3.284-1.014,4.923-1.528" transform="translate(-346.614 2451.292)" fill="none" stroke="#fff" stroke-miterlimit="10" stroke-width="1"/>
    <path id="Path_33388" data-name="Path 33388" d="M476.79,180.581c3.488-2.146,7.033-4.467,8.9-8.2" transform="translate(-152.325 2455.072)" fill="none" stroke="#fff" stroke-miterlimit="10" stroke-width="1"/>
    <path id="Path_33389" data-name="Path 33389" d="M484.787,181.16c1.725-.7,3.432-1.386,5.116-2.184" transform="translate(-168.384 2458.251)" fill="none" stroke="#fff" stroke-miterlimit="10" stroke-width="1"/>
    <path id="Path_33390" data-name="Path 33390" d="M491.121,213.488c6.313,8.6,10.305,18.6,16.761,27.113" transform="translate(-195.749 2474.883)" fill="none" stroke="#fff" stroke-miterlimit="10" stroke-width="1"/>
    <path id="Path_33391" data-name="Path 33391" d="M504.55,207.366c1.288,1.617,2.651,3.164,4.023,4.708" transform="translate(-216.342 2471.933)" fill="none" stroke="#fff" stroke-miterlimit="10" stroke-width="1"/>
    <path id="Path_33475" data-name="Path 33475" d="M597.9,2600.271a19.709,19.709,0,0,1-2.976-14.67c1.716-8.367,6.853-13.332,5.958-16.9C600.883,2568.7,612.2,2591.661,597.9,2600.271Z" transform="translate(-91.307 -22.97)" fill="#5b5b5b"/>
    <path id="Path_33476" data-name="Path 33476" d="M589.308,2641.945a19.712,19.712,0,0,1,11.324-9.79c8.133-2.608,14.979-.569,17.653-3.1C618.285,2629.056,603.824,2650.179,589.308,2641.945Z" transform="translate(-89.945 -38.671)" fill="#5b5b5b"/>
    <path id="Path_33477" data-name="Path 33477" d="M582.534,2637.621a19.711,19.711,0,0,1-12.153-8.739c-4.426-7.3-4.032-14.437-7.116-16.45C563.265,2612.432,587.171,2621.589,582.534,2637.621Z" transform="translate(-83.171 -34.346)" fill="#5b5b5b"/>
    <path id="Path_33478" data-name="Path 33478" d="M573.53,2678.249a19.71,19.71,0,0,1,11.324-9.789c8.133-2.608,14.979-.568,17.653-3.1C602.507,2665.36,588.046,2686.484,573.53,2678.249Z" transform="translate(-85.841 -48.114)" fill="#5b5b5b"/>
    <path id="Path_33479" data-name="Path 33479" d="M566.756,2673.926a19.711,19.711,0,0,1-12.153-8.739c-4.427-7.305-4.033-14.437-7.117-16.45C547.486,2648.737,571.393,2657.895,566.756,2673.926Z" transform="translate(-79.067 -43.79)" fill="#5b5b5b"/>
    <path id="Path_33480" data-name="Path 33480" d="M556.239,2716.514a17.261,17.261,0,0,1,10.37-8.021c7.237-1.893,13.126.218,15.585-1.868C582.194,2706.625,568.54,2724.408,556.239,2716.514Z" transform="translate(-81.343 -58.847)" fill="#5b5b5b"/>
    <path id="Path_33481" data-name="Path 33481" d="M550.737,2711.924a17.263,17.263,0,0,1-10.211-8.222c-3.523-6.6-2.838-12.818-5.439-14.724C535.088,2688.978,555.557,2698.126,550.737,2711.924Z" transform="translate(-75.842 -54.257)" fill="#5b5b5b"/>
    <path id="Path_33482" data-name="Path 33482" d="M601.576,2588.33s.6,9.159-1.525,15.118" transform="translate(-92.739 -28.077)" fill="none" stroke="#fff" stroke-miterlimit="10" stroke-width="1"/>
    <path id="Path_33483" data-name="Path 33483" d="M569.112,2618.837s8.62,16.294,14.776,17.341" transform="translate(-84.692 -36.012)" fill="none" stroke="#fff" stroke-miterlimit="10" stroke-width="1"/>
    <path id="Path_33484" data-name="Path 33484" d="M613.205,2634.21s-10.638,8.376-18.868,7.3" transform="translate(-91.253 -40.01)" fill="none" stroke="#fff" stroke-miterlimit="10" stroke-width="1"/>
    <path id="Path_33485" data-name="Path 33485" d="M553.885,2655.413s7.338,16.963,15.061,17.612" transform="translate(-80.731 -45.526)" fill="none" stroke="#fff" stroke-miterlimit="10" stroke-width="1"/>
    <path id="Path_33486" data-name="Path 33486" d="M596.638,2670.516s-9.3,8.21-18.422,7.422" transform="translate(-87.06 -49.454)" fill="none" stroke="#fff" stroke-miterlimit="10" stroke-width="1"/>
    <path id="Path_33487" data-name="Path 33487" d="M541.448,2697.4s4.371,13.769,10.675,14.178" transform="translate(-77.496 -56.448)" fill="none" stroke="#fff" stroke-miterlimit="10" stroke-width="1"/>
    <path id="Path_33488" data-name="Path 33488" d="M576.185,2711.077s-10.036,6.145-17.293,5.191" transform="translate(-82.033 -60.005)" fill="none" stroke="#fff" stroke-miterlimit="10" stroke-width="1"/>
    <path id="Path_33489" data-name="Path 33489" d="M561.538,2604.815S534.2,2728.423,448.81,2770.671" transform="translate(-53.4 -32.365)" fill="none" stroke="#5b5b5b" stroke-miterlimit="10" stroke-width="4"/>
    <path id="Path_32592" data-name="Path 32592" d="M424.585,2735.748a9.556,9.556,0,1,0-7.743-11.075,9.555,9.555,0,0,0,7.743,11.075h0m-1.111,6.273c16.763,2.969,33.056-9.9,35.726-24.975s-5.869-28.852-17.9-33.962c4.709-26.594,19.1-107.518,23.809-134.113h0l-4.707-.833-3.6-.638-1.334-.237-3.072-.544-23.749,133.773h0c-14.787-.065-27.274,9.562-30.151,25.8a31.165,31.165,0,0,0,24.976,35.725Z" transform="translate(-34.472 -2.239)" fill="#656bc1" fill-rule="evenodd"/>
    <path id="Path_32593" data-name="Path 32593" d="M421.349,2732.135a9.556,9.556,0,1,0-7.744-11.077,9.556,9.556,0,0,0,7.744,11.077m28.046-190.429.009-.047h0a6.458,6.458,0,0,1,12.718,2.249h0c-5.311,29.991-18.745,105.565-24.055,135.555,12.027,5.114,20.567,18.889,17.9,33.965S437,2741.372,420.237,2738.4a31.167,31.167,0,0,1-24.976-35.725c2.874-16.244,15.363-25.869,30.151-25.8h0Z" transform="translate(-33.461 0.981)" fill="#ffa400"/>
    <path id="Path_32594" data-name="Path 32594" d="M466.958,2548.344,443.72,2679.265a1.4,1.4,0,0,0,1.136,1.625h0a1.408,1.408,0,0,0,1.627-1.137l23.237-130.922a1.405,1.405,0,0,0-1.136-1.625h0a1.409,1.409,0,0,0-1.627,1.139" transform="translate(-48.726 -2.385)" fill="#fedca0" fill-rule="evenodd"/>
    <path id="Path_32595" data-name="Path 32595" d="M491.857,2572.657l5.721,1.013,1.121-6.33-5.721-1.013,1.111-6.274,7.982,1.414,1.678-9.477-14.552-2.578-6.849,38.312,14.615,2.588,1.741-9.467-8.044-1.424Z" transform="translate(-60.794 -3.081)" fill="#ffa400" fill-rule="evenodd"/>
    <path id="Path_33520" data-name="Path 33520" d="M443.977,2516.5a7.748,7.748,0,0,0-1.794.05l.005-.04-33.019-6.307L391.6,2479.813l-14.943,8.637,19.177,33.175a8.564,8.564,0,0,0,7.676,4.914l31.878,2.107a3.389,3.389,0,0,0,1.007.637S448.969,2516.9,443.977,2516.5Z" transform="translate(-27.795 18.65)" fill="#ffac9c" stroke="#262626" stroke-miterlimit="10" stroke-width="1"/>
    <path id="Path_33521" data-name="Path 33521" d="M461.382,2545.047c.233.159,5.264,3.94,7.369,4.858,1.571.685,6.145,2.534,7.07.879.633-1.127-1.929-2.531-3.718-3.565-.942-.543-2.035-1.746-1.659-2.348.659-1.053,3.078.4,4.638,1.6,3.016,2.318,6.919,6.293,9.126,4.9.834-.529.107-1.781-1.028-3.063,1.908,1.571,3.983,2.925,4.933,2.375a1.1,1.1,0,0,0,.435-1.454,1.466,1.466,0,0,0,1.635-.042c.767-.618.573-1.7-.027-2.868a.813.813,0,0,0,.665-.323c1.711-1.994-4.63-9.177-7.028-10.084a55.5,55.5,0,0,0-14.878-3.046c-.19-.045-2.09-.2-2.09-.2" transform="translate(-54.247 2.148)" fill="#ffac9c" stroke="#262626" stroke-miterlimit="10" stroke-width="1"/>
    <path id="Path_33522" data-name="Path 33522" d="M480.712,2545.189a11.987,11.987,0,0,1,4.612,2.5c1.547,1.386,2.691,3.155,4.088,4.678" transform="translate(-60.283 -1.762)" fill="none" stroke="#262626" stroke-linecap="round" stroke-miterlimit="10" stroke-width="1"/>
    <path id="Path_33523" data-name="Path 33523" d="M483.266,2540.955a29.62,29.62,0,0,1,5.395,2.688,19.694,19.694,0,0,1,4.419,4.8q1.165,1.574,2.26,3.2" transform="translate(-61.08 -0.441)" fill="none" stroke="#262626" stroke-linecap="round" stroke-miterlimit="10" stroke-width="1"/>
    <path id="Path_33524" data-name="Path 33524" d="M487.9,2543.2" transform="translate(-62.529 -1.143)" fill="none" stroke="#1a2e35" stroke-miterlimit="10" stroke-width="1"/>
    <path id="Path_33525" data-name="Path 33525" d="M486.747,2537.414a15.677,15.677,0,0,1,4.9,2.368,26.791,26.791,0,0,1,4.459,4.978c.7.976,1.371,1.975,2.026,2.982" transform="translate(-62.167 0.666)" fill="none" stroke="#262626" stroke-linecap="round" stroke-miterlimit="10" stroke-width="1"/>
    <path id="Path_33526" data-name="Path 33526" d="M383.8,2510.161l19.811-10.623-12.534-21.684-.008,0c-.1-.166-.188-.332-.3-.493a8.629,8.629,0,0,0-15.456,7.2h0l.014.045c.008.029.02.057.029.086Z" transform="translate(-27.27 20.608)" fill="#4a4a4a" stroke="#262626" stroke-miterlimit="10" stroke-width="1"/>
    <path id="Path_33527" data-name="Path 33527" d="M393.252,2806.88c3.874-.374,6.967-4.148,6.967-4.148l3.654.1c-1.074-6.351-.794-8.3-.794-8.3l-16.174,4.765.112,3.361h0a2.891,2.891,0,0,1,2.81,1.947A3.038,3.038,0,0,0,393.252,2806.88Z" transform="translate(-30.994 -79.616)" fill="#fff" stroke="#262626" stroke-miterlimit="10" stroke-width="1"/>
    <path id="Path_33528" data-name="Path 33528" d="M417.451,2815.895c-4.376-2.578-12.18-1.7-13.4-8.641-.045-.254-.083-.488-.124-.729l-3.654-.1s-3.094,3.774-6.967,4.148a3.039,3.039,0,0,1-3.424-2.267,2.89,2.89,0,0,0-2.81-1.946h0l.444,13.391,34.757,1S421.826,2818.472,417.451,2815.895Z" transform="translate(-31.045 -83.305)" fill="#000e1b" stroke="#262626" stroke-miterlimit="10" stroke-width="1"/>
    <g id="Path_33529" data-name="Path 33529" transform="translate(-31.345 -85.723)" fill="#fff" stroke-miterlimit="10">
      <path d="M 398.3659973144531 2822.968994140625 L 397.6910095214844 2822.94921875 L 396.8051452636719 2822.92333984375 L 396.4447326660156 2822.912841796875 L 396.3409118652344 2822.567626953125 C 395.7687072753906 2820.66455078125 394.7028503417969 2819.000732421875 393.2586364746094 2817.75537109375 C 391.7684936523438 2816.4677734375 389.9521484375 2815.681396484375 388.0055541992188 2815.48095703125 L 387.5703430175781 2815.436279296875 L 387.5570373535156 2814.998779296875 L 387.5301818847656 2814.11767578125 L 387.512939453125 2813.552490234375 L 388.076171875 2813.604736328125 C 390.4107666015625 2813.821533203125 392.67431640625 2814.78564453125 394.4498291015625 2816.3193359375 C 396.2206726074219 2817.84814453125 397.5482788085938 2819.978271484375 398.1878967285156 2822.317626953125 L 398.3659973144531 2822.968994140625 Z" stroke="none"/>
      <path d="M 388.0299377441406 2814.1025390625 L 388.0567932128906 2814.983642578125 C 390.0740966796875 2815.19140625 392.0149536132812 2816.02001953125 393.5851440429688 2817.376708984375 C 395.111328125 2818.692626953125 396.2310180664062 2820.4658203125 396.8197326660156 2822.423583984375 L 397.7055969238281 2822.449462890625 C 397.0948486328125 2820.2158203125 395.8486633300781 2818.1875 394.1229553222656 2816.69775390625 C 392.396728515625 2815.20654296875 390.2487182617188 2814.30859375 388.0299377441406 2814.1025390625 M 386.9959411621094 2813.002197265625 L 388.1224060058594 2813.10693359375 C 390.559814453125 2813.333251953125 392.9230041503906 2814.339599609375 394.7766723632812 2815.94091796875 C 396.6217956542969 2817.533935546875 398.004638671875 2819.751708984375 398.6701965332031 2822.185791015625 L 399.0263977050781 2823.488525390625 L 396.0697631835938 2823.402099609375 L 395.8620910644531 2822.711669921875 C 395.3173217773438 2820.89990234375 394.3041687011719 2819.317138671875 392.93212890625 2818.134033203125 C 391.5195007324219 2816.91357421875 389.7984924316406 2816.168212890625 387.954345703125 2815.978271484375 L 387.0839233398438 2815.888671875 L 386.9959411621094 2813.002197265625 Z" stroke="none" fill="#262626"/>
    </g>
    <g id="Path_33530" data-name="Path 33530" transform="translate(-37.044 -83.625)" fill="#fff" stroke-miterlimit="10">
      <path d="M 415.5711364746094 2817.569580078125 C 415.4992065429688 2817.569580078125 415.4271850585938 2817.568603515625 415.3551635742188 2817.56640625 C 414.4253540039062 2817.53955078125 413.5217895507812 2817.345947265625 412.6694641113281 2816.99072265625 C 410.7440795898438 2816.189453125 409.1914978027344 2815.014892578125 408.0550537109375 2813.499755859375 C 406.9270935058594 2811.99609375 406.1652526855469 2810.096435546875 405.7907409667969 2807.85400390625 L 405.7491149902344 2807.60498046875 L 405.9250183105469 2807.423583984375 C 406.01416015625 2807.331787109375 406.08837890625 2807.252685546875 406.1443481445312 2807.192138671875 L 406.1443481445312 2806.883544921875 L 406.6443481445312 2806.883544921875 L 406.6521301269531 2806.883544921875 L 406.6606140136719 2806.8837890625 L 407.0994262695312 2806.8974609375 L 407.5157470703125 2806.910400390625 L 407.5782165527344 2807.322265625 C 408.1844177246094 2811.318603515625 410.0864562988281 2813.930419921875 413.3929748535156 2815.306396484375 C 414.0841369628906 2815.59521484375 414.8165283203125 2815.74169921875 415.5704956054688 2815.74169921875 C 416.88720703125 2815.74169921875 418.173828125 2815.2890625 419.1934204101562 2814.46728515625 L 419.3918762207031 2814.307373046875 L 419.6378784179688 2814.3740234375 C 419.9728698730469 2814.46484375 420.2977905273438 2814.556884765625 420.6036376953125 2814.64794921875 L 421.435302734375 2814.8955078125 L 420.80419921875 2815.490966796875 C 419.3834838867188 2816.831298828125 417.5250244140625 2817.569580078125 415.5711364746094 2817.569580078125 Z" stroke="none"/>
      <path d="M 406.6443481445312 2807.383544921875 C 406.6443481445312 2807.384521484375 406.5136413574219 2807.534912109375 406.2839050292969 2807.771728515625 C 407.0088500976562 2812.112060546875 409.1560668945312 2814.987060546875 412.8617553710938 2816.529296875 C 413.6733703613281 2816.867431640625 414.5235290527344 2817.042236328125 415.3694763183594 2817.066650390625 C 415.4367370605469 2817.068603515625 415.5039672851562 2817.069580078125 415.5711364746094 2817.069580078125 C 417.3753967285156 2817.069580078125 419.1368713378906 2816.37646484375 420.4610595703125 2815.127197265625 C 420.1467895507812 2815.03369140625 419.8289184570312 2814.94384765625 419.5071716308594 2814.856689453125 C 417.769775390625 2816.257080078125 415.3344421386719 2816.65966796875 413.2008666992188 2815.76806640625 C 409.718017578125 2814.318603515625 407.7179870605469 2811.57763671875 407.0838623046875 2807.397216796875 L 406.6443481445312 2807.383544921875 M 405.6443481445312 2806.383544921875 L 406.6761779785156 2806.384033203125 L 407.9476318359375 2806.423583984375 L 408.0725402832031 2807.247314453125 C 408.6583862304688 2811.109375 410.4100341796875 2813.5234375 413.5850830078125 2814.8447265625 C 414.2155151367188 2815.1083984375 414.883056640625 2815.24169921875 415.5704956054688 2815.24169921875 C 416.7734375 2815.24169921875 417.9486694335938 2814.828369140625 418.8796691894531 2814.078125 L 419.2765808105469 2813.75830078125 L 419.7686157226562 2813.891357421875 C 420.1075439453125 2813.983154296875 420.4364624023438 2814.07666015625 420.7462158203125 2814.168701171875 L 422.4095764160156 2814.66357421875 L 421.1473388671875 2815.8544921875 C 419.6334533691406 2817.282958984375 417.6531372070312 2818.069580078125 415.5711364746094 2818.069580078125 C 415.4944152832031 2818.069580078125 415.4176025390625 2818.068359375 415.3407897949219 2818.066162109375 C 414.3495788574219 2818.03759765625 413.3861694335938 2817.8310546875 412.4771728515625 2817.452392578125 C 410.4683532714844 2816.616455078125 408.8458557128906 2815.387451171875 407.6550903320312 2813.7998046875 C 406.4786071777344 2812.231201171875 405.6854248046875 2810.258544921875 405.2975769042969 2807.9365234375 L 405.2143249511719 2807.438232421875 L 405.5661315917969 2807.075439453125 C 405.593994140625 2807.046630859375 405.6200561523438 2807.01953125 405.6443481445312 2806.994140625 L 405.6443481445312 2806.383544921875 Z" stroke="none" fill="#262626"/>
    </g>
    <path id="Path_33531" data-name="Path 33531" d="M387.715,2825.826l.146,2.683,34.759,1-.148-2.683Z" transform="translate(-31.247 -89.384)" fill="#fff" stroke="#262626" stroke-miterlimit="10" stroke-width="1"/>
    <path id="Path_33532" data-name="Path 33532" d="M309.53,2806.88c3.946-.374,7.779-4.148,7.779-4.148l3.634.1c.171-6.351.831-8.3.831-8.3l-17.106,4.765-.546,3.361h0a2.278,2.278,0,0,1,2.429,1.947A2.43,2.43,0,0,0,309.53,2806.88Z" transform="translate(-5.147 -79.616)" fill="#fff" stroke="#262626" stroke-miterlimit="10" stroke-width="1"/>
    <path id="Path_33533" data-name="Path 33533" d="M331.647,2815.895c-3.871-2.578-11.848-1.7-11.711-8.641,0-.254.012-.488.019-.729l-3.634-.1s-3.832,3.774-7.779,4.148a2.431,2.431,0,0,1-2.981-2.267,2.278,2.278,0,0,0-2.429-1.946h0l-2.177,13.391,34.561,1S335.518,2818.472,331.647,2815.895Z" transform="translate(-4.158 -83.305)" fill="#000e1b" stroke="#262626" stroke-miterlimit="10" stroke-width="1"/>
    <g id="Path_33534" data-name="Path 33534" transform="translate(-4.917 -85.917)" fill="#fff" stroke-miterlimit="10">
      <path d="M 312.0999145507812 2823.15869140625 L 311.5368041992188 2823.142822265625 L 310.6654052734375 2823.1181640625 L 310.2341613769531 2823.10595703125 L 310.1830444335938 2822.677734375 C 309.9712219238281 2820.901611328125 309.2371215820312 2819.3486328125 308.06005859375 2818.18701171875 C 306.8411254882812 2816.982421875 305.2070922851562 2816.244873046875 303.3343505859375 2816.05419921875 L 302.806396484375 2816.00048828125 L 302.8914489746094 2815.476806640625 L 303.0269470214844 2814.64208984375 L 303.1016540527344 2814.181884765625 L 303.5659484863281 2814.22412109375 C 305.8491516113281 2814.432861328125 307.9279479980469 2815.359130859375 309.4194641113281 2816.83251953125 C 310.9107666015625 2818.3046875 311.8446044921875 2820.352294921875 312.0488891601562 2822.59765625 L 312.0999145507812 2823.15869140625 Z" stroke="none"/>
      <path d="M 303.5204772949219 2814.72216796875 L 303.3849792480469 2815.556884765625 C 305.3417053222656 2815.756103515625 307.1085815429688 2816.543701171875 308.4112854003906 2817.8310546875 C 309.6774291992188 2819.080810546875 310.4580993652344 2820.76171875 310.6795349121094 2822.618408203125 L 311.5509338378906 2822.64306640625 C 311.3583068847656 2820.525390625 310.5 2818.601806640625 309.0680847167969 2817.188232421875 C 307.6354064941406 2815.77294921875 305.6772766113281 2814.919189453125 303.5204772949219 2814.72216796875 M 302.6828308105469 2813.6416015625 L 303.6114501953125 2813.726318359375 C 306.0096740722656 2813.9453125 308.1971435546875 2814.922119140625 309.7708740234375 2816.476806640625 C 311.345947265625 2818.03173828125 312.3318786621094 2820.189453125 312.5468139648438 2822.552490234375 L 312.6488952636719 2823.674560546875 L 309.7887573242188 2823.593505859375 L 309.6865844726562 2822.73681640625 C 309.4883117675781 2821.074462890625 308.8044128417969 2819.624267578125 307.7088012695312 2818.542724609375 C 306.5717163085938 2817.4189453125 305.0416870117188 2816.730712890625 303.28369140625 2816.5517578125 L 302.2278442382812 2816.4443359375 L 302.6828308105469 2813.6416015625 Z" stroke="none" fill="#262626"/>
    </g>
    <g id="Path_33535" data-name="Path 33535" transform="translate(-11.04 -83.579)" fill="#fff" stroke-miterlimit="10">
      <path d="M 330.4524536132812 2817.522705078125 C 330.3817138671875 2817.522705078125 330.3108215332031 2817.521728515625 330.2403869628906 2817.519775390625 C 329.30517578125 2817.4921875 328.427734375 2817.294677734375 327.6318054199219 2816.93212890625 C 325.832275390625 2816.110595703125 324.4903564453125 2814.906005859375 323.6429138183594 2813.351318359375 C 322.8067016601562 2811.817138671875 322.42431640625 2809.885009765625 322.5064086914062 2807.6083984375 L 322.5143127441406 2807.388671875 L 322.6817626953125 2807.245849609375 C 322.79052734375 2807.1533203125 322.880126953125 2807.07470703125 322.9483337402344 2807.013916015625 L 322.9483337402344 2806.735107421875 L 323.4483337402344 2806.735107421875 L 323.4552612304688 2806.735107421875 L 323.4628601074219 2806.7353515625 L 323.9023742675781 2806.74755859375 L 324.4140319824219 2806.76171875 L 324.3878173828125 2807.27294921875 C 324.1827697753906 2811.273193359375 325.542236328125 2813.883544921875 328.5439147949219 2815.253173828125 C 329.1713562011719 2815.54052734375 329.8712463378906 2815.68603515625 330.6248168945312 2815.68603515625 C 331.9653015136719 2815.68603515625 333.3733825683594 2815.22021484375 334.589599609375 2814.37451171875 L 334.7848815917969 2814.238525390625 L 335.0134582519531 2814.304443359375 C 335.3162536621094 2814.3916015625 335.6250610351562 2814.485107421875 335.9313354492188 2814.582275390625 L 336.8265380859375 2814.8662109375 L 336.0912170410156 2815.450439453125 C 334.4090881347656 2816.786865234375 332.4065246582031 2817.522705078125 330.4524536132812 2817.522705078125 Z" stroke="none"/>
      <path d="M 323.4483337402344 2807.235107421875 C 323.4483337402344 2807.2353515625 323.2859802246094 2807.387939453125 323.0060729980469 2807.62646484375 C 322.847900390625 2812.013427734375 324.4222106933594 2814.91748046875 327.8390502929688 2816.47705078125 C 328.58740234375 2816.81787109375 329.4079284667969 2816.9951171875 330.2544860839844 2817.02001953125 C 330.3202514648438 2817.02197265625 330.3864135742188 2817.022705078125 330.4524536132812 2817.022705078125 C 332.271484375 2817.022705078125 334.18994140625 2816.322265625 335.7801818847656 2815.058837890625 C 335.4830017089844 2814.964599609375 335.1810607910156 2814.873046875 334.8750610351562 2814.784912109375 C 332.8384704589844 2816.200927734375 330.3026428222656 2816.608154296875 328.3363647460938 2815.7080078125 C 325.1244812011719 2814.242431640625 323.671875 2811.47265625 323.8884887695312 2807.247314453125 L 323.4483337402344 2807.235107421875 M 322.4483337402344 2806.235107421875 L 323.4767456054688 2806.235595703125 L 324.9395751953125 2806.276123046875 L 324.8871765136719 2807.298583984375 C 324.6911315917969 2811.122802734375 325.9190368652344 2813.505859375 328.7514953613281 2814.79833984375 C 329.313720703125 2815.0556640625 329.943603515625 2815.18603515625 330.6248168945312 2815.18603515625 C 331.8642272949219 2815.18603515625 333.1708984375 2814.751953125 334.3041381835938 2813.9638671875 L 334.6946716308594 2813.6923828125 L 335.1518249511719 2813.823974609375 C 335.4588012695312 2813.912353515625 335.7719116210938 2814.007080078125 336.0824279785156 2814.105712890625 L 337.8729248046875 2814.67333984375 L 336.4022521972656 2815.841796875 C 334.6320495605469 2817.248291015625 332.51904296875 2818.022705078125 330.4524536132812 2818.022705078125 C 330.3769836425781 2818.022705078125 330.3013610839844 2818.021728515625 330.2262268066406 2818.01953125 C 329.2236022949219 2817.990234375 328.2813720703125 2817.77734375 327.4245910644531 2817.38720703125 C 325.5240783691406 2816.51953125 324.1042785644531 2815.242431640625 323.2038879394531 2813.590576171875 C 322.3241577148438 2811.9765625 321.9213562011719 2809.9580078125 322.0067138671875 2807.59033203125 L 322.0225830078125 2807.150634765625 L 322.3574829101562 2806.865234375 C 322.3895263671875 2806.838134765625 322.4198303222656 2806.81201171875 322.4483337402344 2806.787353515625 L 322.4483337402344 2806.235107421875 Z" stroke="none" fill="#262626"/>
    </g>
    <path id="Path_33536" data-name="Path 33536" d="M300.784,2825.826l-.379,2.683,34.564,1,.377-2.683Z" transform="translate(-3.986 -89.384)" fill="#fff" stroke="#262626" stroke-miterlimit="10" stroke-width="1"/>
    <path id="Path_33537" data-name="Path 33537" d="M356.388,2568.4s-3.363,6.461,1.682,28.952c2.148,9.576,11.392,40.249,15.456,59.715l22.693-2.807L379.5,2571.046Z" transform="translate(-21.123 -9.009)" fill="#000e1b" stroke="#262626" stroke-miterlimit="10" stroke-width="1"/>
    <path id="Path_33538" data-name="Path 33538" d="M381.441,2694.022l2.769,74.449,19.774.568.4-75.8Z" transform="translate(-29.288 -47.986)" fill="#000e1b" stroke="#262626" stroke-miterlimit="10" stroke-width="1"/>
    <path id="Path_33539" data-name="Path 33539" d="M404.043,2688.477a10.9,10.9,0,0,1-10.661,11.593c-6.335.216-11.468-5.136-11.685-11.472a10.991,10.991,0,0,1,10.9-11.471C398.932,2676.909,403.827,2682.142,404.043,2688.477Z" transform="translate(-29.365 -42.954)" fill="#000e1b"/>
    <path id="Path_33540" data-name="Path 33540" d="M310.332,2693.767l-7.441,74.128,19.511,3.267,10.764-75.036Z" transform="translate(-4.763 -48.151)" fill="#000e1b" stroke="#262626" stroke-miterlimit="10" stroke-width="1"/>
    <path id="Path_33541" data-name="Path 33541" d="M325.271,2570.6s-4.322,5.406-6.66,26.781c-1.067,9.756-2.735,37.348-4.9,57.115l22.834,2.36L349.326,2568Z" transform="translate(-8.141 -8.886)" fill="#000e1b" stroke="#262626" stroke-miterlimit="10" stroke-width="1"/>
    <path id="Path_33542" data-name="Path 33542" d="M336.3,2691.536a11.063,11.063,0,0,1-12.216,10.154,10.819,10.819,0,0,1-9.868-12.181c.652-6.306,5.922-11.305,12.228-10.654S336.952,2685.231,336.3,2691.536Z" transform="translate(-8.278 -43.479)" fill="#000e1b"/>
    <path id="Path_33543" data-name="Path 33543" d="M326.452,2525.112a.392.392,0,0,0-.044.053l.074.147C326.464,2525.192,326.452,2525.112,326.452,2525.112Z" transform="translate(-12.105 4.506)" fill="none"/>
    <path id="Path_33544" data-name="Path 33544" d="M329.275,2541.112l-2.741-36.333,1.358-31.236h40.574s10.072,19.8,2.223,45.08l-.165,22.806Z" transform="translate(-12.145 20.607)" fill="#606060" stroke="#262626" stroke-miterlimit="10" stroke-width="1"/>
    <path id="Path_33545" data-name="Path 33545" d="M352.427,2457.663l.41,10.613h8.857l-.662-4.224Z" transform="translate(-20.229 25.566)" fill="#ffac9c"/>
    <path id="Path_33546" data-name="Path 33546" d="M362.033,2466.892a3.186,3.186,0,0,0,.647,0l.266,1.7c-4.312-.277-5.688-4.686-5.688-4.686h0C358.213,2464.971,360.9,2466.786,362.033,2466.892Z" transform="translate(-21.737 23.618)" fill="#000e1b"/>
    <path id="Path_33547" data-name="Path 33547" d="M355.033,2455.932a13.49,13.49,0,0,0,1.219,2.941c.64.959,4.585,4.158,6.72,2.755,1.635-1.074,1.959-3.807,2.041-5.7a36.429,36.429,0,0,0-.182-6.7l-7.371-1.461-2.719,6.013Z" transform="translate(-20.952 28.655)" fill="#ffac9c"/>
    <path id="Path_33548" data-name="Path 33548" d="M351.4,2445.461s-4.911-1.494-.324,6.717l.479,3.952,1.622-2.263,1.117-2.048.721,1.878h.415l-.113-4.48a2.556,2.556,0,0,0,1.532-2.683s7.246,2.1,8.356-.438l-1.288-1.816-.881.474a5.032,5.032,0,0,0,1.288-3.05l-1.695,1.491a2.95,2.95,0,0,0,.536-1.891,1.8,1.8,0,0,0-1.72-1.656h0a1.858,1.858,0,0,0-1.443.612,5.655,5.655,0,0,1-1.845,1.274C355.993,2442.507,350.268,2441.659,351.4,2445.461Z" transform="translate(-19.195 31.191)" fill="#000e1b"/>
    <path id="Path_33549" data-name="Path 33549" d="M355.21,2457.48a1.77,1.77,0,1,1-1.77-1.77A1.77,1.77,0,0,1,355.21,2457.48Z" transform="translate(-19.993 26.175)" fill="#ffac9c"/>
    <path id="Path_33550" data-name="Path 33550" d="M357.855,2475.377l1.909-3.547,2.3,3.353a25.011,25.011,0,0,0,.737-3.377l-1.633-2.8-1.455,2.025-7.161-3.237-.589,4.016Z" transform="translate(-20.083 22.405)" fill="#fff"/>
    <path id="Path_33551" data-name="Path 33551" d="M317.824,2570.058a6.291,6.291,0,1,1-1.966,8.677A6.291,6.291,0,0,1,317.824,2570.058Z" transform="translate(-8.508 -9.224)" fill="#ffac9c"/>
    <path id="Path_33552" data-name="Path 33552" d="M329.394,2575.743c1.194-.1,1.892.356,3.6,1.336s4.53-.766,2.486-1.654-5.271-3.636-6.689-4.875c-1.109-.833-3.061-1.966-4.279-2.84a9.318,9.318,0,0,1-.748-.749c-1.392-1.609-2.36-3.331-4.455-3.846a6.526,6.526,0,0,0-7.188,9.649l-.007,0a88.1,88.1,0,0,0,4.677,10.367c2.755,4.882,7.22,8.189,8.776,6.775.648-.589-1.422-2.562-2.6-3.88-.8-.9-.893-1.78-.75-1.811,0,0,6.219,6.681,7.79,5.35.938-.8.385-1.267-1.4-2.914a16.931,16.931,0,0,1-3.17-4.133c0-.131,4.065,5.082,6.785,5.75,1.634.4,1.959-1.02.2-2.936s-4.376-5.36-4.376-5.36c1.193,1.985,6.151,6.78,7.326,5.679,1.632-1.53-1.791-3.509-3.673-5.891a44.154,44.154,0,0,1-3.821-6.278" transform="translate(-7.362 -7.3)" fill="#ffac9c" stroke="#262626" stroke-linecap="round" stroke-miterlimit="10" stroke-width="1"/>
    <path id="Path_33553" data-name="Path 33553" d="M314.631,2546.882l-13.812-24.968,5.034-6.7-9.121-16.6-13.045,17.374.006,0a8.627,8.627,0,0,0-.4,9.781,8.748,8.748,0,0,0,.578.8l19.114,26.113" transform="translate(1.772 12.78)" fill="#ffac9c" stroke="#262626" stroke-miterlimit="10" stroke-width="1"/>
    <path id="Path_33554" data-name="Path 33554" d="M322.057,2475.274a8.624,8.624,0,0,0-10.627.217l-.008-.007-.159.14q-.1.082-.19.167L291.2,2493.32l17.536,14.064,15.038-20.028A8.629,8.629,0,0,0,322.057,2475.274Z" transform="translate(-1.113 20.606)" fill="#606060" stroke="#262626" stroke-miterlimit="10" stroke-width="1"/>
    <path id="Path_32596" data-name="Path 32596" d="M576.825,2493.5v-11.663c-.012-.248-.019-.5-.019-.751s.007-.5.019-.75v-.028h0a16.891,16.891,0,0,1,33.7,0V2493.5h9.681v-13.422l-.012-.229a26.57,26.57,0,0,0-53.041,0v.041c-.018.4-.03.8-.03,1.2q0,.475.019.951V2493.5Z" transform="translate(-73.845 16.629)" fill="#5e5e5e" fill-rule="evenodd"/>
    <path id="Path_32596-2" data-name="Path 32596" d="M594.725,2460.466a23.726,23.726,0,0,0-23.5,22.821v.037c-.015.364-.026.729-.026,1.094" transform="translate(-74.903 15.181)" fill="none" stroke="#fff" stroke-linecap="round" stroke-miterlimit="10" stroke-width="1" fill-rule="evenodd"/>
    <path id="Path_32597" data-name="Path 32597" d="M607.106,2510.3H562.933v.072a11.349,11.349,0,0,0-10.162,11.162v40.443a11.37,11.37,0,0,0,11.439,11.234h50.9a11.371,11.371,0,0,0,11.44-11.234v-40.442a11.342,11.342,0,0,0-9.588-11.086v-.148Z" transform="translate(-70.111 2.219)" fill="#5e5e5e" fill-rule="evenodd"/>
    <path id="Path_32597-2" data-name="Path 32597" d="M565.617,2513.262a10.581,10.581,0,0,0-9.475,10.407v24.256" transform="translate(-70.988 1.448)" fill="none" stroke="#fff" stroke-linecap="round" stroke-miterlimit="10" stroke-width="1" fill-rule="evenodd"/>
    <path id="Path_32598" data-name="Path 32598" d="M566.63,2506.937h10.136a.633.633,0,0,1,.632.632v2.42a.634.634,0,0,1-.632.632H566.63a.633.633,0,0,1-.632-.632v-2.42a.633.633,0,0,1,.632-.632" transform="translate(-73.551 3.094)" fill="#232528" fill-rule="evenodd"/>
    <path id="Path_32599" data-name="Path 32599" d="M625.275,2506.937h10.136a.634.634,0,0,1,.632.632v2.42a.634.634,0,0,1-.632.632H625.275a.633.633,0,0,1-.632-.632v-2.42a.633.633,0,0,1,.632-.632" transform="translate(-88.805 3.094)" fill="#232528" fill-rule="evenodd"/>
    <path id="Path_32612" data-name="Path 32612" d="M606.525,2515.8H568.07v.062a9.881,9.881,0,0,0-8.846,9.719v35.208a9.9,9.9,0,0,0,9.957,9.78h44.314a9.9,9.9,0,0,0,9.958-9.78v-35.208a9.872,9.872,0,0,0-8.347-9.651v-.129Z" transform="translate(-71.789 0.788)" fill="#232528" fill-rule="evenodd"/>
    <path id="Path_32613" data-name="Path 32613" d="M608.152,2540.4a8.516,8.516,0,0,0-8.516-8.516h0a8.518,8.518,0,0,0-3.967,16.053v14.077a4.02,4.02,0,0,0,2.972,1.982,5.11,5.11,0,0,0,4.962-1.982v-14.077a8.515,8.515,0,0,0,4.55-7.537" transform="translate(-80.086 -3.397)" fill="#fff" fill-rule="evenodd"/>
  </g>
</svg>
