<svg xmlns="http://www.w3.org/2000/svg" width="50" height="50" viewBox="0 0 50 50">
  <g id="phone" transform="translate(-0.883 -0.883)">
    <g id="Rectangle_5116" data-name="Rectangle 5116" transform="translate(0.883 0.883)" fill="#3d345a" stroke="#d5d5d5" stroke-width="1">
      <rect width="50" height="50" rx="25" stroke="none"/>
      <rect x="0.5" y="0.5" width="49" height="49" rx="24.5" fill="none"/>
    </g>
    <path id="Path_34324" data-name="Path 34324" d="M79.559,8h8.881A1.6,1.6,0,0,1,90,9.6V28.4A1.553,1.553,0,0,1,88.441,30H79.559A1.6,1.6,0,0,1,78,28.4V9.6A1.644,1.644,0,0,1,79.559,8Zm0,3.47h8.881a.541.541,0,0,1,.542.555v13.95a.541.541,0,0,1-.542.555H79.559a.59.59,0,0,1-.542-.555V12.025A.59.59,0,0,1,79.559,11.47Zm4.475,15.754a1.055,1.055,0,0,1,1.017,1.041,1.072,1.072,0,0,1-1.017,1.11,1.084,1.084,0,0,1-1.085-1.11A1.069,1.069,0,0,1,84.034,27.224Z" transform="translate(-58.117 6.883)" fill="#fff" fill-rule="evenodd"/>
  </g>
</svg>
