<svg xmlns="http://www.w3.org/2000/svg" xmlns:xlink="http://www.w3.org/1999/xlink" width="375" height="270.436" viewBox="0 0 375 270.436">
  <defs>
    <linearGradient id="linear-gradient" x1="-169.328" y1="66.326" x2="-169.328" y2="65.335" gradientUnits="objectBoundingBox">
      <stop offset="0" stop-color="#efb930" stop-opacity="0"/>
      <stop offset="1" stop-color="#efb930"/>
    </linearGradient>
  </defs>
  <g id="sim-graphic" transform="translate(-156.304 -2925.148)">
    <path id="Path_33643" data-name="Path 33643" d="M388.25,3222.985a84.972,84.972,0,0,0,10.3-5.447,111.671,111.671,0,0,0,47-56.241c8.228-21.962,9.263-45.856,10.208-69.287,1.351-33.515,2.676-67.387-3.709-100.317-2.127-10.969-5.468-22.4-13.714-29.946-12.316-11.271-32.34-10.149-46.738-1.694s-24.354,22.648-33.362,36.7c-19.967,31.144-38.137,64.455-66.384,88.361-14.259,12.067-31.384,22.136-39.723,38.844-8.155,16.337-6.025,36.5,2.369,52.716s23.369,27.587,37.476,39.192a70.2,70.2,0,0,0,10.313,7.144Z" transform="translate(-10.023 -28.353)" fill="#d8d2fc"/>
    <path id="Path_33647" data-name="Path 33647" d="M244.656,3279.125c-21.417-7.843-43.288-20.085-58.517-35.671-22.083-22.6-33.539-54.707-25-83.85,7-23.911,26.451-43.635,49.231-57.352,41.609-25.054,95.887-31.874,143.683-18.6s88.29,46.214,108.51,87.53c8.108,16.569,13.12,34.645,12.05,52.735s-14.1,42.327-28.311,55.109Z" transform="translate(-2 -84.47)" fill="#f0eefc"/>
    <path id="Path_33355" data-name="Path 33355" d="M457.26,286.974h8.379l15.194.114c46.115-64.66,76.334-80.591,107.744-98.992-6.858-2.922-15.666-7.305-21-12.588,10.42,1.652,19.609,4.477,30.061,7.554,13.548-16.253,28.895-24.022,13.657-48.077-22.1-34.884-91.762,9.824-111.347,30.513a126.209,126.209,0,0,0,.554,30.855,33.89,33.89,0,0,1-15.322-15.283C468.8,204.158,453.658,242.051,457.26,286.974Zm66.15-69.39a3.874,3.874,0,0,1,4.74-3.3,4.3,4.3,0,0,1,3.394,4.967,3.7,3.7,0,0,1-4.6,3.175A4.19,4.19,0,0,1,523.41,217.584Z" transform="translate(-86.319 2907.159)" fill="#b8b8b8"/>
    <path id="Path_33356" data-name="Path 33356" d="M597.18,139.523c-87.825,53.329-94.835,65.177-133.742,142.846" transform="translate(-84.22 2912.606)" fill="none" stroke="#fff" stroke-miterlimit="10" stroke-width="0.75"/>
    <path id="Path_33357" data-name="Path 33357" d="M564.26,166.822c-7.011-3.02-12.815-5.648-20.03-8.138,2.258-8.534,3.637-16.955,6.032-25.448" transform="translate(-58.972 2910.641)" fill="none" stroke="#fff" stroke-miterlimit="10" stroke-width="0.75"/>
    <path id="Path_33358" data-name="Path 33358" d="M550.351,182.806c-10.654-2.324-21.337-3.972-32.166-5.232a177.141,177.141,0,0,1,3.947-29.1" transform="translate(-67.111 2915.402)" fill="none" stroke="#fff" stroke-miterlimit="10" stroke-width="0.75"/>
    <path id="Path_33359" data-name="Path 33359" d="M534.533,193.523c-10.429-.9-21.6-1.543-32.069-1.417a217.4,217.4,0,0,1-.241-30.063" transform="translate(-72.226 2919.644)" fill="none" stroke="#fff" stroke-miterlimit="10" stroke-width="0.75"/>
    <path id="Path_33360" data-name="Path 33360" d="M515.063,207.9a87.9,87.9,0,0,0-24.776,2.744c-3.875-9.025-9.946-18.042-12.218-27.6" transform="translate(-79.648 2926.207)" fill="none" stroke="#fff" stroke-miterlimit="10" stroke-width="0.75"/>
    <path id="Path_33361" data-name="Path 33361" d="M501.912,219.621c-8.563,1.916-14.745,6.076-21.929,10.889-6.263-8.245-13.079-16.85-18.008-25.954" transform="translate(-84.677 2932.93)" fill="none" stroke="#fff" stroke-miterlimit="10" stroke-width="1"/>
    <path id="Path_33362" data-name="Path 33362" d="M531.107,138.487c-1.546,2.276-.9,4.776,1.637,5.774a6.236,6.236,0,0,0,7.16-2.15,3.638,3.638,0,0,0-1.617-5.807A5.993,5.993,0,0,0,531.107,138.487Z" transform="translate(-63.333 2911.46)" fill="none" stroke="#fff" stroke-miterlimit="10" stroke-width="0.75"/>
    <path id="Path_33384" data-name="Path 33384" d="M582.022,129.769c-3.229-1.505-4.9-3.451-8.807-3.843-17.935-1.8-35.661,3.953-51.685,12.176" transform="translate(-66.066 2908.254)" fill="none" stroke="#fff" stroke-miterlimit="10" stroke-width="1"/>
    <path id="Path_33385" data-name="Path 33385" d="M576.239,142.925a30.992,30.992,0,0,0-4.753-10.291" transform="translate(-50.454 2910.454)" fill="none" stroke="#fff" stroke-miterlimit="10" stroke-width="1"/>
    <path id="Path_33386" data-name="Path 33386" d="M557.877,164.682c-4.753-1.247-9.559-2.352-14.39-3.247" transform="translate(-59.204 2919.454)" fill="none" stroke="#fff" stroke-miterlimit="10" stroke-width="1"/>
    <path id="Path_33387" data-name="Path 33387" d="M561.036,165.889c-1.457-.441-2.909-.9-4.36-1.353" transform="translate(-55.082 2920.423)" fill="none" stroke="#fff" stroke-miterlimit="10" stroke-width="1"/>
    <path id="Path_33388" data-name="Path 33388" d="M484.677,179.643c-3.09-1.9-6.229-3.956-7.887-7.263" transform="translate(-80.048 2922.875)" fill="none" stroke="#fff" stroke-miterlimit="10" stroke-width="1"/>
    <path id="Path_33389" data-name="Path 33389" d="M489.318,180.911c-1.528-.617-3.04-1.227-4.531-1.935" transform="translate(-77.548 2924.936)" fill="none" stroke="#fff" stroke-miterlimit="10" stroke-width="1"/>
    <path id="Path_33390" data-name="Path 33390" d="M505.965,213.488c-5.591,7.62-9.127,16.476-14.844,24.014" transform="translate(-75.569 2935.721)" fill="none" stroke="#fff" stroke-miterlimit="10" stroke-width="1"/>
    <path id="Path_33391" data-name="Path 33391" d="M508.113,207.366c-1.141,1.432-2.348,2.8-3.563,4.17" transform="translate(-71.372 2933.808)" fill="none" stroke="#fff" stroke-miterlimit="10" stroke-width="1"/>
    <path id="Path_33945" data-name="Path 33945" d="M455.866,958.3c-.6.691-1.393,1.308-1.974,1.993a18.912,18.912,0,0,0-1.543,2.063,13.287,13.287,0,0,0-1.415,2.322c-.3.808-.72,1.3-1.017,2.1s-.608,1.741-.927,2.554c-.129.331-.3.752-.378,1.041s-.228.221-.322.338.169.276.293.1.26-.06.364.076c.326-.926.848-1.856,1.108-2.784a2.986,2.986,0,0,1,.3-.795c.548-.908.958-1.829,1.57-2.656.879-1.19,1.489-2.491,2.37-3.668.56-.748,1.083-1.529,1.667-2.258C456.1,958.555,456.03,958.422,455.866,958.3Z" transform="translate(-207.311 2107.296)" fill="#8a8a8a" fill-rule="evenodd"/>
    <path id="Path_33946" data-name="Path 33946" d="M464.65,961.263A27.1,27.1,0,0,1,471,959.876a2.183,2.183,0,0,1,1.307.29c4.885,2.724,9.069,6.321,13.48,9.751a2.026,2.026,0,0,1,.236.276c-.764-.022-1.579-.009-2.336,0s-1.472.183-2.213.166a14.128,14.128,0,0,0-4.089.681,23.265,23.265,0,0,0-5.156,1.885,2.444,2.444,0,0,0-.238.147c-.133.091-.5.309-.317.55s.419.083.631,0a40.332,40.332,0,0,1,6.138-1.736,18.543,18.543,0,0,0,3.173-.667,34.409,34.409,0,0,1,4.9-.053,3.221,3.221,0,0,1,1.819.724,93.043,93.043,0,0,1,10.582,9.779.461.461,0,0,1,.177.412,40.021,40.021,0,0,0-5.616.4,10.291,10.291,0,0,0-1.9.14A33.193,33.193,0,0,0,484,985.432c-.338.186-.848.371-.777.764.057.329.469.1.708.01a51.1,51.1,0,0,1,9.129-2.663c.315-.059.547-.29.85-.338a26.71,26.71,0,0,1,5.056-.421,2.13,2.13,0,0,1,1.695.812c3.263,3.778,5.763,8.272,8.483,12.487a.846.846,0,0,1,.176.465c-.662-.143-1.351-.226-2.02-.329s-1.372.031-2.024-.124a8.375,8.375,0,0,0-2.918,0,30.1,30.1,0,0,0-7.328,1.591c-.25.09-.543.086-.672.405s.271.365.526.338c.672-.076,1.274-.278,1.9-.388a52.547,52.547,0,0,1,7.105-.765c.407-.018.738-.162,1.141-.2a15.73,15.73,0,0,1,4.371.252,1.283,1.283,0,0,1,.922.695q1.086,1.947,2.153,3.926l.979-.2c-.736-1.429-1.479-2.851-2.241-4.263a1.666,1.666,0,0,1-.262-1.126c.083-.36-.09-.388-.281-.317s-.234.181-.347-.021c-1.082-1.955-2.284-3.825-3.48-5.731a55.777,55.777,0,0,0-5.44-7.721,1.314,1.314,0,0,1-.343-1.284,23.243,23.243,0,0,1,1.231-4.106c.283-.643.712-1.186.958-1.844a51.4,51.4,0,0,1,2.693-5.928c.171-.321.552-.8.119-1.012s-.679.288-.877.636l-2.256,3.957a11.457,11.457,0,0,0-1.188,3.255c-.365,1.653-1.014,3.3-1.317,4.977-.253.041-.35-.176-.477-.316a101.92,101.92,0,0,0-11.311-10.391,2.521,2.521,0,0,1-.752-1.3c-.105-.276-.319-.317-.569-.086s-.514-.095-.712-.247c-1.479-1.124-2.892-2.292-4.342-3.437a62.027,62.027,0,0,0-9.765-6.6,1.876,1.876,0,0,1-.712-.567c-.143-.229-.264.041-.377-.016a55.427,55.427,0,0,0-6.955-2.949,6.93,6.93,0,0,1-1.041-.433,12.568,12.568,0,0,0-3.692-1.367c-2.641-.477-5.22-1.132-7.845-1.681a5.977,5.977,0,0,0-1.238-.188,14.842,14.842,0,0,1-2.737-.414,7.293,7.293,0,0,0-1.6-.159c-.172.007-.391-.017-.417.194s-.01.257.233.445a3.117,3.117,0,0,0,1.1.426c4.02.9,8.074,1.924,12.028,3.1,1.772.524,3.515.758,5.252,1.391a59.971,59.971,0,0,1,6.216,2.741,32.176,32.176,0,0,0-6.352,1.238,3.5,3.5,0,0,0-1.467.365,23.99,23.99,0,0,0-4.918,2.293,9.846,9.846,0,0,0-1.12.812c-.286.248-.548.4-.372.695s.469.024.684-.1a42.065,42.065,0,0,1,5.713-2.591A4.8,4.8,0,0,0,464.65,961.263Z" transform="translate(-260.586 2102.062)" fill="#8a8a8a" fill-rule="evenodd"/>
    <path id="Path_33947" data-name="Path 33947" d="M456.19,967.523c.133.016.177-.3.369-.422a12.353,12.353,0,0,0,4.235-4.37,21.5,21.5,0,0,0,2.958-10.542,31.283,31.283,0,0,0-.438-4.287c-.079-.669-.529-.8-1.117-.545a2.969,2.969,0,0,0-.841.581,8.515,8.515,0,0,0-1.7,2.758,46.837,46.837,0,0,0-3.384,11.151c-.06.359-.164.865.181.993.314.115.524-.386.634-.665.407-1.048.943-2.11,1.286-3.193a62.239,62.239,0,0,0-2.3,7.891C456.03,967.1,455.952,967.5,456.19,967.523Z" transform="translate(-228.401 2099.284)" fill="#8a8a8a" fill-rule="evenodd"/>
    <path id="Path_33948" data-name="Path 33948" d="M447.777,970.453c.9-1.515,1.712-3.111,2.72-4.559.043-.062.178-.172.219-.052s-.124.335-.212.5a55.921,55.921,0,0,0-2.655,5.7,11.758,11.758,0,0,1-.831,1.925.554.554,0,0,0-.093.488,9.118,9.118,0,0,0,5.109-3.677A20.292,20.292,0,0,0,456.1,962a15.046,15.046,0,0,0-.458-7.15c-.546-.138-.8.262-1.053.624a14.691,14.691,0,0,0-1.291,2.236c-1.406,2.963-2.96,5.8-4.187,8.848a21.176,21.176,0,0,1-1.334,3.065C447.629,969.868,447.475,970.2,447.777,970.453Z" transform="translate(-205.26 2104.773)" fill="#8a8a8a" fill-rule="evenodd"/>
    <path id="Path_33949" data-name="Path 33949" d="M475.731,969.7a44.123,44.123,0,0,0-7.062,1.776c-1.2.432-2.443.783-3.613,1.3a32.854,32.854,0,0,0-5.683,3.12,10.359,10.359,0,0,0-1.972,1.755c-.312.374-.26.666.283.741a14.648,14.648,0,0,0,5.914-.324,33.858,33.858,0,0,0,8.8-3.889,10.5,10.5,0,0,0,1.9-1.575,4.38,4.38,0,0,0,1.241-2.253C475.584,970.141,475.665,969.915,475.731,969.7Z" transform="translate(-242.415 2115.544)" fill="#8a8a8a" fill-rule="evenodd"/>
    <path id="Path_33950" data-name="Path 33950" d="M484.105,962.761a41.443,41.443,0,0,0-9.932,2.417c.007-.245.689-.4.6-.591-.15-.314-.605-.121-.9,0-3.1,1.224-6.106,2.579-9.081,4.1-.222.114-.507.319-.443.515.045.141.009.029.01.031a1.438,1.438,0,0,0,.794.452,14.373,14.373,0,0,0,6.021.46,24.26,24.26,0,0,0,8.364-2.8,11.563,11.563,0,0,0,3.379-3.011A12.376,12.376,0,0,0,484.105,962.761Z" transform="translate(-263.073 2110.521)" fill="#8a8a8a" fill-rule="evenodd"/>
    <path id="Path_33951" data-name="Path 33951" d="M470.069,977.749c-.593.005-1.15-.052-1.748.008-2.12.209-4.227.369-6.34.748-.714.129-1.4.3-2.162.443-.147.026-.264.131-.419-.13s-.574-.1-.857-.022c-2.2.626-4.485,1.25-6.64,1.967a1.7,1.7,0,0,0-1.115,1.065c-.143.472.25.586.581.7a14.75,14.75,0,0,0,3.8.81,23.718,23.718,0,0,0,9.594-1.222,9.927,9.927,0,0,0,4.808-3.382A2.625,2.625,0,0,0,470.069,977.749Z" transform="translate(-225.636 2121.354)" fill="#8a8a8a" fill-rule="evenodd"/>
    <path id="Path_33952" data-name="Path 33952" d="M437.588,982.454c.164-.184.2-.234.384-.467a.7.7,0,0,1,.743-.347,1.828,1.828,0,0,0,1.148-.272c.49-.238,1.246-.429,1.872-.66a15.216,15.216,0,0,0,5.444-3.227,19.881,19.881,0,0,0,5.457-9.089c.15-.507.531-1.074.307-1.527-.162-.328-.564-.007-.8.155a39.837,39.837,0,0,0-6.374,5.482,6.481,6.481,0,0,0-1.214,1.391,11.4,11.4,0,0,1-2.089,2.25,66.209,66.209,0,0,0-4.649,5.349C437.609,981.763,437.345,982.075,437.588,982.454Z" transform="translate(-185.708 2113.388)" fill="#8a8a8a" fill-rule="evenodd"/>
    <path id="Path_33953" data-name="Path 33953" d="M449.441,970.757c-.088-.345.141-.6.3-.857a24.546,24.546,0,0,0,1.57-3.692c.248-.6.495-1.246.789-1.8.748-1.4,1.415-2.951,2.143-4.29s1.222-2.551,1.975-3.829a2.874,2.874,0,0,1,1.088-1.15c-.207-.626-.355-.895-1.052-.657a6.2,6.2,0,0,0-1.974,1.017,17.283,17.283,0,0,0-6.805,11.7,20.715,20.715,0,0,0-.081,4.482,4.565,4.565,0,0,0,.712,2.153C448.555,972.815,448.991,971.788,449.441,970.757Z" transform="translate(-206.925 2104.47)" fill="#8a8a8a" fill-rule="evenodd"/>
    <path id="Path_33954" data-name="Path 33954" d="M444.785,974.211c.695-.774,1.463-1.548,2.212-2.3s1.517-1.5,2.337-2.2a23.231,23.231,0,0,1,3.728-2.668c-.16-.422-.3-.474-.8-.559a4.69,4.69,0,0,0-1.707.045,19.431,19.431,0,0,0-9.131,4.763,8.91,8.91,0,0,0-1.974,2.749,19.636,19.636,0,0,0-1.9,6,2.34,2.34,0,0,0,.085,1.269c.586-.171.846-.679,1.155-1.138a19.309,19.309,0,0,1,4.842-4.911A7.093,7.093,0,0,0,444.785,974.211Z" transform="translate(-185.775 2113.173)" fill="#8a8a8a" fill-rule="evenodd"/>
    <path id="Path_33955" data-name="Path 33955" d="M491.859,956.987a44.689,44.689,0,0,0-8.107,3.482,8.82,8.82,0,0,1,1.491-1.355c-.245-.25-.521-.1-.765.026a66.412,66.412,0,0,0-7.064,4.028c-.777.514-1.507,1.01-2.3,1.539a1.682,1.682,0,0,0-.941,1.271,2.137,2.137,0,0,0,1.469.467,11.547,11.547,0,0,0,4.063-.465,41.79,41.79,0,0,0,4.185-1.451,15.82,15.82,0,0,0,4.7-3.042A18.6,18.6,0,0,0,491.859,956.987Z" transform="translate(-287.792 2106.342)" fill="#8a8a8a" fill-rule="evenodd"/>
    <path id="Path_33956" data-name="Path 33956" d="M459.331,978.981c-.215-.207-.46-.239-.159-.576a12.1,12.1,0,0,1,1.837-1.639,24.616,24.616,0,0,1,4.849-2.737c.348-.152.771-.233.848-.7a10.7,10.7,0,0,1,2.748-1.563,31.137,31.137,0,0,1,7.517-2.151,4.356,4.356,0,0,0-2.481-.712,20.6,20.6,0,0,0-14.033,4.971,13.307,13.307,0,0,0-2.861,3.937c-.3.544-.1.771.391.917A4.786,4.786,0,0,0,459.331,978.981Z" transform="translate(-244.081 2114.965)" fill="#8a8a8a" fill-rule="evenodd"/>
    <path id="Path_33957" data-name="Path 33957" d="M464.623,969.967c.195-.321.565-.353.862-.517,2.21-1.222,4.452-2.167,6.766-3.185a21.867,21.867,0,0,1,2.83-1.008c1.255-.362,2.439-1.036,3.718-1.374,1.8-.474,3.592-.932,5.426-1.237-5.226-1.71-9.5-.859-14.286,1.66a16.616,16.616,0,0,0-5.289,4.706C464.4,969.326,464.3,969.653,464.623,969.967Z" transform="translate(-263.34 2109.791)" fill="#8a8a8a" fill-rule="evenodd"/>
    <path id="Path_33958" data-name="Path 33958" d="M450.619,983.069a2.5,2.5,0,0,1,1.372-.934c2.332-.76,4.7-1.374,7.054-2.094.079-.024.176.026.257,0a38.61,38.61,0,0,1,10.879-1.99,8.527,8.527,0,0,0-4.633-1.956,17.255,17.255,0,0,0-11.285,3.178,15.052,15.052,0,0,0-3.287,3.058A1.013,1.013,0,0,0,450.619,983.069Z" transform="translate(-225.5 2120.13)" fill="#8a8a8a" fill-rule="evenodd"/>
    <path id="Path_33959" data-name="Path 33959" d="M459.862,962.563a1.662,1.662,0,0,1,0-.81,49.345,49.345,0,0,1,1.832-7.424c.291-.855.693-1.689,1.024-2.525.569-1.443,1.339-2.77,2.008-4.161a17.2,17.2,0,0,0-3.475,3.054,15.067,15.067,0,0,0-1.958,2.508,14.722,14.722,0,0,0-1.862,8.233,14.437,14.437,0,0,0,.734,3.887,1.415,1.415,0,0,0,.722,1c.126.05.262-.107.3-.243a21.191,21.191,0,0,0,.771-3.189C459.979,962.785,459.945,962.749,459.862,962.563Z" transform="translate(-231.773 2099.579)" fill="#8a8a8a" fill-rule="evenodd"/>
    <path id="Path_33960" data-name="Path 33960" d="M474.416,966.433a1.864,1.864,0,0,1,.872-.983c.429-.272.864-.6,1.3-.9,1.8-1.24,3.653-2.325,5.568-3.413.951-.541,2-1.041,3-1.544.095-.047.235.019.333-.036a45.378,45.378,0,0,1,6.314-2.777,5.815,5.815,0,0,0-2.427-.426,14.578,14.578,0,0,0-6.961,1.72,19.217,19.217,0,0,0-7.188,6.393c-.307.448-.5.931-.771,1.41A.526.526,0,0,0,474.416,966.433Z" transform="translate(-288.034 2105.885)" fill="#8a8a8a" fill-rule="evenodd"/>
    <path id="Path_33961" data-name="Path 33961" d="M469.681,960.982a50.1,50.1,0,0,1-.352-8.833,8.224,8.224,0,0,0-.536,1.879c-.324-.126-.321-.431-.321-.71a54.458,54.458,0,0,1,.579-8.248c.138-.941.279-1.852.429-2.806a1.71,1.71,0,0,1,.753-1.408,2.359,2.359,0,0,1,1.031,1.21,12.708,12.708,0,0,1,1.322,4.046,45.167,45.167,0,0,1,.464,4.573,16.019,16.019,0,0,1-.679,5.6A15.321,15.321,0,0,1,469.681,960.982Z" transform="translate(-259.171 2094.667)" fill="#8a8a8a" fill-rule="evenodd"/>
    <path id="Path_33962" data-name="Path 33962" d="M474.285,940.855a1.927,1.927,0,0,0-.526,1.226c-.071.514-.172,1.062-.26,1.6-.365,2.213-.578,4.449-.741,6.691-.083,1.114-.033,2.227-.04,3.351,0,.107.122.2.117.317a52.285,52.285,0,0,0,.157,6.893,6.555,6.555,0,0,1-1.45-2.091,15.567,15.567,0,0,1-1.417-7.069,18.609,18.609,0,0,1,2.732-9.353c.279-.472.629-.852.948-1.3A.5.5,0,0,1,474.285,940.855Z" transform="translate(-263.223 2094.665)" fill="#8a8a8a" fill-rule="evenodd"/>
    <path id="Path_33963" data-name="Path 33963" d="M506.618,955.419c-3.849-1.208-7.445-2.615-11.489-2.982a5.836,5.836,0,0,1,1.586-.453c-.112-.5-.579-.534-.984-.584a78,78,0,0,0-12.094-.526c-1.389.041-2.737.052-4.149.058a2.384,2.384,0,0,0-2.172.769,3.565,3.565,0,0,0,1.5,1.81,15.852,15.852,0,0,0,5.521,2.625,60.809,60.809,0,0,0,6.488,1.422,28.932,28.932,0,0,0,8.3-.05A22.952,22.952,0,0,0,506.618,955.419Z" transform="translate(-307.962 2101.889)" fill="#8a8a8a" fill-rule="evenodd"/>
    <path id="Path_33964" data-name="Path 33964" d="M477.15,953.068a2.673,2.673,0,0,1,1.862-.476c.753.017,1.567.007,2.358-.023,3.275-.126,6.537-.09,9.825.041,1.636.065,3.279.319,4.92.507.157.017.279.21.448.222a64.143,64.143,0,0,1,10.179,1.731,7.95,7.95,0,0,0-2.682-2.494,22.712,22.712,0,0,0-10.155-3.5,28.358,28.358,0,0,0-14.2,2.236c-.741.309-1.358.743-2.079,1.108A.727.727,0,0,0,477.15,953.068Z" transform="translate(-307.799 2100.516)" fill="#8a8a8a" fill-rule="evenodd"/>
    <path id="Path_33965" data-name="Path 33965" d="M451.48,970.928c-.7.562-1.577,1.024-2.255,1.577a17.446,17.446,0,0,0-1.825,1.7,11.437,11.437,0,0,0-1.734,1.982c-.4.736-.886,1.167-1.274,1.9s-.808,1.61-1.234,2.356c-.172.3-.4.7-.517.97s-.253.184-.362.283.122.3.272.143.262-.017.341.131c.447-.857,1.089-1.693,1.465-2.561a2.9,2.9,0,0,1,.385-.724,24.006,24.006,0,0,1,1.9-2.349c1.041-.995,1.832-2.113,2.879-3.089.664-.621,1.307-1.286,1.991-1.891C451.669,971.212,451.625,971.064,451.48,970.928Z" transform="translate(-192.512 2116.432)" fill="#8a8a8a" fill-rule="evenodd"/>
    <path id="Path_33966" data-name="Path 33966" d="M460.216,958.431c-.328,1.269-.729,2.454-.974,3.775a31.3,31.3,0,0,0-.412,4.161,4.459,4.459,0,0,0,.021,1.093.565.565,0,0,1,.576.079,10.168,10.168,0,0,0,.154-1.811c.09-.764.181-1.746.333-2.619a40.149,40.149,0,0,1,.948-4.058c.4-1.422,1-3.129,1.434-4.587.1-.326.46-.719.353-.991-.081-.207-.288.06-.355.2a39.812,39.812,0,0,0-1.644,3.832A10.063,10.063,0,0,0,460.216,958.431Z" transform="translate(-232.106 2103.745)" fill="#8a8a8a" fill-rule="evenodd"/>
    <path id="Path_33967" data-name="Path 33967" d="M470.147,948.951a35.91,35.91,0,0,0,.05,5.936c.019.178-.1.288-.078.491s.2.51.229.795a14.95,14.95,0,0,0,1.013,4.256c.045.107-.012.248.01.31s.286-.033.352,0c-.209-1.384-.51-2.728-.626-4.123-.021-.25-.009-.5-.034-.75-.25-2.424-.324-4.818-.433-7.269a1.524,1.524,0,0,0-.234-.95C470.4,948.093,470.173,948.519,470.147,948.951Z" transform="translate(-260.541 2099.584)" fill="#8a8a8a" fill-rule="evenodd"/>
    <path id="Path_33968" data-name="Path 33968" d="M476.124,966.957c-.264-.145-.527-.291-.793-.436A.82.82,0,0,0,476.124,966.957Z" transform="translate(-274.046 2113.242)" fill="#8a8a8a" fill-rule="evenodd"/>
    <path id="Path_33648" data-name="Path 33648" d="M444.314,3214.777V3193.46a6.542,6.542,0,0,0-6.541-6.541H422.809c.046-.55.076-1.1.076-1.665,0-11.433-9.706-20.7-21.679-20.7s-21.678,9.268-21.678,20.7c0,.561.03,1.115.076,1.665H352.866v28.071c-10.435,1.493-18.439,10.088-18.439,20.469s8,18.978,18.439,20.47v39.254h84.907a6.542,6.542,0,0,0,6.541-6.541v-32.5c-11.626-.377-20.931-9.49-20.931-20.684S432.688,3215.154,444.314,3214.777Z" transform="translate(-39.621 -100.055)" fill="#e5e5e5"/>
    <path id="Path_33649" data-name="Path 33649" d="M306.287,3215l.064-28.069h-21.5c.046-.551.075-1.1.075-1.666,0-11.433-9.705-20.7-21.678-20.7s-21.679,9.268-21.679,20.7c0,.562.03,1.115.076,1.666h-20.2a6.541,6.541,0,0,0-6.541,6.541V3215c-10.436,1.493-18.439,10.088-18.439,20.47s8,18.978,18.439,20.47v32.714a6.541,6.541,0,0,0,6.541,6.541h84.907l-.192-39.683c-9.116-1.265-18.313-8.739-18.313-19.932S297.236,3215.878,306.287,3215Z" transform="translate(7.082 -100.058)" fill="#f8f8f8"/>
    <path id="Path_33650" data-name="Path 33650" d="M316.069,3141.219l-8.185-12.7-4.212-2.42s-5.64,2.1-8.384,6.5c-3.517,5.638,9.794,26.016,16.53,36.929,0,0,2.009-.739,7.2-3.006,4.661-2.036,7.483-3.125,7.483-3.125Z" transform="translate(-26.175 -86.781)" fill="#ddd" stroke="#262626" stroke-miterlimit="10" stroke-width="1"/>
    <ellipse id="Ellipse_3754" data-name="Ellipse 3754" cx="8.157" cy="1.683" rx="8.157" ry="1.683" transform="matrix(0.923, -0.386, 0.386, 0.923, 284.838, 3081.318)" fill="#262626"/>
    <path id="Path_33651" data-name="Path 33651" d="M342.942,3182.254a.535.535,0,0,0-.374-.23l.374.647A.519.519,0,0,0,342.942,3182.254Z" transform="translate(-42.377 -105.712)" fill="#262626"/>
    <path id="Path_33652" data-name="Path 33652" d="M333.424,3185.266a24.779,24.779,0,0,0-1.357-3.261c-1.093-.253-4.2.806-7.593,2.659a25.089,25.089,0,0,0-5.259,3.864l-.827,3.521-6.84,32.449,13.795,2.517,7.626-37.634A16.465,16.465,0,0,0,333.424,3185.266Z" transform="translate(-31.875 -105.693)" fill="#e8968b" stroke="#262626" stroke-miterlimit="10" stroke-width="1"/>
    <path id="Rectangle_8624" data-name="Rectangle 8624" d="M12.006,0h0a0,0,0,0,1,0,0V23.023a0,0,0,0,1,0,0H0a0,0,0,0,1,0,0V12.006A12.006,12.006,0,0,1,12.006,0Z" transform="translate(302.333 3121.632) rotate(99.524)" fill="#111010" stroke="#262626" stroke-miterlimit="10" stroke-width="1"/>
    <rect id="Rectangle_8625" data-name="Rectangle 8625" width="1.803" height="23.023" transform="translate(300.645 3131.694) rotate(99.524)"/>
    <circle id="Ellipse_3755" data-name="Ellipse 3755" cx="0.511" cy="0.511" r="0.511" transform="translate(296.054 3122.793)" fill="#fff"/>
    <circle id="Ellipse_3756" data-name="Ellipse 3756" cx="0.511" cy="0.511" r="0.511" transform="translate(294.403 3121.921)" fill="#fff"/>
    <circle id="Ellipse_3757" data-name="Ellipse 3757" cx="0.511" cy="0.511" r="0.511" transform="translate(297.42 3124.238)" fill="#fff"/>
    <circle id="Ellipse_3758" data-name="Ellipse 3758" cx="0.511" cy="0.511" r="0.511" transform="translate(298.505 3125.922)" fill="#fff"/>
    <path id="Path_33653" data-name="Path 33653" d="M304.38,3144.823h0l-1.75-4.159s-7.839,1.875-11.406,5.637c-4.572,4.821,3.129,22.227,6.782,34.521,0,0,2.133-.189,7.735-1.022,5.032-.748,8.039-1.062,8.039-1.062S308.03,3154.195,304.38,3144.823Z" transform="translate(-24.518 -91.71)" fill="#fff" stroke="#262626" stroke-miterlimit="10" stroke-width="1"/>
    <ellipse id="Ellipse_3759" data-name="Ellipse 3759" cx="8.157" cy="1.683" rx="8.157" ry="1.683" transform="translate(273.082 3087.524) rotate(-7.551)" fill="#262626"/>
    <path id="Path_33654" data-name="Path 33654" d="M326.327,3198.54a.537.537,0,0,0-.267-.349l.116.739A.522.522,0,0,0,326.327,3198.54Z" transform="translate(-36.788 -111.184)" fill="#262626"/>
    <path id="Path_33655" data-name="Path 33655" d="M318.758,3202.971l-1.4-5.068c-.929-.629-4.206-.756-8.041-.248a25.078,25.078,0,0,0-6.3,1.715l1.971,9.533-4.64,41.044,13.891,1.913,5.014-44.379C319.658,3205.424,319.317,3204.993,318.758,3202.971Z" transform="translate(-28.085 -110.896)" fill="#ffac9c" stroke="#262626" stroke-miterlimit="10" stroke-width="1"/>
    <path id="Rectangle_8626" data-name="Rectangle 8626" d="M12.006,0h0a0,0,0,0,1,0,0V23.023a0,0,0,0,1,0,0H0a0,0,0,0,1,0,0V12.006A12.006,12.006,0,0,1,12.006,0Z" transform="matrix(-0.122, 0.992, -0.992, -0.122, 295.029, 3140.888)" fill="#1c191a" stroke="#262626" stroke-miterlimit="10" stroke-width="1"/>
    <rect id="Rectangle_8627" data-name="Rectangle 8627" width="1.803" height="23.023" transform="matrix(-0.122, 0.992, -0.992, -0.122, 293.781, 3151.014)" fill="#210101"/>
    <circle id="Ellipse_3760" data-name="Ellipse 3760" cx="0.511" cy="0.511" r="0.511" transform="translate(288.828 3142.299)" fill="#fff"/>
    <circle id="Ellipse_3761" data-name="Ellipse 3761" cx="0.511" cy="0.511" r="0.511" transform="translate(287.141 3141.5)" fill="#fff"/>
    <circle id="Ellipse_3762" data-name="Ellipse 3762" cx="0.511" cy="0.511" r="0.511" transform="translate(290.256 3143.683)" fill="#fff"/>
    <circle id="Ellipse_3763" data-name="Ellipse 3763" cx="0.511" cy="0.511" r="0.511" transform="translate(291.413 3145.318)" fill="#fff"/>
    <path id="Path_33656" data-name="Path 33656" d="M313.324,3087.4a4.236,4.236,0,0,0-3.266-.253c-1.335.45-2.4,1.557-3.781,1.849-1.552.327-3.168-.45-4.731-.177a3.577,3.577,0,0,0-2.891,4.224,4.8,4.8,0,0,0,1.5,2.487,14.3,14.3,0,0,0,2.4,1.7,18.828,18.828,0,0,0,5.641,2.638,5.014,5.014,0,0,0,3.113-.168,6.8,6.8,0,0,0,2.486-2.414,6.6,6.6,0,0,0,1.533-3.231c.057-.785-.169-1.579-.035-2.355a3.612,3.612,0,0,1,.129-.5,2.941,2.941,0,0,0-1.818-3.727l-.076-.025" transform="translate(-27.489 -73.521)" fill="#000e1b"/>
    <path id="Path_33657" data-name="Path 33657" d="M314.566,3088.035a3.278,3.278,0,0,0-3.155.256,8.479,8.479,0,0,1-3.327,1.562c-1.371.268-2.811-.423-4.191-.2" transform="translate(-29.284 -73.796)" fill="none" stroke="#082a44" stroke-miterlimit="10" stroke-width="0.5"/>
    <path id="Path_33658" data-name="Path 33658" d="M323.141,3114.348a4.557,4.557,0,1,1,.312-6.437A4.557,4.557,0,0,1,323.141,3114.348Z" transform="translate(-33.221 -80.117)" fill="#e5f3ff"/>
    <path id="Path_33659" data-name="Path 33659" d="M323.141,3114.348a4.557,4.557,0,1,1,.312-6.437A4.557,4.557,0,0,1,323.141,3114.348Z" transform="translate(-33.221 -80.117)" fill="#442850" stroke="#262626" stroke-miterlimit="10" stroke-width="1"/>
    <path id="Path_33660" data-name="Path 33660" d="M376.552,3110.771l.8-4.29a3.637,3.637,0,0,0-2.426-4.006l-.9-.326.608-4.119a2.131,2.131,0,0,1-.294-.172,1.208,1.208,0,0,0-.7-.22,1.269,1.269,0,0,0-1.179.951c-.531,1.86-1.271,4.836-2.186,5.772a36.5,36.5,0,0,1-6.7,5.131l-.012-.018,4.992,7.627h0l3.7-2.5a8.011,8.011,0,0,1,1.02-.587C374.69,3113.33,376.275,3112.229,376.552,3110.771Z" transform="translate(-49.482 -77.146)" fill="#fdcdc4" stroke="#262626" stroke-miterlimit="10" stroke-width="1"/>
    <path id="Path_31967" data-name="Path 31967" d="M381.108,3102.09l1.238-6.077a1.17,1.17,0,0,1,1.38-.914h0a1.17,1.17,0,0,1,.913,1.38h0l-1.237,6.077a1.17,1.17,0,0,1-1.38.913h0a1.17,1.17,0,0,1-.913-1.38Z" transform="translate(-55.415 -76.278)" fill="#eab5ad" stroke="#262626" stroke-miterlimit="10" stroke-width="1"/>
    <path id="Path_31969" data-name="Path 31969" d="M375.516,3108.64l-1.1-.294a.544.544,0,0,1-.385-.663l5.562-20.741a.543.543,0,0,1,.663-.384l1.1.293a.543.543,0,0,1,.385.662l-5.562,20.742A.544.544,0,0,1,375.516,3108.64Z" transform="translate(-53.023 -73.389)" fill="#d69f05"/>
    <rect id="Rectangle_8628" data-name="Rectangle 8628" width="1.533" height="20.039" rx="0.638" transform="translate(326.939 3013.592) rotate(15.165)" fill="url(#linear-gradient)"/>
    <path id="Rectangle_8493" data-name="Rectangle 8493" d="M379.725,3103.194l2.248,1.063a1.479,1.479,0,0,1,.706,1.969h0a1.48,1.48,0,0,1-1.971.706l-2.248-1.062a1.48,1.48,0,0,1-.706-1.97h0A1.48,1.48,0,0,1,379.725,3103.194Z" transform="translate(-54.24 -78.978)" fill="#eab5ad" stroke="#262626" stroke-miterlimit="10" stroke-width="1"/>
    <path id="Rectangle_8494" data-name="Rectangle 8494" d="M379.05,3109.182l2.275.884a1.48,1.48,0,0,1,.843,1.915h0a1.48,1.48,0,0,1-1.916.843l-2.275-.885a1.479,1.479,0,0,1-.843-1.914h0A1.48,1.48,0,0,1,379.05,3109.182Z" transform="translate(-54.044 -81.019)" fill="#eab5ad" stroke="#262626" stroke-miterlimit="10" stroke-width="1"/>
    <path id="Rectangle_8495" data-name="Rectangle 8495" d="M377.378,3114.823l2.92.919a1.194,1.194,0,0,1,.78,1.5h0a1.2,1.2,0,0,1-1.5.781h0l-2.92-.92a1.194,1.194,0,0,1-.781-1.5h0a1.194,1.194,0,0,1,1.5-.78Z" transform="translate(-53.635 -82.944)" fill="#eab5ad" stroke="#262626" stroke-miterlimit="10" stroke-width="1"/>
    <path id="Path_33661" data-name="Path 33661" d="M353.946,3111.568l-16.035,10.789-7.534-8.09-6.668,6.211,9.729,10.438a5.345,5.345,0,0,0,6.895.791l18.7-12.578" transform="translate(-35.992 -81.861)" fill="#e8968b" stroke="#262626" stroke-miterlimit="10" stroke-width="1"/>
    <rect id="Rectangle_8629" data-name="Rectangle 8629" width="8.527" height="7.741" transform="matrix(0.732, -0.682, 0.682, 0.732, 287.875, 3038.468)" fill="#bc6e66"/>
    <path id="Path_33662" data-name="Path 33662" d="M323.731,3108.676l8.939,9.751-9.089,7.736-7.236-12.263" transform="translate(-33.499 -80.882)" fill="#464646" stroke="#262626" stroke-miterlimit="10" stroke-width="1"/>
    <path id="Path_33664" data-name="Path 33664" d="M298.5,3102.222l13.289,2.978.231,5.113.246,5.456.532,11.785.073.844a3.071,3.071,0,0,1-2.26,3.232l-21.806,5.877h0a5.079,5.079,0,0,1-1.322-6.57l7.065-26.323A3.337,3.337,0,0,1,298.5,3102.222Z" transform="translate(-23.501 -78.669)" fill="#565557" stroke="#262626" stroke-miterlimit="10" stroke-width="1"/>
    <path id="Path_33665" data-name="Path 33665" d="M313.686,3101.307a1.534,1.534,0,0,1-1.013-1.585l.571-6.949a3.015,3.015,0,0,1,3.191-2.667l2.61.17a.234.234,0,0,1,.221.2,15.311,15.311,0,0,1-.187,4.087c-.5,2.789-2.317,3.6-3.389,3.392l.045,1.848a1.534,1.534,0,0,1-2.049,1.5Z" transform="translate(-32.254 -74.594)" fill="#ffac9c"/>
    <path id="Path_33666" data-name="Path 33666" d="M320.244,3096.752c-.417,2.311-1.921,2.981-2.809,2.811" transform="translate(-33.869 -76.846)" fill="none" stroke="#f9eae8" stroke-linecap="round" stroke-miterlimit="10" stroke-width="0.25"/>
    <path id="Path_33667" data-name="Path 33667" d="M316.265,3101.468a7.142,7.142,0,0,1-2.035-1.014,3.55,3.55,0,0,0,2.04,1.788Z" transform="translate(-32.784 -78.099)" fill="#081439"/>
    <path id="Path_33668" data-name="Path 33668" d="M315.692,3105.239l-.223,1.047a2.513,2.513,0,0,1-2.98,1.936h0a2.512,2.512,0,0,1-1.936-2.979l.222-1.047" transform="translate(-31.52 -79.365)" fill="#ffac9c" stroke="#262626" stroke-linecap="round" stroke-miterlimit="10" stroke-width="1"/>
    <path id="Path_33669" data-name="Path 33669" d="M359.5,3125.978l3.141-1.4v2.673Z" transform="translate(-48.107 -86.266)" fill="#fdcdc4" stroke="#262626" stroke-miterlimit="10" stroke-width="1"/>
    <path id="Path_33670" data-name="Path 33670" d="M444.813,3019.793v-21.316a6.54,6.54,0,0,0-6.541-6.54H423.308c.046-.551.076-1.1.076-1.666,0-11.433-9.706-20.7-21.678-20.7s-21.679,9.269-21.679,20.7c0,.562.03,1.116.076,1.666H353.365v28.07c-10.436,1.494-18.439,10.089-18.439,20.47s8,18.977,18.439,20.47v39.189H380.1c-.046-.55-.076-1.1-.076-1.666,0-11.433,9.706-20.7,21.679-20.7s21.678,9.268,21.678,20.7c0,.562-.03,1.116-.076,1.666h14.965c.216,0,.429.012.64.032a6.541,6.541,0,0,0,5.9-6.509v-32.5c-11.626-.377-20.931-9.489-20.931-20.683S433.187,3020.17,444.813,3019.793Z" transform="translate(-39.79 -33.792)" fill="#ffa400"/>
    <path id="Path_33671" data-name="Path 33671" d="M358.778,3124.967c.411-.73.951-.952,2.191-1.553s1.344-2.919.024-2.088a24.547,24.547,0,0,1-5.452,1.943c-.919.313-2.342.993-3.327,1.352a6.685,6.685,0,0,1-.728.136c-1.478.17-2.854.051-3.977,1.058a4.563,4.563,0,0,0,2.74,7.955v0a61.6,61.6,0,0,0,7.831,1.385c3.906.333,7.575-.943,7.372-2.4-.085-.606-2.041-.188-3.266-.029-.837.108-1.379-.185-1.341-.281,0,0,6.311-.959,6.16-2.391-.089-.856-.58-.722-2.233-.341a11.834,11.834,0,0,1-3.637.2c-.076-.051,4.537-.345,6-1.653.876-.785.183-1.533-1.617-1.272s-4.82.415-4.82.415c1.616.094,6.34-.88,6.167-1.993-.24-1.546-2.733-.348-4.851-.2a30.882,30.882,0,0,1-5.131-.268" transform="translate(-43.535 -85.104)" fill="#ffac9c" stroke="#262626" stroke-linecap="round" stroke-miterlimit="10" stroke-width="1"/>
    <path id="Path_33672" data-name="Path 33672" d="M336.017,3123.545l-18.934,1.546-5.567-7.883-7.443,5.257,6.9,9.767a5.478,5.478,0,0,0,5.418,2.231l20.365-1.837" transform="translate(-29.345 -83.771)" fill="#ffac9c" stroke="#262626" stroke-linecap="round" stroke-miterlimit="10" stroke-width="1"/>
    <rect id="Rectangle_8630" data-name="Rectangle 8630" width="8.444" height="4.133" transform="translate(275.004 3038.5) rotate(-35.236)" fill="#e08c80"/>
    <path id="Path_33673" data-name="Path 33673" d="M301.55,3110.562a4.557,4.557,0,1,1,1.1-6.351A4.558,4.558,0,0,1,301.55,3110.562Z" transform="translate(-26.06 -78.716)" fill="#565557" stroke="#262626" stroke-miterlimit="10" stroke-width="1"/>
    <path id="Path_33674" data-name="Path 33674" d="M302.81,3105.2l7.616,10.813-9.919,6.522-5.671-13.06" transform="translate(-26.218 -79.706)" fill="#565557" stroke="#262626" stroke-miterlimit="10" stroke-width="1"/>
    <path id="Path_33676" data-name="Path 33676" d="M358.083,3223.1l-25.565.018-.632-2.282,26.2-.083Z" transform="translate(-38.76 -119.082)" fill="#3c324c"/>
    <path id="Path_33677" data-name="Path 33677" d="M364.171,3246.381H338.457l-.881-2.346h26.6Z" transform="translate(-40.687 -126.961)" fill="#3c324c"/>
    <rect id="Rectangle_8631" data-name="Rectangle 8631" width="26.595" height="2.346" transform="translate(327.646 3134.817) rotate(180)" fill="#3c324c"/>
    <rect id="Rectangle_8632" data-name="Rectangle 8632" width="26.595" height="2.346" transform="translate(331.808 3150.214) rotate(180)" fill="#3c324c"/>
    <rect id="Rectangle_8633" data-name="Rectangle 8633" width="26.595" height="2.346" transform="translate(335.97 3165.612) rotate(180)" fill="#3c324c"/>
    <rect id="Rectangle_8634" data-name="Rectangle 8634" width="26.595" height="2.346" transform="translate(340.132 3181.009) rotate(180)" fill="#3c324c"/>
    <path id="Path_33678" data-name="Path 33678" d="M333.41,3220.842l23.116,93.4-1.75.007-23.154-93.321Z" transform="translate(-38.671 -119.11)" fill="#3c324c"/>
    <path id="Path_33679" data-name="Path 33679" d="M370.593,3220.655l25.584,93.521H394.43l-25.539-93.452Z" transform="translate(-51.288 -119.047)" fill="#3c324c"/>
    <path id="Path_33741" data-name="Path 33741" d="M330.575,3223.1l25.565.018.632-2.282-26.2-.083Z" transform="translate(-38.317 -119.082)" fill="#000e1b"/>
    <path id="Path_33742" data-name="Path 33742" d="M324.283,3246.381H350l.881-2.346H324.283Z" transform="translate(-36.187 -126.961)" fill="#000e1b"/>
    <rect id="Rectangle_8635" data-name="Rectangle 8635" width="26.595" height="2.346" transform="translate(283.934 3132.471)" fill="#000e1b"/>
    <rect id="Rectangle_8636" data-name="Rectangle 8636" width="26.595" height="2.346" transform="translate(279.773 3147.868)" fill="#000e1b"/>
    <rect id="Rectangle_8637" data-name="Rectangle 8637" width="26.595" height="2.346" transform="translate(275.611 3163.265)" fill="#000e1b"/>
    <rect id="Rectangle_8638" data-name="Rectangle 8638" width="26.595" height="2.346" transform="translate(271.449 3178.663)" fill="#000e1b"/>
    <path id="Path_33743" data-name="Path 33743" d="M355.905,3220.842l-23.125,93.4,1.756.013,23.157-93.334Z" transform="translate(-39.063 -119.11)" fill="#000e1b"/>
    <path id="Path_33744" data-name="Path 33744" d="M317.493,3220.655l-25.614,93.528h1.747l25.568-93.459Z" transform="translate(-25.218 -119.047)" fill="#000e1b"/>
    <path id="Path_33745" data-name="Path 33745" d="M622.17,3244.015c-.35.52-.317.956-.3,1.985s-1.5,1.877-1.386.717a18.362,18.362,0,0,0-.533-4.293c-.1-.718-.123-1.9-.214-2.675a4.816,4.816,0,0,0-.153-.531c-.383-1.044-.925-1.924-.629-3.012a3.411,3.411,0,0,1,6.232-.842l.148.168a43.489,43.489,0,0,1,3.411,4.6c1.534,2.5,1.914,5.376.874,5.729-.434.146-.812-1.3-1.117-2.171-.208-.6-.587-.86-.638-.8,0,0,1.479,4.536.472,4.917-.6.228-.677-.145-.978-1.377a8.866,8.866,0,0,0-1.087-2.5c-.06-.034,1.293,3.146.909,4.559-.23.848-.963.637-1.392-.653s-1.341-3.359-1.341-3.359c.6,1.048,1.541,4.53.74,4.788-1.113.359-1.15-1.708-1.763-3.172a23.069,23.069,0,0,0-1.9-3.338" transform="translate(-135.908 -123.457)" fill="#ffac9c" stroke="#262626" stroke-linecap="round" stroke-miterlimit="10" stroke-width="1"/>
    <path id="Path_33746" data-name="Path 33746" d="M616.687,3223.306c-2.8-3.511-8.974-15.765-8.974-15.765a9.839,9.839,0,0,0-4.616-4.208l-7.214-3.188-.49,9.506,5.326,2.744,10.522,14.437.166.456" transform="translate(-127.962 -112.104)" fill="#ffac9c" stroke="#262626" stroke-miterlimit="10" stroke-width="1"/>
    <path id="Path_33747" data-name="Path 33747" d="M532.724,3207.371l-11.465,12.875L505.8,3217.46h0s-2.561-11.174-4.333-11.174-.247,16.323-.247,16.323,1.814,1.2,2.688.937l18.212,5.653.014-.056a4.329,4.329,0,0,0,4.045-1.373l13.027-14.629Z" transform="translate(-95.875 -114.183)" fill="#ffac9c" stroke="#262626" stroke-miterlimit="10" stroke-width="1"/>
    <path id="Path_33748" data-name="Path 33748" d="M548.955,3213.308a4.337,4.337,0,1,0-.355-6.124A4.337,4.337,0,0,0,548.955,3213.308Z" transform="translate(-111.75 -113.995)" fill="#2743ab"/>
    <path id="Path_33749" data-name="Path 33749" d="M551.391,3212.129a4.327,4.327,0,0,0,.165-3.8c-.959-2.2-3.145-3.36-5.341-2.4-1.184.517-1.5,1.153-2.756,2.8l-6.953,7.806,8.673,7.241,8.027-10.257Z" transform="translate(-108.028 -113.947)" fill="#4a4a4a" stroke="#262626" stroke-miterlimit="10" stroke-width="1"/>
    <path id="Path_33750" data-name="Path 33750" d="M576.189,3349.529a6.122,6.122,0,0,1-3.522-2.05l-1.836.071a16.8,16.8,0,0,0,.357-4.173l5.879,2.35.4,1.575h0C576.837,3347.295,577.243,3349.62,576.189,3349.529Z" transform="translate(-119.647 -160.59)" fill="#fff" stroke="#262626" stroke-miterlimit="10" stroke-width="1"/>
    <path id="Path_33751" data-name="Path 33751" d="M559.4,3354.335c2.186-1.317,6.112-.914,6.692-4.41.021-.127.039-.244.058-.366l1.836-.071a6.122,6.122,0,0,0,3.522,2.05c1.054.091.648-2.233,1.281-2.227h0l1.674,6.81L557,3356.8S557.211,3355.652,559.4,3354.335Z" transform="translate(-114.965 -162.599)" fill="#2c2d2d" stroke="#262626" stroke-miterlimit="10" stroke-width="1"/>
    <g id="Path_33752" data-name="Path 33752" transform="translate(-121.358 -164.169)" fill="#fff" stroke-miterlimit="10">
      <path d="M 575.2395629882812 3358.40869140625 L 575.3997192382812 3357.7626953125 C 575.6962280273438 3356.566650390625 576.3284301757812 3355.4736328125 577.1798706054688 3354.6845703125 C 577.7767333984375 3354.130615234375 578.4990234375 3353.7109375 579.2684326171875 3353.470947265625 L 579.9173583984375 3353.2685546875 L 579.9173583984375 3353.905029296875 C 579.931396484375 3353.9716796875 579.9664306640625 3354.12353515625 579.9963989257812 3354.248779296875 L 580.1043090820312 3354.70068359375 L 579.6614990234375 3354.841552734375 C 579.0938110351562 3355.02197265625 578.55859375 3355.33544921875 578.1136474609375 3355.748291015625 C 577.4842529296875 3356.33154296875 577.0230102539062 3357.109619140625 576.7794799804688 3357.9990234375 L 576.6827392578125 3358.352294921875 L 576.3167724609375 3358.366455078125 L 575.904541015625 3358.382568359375 L 575.2395629882812 3358.40869140625 Z" stroke="none"/>
      <path d="M 579.4173583984375 3353.9482421875 C 578.724853515625 3354.164306640625 578.0738525390625 3354.537109375 577.5197143554688 3355.05126953125 C 576.7251586914062 3355.78759765625 576.156982421875 3356.7861328125 575.885009765625 3357.883056640625 L 576.2972412109375 3357.866943359375 C 576.5604858398438 3356.905517578125 577.071044921875 3356.03271484375 577.7735595703125 3355.3818359375 C 578.2816162109375 3354.910400390625 578.8762817382812 3354.56640625 579.5100708007812 3354.364990234375 C 579.5100708007812 3354.364990234375 579.4173583984375 3353.976806640625 579.4173583984375 3353.9482421875 M 580.4173583984375 3352.588623046875 L 580.4173583984375 3353.85107421875 C 580.43359375 3353.924072265625 580.4601440429688 3354.0380859375 580.4827270507812 3354.1328125 L 580.6985473632812 3355.03662109375 L 579.8129272460938 3355.318115234375 C 579.3150024414062 3355.476318359375 578.8450317382812 3355.751708984375 578.4537353515625 3356.11474609375 C 577.892578125 3356.634765625 577.4805908203125 3357.331787109375 577.26171875 3358.131103515625 L 577.0682983398438 3358.837646484375 L 574.5941162109375 3358.934326171875 L 574.9144287109375 3357.642333984375 C 575.2387084960938 3356.334228515625 575.9046020507812 3355.1845703125 576.8399658203125 3354.31787109375 C 577.490966796875 3353.7138671875 578.2793579101562 3353.255859375 579.1195068359375 3352.99365234375 L 580.4173583984375 3352.588623046875 Z" stroke="none" fill="#262626"/>
    </g>
    <g id="Path_33753" data-name="Path 33753" transform="translate(-117.429 -162.973)" fill="#fff" stroke-miterlimit="10">
      <path d="M 566.475830078125 3355.572998046875 C 565.526123046875 3355.572998046875 564.620849609375 3355.199951171875 563.9267578125 3354.522705078125 L 563.3344116210938 3353.944580078125 L 564.1217651367188 3353.689208984375 C 564.2723388671875 3353.640380859375 564.4213256835938 3353.59423828125 564.5645751953125 3353.552001953125 L 564.8209228515625 3353.476318359375 L 565.0262451171875 3353.6474609375 C 565.4364624023438 3353.98974609375 565.9507446289062 3354.17822265625 566.474365234375 3354.17822265625 C 566.474365234375 3354.17822265625 566.4744262695312 3354.17822265625 566.4744873046875 3354.17822265625 C 566.7825927734375 3354.17822265625 567.0812377929688 3354.114013671875 567.3621215820312 3353.9873046875 C 568.7796020507812 3353.349853515625 569.5530395507812 3352.19677734375 569.7965698242188 3350.357666015625 L 569.8519897460938 3349.939208984375 L 570.2738647460938 3349.923583984375 L 570.4729614257812 3349.916259765625 L 570.7169799804688 3349.907470703125 L 570.8740844726562 3350.09423828125 C 570.8743286132812 3350.094482421875 570.92822265625 3350.158447265625 571.0208129882812 3350.256591796875 L 571.1865234375 3350.432861328125 L 571.1513671875 3350.672119140625 C 570.8187255859375 3352.935791015625 569.764892578125 3354.436767578125 567.9296875 3355.260498046875 C 567.5122680664062 3355.447998046875 567.0689697265625 3355.55224609375 566.6123046875 3355.5703125 C 566.5664672851562 3355.572265625 566.5210571289062 3355.572998046875 566.475830078125 3355.572998046875 Z" stroke="none"/>
      <path d="M 570.4913330078125 3350.416015625 L 570.292236328125 3350.42333984375 C 570.0276489257812 3352.42138671875 569.1373291015625 3353.7373046875 567.567626953125 3354.443115234375 C 566.6063232421875 3354.8759765625 565.5004272460938 3354.694091796875 564.7059936523438 3354.031494140625 C 564.5611572265625 3354.07421875 564.4175415039062 3354.118896484375 564.2760009765625 3354.164794921875 C 564.9043579101562 3354.778076171875 565.7437133789062 3355.103759765625 566.592529296875 3355.07080078125 C 566.9755859375 3355.0556640625 567.3591918945312 3354.96875 567.7249145507812 3354.804443359375 C 569.395263671875 3354.0546875 570.351806640625 3352.67431640625 570.6566772460938 3350.599365234375 C 570.5514526367188 3350.487548828125 570.4913330078125 3350.416015625 570.4913330078125 3350.416015625 M 570.942626953125 3349.398681640625 L 571.2556762695312 3349.771240234375 C 571.2578735351562 3349.773681640625 571.304931640625 3349.8291015625 571.3849487304688 3349.9140625 L 571.7163696289062 3350.266357421875 L 571.6460571289062 3350.74462890625 C 571.2916259765625 3353.156982421875 570.110107421875 3354.829833984375 568.1343994140625 3355.716796875 C 567.6585693359375 3355.930419921875 567.1529541015625 3356.04931640625 566.6320190429688 3356.070068359375 C 566.579345703125 3356.072021484375 566.5274658203125 3356.072998046875 566.475830078125 3356.072998046875 C 565.3948364257812 3356.072998046875 564.3655395507812 3355.6494140625 563.5775146484375 3354.88037109375 L 562.3928833007812 3353.72412109375 L 563.967529296875 3353.213623046875 C 564.122314453125 3353.163330078125 564.2755737304688 3353.115966796875 564.423095703125 3353.072265625 L 564.9358520507812 3352.921142578125 L 565.346435546875 3353.263427734375 C 565.6670532226562 3353.531005859375 566.067626953125 3353.67822265625 566.4743041992188 3353.67822265625 C 566.711181640625 3353.67822265625 566.9407958984375 3353.62890625 567.1566162109375 3353.531494140625 C 568.4012451171875 3352.971923828125 569.0823364257812 3351.942626953125 569.3009033203125 3350.2919921875 L 569.4117431640625 3349.455078125 L 570.942626953125 3349.398681640625 Z" stroke="none" fill="#262626"/>
    </g>
    <path id="Path_33754" data-name="Path 33754" d="M574.442,3359.605l-.06,1.349-17.443.207.04-.879Z" transform="translate(-114.945 -166.084)" fill="#fff" stroke="#262626" stroke-miterlimit="10" stroke-width="1"/>
    <path id="Path_33755" data-name="Path 33755" d="M629.4,3333.8a6.121,6.121,0,0,1-3.589,1.932l-.9,1.6a16.793,16.793,0,0,0-3.371-2.486l6.234-5.741,1.42.917h0a1.451,1.451,0,0,0,.113,1.714A1.527,1.527,0,0,1,629.4,3333.8Z" transform="translate(-136.814 -155.761)" fill="#fff" stroke="#262626" stroke-miterlimit="10" stroke-width="1"/>
    <path id="Path_33756" data-name="Path 33756" d="M627.181,3346.058c.02-2.553,2.416-5.689-.261-8.011-.1-.085-.189-.162-.282-.241l.9-1.6a6.119,6.119,0,0,0,3.589-1.932,1.527,1.527,0,0,0-.092-2.062,1.451,1.451,0,0,1-.112-1.714h0l5.657,3.652-8.552,15.241S627.161,3348.61,627.181,3346.058Z" transform="translate(-138.539 -156.23)" fill="#262626" stroke="#262626" stroke-miterlimit="10" stroke-width="1"/>
    <g id="Path_33757" data-name="Path 33757" transform="translate(-141.529 -157.161)" fill="#fff" stroke-miterlimit="10">
      <path d="M 637.2418823242188 3340.2451171875 L 636.775146484375 3339.76513671875 C 635.8976440429688 3338.86279296875 635.2919921875 3337.7177734375 635.06982421875 3336.541015625 C 634.8453369140625 3335.353515625 635.0052490234375 3334.1064453125 635.5200805664062 3333.029541015625 L 635.7640380859375 3332.519287109375 L 636.2405395507812 3332.823974609375 L 636.6116943359375 3333.061279296875 L 636.980224609375 3333.296875 L 636.795654296875 3333.693359375 C 636.4234008789062 3334.4931640625 636.310791015625 3335.420654296875 636.478515625 3336.304931640625 C 636.6432495117188 3337.180908203125 637.0693969726562 3338.009033203125 637.7111206054688 3338.70068359375 L 637.9589233398438 3338.9677734375 L 637.780517578125 3339.28564453125 L 637.569580078125 3339.661376953125 L 637.2418823242188 3340.2451171875 Z" stroke="none"/>
      <path d="M 637.1336059570312 3339.41650390625 L 637.3445434570312 3339.040771484375 C 636.6512451171875 3338.29345703125 636.1703491210938 3337.37158203125 635.9873046875 3336.398193359375 C 635.7973022460938 3335.396728515625 635.9268798828125 3334.375 636.3423461914062 3333.482421875 L 635.97119140625 3333.2451171875 C 635.5042114257812 3334.221923828125 635.3529052734375 3335.3466796875 635.5611572265625 3336.4482421875 C 635.7688598632812 3337.54833984375 636.3278198242188 3338.587890625 637.1336059570312 3339.41650390625 M 637.3501586914062 3341.073486328125 L 636.4166870117188 3340.11376953125 C 635.4714965820312 3339.1416015625 634.8187255859375 3337.90576171875 634.5784912109375 3336.6337890625 C 634.3344116210938 3335.3427734375 634.5086059570312 3333.986083984375 635.0689697265625 3332.813720703125 L 635.556884765625 3331.793212890625 L 637.6181640625 3333.111083984375 L 637.2489624023438 3333.904296875 C 636.9205322265625 3334.610107421875 636.8213500976562 3335.429443359375 636.9697875976562 3336.211669921875 C 637.1151123046875 3336.984619140625 637.5084228515625 3337.7470703125 638.07763671875 3338.360595703125 L 638.5732421875 3338.894775390625 L 637.3501586914062 3341.073486328125 Z" stroke="none" fill="#262626"/>
    </g>
    <g id="Path_33758" data-name="Path 33758" transform="translate(-139.16 -159.28)" fill="#fff" stroke-miterlimit="10">
      <path d="M 627.8472290039062 3347.550048828125 L 628.0448608398438 3346.744384765625 C 628.084228515625 3346.583740234375 628.12158203125 3346.43701171875 628.158935546875 3346.295654296875 L 628.2279052734375 3346.03515625 L 628.4835815429688 3345.949462890625 C 629.31689453125 3345.67041015625 629.900634765625 3344.971435546875 630.0070190429688 3344.125 C 630.2037353515625 3342.57080078125 629.6156616210938 3341.29638671875 628.1561889648438 3340.114013671875 L 627.828125 3339.848388671875 L 628.0352172851562 3339.48046875 L 628.0689086914062 3339.42041015625 L 628.0689086914062 3339.1162109375 L 628.5001220703125 3339.05517578125 C 628.5003051757812 3339.05517578125 628.581787109375 3339.043701171875 628.7130126953125 3339.016357421875 L 628.9492797851562 3338.967529296875 L 629.134521484375 3339.1220703125 C 630.9089965820312 3340.601806640625 631.6481323242188 3342.297119140625 631.3941650390625 3344.305419921875 C 631.3358154296875 3344.76318359375 631.1923217773438 3345.198486328125 630.9677734375 3345.599609375 C 630.4812622070312 3346.464599609375 629.6373291015625 3347.101806640625 628.6519165039062 3347.3486328125 L 627.8472290039062 3347.550048828125 Z" stroke="none"/>
      <path d="M 628.8143310546875 3339.506103515625 C 628.662109375 3339.53759765625 628.5689086914062 3339.550537109375 628.5689086914062 3339.550537109375 L 628.5689086914062 3339.551513671875 L 628.470947265625 3339.7255859375 C 630.0545654296875 3341.008544921875 630.7207641601562 3342.468017578125 630.5031127929688 3344.187255859375 C 630.3706665039062 3345.240966796875 629.6318969726562 3346.09228515625 628.642333984375 3346.423583984375 C 628.603271484375 3346.5712890625 628.5662231445312 3346.7177734375 628.5304565429688 3346.863525390625 C 629.3905029296875 3346.648193359375 630.1126708984375 3346.10009765625 630.531494140625 3345.35546875 C 630.719970703125 3345.018798828125 630.8469848632812 3344.643798828125 630.8981323242188 3344.24267578125 C 631.12939453125 3342.4140625 630.4428100585938 3340.864013671875 628.8143310546875 3339.506103515625 M 629.084228515625 3338.42919921875 L 629.4547729492188 3338.738037109375 C 631.3440551757812 3340.3134765625 632.1634521484375 3342.207763671875 631.8902587890625 3344.3681640625 C 631.8236083984375 3344.890380859375 631.6600952148438 3345.38671875 631.404052734375 3345.843994140625 C 630.8499755859375 3346.8291015625 629.8914794921875 3347.5537109375 628.7733154296875 3347.83349609375 L 627.1639404296875 3348.236572265625 L 627.5592651367188 3346.625244140625 C 627.599365234375 3346.461669921875 627.6373901367188 3346.312255859375 627.675537109375 3346.16796875 L 627.8134765625 3345.646484375 L 628.3248901367188 3345.475341796875 C 628.9742431640625 3345.2578125 629.4287109375 3344.716552734375 629.5109252929688 3344.0625 C 629.6838989257812 3342.6962890625 629.1533813476562 3341.5654296875 627.8414306640625 3340.502685546875 L 627.1853637695312 3339.970947265625 L 627.5689086914062 3339.28955078125 L 627.5689086914062 3338.6806640625 L 628.4313354492188 3338.56005859375 C 628.4313354492188 3338.56005859375 628.4313354492188 3338.56005859375 628.4313354492188 3338.56005859375 C 628.4312744140625 3338.56005859375 628.50048828125 3338.5498046875 628.6117553710938 3338.52685546875 L 629.084228515625 3338.42919921875 Z" stroke="none" fill="#262626"/>
    </g>
    <path id="Path_33759" data-name="Path 33759" d="M637.289,3336.018l1.119.756-8.552,15.241-1.118-.757Z" transform="translate(-139.25 -158.099)" fill="#fff" stroke="#262626" stroke-miterlimit="10" stroke-width="1"/>
    <path id="Path_33760" data-name="Path 33760" d="M573.334,3298.463a5.769,5.769,0,1,0,5.39-6.125A5.769,5.769,0,0,0,573.334,3298.463Z" transform="translate(-120.491 -143.309)" fill="#000e1b"/>
    <path id="Path_33761" data-name="Path 33761" d="M571.733,3278.083l-3.139-41.52,10.817-4.44s2.51,2.665,3.145,14.232c.271,4.926-.005,21.024.691,30.994" transform="translate(-118.89 -122.929)" fill="#000e1b" stroke="#262626" stroke-miterlimit="10" stroke-width="1"/>
    <path id="Path_33762" data-name="Path 33762" d="M585.807,3297.331l27.641,20.682-5.524,8.266-31.173-21.9" transform="translate(-121.652 -145.003)" fill="#000e1b" stroke="#262626" stroke-miterlimit="10" stroke-width="1"/>
    <path id="Path_33763" data-name="Path 33763" d="M573.322,3301.049a5.759,5.759,0,0,0,2.268,4.585" transform="translate(-120.491 -146.262)" fill="#000e1b" stroke="#262626" stroke-miterlimit="10" stroke-width="1"/>
    <path id="Path_33764" data-name="Path 33764" d="M556.314,3294.253l13.319,34.995-9.039,4.141-15.05-35Z" transform="translate(-111.087 -143.961)" fill="#000e1b" stroke="#262626" stroke-miterlimit="10" stroke-width="1"/>
    <path id="Path_33765" data-name="Path 33765" d="M556.3,3292.874c-1.142-2.974-4.664-4.946-7.639-3.8a5.769,5.769,0,0,0-3.317,7.454,5.9,5.9,0,0,0,.239.54" transform="translate(-110.89 -142.095)" fill="#000e1b" stroke="#262626" stroke-miterlimit="10" stroke-width="1"/>
    <path id="Path_33766" data-name="Path 33766" d="M546.743,3273.18l25.862-36.971,8.385,3.434s4.689,7.524-4.826,17.3c-3.441,3.534-12.285,12.712-18.287,20.7" transform="translate(-111.493 -124.312)" fill="#000e1b" stroke="#262626" stroke-miterlimit="10" stroke-width="1"/>
    <path id="Path_33767" data-name="Path 33767" d="M608.743,3228.255a.176.176,0,0,1,.011.033l-.062.054Z" transform="translate(-132.464 -121.619)" fill="none"/>
    <path id="Path_33768" data-name="Path 33768" d="M582.3,3225.342l-7.083-21.875-5.921-9.5-18.675,8.192a32.358,32.358,0,0,0,8.078,21.2l4.68,10.463Z" transform="translate(-112.802 -110.011)" fill="#5d5d5e" stroke="#262626" stroke-miterlimit="10" stroke-width="1"/>
    <path id="Path_33769" data-name="Path 33769" d="M562.5,3191.617l2.03,5.161-4.235,1.857-.569-2.158Z" transform="translate(-115.887 -109.217)" fill="#ffac9c"/>
    <path id="Path_33770" data-name="Path 33770" d="M560.214,3198.2a1.662,1.662,0,0,1-.31.135l.229.868a3.577,3.577,0,0,0,1.737-3.433h0A6.129,6.129,0,0,1,560.214,3198.2Z" transform="translate(-115.948 -110.624)" fill="#000e1b"/>
    <path id="Path_33771" data-name="Path 33771" d="M559.869,3191.458a7.032,7.032,0,0,1,.034,1.663c-.105.593-1.32,2.95-2.635,2.726-1.007-.171-1.735-1.409-2.172-2.3a19.043,19.043,0,0,1-1.318-3.241l3.218-2.244,2.561,2.305Z" transform="translate(-113.875 -108.014)" fill="#ffac9c"/>
    <path id="Path_33772" data-name="Path 33772" d="M558.263,3186.328s2.035-1.744,1.564,3.143l.6,1.99-1.25-.742-.964-.745.049,1.049-.2.088-.885-2.166a1.335,1.335,0,0,1-1.3-.962s-3.024,2.524-4.087,1.543l.235-1.138.521.042a2.626,2.626,0,0,1-1.255-1.188l1.123.357a1.541,1.541,0,0,1-.654-.791.938.938,0,0,1,.476-1.153h0a.971.971,0,0,1,.818-.01,2.965,2.965,0,0,0,1.149.222C555.447,3185.881,558.005,3184.274,558.263,3186.328Z" transform="translate(-113.035 -107.073)" fill="#000e1b"/>
    <path id="Path_33773" data-name="Path 33773" d="M561.83,3192.22a.924.924,0,1,0,.475-1.218A.925.925,0,0,0,561.83,3192.22Z" transform="translate(-116.574 -108.982)" fill="#ffac9c"/>
    <path id="Path_33774" data-name="Path 33774" d="M562.909,3201.477l-1.657-1.3-.395,2.085a13.079,13.079,0,0,1-1.061-1.46l.192-1.684,1.121.663,2.745-3.05,1.124,1.8Z" transform="translate(-115.912 -110.95)" fill="#fff"/>
    <path id="Path_33775" data-name="Path 33775" d="M580.486,3193.6c-.041-.012-.081-.024-.122-.034l-.1-.029,0,.005a4.335,4.335,0,0,0-2.986,8.071l11.19,5.766,4.851-10.2Z" transform="translate(-121.032 -109.828)" fill="#5d5d5e" stroke="#262626" stroke-miterlimit="10" stroke-width="1"/>
  </g>
</svg>
