<svg xmlns="http://www.w3.org/2000/svg" xmlns:xlink="http://www.w3.org/1999/xlink" width="375" height="270" viewBox="0 0 375 270">
  <defs>
    <clipPath id="clip-path">
      <path id="Path_34207" data-name="Path 34207" d="M413.241,3590.062l-3.647.929-1.652-.929v-6.8h5.3Z" transform="translate(-407.943 -3583.261)" fill="none"/>
    </clipPath>
  </defs>
  <g id="sms-graphic" transform="translate(-186.331 -3461.764)">
    <path id="Path_32473" data-name="Path 32473" d="M507.536,3640.57c1.774-3.353,3.639-6.651,5.42-9.929,10.548-19.42,13.864-40.255,4.349-60.821-7.982-17.254-23.818-30.024-42.875-32.463-8.2-1.049-16.808-.161-24.136,3.663-15.487,8.08-21.743,26.262-35.005,37.039-12.691,10.313-28.261,9.867-43.407,5.869a40,40,0,0,0-33.892,6.553c-11.082,8.251-12.249,20.813-20.015,31.289-12.1,16.321-40.818,12.686-58.8,17.04-19.265,4.665-34.92,15.711-35.58,37.085-.357,11.562,3.612,23.618,9.122,33.685,8.378,15.309,23.35,26.325,38.721,33.925,11.559,5.715,23.333,11.177,35.715,14.876,13.244,3.958,25.307,3.916,38.936,3.928l31.536.029q34.472.029,68.943.066l24.029.026c1.522,0,8.123,1.052,9.362.019,10.669-8.9,22.854-17.559,25.681-32.356,3.52-18.429-5.542-36.687-6.65-54.923C498.232,3662.683,501.768,3651.473,507.536,3640.57Z" transform="translate(38.408 -31.139)" fill="#d8d2fc"/>
    <path id="Path_34194" data-name="Path 34194" d="M333.406,3812.748c-30.6-35.511-55.64-76.056-51.367-117.912,1.217-11.918,5.03-24.054,14.574-33.756,19.963-20.3,60.744-24.6,92.962-16.236s57.585,26.609,80.677,45.043,45.687,37.98,75.408,50.336c19.258,8.008,40.973,12.741,59.252,21.893,8.959,4.485,17.059,10.581,22.484,17.477,5.255,6.679,7.981,14.6,6.236,22.2-1.474,6.415-6.026,12.29-11.814,17.229-13.981,11.933-33.949,20.646-52.478,28.251q-10.712,4.4-21.86,8.189-5.719,1.945-11.54,3.727c-2.957.9-7.918,3.222-11.108,3.222H391.428C367.684,3849.448,349.351,3831.249,333.406,3812.748Z" transform="translate(-95.232 -130.898)" fill="#ece9fc" opacity="0.7"/>
    <path id="Path_32474" data-name="Path 32474" d="M551.006,3680.9v123.6a11.1,11.1,0,0,1-11.094,11.1H352.539a11.1,11.1,0,0,1-11.1-11.094V3680.9a11.1,11.1,0,0,1,11.1-11.1H539.906a11.094,11.094,0,0,1,11.1,11.088Z" transform="translate(-23.683 -85.255)" fill="#fff"/>
    <path id="Path_32475" data-name="Path 32475" d="M339.313,3695.859h-60.8l60.8,25.83Z" transform="translate(-16.531 -88.217)" fill="#fff"/>
    <rect id="Rectangle_8519" data-name="Rectangle 8519" width="61.321" height="4.626" transform="translate(335.185 3667.298)" fill="#727272" opacity="0.4" style="isolation: isolate"/>
    <rect id="Rectangle_8520" data-name="Rectangle 8520" width="119.278" height="4.626" transform="translate(335.185 3678.04)" fill="#727272" opacity="0.4" style="isolation: isolate"/>
    <rect id="Rectangle_8521" data-name="Rectangle 8521" width="132.338" height="4.626" transform="translate(335.185 3688.781)" fill="#727272" opacity="0.4" style="isolation: isolate"/>
    <rect id="Rectangle_8522" data-name="Rectangle 8522" width="102.301" height="4.626" transform="translate(335.185 3699.522)" fill="#727272" opacity="0.4" style="isolation: isolate"/>
    <rect id="Rectangle_8523" data-name="Rectangle 8523" width="132.338" height="4.626" transform="translate(335.185 3710.263)" fill="#727272" opacity="0.4" style="isolation: isolate"/>
    <circle id="Ellipse_3665" data-name="Ellipse 3665" cx="4.792" cy="4.792" r="4.792" transform="translate(466.938 3597.505)" fill="#727272"/>
    <circle id="Ellipse_3666" data-name="Ellipse 3666" cx="4.792" cy="4.792" r="4.792" transform="translate(486.108 3597.505)" fill="#727272"/>
    <circle id="Ellipse_3667" data-name="Ellipse 3667" cx="4.792" cy="4.792" r="4.792" transform="translate(505.28 3597.505)" fill="#727272"/>
    <path id="Path_32478" data-name="Path 32478" d="M488.684,3530.567H461.415a16.564,16.564,0,0,0-7.2,31.48l-4.839,12.1,16.029-10.454h23.275a16.561,16.561,0,0,0,0-33.122Z" transform="translate(-35.438 -68.802)" fill="#ffa400"/>
    <circle id="Ellipse_3668" data-name="Ellipse 3668" cx="3.085" cy="3.085" r="3.085" transform="translate(448.866 3475.882)" fill="#fff"/>
    <circle id="Ellipse_3669" data-name="Ellipse 3669" cx="3.085" cy="3.085" r="3.085" transform="translate(436.526 3475.882)" fill="#fff"/>
    <circle id="Ellipse_3670" data-name="Ellipse 3670" cx="3.085" cy="3.085" r="3.085" transform="translate(424.187 3475.882)" fill="#fff"/>
    <path id="Path_34195" data-name="Path 34195" d="M378.991,3533.261a8.892,8.892,0,0,0-6.73,1.417c-2.423,1.693-3.923,4.552-6.528,5.95-2.934,1.575-6.648.962-9.635,2.433a7.5,7.5,0,0,0-3.335,10.213,10.086,10.086,0,0,0,4.479,4.129,30.048,30.048,0,0,0,5.841,2.017c4.227,1.142,8.551,2.294,12.918,1.99a10.514,10.514,0,0,0,6.173-2.172c1.863-1.6,2.762-4.017,3.587-6.328.853-2.39,1.718-4.932,1.185-7.412-.347-1.613-1.272-3.082-1.458-4.723a7.644,7.644,0,0,1-.035-1.086,6.175,6.175,0,0,0-5.859-6.437l-.167-.005" transform="translate(-24.874 -69.091)" fill="#000e1b"/>
    <path id="Path_34196" data-name="Path 34196" d="M378.806,3534.46a6.881,6.881,0,0,0-6.2,2.372,17.794,17.794,0,0,1-5.783,5.109c-2.6,1.347-5.912.8-8.564,2.057" transform="translate(-25.595 -69.236)" fill="none" stroke="#082a44" stroke-miterlimit="10" stroke-width="0.5"/>
    <path id="Path_34197" data-name="Path 34197" d="M395.149,3578.753a9.843,9.843,0,1,1,4.2-13.272A9.844,9.844,0,0,1,395.149,3578.753Z" transform="translate(-28.154 -72.168)" fill="#e5f3ff"/>
    <path id="Path_34198" data-name="Path 34198" d="M418.267,3623.268a9.843,9.843,0,1,1,4.2-13.272A9.844,9.844,0,0,1,418.267,3623.268Z" transform="translate(-30.781 -77.228)" fill="#ffac9c"/>
    <rect id="Rectangle_8651" data-name="Rectangle 8651" width="44.458" height="19.687" transform="translate(371.195 3493.313) rotate(62.556)" fill="#e5f3ff"/>
    <path id="Path_34199" data-name="Path 34199" d="M418.267,3623.268a9.843,9.843,0,1,1,4.2-13.272A9.844,9.844,0,0,1,418.267,3623.268Z" transform="translate(-30.781 -77.228)" fill="#ffac9c"/>
    <rect id="Rectangle_8652" data-name="Rectangle 8652" width="44.458" height="19.687" transform="translate(371.195 3493.313) rotate(62.556)" fill="#e5f3ff"/>
    <path id="Path_34200" data-name="Path 34200" d="M389.4,3601.921l23.122-11.086-13.167-25.354a9.838,9.838,0,0,0-18.3,6.836l-.011,0,.065.232c.025.094.051.188.08.28Z" transform="translate(-28.155 -72.168)" fill="#464646" stroke="#262626" stroke-miterlimit="10" stroke-width="1"/>
    <path id="Path_34201" data-name="Path 34201" d="M434.638,3572.754c1.441-3.691-1.052-16.18-4.744-17.621s-5.4,10.124-6.845,13.816l-18.014,35.333a9.841,9.841,0,1,0,17.865,8.183h0l0,0a9.977,9.977,0,0,0,.343-1.069Z" transform="translate(-30.781 -71.581)" fill="#ffac9c" stroke="#262626" stroke-miterlimit="10" stroke-width="1"/>
    <path id="Path_34202" data-name="Path 34202" d="M387.506,3560.174H358.47l-5.894,44.919a5.681,5.681,0,0,0,5.634,6.42h41.883a4.46,4.46,0,0,0,4.183-6.007Z" transform="translate(-24.944 -72.168)" fill="#565557" stroke="#262626" stroke-miterlimit="10" stroke-width="1"/>
    <rect id="Rectangle_8653" data-name="Rectangle 8653" width="41.883" height="10.373" transform="translate(333.265 3539.133)" fill="#565557" stroke="#262626" stroke-miterlimit="10" stroke-width="1"/>
    <path id="Path_32485" data-name="Path 32485" d="M436.573,3581.09l-.837-.841h0a.85.85,0,0,0-.65-.281H412.108a1.257,1.257,0,0,0-1.19,1.016l-4.959,29.079c-.113.966,1.081,1.627,1.081,1.627l.337-.609h22.4a1.254,1.254,0,0,0,1.19-1.016l4.917-28.834.485.342Z" transform="translate(-31.016 -74.417)"/>
    <path id="Path_32486" data-name="Path 32486" d="M407.1,3611.951l-.185-.1c-.053-.03-1.316-.743-1.189-1.836l4.963-29.088a1.459,1.459,0,0,1,1.4-1.193H435.06a1.079,1.079,0,0,1,.673.223h.005l.06.062a.354.354,0,0,1,.043.042l.955.959-.355.854-.425-.3-4.867,28.505a1.475,1.475,0,0,1-1.4,1.193H407.475Zm4.985-31.8a1.04,1.04,0,0,0-.982.842l-4.964,29.077c-.069.6.5,1.081.8,1.292l.289-.522h22.526a1.037,1.037,0,0,0,.982-.841l4.974-29.16.543.383.046-.109-.614-.62-.009.006-.123-.137a.647.647,0,0,0-.492-.21Z" transform="translate(-30.989 -74.391)" fill="#fff"/>
    <path id="Path_32487" data-name="Path 32487" d="M431.885,3610.982a1.254,1.254,0,0,1-1.19,1.017H407.717a.835.835,0,0,1-.862-.806.884.884,0,0,1,.019-.21l4.959-29.078a1.256,1.256,0,0,1,1.19-1.016H436a.834.834,0,0,1,.863.8.8.8,0,0,1-.02.211Z" transform="translate(-31.119 -74.522)" fill="#232528"/>
    <path id="Path_32488" data-name="Path 32488" d="M430.667,3612.184H407.692a1.06,1.06,0,0,1-.825-.368,1.085,1.085,0,0,1-.226-.9l4.959-29.077a1.477,1.477,0,0,1,1.4-1.193h22.977a1.058,1.058,0,0,1,.825.368,1.078,1.078,0,0,1,.226.9l-4.959,29.078A1.478,1.478,0,0,1,430.667,3612.184ZM413,3581.073a1.039,1.039,0,0,0-.982.841l-4.959,29.079a.664.664,0,0,0,.132.552.642.642,0,0,0,.5.218h22.977a1.041,1.041,0,0,0,.982-.841l4.958-29.078a.66.66,0,0,0-.132-.552.64.64,0,0,0-.5-.218Z" transform="translate(-31.092 -74.495)" fill="#fff"/>
    <path id="Path_34203" data-name="Path 34203" d="M389.5,3606.779a7.175,7.175,0,1,1,9.033,4.624A7.176,7.176,0,0,1,389.5,3606.779Z" transform="translate(-29.106 -76.399)" fill="#ffac9c" stroke="#262626" stroke-miterlimit="10" stroke-width="1"/>
    <path id="Path_34204" data-name="Path 34204" d="M405.819,3592.072c.252-1.356.976-1.99,2.588-3.586s.541-5.262-1.073-3.266-5.652,4.735-7.462,5.927c-1.265.976-3.121,2.794-4.465,3.877a10.77,10.77,0,0,1-1.061.6c-2.81,1.335-5.614,1.856-6.382,5.917a7.608,7.608,0,0,0,2.415,7.246,7.508,7.508,0,0,0,6.835,1.539l0,.008a101.365,101.365,0,0,0,12.94-2.009c6.265-1.559,11.3-5.5,10.212-7.66-.455-.9-3.28.791-5.1,1.691-1.248.616-2.249.447-2.241.276,0,0,9.324-4.852,8.328-7-.595-1.286-1.288-.816-3.662.657a19.526,19.526,0,0,1-5.56,2.25c-.145-.039,6.887-2.951,8.464-5.766.948-1.69-.531-2.486-3.2-1.122s-7.29,3.212-7.29,3.212c2.568-.715,9.411-4.745,8.55-6.387-1.2-2.28-4.443.912-7.665,2.27a50.851,50.851,0,0,1-8.138,2.313" transform="translate(-28.955 -74.949)" fill="#ffac9c" stroke="#262626" stroke-linecap="round" stroke-miterlimit="10" stroke-width="1"/>
    <path id="Path_34205" data-name="Path 34205" d="M387.121,3597.908c-5.623,3.292-25.237,6.721-25.237,6.721l.087-.514-19.308-3.9L340.3,3614.2l-.393,2.692a9.567,9.567,0,0,0,12.5,10.456h0a9.721,9.721,0,0,0,1.051-.412l39.161-15.353.607.119" transform="translate(-23.498 -76.457)" fill="#ffac9c" stroke="#262626" stroke-miterlimit="10" stroke-width="1"/>
    <path id="Path_34206" data-name="Path 34206" d="M358.283,3560.313a9.837,9.837,0,0,0-10.657,5.783l-.012,0-.087.225c-.037.089-.072.18-.105.271l-10.966,28.165,25.135,5.075,4.759-28.17A9.842,9.842,0,0,0,358.283,3560.313Z" transform="translate(-23.117 -72.168)" fill="#565557" stroke="#262626" stroke-miterlimit="10" stroke-width="1"/>
    <g id="Group_26649" data-name="Group 26649" transform="translate(376.7 3508.469)" clip-path="url(#clip-path)">
      <g id="Group_25619" data-name="Group 25619" transform="translate(-1.977 -3.128)">
        <g id="Group_25617" data-name="Group 25617">
          <path id="Path_32485-2" data-name="Path 32485" d="M436.573,3581.09l-.837-.841h0a.85.85,0,0,0-.65-.281H412.108a1.257,1.257,0,0,0-1.19,1.016l-4.959,29.079c-.113.966,1.081,1.627,1.081,1.627l.337-.609h22.4a1.254,1.254,0,0,0,1.19-1.016l4.917-28.834.485.342Z" transform="translate(-405.74 -3579.758)" fill="#fff"/>
          <path id="Path_32486-2" data-name="Path 32486" d="M407.1,3611.951l-.185-.1c-.053-.03-1.316-.743-1.189-1.836l4.963-29.088a1.459,1.459,0,0,1,1.4-1.193H435.06a1.079,1.079,0,0,1,.673.223h.005l.06.062a.354.354,0,0,1,.043.042l.955.959-.355.854-.425-.3-4.867,28.505a1.475,1.475,0,0,1-1.4,1.193H407.475Zm4.985-31.8a1.04,1.04,0,0,0-.982.842l-4.964,29.077c-.069.6.5,1.081.8,1.292l.289-.522h22.526a1.037,1.037,0,0,0,.982-.841l4.974-29.16.543.383.046-.109-.614-.62-.009.006-.123-.137a.647.647,0,0,0-.492-.21Z" transform="translate(-405.713 -3579.731)" fill="#fff"/>
        </g>
        <g id="Group_25618" data-name="Group 25618" transform="translate(0.804 0.814)">
          <path id="Path_32487-2" data-name="Path 32487" d="M431.885,3610.982a1.254,1.254,0,0,1-1.19,1.017H407.717a.835.835,0,0,1-.862-.806.884.884,0,0,1,.019-.21l4.959-29.078a1.256,1.256,0,0,1,1.19-1.016H436a.834.834,0,0,1,.863.8.8.8,0,0,1-.02.211Z" transform="translate(-406.647 -3580.677)" fill="#1d2a3f"/>
          <path id="Path_32488-2" data-name="Path 32488" d="M430.667,3612.184H407.692a1.06,1.06,0,0,1-.825-.368,1.085,1.085,0,0,1-.226-.9l4.959-29.077a1.477,1.477,0,0,1,1.4-1.193h22.977a1.058,1.058,0,0,1,.825.368,1.078,1.078,0,0,1,.226.9l-4.959,29.078A1.478,1.478,0,0,1,430.667,3612.184ZM413,3581.073a1.039,1.039,0,0,0-.982.841l-4.959,29.079a.664.664,0,0,0,.132.552.642.642,0,0,0,.5.218h22.977a1.041,1.041,0,0,0,.982-.841l4.958-29.078a.66.66,0,0,0-.132-.552.64.64,0,0,0-.5-.218Z" transform="translate(-406.62 -3580.649)" fill="#fff"/>
        </g>
      </g>
    </g>
    <path id="Path_34208" data-name="Path 34208" d="M380.112,3560.916a3.162,3.162,0,0,1-3.1-2.523l-2.721-13.195a6.328,6.328,0,0,1,4.857-7.253l5.359-1.195a.494.494,0,0,1,.564.275,32.221,32.221,0,0,1,2.031,8.343c.628,5.914-2.549,8.612-4.83,8.829l.843,2.573a3.163,3.163,0,0,1-3.006,4.146Z" transform="translate(-27.407 -69.504)" fill="#ffac9c"/>
    <path id="Path_34209" data-name="Path 34209" d="M387.183,3546.627c.521,4.9-2.113,7.137-4,7.318" transform="translate(-28.428 -70.628)" fill="none" stroke="#f9eae8" stroke-linecap="round" stroke-miterlimit="10" stroke-width="0.25"/>
    <path id="Path_34210" data-name="Path 34210" d="M382.817,3556.314a15.028,15.028,0,0,1-4.7-.845s1.417,1.962,5.164,2.4Z" transform="translate(-27.853 -71.633)" fill="#262626"/>
    <path id="Path_34211" data-name="Path 34211" d="M401.116,3629.718l-30.782,6.217-7.876,6.317s-.985,7.741,6.269,15.708c8.33,9.148,34.634,9.645,60.786,6.684a30.391,30.391,0,0,0,6.79-19.855c-.406-10.567-.374-16.851-.374-16.851Z" transform="translate(-26.067 -80.497)" fill="#ddd" stroke="#262626" stroke-miterlimit="10" stroke-width="1"/>
    <path id="Path_34212" data-name="Path 34212" d="M448.442,3644.313c.212,9.362-8.333,20.63-10.265,20.673s1.012-10.737.8-20.1,3.653-17.4,5.584-17.447S448.231,3634.951,448.442,3644.313Z" transform="translate(-34.604 -80.44)" fill="#262626"/>
    <path id="Path_34213" data-name="Path 34213" d="M445.364,3627.44a1.117,1.117,0,0,0-.782.472l1.554-.073A1.084,1.084,0,0,0,445.364,3627.44Z" transform="translate(-35.407 -80.44)" fill="#262626"/>
    <path id="Path_34214" data-name="Path 34214" d="M444.124,3627.774l-1.554.073c-1.51,1.777-2.515,8.52-2.333,16.56.125,5.524-2.756,17.887-2.756,17.887l5.549-1.878-16.147,60.925,26.04,13.1,23.131-90.583a13.624,13.624,0,0,0-13.875-16.979Z" transform="translate(-33.396 -80.374)" fill="#e8968b" stroke="#262626" stroke-miterlimit="10" stroke-width="1"/>
    <path id="Rectangle_8654" data-name="Rectangle 8654" d="M19.416,0h5.541a0,0,0,0,1,0,0V47.858a0,0,0,0,1,0,0H0a0,0,0,0,1,0,0V19.416A19.416,19.416,0,0,1,19.416,0Z" transform="matrix(-0.437, 0.9, -0.9, -0.437, 437.031, 3659.876)" fill="#111010" stroke="#262626" stroke-miterlimit="10" stroke-width="1"/>
    <rect id="Rectangle_8655" data-name="Rectangle 8655" width="3.749" height="47.858" transform="matrix(-0.437, 0.9, -0.9, -0.437, 427.771, 3678.957)"/>
    <circle id="Ellipse_3783" data-name="Ellipse 3783" cx="1.062" cy="1.062" r="1.062" transform="translate(423.485 3658.772)" fill="#fff"/>
    <circle id="Ellipse_3784" data-name="Ellipse 3784" cx="1.062" cy="1.062" r="1.062" transform="translate(420.702 3656.065)" fill="#fff"/>
    <circle id="Ellipse_3785" data-name="Ellipse 3785" cx="1.062" cy="1.062" r="1.062" transform="translate(425.363 3662.453)" fill="#fff"/>
    <circle id="Ellipse_3786" data-name="Ellipse 3786" cx="1.062" cy="1.062" r="1.062" transform="translate(426.54 3666.446)" fill="#fff"/>
    <path id="Path_34215" data-name="Path 34215" d="M367.989,3629.234h0l-9.38.19s-2.388,16.587,2.142,26.361c5.809,12.533,46.452,11.965,73.1,12.658,0,0,1-4.336,2.959-15.945,1.761-10.427,3.076-16.574,3.076-16.574S388.894,3629.368,367.989,3629.234Z" transform="translate(-25.564 -80.644)" fill="#fff" stroke="#262626" stroke-miterlimit="10" stroke-width="1"/>
    <ellipse id="Ellipse_3787" data-name="Ellipse 3787" cx="16.956" cy="3.499" rx="16.956" ry="3.499" transform="matrix(0.182, -0.983, 0.983, 0.182, 404.891, 3587.579)" fill="#262626"/>
    <path id="Path_34216" data-name="Path 34216" d="M451.218,3636.4a1.114,1.114,0,0,0-.862.3l1.536.246A1.083,1.083,0,0,0,451.218,3636.4Z" transform="translate(-36.064 -81.458)" fill="#262626"/>
    <path id="Path_34217" data-name="Path 34217" d="M449.522,3636.744c-1.841,1.431-4.2,7.828-5.666,15.734a52.2,52.2,0,0,0-.663,13.548l16.176,2.954,11.81,85.289,28.873-4-14.068-96.547a17.377,17.377,0,0,0-15.389-14.778Z" transform="translate(-35.23 -81.497)" fill="#ffac9c" stroke="#262626" stroke-miterlimit="10" stroke-width="1"/>
    <path id="Rectangle_8656" data-name="Rectangle 8656" d="M19.416,0h5.541a0,0,0,0,1,0,0V47.858a0,0,0,0,1,0,0H0a0,0,0,0,1,0,0V19.416A19.416,19.416,0,0,1,19.416,0Z" transform="matrix(0.151, 0.988, -0.988, 0.151, 482.531, 3663.624)" fill="#1c191a" stroke="#262626" stroke-miterlimit="10" stroke-width="1"/>
    <rect id="Rectangle_8657" data-name="Rectangle 8657" width="3.749" height="47.858" transform="matrix(0.151, 0.988, -0.988, 0.151, 485.739, 3684.588)" fill="#210101"/>
    <circle id="Ellipse_3788" data-name="Ellipse 3788" cx="1.062" cy="1.062" r="1.062" transform="translate(471.167 3669.613)" fill="#fff"/>
    <circle id="Ellipse_3789" data-name="Ellipse 3789" cx="1.062" cy="1.062" r="1.062" transform="translate(467.34 3668.964)" fill="#fff"/>
    <circle id="Ellipse_3790" data-name="Ellipse 3790" cx="1.062" cy="1.062" r="1.062" transform="translate(474.803 3671.577)" fill="#fff"/>
    <circle id="Ellipse_3791" data-name="Ellipse 3791" cx="1.062" cy="1.062" r="1.062" transform="translate(478.039 3674.197)" fill="#fff"/>
    <path id="Path_34218" data-name="Path 34218" d="M436.662,3571.9s-.451.9,1.039-1.6,1.248-9.233,1.361-10.443,2.476-2.067,2.476-2.067a8.688,8.688,0,0,0,1.08-.284,41.789,41.789,0,0,0-.991-5.86c-.536-2.2-4.94-3.577-4.94-3.577,1.142-1.191,3.047-1.618,5.47-3.008,3.121-1.791.265-3.206-2.664-2.517a16.013,16.013,0,0,0-12.487,12.238,43.933,43.933,0,0,0-1.089,9.965,19.627,19.627,0,0,1-.484,3.06" transform="translate(-33.231 -70.144)" fill="#ffac9c" stroke="#262626" stroke-miterlimit="10" stroke-width="1"/>
    <path id="Path_34219" data-name="Path 34219" d="M438.169,3548.838c-.237.035,8.694-1.354,9.368,1.077.494,1.782-2.066,2.291-2.066,2.291s2.793.282,2.828,1.992c.032,1.558-1.923,1.823-1.923,1.823s1.665.462,1.406,1.969c-.31,1.812-5.5,1.091-7.4,2.654" transform="translate(-34.678 -70.838)" fill="#ffac9c" stroke="#262626" stroke-miterlimit="10" stroke-width="1"/>
    <path id="Path_34220" data-name="Path 34220" d="M445.4,3552.685c-.735,0-5.646.187-7.874,1.258" transform="translate(-34.605 -71.317)" fill="#ffac9c" stroke="#262626" stroke-linecap="round" stroke-miterlimit="10" stroke-width="1"/>
    <path id="Path_34221" data-name="Path 34221" d="M446.512,3557.04a37.65,37.65,0,0,0-6.576.615" transform="translate(-34.879 -71.811)" fill="#ffac9c" stroke="#262626" stroke-linecap="round" stroke-miterlimit="10" stroke-width="1"/>
    <path id="Path_34222" data-name="Path 34222" d="M439.978,3547.268a16.322,16.322,0,0,0-4.1,3.2" transform="translate(-34.418 -70.701)" fill="#ffac9c" stroke="#262626" stroke-linecap="round" stroke-miterlimit="10" stroke-width="1"/>
    <path id="Path_34223" data-name="Path 34223" d="M427.944,3552.612c1.5-4.048,2.5-4.858,1.95-8.944-.363-2.682,1.195-4.064,2.826-1.77,2.667,3.752,1.834,9.381.983,11.248,0,0,3.067,2.945,2.636,6.33" transform="translate(-33.516 -69.959)" fill="#ffac9c" stroke="#262626" stroke-linecap="round" stroke-miterlimit="10" stroke-width="1"/>
  </g>
</svg>
