<svg xmlns="http://www.w3.org/2000/svg" width="50" height="50" viewBox="0 0 50 50">
  <g id="sms" transform="translate(-0.496 -0.021)">
    <g id="Rectangle_5116" data-name="Rectangle 5116" transform="translate(0.496 0.021)" fill="#3d345a" stroke="#d5d5d5" stroke-width="1">
      <rect width="50" height="50" rx="25" stroke="none"/>
      <rect x="0.5" y="0.5" width="49" height="49" rx="24.5" fill="none"/>
    </g>
    <path id="Path_34325" data-name="Path 34325" d="M44.379,59H29.41a2.47,2.47,0,0,0-2.464,2.466v9.709a1.645,1.645,0,0,0,.012.242l.007.063-2.105,4.3a.153.153,0,0,0,.2.2L29.8,73.646H44.379a2.471,2.471,0,0,0,2.463-2.471V61.466A2.471,2.471,0,0,0,44.379,59ZM31.484,67.34A1.019,1.019,0,1,1,32.5,66.321,1.018,1.018,0,0,1,31.484,67.34Zm5.41,0a1.019,1.019,0,1,1,1.016-1.019A1.018,1.018,0,0,1,36.894,67.34Zm5.411,0a1.019,1.019,0,1,1,1.016-1.019A1.018,1.018,0,0,1,42.305,67.34Z" transform="translate(-10.346 -41.979)" fill="#fff"/>
  </g>
</svg>
