<svg xmlns="http://www.w3.org/2000/svg" width="375" height="270.504" viewBox="0 0 375 270.504">
  <g id="unexpected-error" transform="translate(11.443 -164.849)">
    <path id="Path_32473" data-name="Path 32473" d="M508.875,3641.059c1.782-3.368,3.656-6.683,5.445-9.976,10.6-19.511,13.929-40.445,4.37-61.108-8.02-17.336-23.931-30.166-43.078-32.616-8.236-1.054-16.887-.162-24.25,3.68-15.56,8.118-21.846,26.386-35.171,37.213-12.751,10.362-28.394,9.913-43.612,5.9a40.19,40.19,0,0,0-34.052,6.584c-11.134,8.29-12.307,20.911-20.109,31.436-12.158,16.4-41.01,12.745-59.076,17.121-19.356,4.687-35.085,15.785-35.748,37.26-.359,11.617,3.629,23.73,9.165,33.844,8.417,15.381,23.46,26.449,38.9,34.085,11.613,5.742,23.443,11.229,35.883,14.946,13.307,3.977,25.427,3.934,39.119,3.947l31.685.029q34.634.03,69.269.066l24.143.027c1.529,0,8.162,1.057,9.406.019,10.72-8.937,22.962-17.642,25.8-32.509,3.537-18.516-5.568-36.86-6.681-55.182C499.527,3663.276,503.081,3652.013,508.875,3641.059Z" transform="translate(-160.779 -3329.575)" fill="#d8d2fc"/>
    <path id="Path_34413" data-name="Path 34413" d="M4.4-66.7H-10.508l-1.641-73.354H6.118ZM-12.649-44.33a9.154,9.154,0,0,1,2.64-6.718A9.685,9.685,0,0,1-2.8-53.714,9.685,9.685,0,0,1,4.4-51.048a9.154,9.154,0,0,1,2.64,6.718,8.988,8.988,0,0,1-2.569,6.539q-2.569,2.63-7.278,2.63t-7.278-2.63A8.988,8.988,0,0,1-12.649-44.33Z" transform="translate(258.217 304.904)" fill="#ffa400"/>
    <path id="Path_34194" data-name="Path 34194" d="M332.439,3809.539c-30.03-34.848-54.6-74.636-50.408-115.711,1.194-11.7,4.936-23.605,14.3-33.126,19.59-19.917,59.61-24.141,91.227-15.933s56.51,26.112,79.171,44.2,44.834,37.271,74,49.4c18.9,7.858,40.208,12.5,58.146,21.484,8.792,4.4,16.74,10.383,22.064,17.151,5.157,6.554,7.832,14.325,6.12,21.783-1.447,6.295-5.914,12.06-11.593,16.907-13.72,11.71-33.315,20.261-51.5,27.724q-10.512,4.315-21.452,8.036-5.613,1.908-11.325,3.657c-2.9.887-7.77,3.162-10.9,3.162H389.377C366.076,3845.553,348.085,3827.694,332.439,3809.539Z" transform="translate(-293.006 -3424.127)" fill="#ece9fc" opacity="0.7"/>
    <path id="Path_33980" data-name="Path 33980" d="M30.166,55.977l9.213,71.568L18.121,144.038,1.508,52.559a5.181,5.181,0,0,0-.012-.727A179.706,179.706,0,0,1,.043,27.347C.434,14.731,5.882,3.473,10.462,4.667c1.907.5-.157,6.595-1.123,10.452-.662,2.639.077,4.481.4,4.4,0,0,5.418-19.823,9.943-18.808,2.7.605,2.09,2.124.257,7.268a38.156,38.156,0,0,0-2,11.554c.136.262,2.8-14.379,7.52-18.555,2.839-2.508,4.972-.012,3.466,5.646S25.8,21.88,25.8,21.88c.306-5.2,5.181-19.946,8.672-18.977,4.854,1.345.1,8.868-1.169,15.585A63.557,63.557,0,0,0,32.323,29.3s1.75-.329,1.952-.439c2.828-1.545,4.138-3.112,7.093-7.511S53.2,17.8,49.334,22.38,40.951,37.427,39.006,42.1A66.14,66.14,0,0,1,32.068,53.04C31.549,53.675,30.223,55.053,30.166,55.977Z" transform="matrix(0.469, 0.883, -0.883, 0.469, 209.845, 215.824)" fill="#fca391" stroke="#262626" stroke-miterlimit="10" stroke-width="1"/>
    <path id="Path_33981" data-name="Path 33981" d="M96.2,44.854,54.707,50.077h0L42.988,51.43,97.7,29.547S91.1,17.639,93.981,0C78.465,5.131,62.487,10.342,26.528,26.245,12.051,33.653,2.215,38.75.961,57.173-1.57,67.3.852,83.679,8.771,90.494s16.471,5.525,24.717,4.6,26.479-4.42,26.479-4.42l44.988-5.639Z" transform="matrix(0.966, -0.259, 0.259, 0.966, 72.247, 266.503)" fill="#5d5d5d" stroke="#262626" stroke-miterlimit="10" stroke-width="1"/>
    <path id="Path_34005" data-name="Path 34005" d="M530.6,1687.814a1.371,1.371,0,0,1,.1.119l-.167.328Z" transform="translate(-260.902 -1324.209)" fill="none"/>
    <path id="Path_34006" data-name="Path 34006" d="M558.791,1784.244l11.333-111.708-10.8-38.157-88.352-.15s-22.568,43.968-4.981,100.087l.369,50.633Z" transform="translate(-295.327 -1350.101)" fill="#3d3d3d" stroke="#262626" stroke-miterlimit="10" stroke-width="1"/>
    <path id="Path_34008" data-name="Path 34008" d="M509.672,1617.768l-1.82,24.788a8.729,8.729,0,0,1-8.706,8.091h-1.655a8.731,8.731,0,0,1-8.619-10.126l1.345-8.307Z" transform="translate(-281.087 -1358.055)" fill="#ffae9d"/>
    <path id="Path_34009" data-name="Path 34009" d="M490.888,1629.236c-.564.053-1.068,1.175-1.163,1.828l-.6,3.841c9.749-.627,12.861-10.594,12.861-10.594h0C499.823,1626.727,493.452,1629,490.888,1629.236Z" transform="translate(-280.911 -1354.893)" fill="#000615"/>
    <path id="Path_34010" data-name="Path 34010" d="M507.39,1625.851a30.524,30.524,0,0,1-2.759,6.65c-1.448,2.167-13.936,8.5-16.765,6.624-2.425-1.61-2.858-9-3.045-13.285a82.471,82.471,0,0,1,.412-15.144l16.665-3.3,6.148,13.595Z" transform="translate(-283.062 -1363.068)" fill="#ffae9d"/>
    <path id="Path_34011" data-name="Path 34011" d="M480.773,1606.845c.395-2.241,2.263-3.835,4.022-5.026a13.505,13.505,0,0,1,12.374-1.462c2.952,1.142,5.479,3.294,8.177,5.043s5.817,3.139,8.89,2.514l-2.575,2.692a21.143,21.143,0,0,0,4.444,3.239l-2.256,1.141a27.334,27.334,0,0,1-1.025,6.728c-.114.4,0,1.981-.292,2.25-.329.3-1.1-.274-1.548-.3-2.272-.113-4.051,2.033-4.577,4.478q-.069-3.145.123-6.287a4.343,4.343,0,0,1-2.722-2.593,5.094,5.094,0,0,1,.145-3.978c-1.32-.039-2.361-1.182-3.359-2.139s-1.893-.747-3.1-.168a9.046,9.046,0,0,1-5.617,1.059c-1.292-.044-2.391.743-3.592,1.271a4.9,4.9,0,0,1-4.014-.28C483.506,1614.519,479.665,1613.13,480.773,1606.845Z" transform="translate(-285.042 -1366.893)" fill="#3f3333"/>
    <path id="Path_34012" data-name="Path 34012" d="M498.257,1619.723a4,4,0,1,0,4-4A4,4,0,0,0,498.257,1619.723Z" transform="translate(-276.498 -1359.044)" fill="#ffae9d"/>
    <path id="Path_34007" data-name="Path 34007" d="M490.8,1634.393c-3.855,4.058-13.344,13.714-16.136,42.847s8.691,87.876,8.067,106.422h22.438s1.287-38.769,0-62.96,15.005-56.959,16.069-70.628-2.065-15.763-2.065-15.763a20.991,20.991,0,0,0-3.765.083c-1.888,3.334-5.824,8.629-10.773,8.629s-7.784-3.538-9.022-8.629C492.957,1634.353,490.8,1634.393,490.8,1634.393Z" transform="translate(-288.11 -1350.086)" fill="#e5f3ff" stroke="#262626" stroke-miterlimit="10" stroke-width="1"/>
    <path id="Path_34018" data-name="Path 34018" d="M472.3,1730.814a14.163,14.163,0,0,0-22.018-6.423l0,0h0c-9.163,2.876-28.371,14.373-27.884,16.774.239,1.168,4.656.19,9.125-1.12-.81.775-1.612,1.553-2.4,2.327H471.4A14.127,14.127,0,0,0,472.3,1730.814Z" transform="translate(-313.158 -1307.974)" fill="#ffac9c" stroke="#262626" stroke-linecap="round" stroke-miterlimit="10" stroke-width="1"/>
    <path id="Path_34019" data-name="Path 34019" d="M514.527,1690.01a19.45,19.45,0,1,0-3.482,27.285A19.451,19.451,0,0,0,514.527,1690.01Z" transform="translate(-285.467 -1326.797)" fill="#ffac9c"/>
    <path id="Path_34020" data-name="Path 34020" d="M488.692,1719.49a19.45,19.45,0,1,0-5.578-26.935A19.449,19.449,0,0,0,488.692,1719.49Z" transform="translate(-285.358 -1326.16)" fill="#ffac9c"/>
    <rect id="Rectangle_8643" data-name="Rectangle 8643" width="87.847" height="38.9" transform="matrix(-0.549, 0.836, -0.836, -0.549, 278.5, 314.33)" fill="#ffac9c"/>
    <path id="Path_34021" data-name="Path 34021" d="M583.94,1661.88a19.434,19.434,0,0,0-8.163-25.165c-8.978-5.025-20.369-1.829-26.018,6.771l-30.695,46.725-13.218,19.577-64.655,56.683s4.19,12.413,11.581,17.16l13.32.135,58.194-37.692a67.37,67.37,0,0,0,21.306-22.156l7.557-12.73L581.392,1666a19.693,19.693,0,0,0,1.179-1.611,19.431,19.431,0,0,0,1.3-2.357l.087-.14Z" transform="translate(-304.071 -1350.057)" fill="#5d5d5d" stroke="#262626" stroke-miterlimit="10" stroke-width="1"/>
    <path id="Path_34022" data-name="Path 34022" d="M496.005,1623.338c-.129-.875-2.266-1.832-6.151-2.664-.168.119-1.032.308-1.359,0a9.76,9.76,0,0,0-3.674,2.3c-.534.684-.114,3.758.5,6.057s1.23,4.24,3.917,4.337,6.894-1.425,7.184-2.492S496.134,1624.211,496.005,1623.338Zm-3.192,6.234c-2.685.328-2.794-3.032-2.794-3.032a3.942,3.942,0,0,1-1.7.071,15.083,15.083,0,0,1-.568,3.147c-.258.141-.748,0-1.121-.863s-1.074-3.968-.746-4.272,2.456-.743,3.244-1.213c.42.374,2.054.42,3.035.467s2.848,1.237,2.965,1.89S495.5,1629.245,492.813,1629.571Z" transform="translate(-283.107 -1356.027)" fill="#3f3333"/>
  </g>
</svg>
